<svg width="263" height="319" viewBox="0 0 263 319" fill="none" xmlns="http://www.w3.org/2000/svg">
<path d="M53.5281 113.7L54.5481 112.226L49.3423 109.268C49.2467 109.21 49.1478 109.156 49.0489 109.101H49.0455C44.4639 106.601 37.7877 107.211 30.3576 111.503C16.5447 119.472 5.34497 137.136 5.34497 150.949C5.34497 156.749 7.31678 160.945 10.6293 163.275C11.1205 163.619 11.6425 163.926 12.1917 164.189L16.7153 166.833L17.7148 165.393C21.4265 165.431 25.7454 164.182 30.3576 161.521C44.1705 153.545 55.3703 135.881 55.3703 122.068C55.3703 118.732 54.7153 115.924 53.5315 113.7H53.5281Z" fill="#FF9D4D"/>
<path d="M42.8435 108.023C45.1018 108.023 47.1214 108.501 48.851 109.445L48.8715 109.456C48.9602 109.507 49.0489 109.555 49.141 109.609L53.9682 112.352L53.1972 113.468L53.0573 113.669L53.1733 113.884C54.3639 116.115 54.9643 118.868 54.9643 122.064C54.9643 135.727 43.8328 153.272 30.1529 161.17C25.8238 163.67 21.5766 164.99 17.8649 164.99H17.7114H17.4999L17.3805 165.164L16.5925 166.3L12.3896 163.844L12.3759 163.837L12.3623 163.831C11.8335 163.578 11.3286 163.281 10.8579 162.95L10.834 162.933C8.05706 160.968 6.34111 157.683 5.87374 153.433C5.85669 153.276 5.83963 153.115 5.82598 152.952C5.76799 152.31 5.7407 151.635 5.7407 150.949C5.7407 149.775 5.82257 148.547 5.98973 147.295C6.00679 147.155 6.02726 147.016 6.04773 146.876C6.28653 145.225 6.67202 143.505 7.19056 141.762C7.22808 141.632 7.26902 141.503 7.30655 141.373C7.78756 139.811 8.38456 138.207 9.08049 136.611C9.13166 136.488 9.18625 136.369 9.24083 136.246C9.90606 134.745 10.6668 133.237 11.5026 131.76C11.5674 131.647 11.6322 131.531 11.6971 131.415C12.5226 129.976 13.4267 128.55 14.3853 127.171C14.4603 127.062 14.5388 126.953 14.6138 126.844C15.5861 125.466 16.63 124.118 17.7114 122.835C17.7967 122.733 17.8854 122.631 17.9741 122.528C19.0999 121.215 20.2871 119.953 21.5015 118.772L21.8017 118.486C23.1015 117.244 24.4558 116.081 25.8272 115.023C25.9398 114.934 26.0558 114.849 26.1718 114.76C27.608 113.676 29.0817 112.693 30.5589 111.84C30.6544 111.786 30.7499 111.731 30.8455 111.677C30.9785 111.602 31.115 111.523 31.248 111.451C33.1686 110.397 35.0722 109.572 36.9042 108.999L36.9622 108.982C37.1361 108.927 37.3101 108.876 37.4841 108.828C39.3502 108.292 41.1548 108.023 42.8401 108.023H42.8435ZM42.8435 107.62C41.1378 107.62 39.3058 107.89 37.3749 108.439C37.201 108.49 37.0236 108.541 36.8462 108.596C34.9938 109.169 33.0561 110.002 31.057 111.097C30.9205 111.172 30.7875 111.247 30.651 111.325C30.5521 111.38 30.4566 111.434 30.3576 111.492C28.8464 112.362 27.3692 113.352 25.933 114.436C25.817 114.522 25.701 114.61 25.5884 114.699C24.1897 115.777 22.8354 116.947 21.5288 118.192C21.4299 118.288 21.3275 118.383 21.2286 118.482C19.9937 119.68 18.8065 120.945 17.6739 122.266C17.5852 122.368 17.4965 122.47 17.4112 122.576C16.3127 123.876 15.2688 125.223 14.2932 126.612C14.2147 126.721 14.1362 126.83 14.0612 126.943C13.0923 128.335 12.1883 129.764 11.3559 131.217C11.2877 131.333 11.2229 131.449 11.1581 131.565C10.3188 133.053 9.55468 134.567 8.87922 136.085C8.82464 136.208 8.77005 136.331 8.71547 136.454C8.01954 138.054 7.41912 139.661 6.92788 141.257C6.88694 141.39 6.846 141.52 6.80848 141.653C6.28994 143.396 5.90103 145.126 5.65541 146.821C5.63494 146.964 5.61447 147.108 5.59742 147.251C5.43026 148.506 5.34497 149.741 5.34497 150.949C5.34497 151.652 5.37226 152.331 5.43026 152.986C5.4439 153.149 5.46096 153.313 5.47802 153.477C5.97267 157.977 7.81826 161.296 10.6259 163.275C11.1171 163.622 11.6391 163.926 12.1849 164.189L16.7085 166.833L17.708 165.39C17.7592 165.39 17.8138 165.39 17.8649 165.39C21.5391 165.39 25.8034 164.141 30.3542 161.518C44.1671 153.542 55.3669 135.877 55.3669 122.064C55.3669 118.728 54.7119 115.92 53.5281 113.693L54.5481 112.219L49.3423 109.261C49.2467 109.203 49.1478 109.149 49.0489 109.094H49.0455C47.2681 108.122 45.1735 107.62 42.8435 107.62Z" fill="#FFE840"/>
<path d="M50.4628 150.749C61.5029 136.071 63.7211 119.109 55.4173 112.863C47.1134 106.617 31.432 113.452 20.3918 128.13C9.35168 142.807 7.13347 159.769 15.4373 166.015C23.7412 172.261 39.4226 165.426 50.4628 150.749Z" fill="#FFD071"/>
<path d="M50.4628 150.749C61.5029 136.071 63.7211 119.109 55.4173 112.863C47.1134 106.617 31.432 113.452 20.3918 128.13C9.35168 142.807 7.13347 159.769 15.4373 166.015C23.7412 172.261 39.4226 165.426 50.4628 150.749Z" fill="#FFE840"/>
<path d="M36.0719 161.289C30.235 164.66 24.746 165.554 20.6181 163.81C16.4903 162.067 14.2183 157.891 14.2183 152.054C14.2183 146.217 16.4903 139.419 20.6181 132.906C24.746 126.397 30.235 120.956 36.0719 117.585C41.9089 114.215 47.3979 113.321 51.5257 115.064C55.6536 116.808 57.9256 120.983 57.9256 126.82C57.9256 132.657 55.6536 139.456 51.5257 145.968C47.3979 152.477 41.9089 157.922 36.0719 161.289ZM36.0719 118.786C24.6845 125.36 15.4225 139.971 15.4225 151.359C15.4225 162.746 24.6845 166.659 36.0719 160.085C47.4593 153.511 56.7213 138.9 56.7213 127.513C56.7213 116.125 47.4559 112.212 36.0719 118.786Z" fill="#FF9D4D"/>
<path d="M37.9209 115.064L37.7196 115.412L30.6477 111.329C30.7842 111.25 30.9206 111.175 31.0537 111.1L37.9175 115.064H37.9209Z" fill="#FFE840"/>
<path d="M31.6746 117.756L31.4733 118.104L25.5886 114.706C25.7046 114.617 25.8172 114.529 25.9332 114.443L31.6746 117.756Z" fill="#FFE840"/>
<path d="M27.325 121.543L27.1237 121.891L21.2288 118.486C21.3277 118.39 21.43 118.292 21.529 118.196L27.325 121.543Z" fill="#FFE840"/>
<path d="M22.9754 125.329L22.7742 125.677L17.4114 122.579C17.5001 122.474 17.5854 122.371 17.6741 122.269L22.972 125.329H22.9754Z" fill="#FFE840"/>
<path d="M20.5191 130.208L20.3179 130.556L14.0613 126.943C14.1363 126.834 14.2148 126.721 14.2933 126.612L20.5191 130.208Z" fill="#FFE840"/>
<path d="M18.9397 135.629L18.7384 135.976L11.1582 131.566C11.223 131.45 11.2878 131.334 11.3561 131.218L18.9397 135.629Z" fill="#FFE840"/>
<path d="M15.8523 140.111L15.651 140.459L8.71558 136.454C8.77016 136.331 8.82474 136.208 8.87932 136.085L15.8523 140.111Z" fill="#FFE840"/>
<path d="M14.6788 145.73L14.4775 146.078L6.80859 141.65C6.84612 141.517 6.88706 141.387 6.92799 141.254L14.6788 145.73Z" fill="#FFE840"/>
<path d="M12.6966 150.885L12.4953 151.233L5.59399 147.248C5.61105 147.105 5.63152 146.961 5.65199 146.818L12.6932 150.885H12.6966Z" fill="#FFE840"/>
<path d="M12.9936 157.353L12.7923 157.701L5.4816 153.477C5.46454 153.317 5.44748 153.153 5.43384 152.986L12.9936 157.353Z" fill="#FFE840"/>
<path d="M43.9283 112.226L43.7271 112.574L36.8462 108.6C37.0236 108.545 37.201 108.491 37.375 108.443L43.9283 112.226Z" fill="#FFE840"/>
<path d="M226.055 12.2472L227.075 10.7734L221.869 7.8157C221.773 7.75771 221.674 7.70312 221.575 7.64854H221.572C216.991 5.14796 210.314 5.7586 202.884 10.0502C189.071 18.0261 177.872 35.6905 177.872 49.5034C177.872 55.3029 179.843 59.499 183.156 61.829C183.647 62.1735 184.169 62.4806 184.718 62.7432L189.242 65.3871L190.241 63.9475C193.953 63.985 198.272 62.7364 202.884 60.0755C216.697 52.0995 227.897 34.4351 227.897 20.6222C227.897 17.2858 227.242 14.4782 226.058 12.254L226.055 12.2472Z" fill="#FF9D4D"/>
<path d="M215.37 6.57394C217.628 6.57394 219.648 7.05154 221.378 7.99651L221.398 8.00674C221.487 8.05791 221.575 8.10567 221.668 8.16025L226.495 10.903L225.724 12.0186L225.584 12.2199L225.7 12.4348C226.89 14.6659 227.491 17.4189 227.491 20.6154C227.491 34.2782 216.359 51.8232 202.68 59.7207C198.35 62.2213 194.103 63.5415 190.392 63.5415H190.238H190.027L189.907 63.7155L189.119 64.8515L184.916 62.3953L184.903 62.3884L184.889 62.3816C184.36 62.1292 183.855 61.8324 183.384 61.5015L183.364 61.4878C180.584 59.5228 178.871 56.2376 178.404 51.987C178.387 51.83 178.37 51.6697 178.356 51.506C178.298 50.8646 178.271 50.1926 178.271 49.5034C178.271 48.3299 178.353 47.1018 178.52 45.8498C178.537 45.7099 178.557 45.5701 178.578 45.4302C178.817 43.7791 179.202 42.0597 179.721 40.3164C179.758 40.1868 179.799 40.0572 179.837 39.9275C180.318 38.3651 180.915 36.7617 181.611 35.1652C181.662 35.0424 181.716 34.923 181.771 34.8002C182.439 33.2991 183.197 31.7913 184.033 30.3141C184.097 30.2015 184.162 30.0856 184.227 29.9696C185.053 28.5299 185.953 27.104 186.915 25.7257C186.99 25.6166 187.069 25.5074 187.144 25.3982C188.116 24.02 189.16 22.6725 190.241 21.3898C190.327 21.2875 190.415 21.1851 190.504 21.0828C191.63 19.7694 192.817 18.5071 194.032 17.3268L194.332 17.0402C195.632 15.7985 196.986 14.6352 198.357 13.5776C198.47 13.4889 198.586 13.4036 198.702 13.3183C200.138 12.2335 201.612 11.251 203.082 10.4016C203.178 10.347 203.277 10.2924 203.375 10.2344C203.509 10.1594 203.645 10.0809 203.778 10.0093C205.699 8.95512 207.599 8.12955 209.434 7.55643L209.492 7.53937C209.666 7.48479 209.84 7.43362 210.014 7.38586C211.88 6.85026 213.685 6.58076 215.37 6.58076V6.57394ZM215.37 6.17139C213.664 6.17139 211.832 6.44089 209.902 6.99013C209.728 7.0413 209.55 7.09247 209.373 7.14706C207.52 7.72018 205.583 8.55257 203.584 9.64764C203.447 9.72269 203.314 9.79774 203.178 9.87621C203.079 9.93079 202.983 9.98537 202.884 10.0434C201.373 10.9133 199.896 11.9026 198.46 12.9874C198.344 13.0727 198.228 13.1614 198.115 13.2501C196.716 14.3281 195.362 15.4983 194.055 16.7434C193.956 16.8389 193.854 16.9345 193.755 17.0334C192.52 18.2308 191.333 19.4965 190.201 20.8167C190.112 20.919 190.023 21.0214 189.938 21.1271C188.839 22.4269 187.795 23.7744 186.82 25.1629C186.741 25.272 186.663 25.3812 186.588 25.4938C185.619 26.8856 184.715 28.315 183.883 29.7683C183.814 29.8843 183.749 30.0003 183.685 30.1163C182.845 31.6036 182.081 33.1183 181.406 34.6364C181.351 34.7592 181.297 34.882 181.242 35.0048C180.546 36.6048 179.946 38.2116 179.454 39.8081C179.414 39.9412 179.376 40.0708 179.335 40.2039C178.817 41.9471 178.428 43.6767 178.182 45.3722C178.162 45.5155 178.141 45.6588 178.124 45.802C177.957 47.0609 177.872 48.2958 177.872 49.5034C177.872 50.2062 177.899 50.8851 177.957 51.5401C177.971 51.7038 177.988 51.8676 178.005 52.0313C178.499 56.531 180.345 59.8503 183.152 61.829C183.644 62.1769 184.166 62.4806 184.712 62.7432L189.235 65.3871L190.235 63.9441C190.286 63.9441 190.34 63.9441 190.392 63.9441C194.066 63.9441 198.33 62.6955 202.881 60.0721C216.694 52.0961 227.893 34.4317 227.893 20.6188C227.893 17.2824 227.238 14.4748 226.055 12.2472L227.075 10.7734L221.869 7.8157C221.773 7.7577 221.674 7.70312 221.575 7.64854H221.572C219.795 6.67628 217.7 6.1748 215.37 6.1748V6.17139Z" fill="#FFE840"/>
<path d="M222.99 49.2975C234.03 34.6201 236.248 17.6583 227.944 11.4122C219.64 5.16617 203.959 12.0012 192.919 26.6786C181.879 41.356 179.66 58.3178 187.964 64.5639C196.268 70.8099 211.949 63.9749 222.99 49.2975Z" fill="#FFD071"/>
<path d="M222.99 49.2975C234.03 34.6201 236.248 17.6583 227.944 11.4122C219.64 5.16617 203.959 12.0012 192.919 26.6786C181.879 41.356 179.66 58.3178 187.964 64.5639C196.268 70.8099 211.949 63.9749 222.99 49.2975Z" fill="#FFE840"/>
<path d="M208.595 59.8366C202.758 63.2071 197.269 64.1009 193.141 62.3576C189.013 60.6144 186.741 56.4388 186.741 50.6018C186.741 44.7649 189.013 37.9659 193.141 31.4534C197.269 24.9444 202.758 19.4998 208.595 16.1327C214.432 12.7622 219.921 11.8684 224.049 13.6116C228.177 15.3549 230.449 19.5305 230.449 25.3674C230.449 31.2044 228.177 38.0034 224.049 44.5158C219.921 51.0248 214.432 56.4695 208.595 59.8366ZM208.595 17.3335C197.208 23.9073 187.946 38.5185 187.946 49.9059C187.946 61.2933 197.208 65.2062 208.595 58.6324C219.982 52.0585 229.245 37.4473 229.245 26.06C229.245 14.6726 219.982 10.7597 208.595 17.3335Z" fill="#FF9D4D"/>
<path d="M210.447 13.615L210.246 13.9629L203.174 9.87945C203.311 9.80098 203.447 9.72593 203.58 9.65088L210.444 13.615H210.447Z" fill="#FFE840"/>
<path d="M204.201 16.3032L204 16.6512L198.115 13.2534C198.231 13.1647 198.344 13.076 198.46 12.9907L204.201 16.3032Z" fill="#FFE840"/>
<path d="M199.851 20.09L199.65 20.438L193.755 17.0334C193.854 16.9379 193.956 16.8389 194.055 16.7434L199.851 20.09Z" fill="#FFE840"/>
<path d="M195.502 23.8765L195.301 24.2244L189.938 21.1268C190.026 21.0211 190.112 20.9187 190.2 20.8164L195.498 23.8765H195.502Z" fill="#FFE840"/>
<path d="M193.042 28.7583L192.841 29.1062L186.584 25.4935C186.66 25.3843 186.738 25.2718 186.816 25.1626L193.042 28.7583Z" fill="#FFE840"/>
<path d="M191.463 34.1756L191.261 34.5236L183.681 30.1126C183.746 29.9966 183.811 29.8806 183.879 29.7646L191.463 34.1756Z" fill="#FFE840"/>
<path d="M188.379 38.6583L188.178 39.0063L181.242 35.0012C181.297 34.8784 181.348 34.7556 181.406 34.6328L188.379 38.6583Z" fill="#FFE840"/>
<path d="M187.205 44.2805L187.004 44.6285L179.335 40.2004C179.373 40.0674 179.414 39.9377 179.455 39.8047L187.205 44.2805Z" fill="#FFE840"/>
<path d="M185.223 49.4319L185.022 49.7799L178.121 45.7953C178.138 45.652 178.158 45.5088 178.179 45.3655L185.22 49.4319H185.223Z" fill="#FFE840"/>
<path d="M185.517 55.903L185.315 56.251L178.005 52.031C177.987 51.8707 177.97 51.707 177.957 51.5398L185.517 55.9064V55.903Z" fill="#FFE840"/>
<path d="M216.455 10.7735L216.254 11.1215L209.373 7.14716C209.55 7.09258 209.728 7.04141 209.902 6.99023L216.455 10.7735Z" fill="#FFE840"/>
<path d="M245.67 173.84L246.694 172.366L241.488 169.408C241.393 169.35 241.294 169.296 241.195 169.241H241.191C236.61 166.741 229.933 167.351 222.503 171.643C208.69 179.619 197.491 197.283 197.491 211.096C197.491 216.896 199.463 221.092 202.775 223.422C203.266 223.766 203.788 224.073 204.337 224.336L208.861 226.98L209.861 225.54C213.572 225.578 217.891 224.329 222.503 221.668C236.316 213.692 247.516 196.028 247.516 182.215C247.516 178.879 246.861 176.071 245.677 173.847L245.67 173.84Z" fill="#FF9D4D"/>
<path d="M234.986 168.167C237.244 168.167 239.264 168.644 240.993 169.589L241.017 169.6C241.106 169.647 241.195 169.698 241.287 169.753L246.114 172.496L245.343 173.611L245.203 173.813L245.319 174.028C246.51 176.259 247.11 179.012 247.11 182.208C247.11 195.871 235.979 213.416 222.299 221.313C217.97 223.814 213.722 225.134 210.011 225.134H209.857H209.646L209.526 225.308L208.738 226.444L204.535 223.988L204.522 223.981L204.508 223.974C203.979 223.722 203.474 223.425 203.004 223.094L202.983 223.081C200.203 221.116 198.49 217.83 198.023 213.58C198.006 213.423 197.989 213.262 197.975 213.099C197.917 212.457 197.89 211.785 197.89 211.096C197.89 209.923 197.972 208.695 198.139 207.443C198.156 207.303 198.176 207.163 198.197 207.023C198.436 205.372 198.821 203.652 199.34 201.909C199.377 201.78 199.418 201.65 199.456 201.52C199.937 199.958 200.534 198.355 201.23 196.758C201.281 196.635 201.335 196.516 201.39 196.393C202.059 194.892 202.816 193.384 203.652 191.907C203.717 191.794 203.781 191.678 203.846 191.562C204.672 190.123 205.572 188.697 206.534 187.319C206.609 187.209 206.688 187.1 206.763 186.991C207.735 185.613 208.779 184.265 209.861 182.983C209.946 182.88 210.035 182.778 210.123 182.676C211.249 181.362 212.436 180.1 213.651 178.92L213.951 178.633C215.251 177.391 216.605 176.228 217.976 175.17C218.089 175.082 218.205 174.996 218.321 174.908C219.757 173.823 221.231 172.84 222.701 171.991C222.797 171.936 222.892 171.882 222.995 171.824C223.128 171.749 223.264 171.67 223.397 171.599C225.318 170.544 227.221 169.719 229.053 169.146L229.111 169.129C229.285 169.074 229.459 169.023 229.633 168.975C231.499 168.44 233.304 168.17 234.989 168.17L234.986 168.167ZM234.986 167.764C233.28 167.764 231.448 168.034 229.517 168.583C229.343 168.634 229.166 168.685 228.989 168.74C227.136 169.313 225.198 170.145 223.199 171.24C223.063 171.315 222.93 171.391 222.793 171.469C222.694 171.524 222.599 171.578 222.5 171.636C220.989 172.509 219.512 173.495 218.075 174.58C217.959 174.665 217.843 174.754 217.731 174.843C216.332 175.921 214.978 177.091 213.671 178.336C213.572 178.432 213.47 178.527 213.371 178.626C212.136 179.824 210.949 181.089 209.816 182.409C209.728 182.512 209.639 182.614 209.554 182.72C208.455 184.02 207.411 185.367 206.436 186.756C206.357 186.865 206.279 186.974 206.204 187.087C205.235 188.478 204.331 189.908 203.498 191.361C203.43 191.477 203.365 191.593 203.3 191.709C202.461 193.196 201.697 194.711 201.022 196.229C200.967 196.352 200.912 196.475 200.858 196.598C200.162 198.198 199.561 199.804 199.07 201.401C199.029 201.534 198.988 201.664 198.951 201.797C198.432 203.54 198.043 205.27 197.798 206.965C197.777 207.108 197.757 207.252 197.74 207.395C197.573 208.654 197.487 209.889 197.487 211.096C197.487 211.799 197.515 212.478 197.573 213.133C197.586 213.297 197.603 213.46 197.62 213.624C198.115 218.124 199.961 221.443 202.768 223.422C203.259 223.77 203.781 224.073 204.327 224.336L208.851 226.98L209.85 225.537C209.902 225.537 209.956 225.537 210.007 225.537C213.681 225.537 217.946 224.288 222.497 221.665C236.309 213.689 247.509 196.025 247.509 182.212C247.509 178.875 246.854 176.068 245.67 173.84L246.69 172.366L241.485 169.408C241.389 169.35 241.29 169.296 241.191 169.241H241.188C239.41 168.269 237.316 167.768 234.986 167.768V167.764Z" fill="#FFE840"/>
<path d="M242.608 210.894C253.648 196.217 255.867 179.255 247.563 173.009C239.259 166.763 223.577 173.598 212.537 188.276C201.497 202.953 199.279 219.915 207.583 226.161C215.887 232.407 231.568 225.572 242.608 210.894Z" fill="#FFD071"/>
<path d="M242.608 210.894C253.648 196.217 255.867 179.255 247.563 173.009C239.259 166.763 223.577 173.598 212.537 188.276C201.497 202.953 199.279 219.915 207.583 226.161C215.887 232.407 231.568 225.572 242.608 210.894Z" fill="#FFE840"/>
<path d="M228.211 221.429C222.374 224.8 216.885 225.694 212.757 223.95C208.629 222.207 206.357 218.032 206.357 212.195C206.357 206.358 208.629 199.559 212.757 193.046C216.885 186.537 222.374 181.093 228.211 177.725C234.048 174.355 239.537 173.461 243.664 175.204C247.792 176.948 250.064 181.123 250.064 186.96C250.064 192.797 247.792 199.596 243.664 206.109C239.537 212.618 234.048 218.062 228.211 221.429ZM228.211 178.926C216.823 185.5 207.561 200.111 207.561 211.499C207.561 222.886 216.823 226.799 228.211 220.225C239.598 213.651 248.86 199.04 248.86 187.653C248.86 176.265 239.598 172.352 228.211 178.926Z" fill="#FF9D4D"/>
<path d="M230.063 175.208L229.862 175.556L222.79 171.472C222.926 171.394 223.063 171.319 223.196 171.244L230.06 175.208H230.063Z" fill="#FFE840"/>
<path d="M223.814 177.896L223.612 178.244L217.728 174.846C217.844 174.758 217.956 174.669 218.072 174.584L223.814 177.896Z" fill="#FFE840"/>
<path d="M219.464 181.683L219.263 182.031L213.368 178.626C213.467 178.531 213.569 178.432 213.668 178.336L219.464 181.683Z" fill="#FFE840"/>
<path d="M215.114 185.47L214.913 185.818L209.55 182.72C209.639 182.614 209.724 182.512 209.813 182.41L215.111 185.47H215.114Z" fill="#FFE840"/>
<path d="M212.658 190.351L212.457 190.699L206.2 187.086C206.275 186.977 206.354 186.865 206.432 186.755L212.658 190.351Z" fill="#FFE840"/>
<path d="M211.079 195.769L210.877 196.117L203.297 191.706C203.362 191.59 203.427 191.474 203.495 191.358L211.079 195.769Z" fill="#FFE840"/>
<path d="M207.995 200.251L207.793 200.599L200.858 196.594C200.912 196.471 200.967 196.348 201.022 196.226L207.995 200.251Z" fill="#FFE840"/>
<path d="M206.821 205.873L206.62 206.221L198.951 201.793C198.988 201.66 199.029 201.531 199.07 201.397L206.821 205.873Z" fill="#FFE840"/>
<path d="M204.839 211.028L204.638 211.376L197.736 207.392C197.753 207.248 197.774 207.105 197.794 206.962L204.836 211.028H204.839Z" fill="#FFE840"/>
<path d="M205.133 217.496L204.931 217.844L197.621 213.624C197.603 213.464 197.586 213.3 197.573 213.133L205.133 217.499V217.496Z" fill="#FFE840"/>
<path d="M236.071 172.37L235.869 172.718L228.989 168.743C229.166 168.689 229.343 168.638 229.517 168.586L236.071 172.37Z" fill="#FFE840"/>
<path d="M130.357 318.331C163.016 318.331 189.491 303.046 189.491 284.19C189.491 265.334 163.016 250.048 130.357 250.048C97.6985 250.048 71.2234 265.334 71.2234 284.19C71.2234 303.046 97.6985 318.331 130.357 318.331Z" fill="#E3DFEA"/>
<path d="M108.79 260.265L105.471 265.949L105.01 272.154L110.799 282.289C111.26 282.989 111.199 283.992 110.666 284.514C106.866 288.218 103.499 288.57 99.0607 285.39L89.9521 272.174L90.7914 267.579L94.2437 263.039L103.847 256.922L108.79 260.268V260.265Z" fill="#1A142D"/>
<path d="M135.635 256.26L134.42 261.593L143.44 270.131C144.272 270.919 144.051 272.301 143.01 272.789C137.63 275.296 131.602 273.717 126.434 270.8L119.359 266.908C117.81 266.034 117.274 264.062 118.165 262.527L122.115 256.26H135.638H135.635Z" fill="#1A142D"/>
<path d="M138.439 94.4965L149.164 128.27L149.4 129.01C149.795 130.255 150.597 131.265 151.61 131.93L183.596 153.013C185.452 154.238 188.003 153.862 189.293 152.054C190.531 150.318 190.217 147.978 188.682 146.616L162.397 124.722L154.827 90.3005C153.807 85.6609 149.151 82.5872 144.532 83.6959C140.052 84.7705 137.241 89.2395 138.237 93.7563C138.292 94.0053 138.364 94.2612 138.439 94.5V94.4965Z" fill="url(#paint0_linear_2271_27358)"/>
<path d="M138.439 94.4965L149.164 128.27L149.4 129.01C149.795 130.255 150.597 131.265 151.61 131.93L183.596 153.013C185.452 154.238 188.003 153.862 189.293 152.054C190.531 150.318 190.217 147.978 188.682 146.616L162.397 124.722L154.827 90.3005C153.807 85.6609 149.151 82.5872 144.532 83.6959C140.052 84.7705 137.241 89.2395 138.237 93.7563C138.292 94.0053 138.364 94.2612 138.439 94.5V94.4965Z" fill="url(#paint1_linear_2271_27358)"/>
<path d="M120.87 256.417L125.499 256.335L137.358 256.127L146.865 212.594L149.745 159.737L127.587 157.076L122.897 156.517L127.652 210.69C125.653 217.37 124.091 224.155 122.982 231.022C121.863 237.879 121.201 244.818 121.003 251.781L120.87 256.421V256.417Z" fill="url(#paint2_linear_2271_27358)"/>
<path d="M120.87 256.417L125.499 256.335L137.358 256.127L146.865 212.594L149.745 159.737L127.587 157.076L122.897 156.517L127.652 210.69C125.653 217.37 124.091 224.155 122.982 231.022C121.863 237.879 121.201 244.818 121.003 251.781L120.87 256.421V256.417Z" fill="url(#paint3_linear_2271_27358)"/>
<path d="M125.499 256.332L137.357 256.124L146.865 212.59L149.744 159.734L127.587 157.073L132.288 210.687C130.289 217.366 128.726 224.152 127.618 231.019C126.499 237.876 125.837 244.815 125.639 251.778L125.492 256.335L125.499 256.332Z" fill="url(#paint4_linear_2271_27358)"/>
<path d="M125.499 256.332L137.357 256.124L146.865 212.59L149.744 159.734L127.587 157.073L132.288 210.687C130.289 217.366 128.726 224.152 127.618 231.019C126.499 237.876 125.837 244.815 125.639 251.778L125.492 256.335L125.499 256.332Z" fill="url(#paint5_linear_2271_27358)"/>
<path d="M91.7942 264.154L108.234 265.553L108.401 265.045L122.115 223.21L130.36 170.913L110.1 166.355L103.98 164.977L103.202 219.355C100.531 225.8 98.293 232.387 96.4917 239.097C94.6905 245.808 93.3225 252.644 92.4117 259.556L91.801 264.154H91.7942Z" fill="url(#paint6_linear_2271_27358)"/>
<path d="M91.7942 264.154L108.234 265.553L108.401 265.045L122.115 223.21L130.36 170.913L110.1 166.355L103.98 164.977L103.202 219.355C100.531 225.8 98.293 232.387 96.4917 239.097C94.6905 245.808 93.3225 252.644 92.4117 259.556L91.801 264.154H91.7942Z" fill="url(#paint7_linear_2271_27358)"/>
<path d="M97.9382 264.154L108.401 265.044L122.115 223.21L130.361 170.913L110.1 166.355L109.343 219.355C106.672 225.799 104.423 232.387 102.619 239.097C100.817 245.807 99.4597 252.644 98.5489 259.555L97.9382 264.154Z" fill="url(#paint8_linear_2271_27358)"/>
<path d="M97.9382 264.154L108.401 265.044L122.115 223.21L130.361 170.913L110.1 166.355L109.343 219.355C106.672 225.799 104.423 232.387 102.619 239.097C100.817 245.807 99.4597 252.644 98.5489 259.555L97.9382 264.154Z" fill="url(#paint9_linear_2271_27358)"/>
<path d="M143.86 187.769L148.24 186.888L151.406 180.939L143.604 179.861L141.032 180.751L137.398 185.07L143.86 187.769Z" fill="#FFD0A6"/>
<path d="M140.053 81.2606L138.681 81.4858L130.613 78.3813L111.997 94.1319C111.059 94.3435 98.8765 102.712 95.1921 111.315C94.6054 112.687 94.4553 114.201 94.7043 115.672C95.6697 121.393 98.6309 138.941 100.783 151.659L100.388 174.86C101.138 179.285 105.416 182.202 109.81 181.277L145.211 173.84C149.072 173.028 151.747 169.491 151.474 165.554L149.291 134.094C148.936 128.99 149.424 126.053 150.164 122.856C151.443 117.35 154.78 114.549 154.387 108.907L154.715 106.253C154.541 103.745 155.923 99.0137 155.967 96.4995C155.991 95.2611 155.865 93.9102 155.646 92.532C154.476 85.1155 147.459 80.0393 140.049 81.2572L140.053 81.2606Z" fill="url(#paint10_linear_2271_27358)"/>
<path d="M140.053 81.2606L138.681 81.4858L130.613 78.3813L111.997 94.1319C111.059 94.3435 98.8765 102.712 95.1921 111.315C94.6054 112.687 94.4553 114.201 94.7043 115.672C95.6697 121.393 98.6309 138.941 100.783 151.659L100.388 174.86C101.138 179.285 105.416 182.202 109.81 181.277L145.211 173.84C149.072 173.028 151.747 169.491 151.474 165.554L149.291 134.094C148.936 128.99 149.424 126.053 150.164 122.856C151.443 117.35 154.78 114.549 154.387 108.907L154.715 106.253C154.541 103.745 155.923 99.0137 155.967 96.4995C155.991 95.2611 155.865 93.9102 155.646 92.532C154.476 85.1155 147.459 80.0393 140.049 81.2572L140.053 81.2606Z" fill="url(#paint11_linear_2271_27358)"/>
<path d="M141.147 63.8653L140.799 74.3998L138.391 85.5382C138.077 86.9812 136.839 88.0388 135.365 88.1206L131.466 88.3321C132.325 90.1061 131.568 92.2417 129.78 93.0809L129.572 93.1798C128.651 93.6096 127.59 93.6233 126.656 93.2173L125.793 92.8421L117.319 89.1816L117.636 85.1493L115.742 80.4006L111.894 64.7523C111.495 63.1216 111.625 61.4091 112.263 59.8569C112.665 58.8744 113.194 57.967 113.822 57.1448C115.838 54.4941 118.898 52.7475 122.303 52.4234L127.539 51.9219C127.918 51.8844 128.3 51.9219 128.665 52.0276L133.629 53.4775C138.214 54.8148 141.311 59.0927 141.151 63.8687L141.147 63.8653Z" fill="#FFD0A6"/>
<path d="M141.073 66.2568C141.073 66.2568 140.482 64.0121 139.346 63.9234C138.21 63.8347 135.15 65.3221 131.04 64.7114C126.929 64.1008 125.523 65.2368 124.653 67.2461C123.783 69.2589 122.702 76.4911 120.515 77.8898C118.328 79.2885 115.531 79.3772 114.436 77.8898C113.344 76.4024 108.33 64.7967 111.127 60.0753C113.924 55.3539 115.265 50.6017 121.474 50.0764C127.683 49.551 138.719 53.1125 140.36 54.5351C141.881 55.8519 143.467 63.804 142.659 65.4654C141.847 67.1267 141.073 66.2534 141.073 66.2534V66.2568Z" fill="#89603E"/>
<path d="M120.222 90.3964C121.119 90.9729 122.064 91.4573 123.05 91.8428C125.312 92.7264 127.403 92.6002 129.375 91.6415C130.61 91.0411 131.309 89.7004 131.138 88.3359L133.448 88.2096L133.67 89.2399C134.113 91.3072 133.427 93.4598 131.868 94.8858C130.941 95.7353 129.699 96.1549 128.45 96.015C126.383 95.7864 123.432 95.2031 121.607 94.8176C120.13 94.5072 118.745 93.8419 117.653 92.8014C117.083 92.2556 116.65 91.6552 116.732 91.123L117.162 87.1521L120.229 90.3964H120.222Z" fill="#414D68"/>
<path d="M95.3318 122.041L103.236 156.581L103.41 157.335C103.7 158.608 104.42 159.679 105.372 160.43L135.621 184.163C137.398 185.558 139.97 185.248 141.366 183.47C142.638 181.85 142.492 179.568 141.11 178.121L114.586 150.287L116.722 154.135L111.99 119.018C111.366 114.382 107.098 111.127 102.462 111.752C97.8256 112.376 94.5711 116.644 95.1954 121.28C95.2295 121.532 95.2772 121.795 95.3318 122.037V122.041Z" fill="url(#paint12_linear_2271_27358)"/>
<path d="M95.3318 122.041L103.236 156.581L103.41 157.335C103.7 158.608 104.42 159.679 105.372 160.43L135.621 184.163C137.398 185.558 139.97 185.248 141.366 183.47C142.638 181.85 142.492 179.568 141.11 178.121L114.586 150.287L116.722 154.135L111.99 119.018C111.366 114.382 107.098 111.127 102.462 111.752C97.8256 112.376 94.5711 116.644 95.1954 121.28C95.2295 121.532 95.2772 121.795 95.3318 122.037V122.041Z" fill="url(#paint13_linear_2271_27358)"/>
<path d="M141.182 179.899L144.017 181.969V183.733C143.744 183.747 143.474 183.665 143.246 183.501L121.269 167.375C120.212 166.597 119.771 165.4 119.891 164.261L120.106 162.292L120.641 162.449C120.969 162.043 121.395 161.702 121.927 161.47L144.286 151.696L141.185 179.899H141.182Z" fill="url(#paint14_linear_2271_27358)"/>
<path d="M141.182 179.899L144.017 181.969V183.733C143.744 183.747 143.474 183.665 143.246 183.501L121.269 167.375C120.212 166.597 119.771 165.4 119.891 164.261L120.106 162.292L120.641 162.449C120.969 162.043 121.395 161.702 121.927 161.47L144.286 151.696L141.185 179.899H141.182Z" fill="url(#paint15_linear_2271_27358)"/>
<path d="M198.647 158.093L198.562 158.891C198.48 159.594 198.033 160.205 197.382 160.491L144.433 183.634C144.296 183.692 144.153 183.727 144.013 183.737V181.973L198.644 158.096L198.647 158.093Z" fill="#414D68"/>
<path d="M198.647 158.093L144.017 181.97L141.182 179.899L144.283 151.697L147.496 150.291L164.485 142.864C168.582 141.073 173.324 141.599 176.93 144.246L196.157 158.359L198.647 158.093Z" fill="#7B5BAA"/>
<path d="M144.017 181.966L198.651 158.086L177.145 142.301C173.539 139.654 168.797 139.128 164.7 140.919L122.142 159.522C119.72 160.58 119.359 163.861 121.487 165.427L144.02 181.966H144.017Z" fill="white"/>
<path d="M141.028 172.23L183.439 153.593L169.937 143.683L127.529 162.32L141.028 172.23Z" fill="#FF758D"/>
<path d="M149.758 136.689C149.147 137.72 148.752 138.883 148.619 140.118L147.5 150.294L144.017 181.969L141.182 179.899L144.283 151.696L145.784 138.047C145.924 136.809 146.319 135.642 146.933 134.608L149.758 136.693V136.689Z" fill="#212838"/>
<path d="M146.937 134.605L149.758 136.686C150.662 135.154 152.033 133.909 153.722 133.172L199.19 113.304C200.217 112.854 201.295 113.048 202.086 113.635L199.251 111.564C198.46 110.981 197.385 110.79 196.358 111.237L150.894 131.105C149.212 131.838 147.844 133.077 146.937 134.605Z" fill="#414D68"/>
<path d="M148.619 140.115L144.399 178.493L195.819 156.022L200.363 114.72L200.377 114.768L202.093 113.638H202.086C201.295 113.055 200.217 112.861 199.19 113.308L153.722 133.176C152.037 133.913 150.662 135.158 149.758 136.69C149.151 137.723 148.755 138.886 148.619 140.115Z" fill="#00CBFC"/>
<path d="M203.246 116.296L198.647 158.093L144.017 181.969L147.5 150.294L148.619 140.118C148.755 138.883 149.147 137.723 149.758 136.689C150.659 135.158 152.03 133.912 153.719 133.176L199.19 113.307C200.217 112.857 201.295 113.052 202.086 113.635C202.086 113.635 202.086 113.638 202.089 113.638C202.871 114.218 203.365 115.187 203.243 116.292L203.246 116.296Z" fill="url(#paint16_linear_2271_27358)"/>
<path d="M203.246 116.296L198.647 158.093L144.017 181.969L147.5 150.294L148.619 140.118C148.755 138.883 149.147 137.723 149.758 136.689C150.659 135.158 152.03 133.912 153.719 133.176L199.19 113.307C200.217 112.857 201.295 113.052 202.086 113.635C202.086 113.635 202.086 113.638 202.089 113.638C202.871 114.218 203.365 115.187 203.243 116.292L203.246 116.296Z" fill="url(#paint17_linear_2271_27358)"/>
<defs>
<linearGradient id="paint0_linear_2271_27358" x1="138.04" y1="118.595" x2="190.061" y2="118.595" gradientUnits="userSpaceOnUse">
<stop stop-color="#6A5EBF"/>
<stop offset="1" stop-color="#6E3AA5"/>
</linearGradient>
<linearGradient id="paint1_linear_2271_27358" x1="138.035" y1="118.597" x2="190.056" y2="118.597" gradientUnits="userSpaceOnUse">
<stop stop-color="#212838"/>
<stop offset="1" stop-color="#5D6F98"/>
</linearGradient>
<linearGradient id="paint2_linear_2271_27358" x1="120.87" y1="206.463" x2="149.748" y2="206.463" gradientUnits="userSpaceOnUse">
<stop stop-color="#2E256B"/>
<stop offset="1" stop-color="#5A3087"/>
</linearGradient>
<linearGradient id="paint3_linear_2271_27358" x1="120.871" y1="206.47" x2="149.745" y2="206.47" gradientUnits="userSpaceOnUse">
<stop stop-color="#292D32"/>
<stop offset="1" stop-color="#212838"/>
</linearGradient>
<linearGradient id="paint4_linear_2271_27358" x1="125.499" y1="206.702" x2="149.748" y2="206.702" gradientUnits="userSpaceOnUse">
<stop stop-color="#6A5EBF"/>
<stop offset="1" stop-color="#6E3AA5"/>
</linearGradient>
<linearGradient id="paint5_linear_2271_27358" x1="125.492" y1="206.704" x2="149.744" y2="206.704" gradientUnits="userSpaceOnUse">
<stop stop-color="#212838"/>
<stop offset="1" stop-color="#5D6F98"/>
</linearGradient>
<linearGradient id="paint6_linear_2271_27358" x1="91.7942" y1="215.262" x2="130.357" y2="215.262" gradientUnits="userSpaceOnUse">
<stop stop-color="#2E256B"/>
<stop offset="1" stop-color="#5A3087"/>
</linearGradient>
<linearGradient id="paint7_linear_2271_27358" x1="91.7949" y1="215.267" x2="130.362" y2="215.267" gradientUnits="userSpaceOnUse">
<stop stop-color="#292D32"/>
<stop offset="1" stop-color="#212838"/>
</linearGradient>
<linearGradient id="paint8_linear_2271_27358" x1="97.9382" y1="215.698" x2="130.357" y2="215.698" gradientUnits="userSpaceOnUse">
<stop stop-color="#6A5EBF"/>
<stop offset="1" stop-color="#6E3AA5"/>
</linearGradient>
<linearGradient id="paint9_linear_2271_27358" x1="97.937" y1="215.699" x2="130.36" y2="215.699" gradientUnits="userSpaceOnUse">
<stop stop-color="#212838"/>
<stop offset="1" stop-color="#5D6F98"/>
</linearGradient>
<linearGradient id="paint10_linear_2271_27358" x1="94.5917" y1="129.914" x2="155.97" y2="129.914" gradientUnits="userSpaceOnUse">
<stop stop-color="#2E256B"/>
<stop offset="1" stop-color="#5A3087"/>
</linearGradient>
<linearGradient id="paint11_linear_2271_27358" x1="94.59" y1="129.916" x2="155.972" y2="129.916" gradientUnits="userSpaceOnUse">
<stop stop-color="#292D32"/>
<stop offset="1" stop-color="#212838"/>
</linearGradient>
<linearGradient id="paint12_linear_2271_27358" x1="95.1169" y1="148.36" x2="142.242" y2="148.36" gradientUnits="userSpaceOnUse">
<stop stop-color="#6A5EBF"/>
<stop offset="1" stop-color="#6E3AA5"/>
</linearGradient>
<linearGradient id="paint13_linear_2271_27358" x1="95.1169" y1="148.355" x2="142.238" y2="148.355" gradientUnits="userSpaceOnUse">
<stop stop-color="#212838"/>
<stop offset="1" stop-color="#5D6F98"/>
</linearGradient>
<linearGradient id="paint14_linear_2271_27358" x1="119.87" y1="167.716" x2="144.283" y2="167.716" gradientUnits="userSpaceOnUse">
<stop stop-color="#483CA6"/>
<stop offset="1" stop-color="#59278F"/>
</linearGradient>
<linearGradient id="paint15_linear_2271_27358" x1="119.872" y1="167.716" x2="144.287" y2="167.716" gradientUnits="userSpaceOnUse">
<stop stop-color="#292D32"/>
<stop offset="1" stop-color="#212838"/>
</linearGradient>
<linearGradient id="paint16_linear_2271_27358" x1="144.017" y1="147.517" x2="203.263" y2="147.517" gradientUnits="userSpaceOnUse">
<stop stop-color="#2E256B"/>
<stop offset="1" stop-color="#5A3087"/>
</linearGradient>
<linearGradient id="paint17_linear_2271_27358" x1="144.018" y1="147.515" x2="203.263" y2="147.515" gradientUnits="userSpaceOnUse">
<stop stop-color="#292D32"/>
<stop offset="1" stop-color="#212838"/>
</linearGradient>
</defs>
</svg>
