<?xml version="1.0" standalone="no"?>
<!DOCTYPE svg PUBLIC "-//W3C//DTD SVG 20010904//EN"
 "http://www.w3.org/TR/2001/REC-SVG-20010904/DTD/svg10.dtd">
<svg version="1.0" xmlns="http://www.w3.org/2000/svg"
 width="425.000000pt" height="107.000000pt" viewBox="0 0 425.000000 107.000000"
 preserveAspectRatio="xMidYMid meet">

<g transform="translate(0.000000,107.000000) scale(0.100000,-0.100000)"
fill="#FFF" stroke="none">
<path d="M473 965 c-231 -62 -382 -290 -344 -518 53 -322 400 -493 685 -339
123 66 223 215 234 347 l5 65 -102 0 -101 0 0 125 0 125 -130 0 -130 0 0 105
0 105 -32 -1 c-18 0 -57 -7 -85 -14z m117 -325 l0 -130 125 0 c123 0 125 0
125 -22 -2 -70 -57 -153 -129 -191 -172 -94 -371 22 -371 218 0 112 68 208
170 240 84 26 80 31 80 -115z"/>
<path d="M1378 803 c-189 -72 -274 -274 -188 -449 119 -242 459 -247 576 -8
21 44 27 70 28 132 l1 77 -142 3 -143 3 0 -66 0 -65 80 0 80 0 -20 -40 c-63
-124 -257 -130 -336 -10 -32 48 -43 128 -25 182 13 40 61 92 105 116 18 9 55
16 87 16 46 1 65 -5 108 -32 l53 -32 44 36 45 37 -28 29 c-72 75 -225 108
-325 71z"/>
<path d="M2480 766 c0 -54 0 -55 -32 -58 -32 -3 -33 -4 -36 -55 l-3 -53 35 0
36 0 0 -157 c0 -170 5 -191 53 -227 21 -16 42 -21 85 -20 80 1 102 15 102 63
l0 39 -45 -6 c-35 -3 -50 0 -65 13 -18 16 -20 31 -20 157 l0 138 66 0 65 0 -3
53 -3 52 -62 3 -63 3 0 54 0 55 -55 0 -55 0 0 -54z"/>
<path d="M3480 760 l0 -61 58 3 57 3 3 58 3 57 -61 0 -60 0 0 -60z"/>
<path d="M2005 704 c-87 -31 -158 -121 -171 -218 -15 -105 63 -234 164 -273
62 -24 145 -22 205 5 38 17 47 18 47 6 0 -10 14 -14 55 -14 l55 0 -2 248 -3
247 -52 3 c-44 3 -53 0 -53 -14 0 -11 -5 -14 -17 -9 -89 37 -161 43 -228 19z
m148 -108 c79 -33 114 -121 78 -200 -25 -58 -69 -86 -136 -86 -67 0 -111 28
-136 86 -56 126 67 253 194 200z"/>
<path d="M2940 711 c-50 -16 -87 -40 -122 -79 -106 -118 -85 -301 45 -389 108
-72 237 -62 329 27 26 25 48 51 48 56 0 6 -21 20 -46 32 l-46 23 -39 -36 c-34
-30 -46 -35 -90 -35 -57 0 -98 18 -128 56 -42 53 -39 54 179 54 l200 0 0 44
c0 93 -57 183 -145 228 -43 22 -144 33 -185 19z m139 -120 c32 -17 71 -58 71
-76 0 -3 -63 -5 -140 -5 -77 0 -140 2 -140 5 0 18 38 59 69 75 47 25 92 25
140 1z"/>
<path d="M3821 703 c-68 -24 -136 -98 -157 -169 -61 -212 142 -400 348 -321
109 42 183 174 160 286 -36 170 -191 260 -351 204z m178 -120 c121 -91 64
-273 -86 -273 -66 0 -111 30 -137 92 -32 77 2 160 79 194 39 18 110 12 144
-13z"/>
<path d="M3480 430 l0 -220 60 0 60 0 0 220 0 220 -60 0 -60 0 0 -220z"/>
<path d="M3300 270 l0 -60 60 0 61 0 -3 58 -3 57 -57 3 -58 3 0 -61z"/>
</g>
</svg>
