<?xml version="1.0" standalone="no"?>
<!DOCTYPE svg PUBLIC "-//W3C//DTD SVG 20010904//EN"
 "http://www.w3.org/TR/2001/REC-SVG-20010904/DTD/svg10.dtd">
<svg version="1.0" xmlns="http://www.w3.org/2000/svg"
 width="1280.000000pt" height="300.000000pt" viewBox="0 0 1280.000000 300.000000"
 preserveAspectRatio="xMidYMid meet">

<g transform="translate(0.000000,300.000000) scale(0.100000,-0.100000)"
fill="#000000" stroke="none">
<path d="M30 1545 l0 -1455 6365 0 6365 0 0 1455 0 1455 -6365 0 -6365 0 0
-1455z m2465 760 c116 -82 212 -152 215 -156 3 -5 16 -118 29 -251 49 -515 71
-745 77 -790 4 -32 2 -48 -5 -48 -10 0 -490 216 -499 224 -4 5 -27 230 -77
766 -19 206 -38 397 -41 424 l-6 49 48 -35 c27 -19 144 -102 259 -183z m8393
171 c129 -46 184 -177 134 -322 -29 -84 -81 -161 -181 -265 l-93 -99 151 0
151 0 0 -60 0 -60 -260 0 -260 0 0 48 c1 44 3 49 52 87 27 22 97 87 155 145
83 84 112 121 144 184 61 122 49 196 -37 232 -54 23 -160 17 -229 -11 -33 -14
-63 -25 -67 -25 -5 0 -8 25 -8 55 0 30 1 55 3 55 1 0 29 11 62 25 49 20 77 25
151 25 55 0 108 -6 132 -14z m702 -216 l0 -229 58 -3 57 -3 3 -52 3 -52 -58
-3 -58 -3 -3 -122 -3 -123 -59 0 -60 0 0 125 0 125 -185 0 -185 0 0 56 0 55
181 230 181 229 64 0 64 0 0 -230z m-3648 -92 l3 -143 133 -3 132 -3 0 -69 0
-70 -135 0 -135 0 0 -342 c0 -325 1 -345 20 -376 28 -45 60 -55 163 -49 l87 4
0 -67 c0 -67 0 -68 -31 -79 -18 -6 -68 -11 -113 -11 -97 0 -163 26 -214 84
-65 75 -65 74 -70 474 l-4 362 -89 0 -89 0 0 70 0 70 90 0 90 0 0 145 0 145
80 0 79 0 3 -142z m-3459 -159 l87 -23 0 -79 c0 -63 -3 -78 -14 -74 -96 37
-155 47 -275 47 -123 0 -130 -1 -189 -31 -78 -38 -117 -86 -143 -171 -18 -58
-20 -88 -17 -205 3 -123 6 -144 29 -193 31 -67 78 -115 138 -144 40 -18 63
-21 186 -20 118 0 150 4 202 22 34 12 67 22 73 22 6 0 10 -30 10 -75 l0 -74
-67 -22 c-96 -30 -311 -38 -402 -14 -86 22 -134 48 -193 103 -92 86 -140 229
-140 422 -1 294 117 474 345 526 88 20 258 12 370 -17z m827 -43 l0 -75 -47
-6 c-84 -10 -285 -45 -294 -51 -5 -3 -9 -198 -9 -435 l0 -429 -80 0 -80 0 0
485 0 484 93 30 c133 42 254 65 375 69 l42 2 0 -74z m1814 59 c165 -35 282
-165 321 -357 31 -158 13 -368 -42 -484 -45 -96 -164 -188 -275 -214 -64 -14
-243 -12 -323 5 -38 8 -72 15 -75 15 -3 0 -4 -90 -2 -200 l3 -200 -80 0 -81 0
0 583 c0 647 0 645 65 730 39 51 145 111 225 126 71 14 189 12 264 -4z m1919
-28 c163 -77 243 -222 255 -465 l7 -122 -336 0 c-185 0 -357 -3 -383 -6 l-48
-7 7 -36 c35 -188 182 -271 431 -241 97 12 149 24 217 54 l37 16 0 -83 0 -83
-47 -17 c-125 -45 -343 -62 -465 -36 -120 25 -235 116 -284 223 -73 160 -73
452 0 610 77 168 211 240 429 231 99 -3 116 -7 180 -38z m-6808 -256 c15 -150
23 -277 18 -281 -4 -4 -190 -137 -413 -296 -223 -158 -445 -316 -493 -351 -49
-36 -91 -62 -94 -60 -2 3 9 146 25 318 22 223 34 315 44 320 7 4 208 148 447
318 239 171 436 310 437 308 1 -1 14 -125 29 -276z m3477 79 c86 -243 207
-570 217 -588 5 -8 40 75 91 215 46 125 111 305 146 398 l62 170 87 3 c81 3
87 1 80 -15 -4 -10 -22 -58 -40 -108 -18 -49 -92 -247 -165 -440 -73 -192
-156 -413 -185 -490 -66 -178 -92 -229 -148 -291 -63 -70 -124 -99 -212 -99
-103 0 -105 2 -105 85 l0 70 59 -6 c51 -6 65 -3 96 16 43 27 114 131 141 206
l18 51 -74 194 c-256 678 -300 799 -300 818 0 8 24 11 81 9 l82 -3 69 -195z
m4106 -54 c100 -140 182 -259 182 -264 0 -4 -59 -91 -131 -193 -71 -101 -153
-219 -182 -261 l-52 -78 -92 0 c-58 0 -93 4 -93 10 0 6 80 124 177 262 97 138
176 256 176 263 0 6 -60 96 -133 200 -74 105 -154 218 -178 253 l-44 62 94 0
94 0 182 -254z m552 248 c0 -13 -320 -464 -329 -464 -8 0 -79 94 -87 115 -4 9
43 83 115 185 l122 170 89 0 c50 0 90 -3 90 -6z m-290 -601 c176 -249 292
-418 297 -429 4 -11 -13 -14 -89 -14 l-95 0 -116 169 c-64 92 -119 175 -123
184 -5 15 71 137 86 137 3 0 21 -21 40 -47z m-7751 -172 c108 -49 230 -105
271 -123 41 -19 204 -93 362 -164 158 -71 287 -132 288 -135 0 -4 -129 -66
-286 -138 l-287 -132 -41 19 c-22 11 -158 72 -301 137 -143 65 -316 143 -385
175 -69 31 -158 72 -197 90 -40 18 -73 36 -73 39 1 6 441 321 449 321 2 0 92
-40 200 -89z"/>
<path d="M11364 2175 c-54 -68 -100 -129 -102 -135 -2 -6 34 -10 102 -10 l106
0 0 135 c0 74 -2 135 -4 135 -2 0 -48 -56 -102 -125z"/>
<path d="M6857 1875 c-21 -8 -52 -24 -69 -36 -55 -40 -58 -59 -58 -387 l0
-299 56 -18 c175 -55 372 -29 439 59 60 79 70 119 70 286 0 120 -4 168 -18
212 -24 79 -71 137 -136 171 -49 24 -65 27 -150 26 -55 0 -112 -6 -134 -14z"/>
<path d="M8740 1881 c-68 -21 -123 -66 -154 -128 -19 -37 -46 -146 -46 -185
l0 -28 301 0 302 0 -7 58 c-9 79 -65 192 -116 232 -23 18 -61 38 -87 46 -49
15 -151 17 -193 5z"/>
</g>
</svg>
