<svg width="327" height="88" viewBox="0 0 327 88" fill="none" xmlns="http://www.w3.org/2000/svg">
<g clip-path="url(#clip0_1086_5112)">
<path d="M48.0796 25.5491L40.869 21.3857C39.6752 20.6951 37.7242 20.6951 36.5304 21.3857L29.3198 25.5491C27.7645 26.4494 27.7577 27.9185 29.313 28.8256L36.5372 33.0432C37.731 33.7404 39.6821 33.7404 40.869 33.0432L48.0933 28.8256C49.6418 27.9185 49.6418 26.4427 48.0864 25.5491H48.0796Z" fill="#4231C8"/>
<path d="M76.2056 20.3975L41.3602 0.514747C40.1664 -0.168998 38.2086 -0.168998 37.0147 0.514747L2.17613 20.3975C0.98233 21.0812 0 22.7601 0 24.1276V63.8796C0 65.2471 0.975509 66.926 2.17613 67.6097L37.0216 87.4925C38.2154 88.1763 40.1732 88.1763 41.367 87.4925L76.2125 67.6097C77.4063 66.926 78.3886 65.2471 78.3886 63.8796V24.1276C78.3886 22.7601 77.4131 21.0812 76.2125 20.3975H76.2056ZM60.6998 29.6247L40.869 41.201C39.6752 41.8982 37.7242 41.8982 36.5372 41.201L23.9579 33.8558C22.3958 32.9419 21.1133 33.6662 21.1133 35.467V57.6176C21.1133 59.3845 19.824 60.1563 18.2481 59.3303L16.1129 58.2133C14.885 57.5702 13.8822 55.9184 13.8822 54.5374V30.4641C13.8822 29.0966 14.8577 27.4177 16.0447 26.7272L36.5304 14.9072C37.7242 14.2167 39.6752 14.2167 40.869 14.9072L60.693 26.3413C62.2484 27.2417 62.2552 28.7108 60.6998 29.6179V29.6247Z" fill="#4231C8"/>
<path d="M119.517 72.1114C119.517 71.7255 119.715 71.5021 120.131 71.5021H121.304C121.638 71.5021 121.945 71.7255 121.945 72.1114V78.2786C121.945 78.475 121.863 78.6645 121.55 78.8608L121.495 78.915C119.762 80.1945 117.545 80.9188 115.11 80.9188C109.202 80.9188 104.441 76.1935 104.441 70.3309C104.441 64.4683 109.23 59.716 115.137 59.716C116.481 59.716 117.77 59.9665 118.971 60.4403C119.926 60.7991 121.829 61.6657 121.829 62.3562C121.829 62.4645 121.802 62.5796 121.747 62.6608L121.133 63.6627C120.99 63.8861 120.826 63.9945 120.656 63.9945C120.513 63.9945 120.322 63.9403 120.124 63.7711C118.753 62.7962 116.986 62.1599 115.164 62.1599C110.321 62.1599 106.876 66.0795 106.876 70.358C106.876 74.9141 110.683 78.502 115.137 78.502C117.068 78.502 118.691 77.8386 119.503 77.2496V72.1114H119.517Z" fill="#4231C8"/>
<path d="M141.128 78.2515C141.462 78.2515 141.742 78.475 141.742 78.8879V79.9981C141.742 80.3299 141.49 80.6074 141.128 80.6074H129.224C128.801 80.6074 128.61 80.4111 128.61 79.9981V60.6028C128.61 60.2711 128.835 59.9935 129.251 59.9935H130.397C130.759 59.9935 131.011 60.2169 131.011 60.6028V78.2448H141.121L141.128 78.2515Z" fill="#4231C8"/>
<path d="M166.628 70.358C166.628 76.1935 161.839 80.9188 155.904 80.9188C149.969 80.9188 145.235 76.1935 145.235 70.3309C145.235 64.4683 150.023 59.716 155.931 59.716C161.839 59.716 166.628 64.4413 166.628 70.358ZM155.931 78.5291C160.468 78.5291 164.165 74.8599 164.165 70.3039C164.165 65.7478 160.468 62.1328 155.931 62.1328C151.395 62.1328 147.67 65.802 147.67 70.3039C147.67 74.8057 151.34 78.5291 155.931 78.5291Z" fill="#4231C8"/>
<path d="M185.578 69.5795C187.373 70.5273 188.573 72.5243 188.573 74.6636C188.573 77.8318 186.111 80.6074 182.802 80.6074H173.593C173.231 80.6074 172.951 80.384 172.951 79.9981V60.657C172.951 60.2102 173.177 59.9935 173.593 59.9935H181.854C185.019 59.9935 187.482 62.2749 187.482 65.3823C187.482 67.0205 186.752 68.5505 185.578 69.5795ZM181.827 62.3562H175.359V68.7468H181.827C183.648 68.7468 185.019 67.2439 185.019 65.3823C185.019 63.5206 183.702 62.3562 181.827 62.3562ZM175.359 71.1095V78.2515H182.782C184.603 78.2515 186.145 76.5862 186.145 74.6704C186.145 72.7545 184.658 71.1162 182.782 71.1162H175.359V71.1095Z" fill="#4231C8"/>
<path d="M195.716 80.0591C195.545 80.445 195.327 80.6142 194.931 80.6142H193.724C193.335 80.6142 193.137 80.472 193.137 80.1674C193.137 79.9711 193.192 79.8086 193.192 79.8086C198.585 66.9506 201.291 60.5125 201.309 60.4945C201.391 60.2982 201.507 59.9935 202.012 59.9935H202.824C203.301 59.9935 203.438 60.2982 203.526 60.4945L211.59 79.8357C211.59 79.8357 211.672 80.0591 211.672 80.1674C211.672 80.472 211.419 80.6142 211.058 80.6142H209.85C209.489 80.6142 209.209 80.3908 209.093 80.0862L207.469 76.1123H197.278L195.709 80.0591H195.716ZM198.294 73.7497H206.501L202.415 63.5815L198.301 73.7497H198.294Z" fill="#4231C8"/>
<path d="M230.097 78.2515C230.431 78.2515 230.711 78.475 230.711 78.8879V79.9981C230.711 80.3299 230.459 80.6074 230.097 80.6074H218.193C217.77 80.6074 217.579 80.4111 217.579 79.9981V60.6028C217.579 60.2711 217.804 59.9935 218.221 59.9935H219.367C219.728 59.9935 219.981 60.2169 219.981 60.6028V78.2448H230.09L230.097 78.2515Z" fill="#4231C8"/>
<path d="M103.997 8.7736C103.997 8.00185 104.461 7.64305 105.082 7.64305H121.693C128.781 7.64305 133.645 13.8577 133.645 20.1265C133.645 26.3953 128.938 32.4542 121.843 32.4542H113.923V44.6262C113.923 45.398 113.507 45.7567 112.736 45.7567H105.075C104.297 45.7567 103.99 45.398 103.99 44.6262V8.7736H103.997ZM113.937 15.76V24.3373H119.524C122.061 24.3373 123.507 22.2319 123.507 20.0723C123.507 17.9128 122.007 15.76 119.524 15.76H113.937Z" fill="#4231C8"/>
<path d="M142.813 8.7736C142.813 8.20494 143.175 7.64305 143.898 7.64305H161.082C168.381 7.64305 173.347 14.0134 173.347 20.4311C173.347 24.5403 170.809 28.548 167.03 30.9581L174.432 44.6194C174.746 45.1339 174.534 45.75 173.811 45.75H164.492C163.769 45.75 163.51 45.5469 163.094 44.6736L156.934 33.0635H152.793V44.6194C152.793 45.3912 152.377 45.75 151.654 45.75H143.891C143.168 45.75 142.806 45.3912 142.806 44.6194V8.7736H142.813ZM152.8 15.5501V24.845H158.544C161.238 24.845 163.149 22.5839 163.149 20.2213C163.149 18.0143 161.232 15.5501 158.544 15.5501H152.8Z" fill="#4231C8"/>
<path d="M201.289 7.08116C212.211 7.08116 221.058 15.8615 221.058 26.7541C221.058 37.6466 212.211 46.3254 201.289 46.3254C190.367 46.3254 181.52 37.5924 181.52 26.7541C181.52 15.9157 190.32 7.08116 201.289 7.08116ZM201.289 36.8681C206.985 36.8681 211.071 32.4 211.071 26.6999C211.071 20.9998 206.985 16.5317 201.289 16.5317C195.593 16.5317 191.507 21.0539 191.507 26.6999C191.507 32.3459 195.593 36.8681 201.289 36.8681Z" fill="#4231C8"/>
<path d="M231.461 8.82776C231.461 8.11016 231.878 7.64305 232.601 7.64305H249.007C255.065 7.64305 260.085 12.524 260.085 18.6845C260.085 21.2503 259.26 23.5113 257.759 25.2579C260.195 27.519 261.798 30.8024 261.798 34.2482C261.798 40.4628 256.62 45.75 250.515 45.75H232.607C231.932 45.75 231.468 45.3912 231.468 44.6736V8.82776H231.461ZM246.265 15.1981H241.503V22.6448H246.162C248.543 22.6448 250.146 21.1013 250.146 18.9485C250.146 16.7958 248.543 15.1981 246.265 15.1981ZM247.561 29.577H241.503V38.1543H247.561C249.839 38.1543 251.545 36.0489 251.545 33.842C251.545 31.7908 249.839 29.577 247.561 29.577Z" fill="#4231C8"/>
<path d="M273.797 8.7736C273.797 8.00185 274.159 7.64305 274.882 7.64305H282.645C283.368 7.64305 283.784 8.00185 283.784 8.7736V44.6262C283.784 45.398 283.368 45.7567 282.645 45.7567H274.882C274.159 45.7567 273.797 45.398 273.797 44.6262V8.7736Z" fill="#4231C8"/>
<path d="M296.67 8.7736C296.67 8.00185 297.032 7.64305 297.81 7.64305H325.861C326.584 7.64305 327 8.00185 327 8.7736V15.2929C327 16.0105 326.584 16.4234 325.861 16.4234H316.699V44.6194C316.699 45.3912 316.283 45.75 315.505 45.75H308.056C307.333 45.75 306.917 45.3912 306.917 44.6194V16.4302H297.81C297.032 16.4302 296.67 16.0172 296.67 15.2996V8.7736Z" fill="#4231C8"/>
</g>
<defs>
<clipPath id="clip0_1086_5112">
<rect width="327" height="88" fill="white"/>
</clipPath>
</defs>
</svg>
