<svg xmlns="http://www.w3.org/2000/svg" width="18" height="18" fill="none" viewBox="0 0 18 18">
  <path stroke="currentColor" stroke-linecap="round" stroke-linejoin="round" stroke-width="1.27" d="M12.72 4.627a6.472 6.472 0 0 1 2.745 4.613m-12.847.038a6.451 6.451 0 0 1 2.7-4.613m.825 11.04c.87.443 1.86.69 2.902.69 1.005 0 1.95-.225 2.798-.637M9.045 5.775a2.085 2.085 0 1 0 0-4.17 2.085 2.085 0 0 0 0 4.17ZM3.623 14.94a2.085 2.085 0 1 0 0-4.17 2.085 2.085 0 0 0 0 4.17Zm10.754 0a2.085 2.085 0 1 0 0-4.17 2.085 2.085 0 0 0 0 4.17Z"/>
</svg>
