<svg xmlns="http://www.w3.org/2000/svg" width="25.996" height="25.996" viewBox="0 0 25.996 25.996"><defs><style>.a{fill:#b9c9d6;}</style></defs><g transform="translate(-0.001)"><g transform="translate(0.001 0)"><g transform="translate(0)"><path class="a" d="M23.525,2.472A8.452,8.452,0,0,0,9.384,10.636L.249,19.771a.845.845,0,0,0-.248.6v4.782A.845.845,0,0,0,.846,26H5.628a.845.845,0,0,0,.6-.248l1.2-1.2a.845.845,0,0,0,.248-.6V22.41H9.214a.845.845,0,0,0,.6-.248l1.2-1.2a.845.845,0,0,0,.248-.6V18.824H12.8a.845.845,0,0,0,.6-.248l1.963-1.963A8.452,8.452,0,0,0,23.525,2.472Zm-1.2,10.759a6.733,6.733,0,0,1-6.941,1.626.845.845,0,0,0-.866.2L12.45,17.133H10.41a.845.845,0,0,0-.845.845v2.041l-.7.7H6.823a.845.845,0,0,0-.845.845v2.041l-.7.7H1.692V20.719l9.245-9.245a.845.845,0,0,0,.2-.866,6.762,6.762,0,1,1,11.19,2.623Z" transform="translate(-0.001 0)"/></g></g><g transform="translate(16.18 3.577)"><path class="a" d="M307.906,77.211a3.122,3.122,0,1,0,0,4.415A3.125,3.125,0,0,0,307.906,77.211Zm-1.1,3.311a1.561,1.561,0,1,1,0-2.207A1.563,1.563,0,0,1,306.8,80.522Z" transform="translate(-302.578 -76.299)"/></g></g></svg>