<svg xmlns="http://www.w3.org/2000/svg" xmlns:xlink="http://www.w3.org/1999/xlink" width="24" height="24" viewBox="0 0 24 24"><defs><style>.a{fill:none;}.b{clip-path:url(#a);}.c{fill:#b9c9d6;}</style><clipPath id="a"><rect class="a" width="24" height="24"/></clipPath></defs><g class="b"><g transform="translate(0 0)"><path class="c" d="M20.484,3.516A12,12,0,1,0,3.516,20.484,12,12,0,0,0,17.6,22.613a.884.884,0,1,0-.826-1.564A10.231,10.231,0,1,1,22.23,12a5.607,5.607,0,0,1-.979,3.551,2.277,2.277,0,0,1-1.756.964c-.89,0-1.79-.708-1.79-2.292V7.333a.885.885,0,1,0-1.77,0v.389a6.072,6.072,0,1,0-4.3,10.352,5.92,5.92,0,0,0,1.741-.256.885.885,0,1,0-.507-1.7,4.36,4.36,0,0,1-1.234.182,4.3,4.3,0,1,1,4.3-4.3v2.223c0,2.666,1.79,4.062,3.561,4.062a4.039,4.039,0,0,0,3.152-1.648A7.477,7.477,0,0,0,24,12,11.915,11.915,0,0,0,20.484,3.516Z" transform="translate(0 0)"/></g></g></svg>