<svg xmlns="http://www.w3.org/2000/svg" width="26" height="25.998" viewBox="0 0 26 25.998"><defs><style>.a{fill:#fff;}</style></defs><g transform="translate(0.002 0.26)"><g transform="translate(0 -0.001)"><path class="a" d="M0,0V8.546H8.546V0ZM6.535,6.535H2.011V2.011H6.535Z"/></g><g transform="translate(3.12 3.902)"><g transform="translate(0 0)"><rect class="a" width="2" height="2" transform="translate(-0.122 -0.162)"/></g></g><g transform="translate(17.193 -0.001)"><path class="a" d="M342,0V8.546h8.546V0Zm6.535,6.535h-4.525V2.011h4.525Z" transform="translate(-342)"/></g><g transform="translate(20.798 3.902)"><g transform="translate(0 0)"><rect class="a" width="2" height="2" transform="translate(0.2 -0.162)"/></g></g><g transform="translate(0 17.192)"><path class="a" d="M0,342v8.546H8.546V342Zm6.535,6.535H2.011v-4.525H6.535Z" transform="translate(0 -342)"/></g><g transform="translate(3.12 20.541)"><g transform="translate(0 0)"><rect class="a" width="2" height="2" transform="translate(-0.122 0.2)"/></g></g><g transform="translate(2.08 9.102)"><g transform="translate(0 0)"><rect class="a" width="2" height="2" transform="translate(-0.082 -0.361)"/></g></g><g transform="translate(4.022 11.913)"><path class="a" d="M82.011,239.011V237H80v2.011h1.961v2.011h2.011v-2.011Z" transform="translate(-80 -237)"/></g><g transform="translate(13.519 3.902)"><g transform="translate(0 0)"><rect class="a" width="3" height="2" transform="translate(0.479 -0.162)"/></g></g><g transform="translate(9.359 1.822)"><g transform="translate(0 0)"><rect class="a" width="2" height="4" transform="translate(-0.361 -0.082)"/></g></g><g transform="translate(11.439 -0.258)"><g transform="translate(0 0)"><rect class="a" width="3" height="2" transform="translate(-0.441 -0.002)"/></g></g><g transform="translate(10.054 5.881)"><path class="a" d="M202.011,117v2.011H200v2.011h4.022V117Z" transform="translate(-200 -117)"/></g><g transform="translate(10.054 11.913)"><path class="a" d="M204.022,242.932v-1.961h-2.011V237H200v4.022h2.011v1.961h2.011v1.961h4.022v-2.011Z" transform="translate(-200 -237)"/></g><g transform="translate(13.519 9.102)"><g transform="translate(0 0)"><rect class="a" width="3" height="5" transform="translate(0.479 -0.361)"/></g></g><g transform="translate(18.098 9.902)"><path class="a" d="M365.631,198.961V197h-3.67v2.011H360v2.011h2.011v1.961h5.63v-4.022Zm0,2.011h-3.62v-1.961h3.62Z" transform="translate(-360 -197)"/></g><g transform="translate(23.918 18.461)"><g transform="translate(0 0)"><rect class="a" width="2" height="3" transform="translate(0.08 0.279)"/></g></g><g transform="translate(16.639 13.261)"><g transform="translate(0 0)"><rect class="a" width="2" height="3" transform="translate(0.359 0.479)"/></g></g><g transform="translate(18.719 19.501)"><g transform="translate(0 0)"><rect class="a" width="1" height="2" transform="translate(0.279 0.239)"/></g></g><g transform="translate(19.758 18.461)"><g transform="translate(0 0)"><rect class="a" width="2" height="1" transform="translate(0.24 0.279)"/></g></g><g transform="translate(20.109 21.867)"><path class="a" d="M400,435v3.871h2.011v-1.86h1.609V435Z" transform="translate(-400 -435)"/></g><g transform="translate(9.359 18.461)"><g transform="translate(0 0)"><rect class="a" width="2" height="3" transform="translate(-0.361 0.279)"/></g></g><g transform="translate(12.065 21.716)"><path class="a" d="M244.022,434.011V432H240v4.022h2.011v-2.011h1.961v2.011h2.011v-2.011Z" transform="translate(-240 -432)"/></g><g transform="translate(6.239 9.102)"><g transform="translate(0 0)"><rect class="a" width="3" height="2" transform="translate(-0.241 -0.361)"/></g></g><g transform="translate(0 11.181)"><g transform="translate(0 0)"><rect class="a" width="2" height="6" transform="translate(-0.002 -0.441)"/></g></g></g></svg>