<svg xmlns="http://www.w3.org/2000/svg" width="22" height="22" viewBox="0 0 22 22"><defs><style>.a{fill:#d9e3ed;}</style></defs><g transform="translate(0 0)"><path class="a" d="M192.1,107.395a2.1,2.1,0,0,0,.116.212c.039.058.1.116.135.174a1.743,1.743,0,0,0,.193.174.651.651,0,0,0,.232.116.956.956,0,0,0,.251.077,1.187,1.187,0,0,0,.251.019,1.1,1.1,0,0,0,.251-.019.69.69,0,0,0,.212-.077h.019a1.439,1.439,0,0,0,.232-.135,1.245,1.245,0,0,0,.174-.154l.019-.019a1.062,1.062,0,0,0,.135-.174.6.6,0,0,0,.1-.193c0-.019,0-.019.019-.039a1.24,1.24,0,0,0,.077-.251,1.644,1.644,0,0,0,0-.5,1.779,1.779,0,0,0-.077-.251,1.094,1.094,0,0,0-.232-.347l-.039-.039a1.681,1.681,0,0,0-.193-.154c-.077-.039-.135-.077-.212-.116a1.089,1.089,0,0,0-.232-.077,1.184,1.184,0,0,0-.251-.019,1.015,1.015,0,0,0-.483.1h-.019a2.1,2.1,0,0,0-.212.116,1.685,1.685,0,0,0-.193.154,1.244,1.244,0,0,0-.154.174,2.1,2.1,0,0,0-.116.212,1.088,1.088,0,0,0-.077.232,1.186,1.186,0,0,0-.019.251,1.1,1.1,0,0,0,.019.251A1.75,1.75,0,0,0,192.1,107.395Z" transform="translate(-182.294 -100.261)"/><path class="a" d="M181.074,186.03h-.444V181.3a.5.5,0,0,0-.5-.5H178.1a.5.5,0,0,0-.5.5v1.042a.5.5,0,0,0,.5.5h.405v3.2H178.1a.5.5,0,0,0-.5.5v1.042a.5.5,0,0,0,.5.5h2.972a.5.5,0,0,0,.5-.5v-1.042A.515.515,0,0,0,181.074,186.03Z" transform="translate(-168.588 -171.517)"/><path class="a" d="M11,0A11,11,0,1,0,22,11,11,11,0,0,0,11,0Zm0,20.552A9.552,9.552,0,1,1,20.552,11,9.561,9.561,0,0,1,11,20.552Z" transform="translate(0 0)"/></g></svg>