<svg xmlns="http://www.w3.org/2000/svg" width="228.703" height="30.58" viewBox="0 0 228.703 30.58"><defs><style>.a{fill:#fff;opacity:0.678;}</style></defs><path class="a" d="M-640.362,15.345l8.8-15.235,8.915,15.235-8.819,15.235ZM-805.81,30.58a12.916,12.916,0,0,0-12.9-12.9,12.916,12.916,0,0,0-12.9,12.9H-834a15.189,15.189,0,0,1,4.478-10.812,15.232,15.232,0,0,1,5.81-3.645A8.835,8.835,0,0,1-827.55,8.84,8.85,8.85,0,0,1-818.71,0a8.85,8.85,0,0,1,8.84,8.84,8.835,8.835,0,0,1-3.839,7.284,15.232,15.232,0,0,1,5.81,3.645A15.19,15.19,0,0,1-803.42,30.58ZM-825.161,8.84a6.457,6.457,0,0,0,6.45,6.45,6.457,6.457,0,0,0,6.45-6.45,6.457,6.457,0,0,0-6.45-6.45A6.457,6.457,0,0,0-825.161,8.84Zm206.4,21.659L-610,15.313-618.758.126h4.707l8.754,15.187L-614.051,30.5Zm-8.69-.016,7.578-13.107h4.723l-7.577,13.107ZM-668.182,15a4,4,0,0,1,4-4,4,4,0,0,1,4,4,4,4,0,0,1-4,4A4,4,0,0,1-668.182,15Zm-29,0a4,4,0,0,1,4-4,4,4,0,0,1,4,4,4,4,0,0,1-4,4A4,4,0,0,1-697.182,15Zm-28,0a4,4,0,0,1,4-4,4,4,0,0,1,4,4,4,4,0,0,1-4,4A4,4,0,0,1-725.182,15Zm-29,0a4,4,0,0,1,4-4,4,4,0,0,1,4,4,4,4,0,0,1-4,4A4,4,0,0,1-754.182,15Zm-29,0a4,4,0,0,1,4-4,4,4,0,0,1,4,4,4,4,0,0,1-4,4A4,4,0,0,1-783.182,15Zm163.44-1.542L-627.448.126h4.724l7.707,13.333Z" transform="translate(834)"/></svg>