<svg xmlns="http://www.w3.org/2000/svg" width="20" height="21" fill="none" viewBox="0 0 20 21">
  <path stroke="currentColor" stroke-linecap="round" stroke-linejoin="round" stroke-width="1.57" d="M7.5 19.075h5c4.167 0 5.834-1.667 5.834-5.833v-5c0-4.167-1.667-5.834-5.834-5.834h-5c-4.166 0-5.833 1.667-5.833 5.834v5c0 4.166 1.667 5.833 5.833 5.833Z"/>
  <path stroke="currentColor" stroke-linecap="round" stroke-linejoin="round" stroke-width="1.57" d="m5 10.117 2.083-1.875 2.084 1.875M7.083 8.242v5M5 14.908a15.791 15.791 0 0 0 10 0m-4.167-3.541 2.083 1.875L15 11.367m-2.084 1.875v-5M15 6.554a15.79 15.79 0 0 0-10 0"/>
</svg>
