<svg xmlns="http://www.w3.org/2000/svg" width="20" height="20" fill="none" viewBox="0 0 20 20">
  <path stroke="currentColor" stroke-linecap="round" stroke-linejoin="round" stroke-width="1.5" d="M15.034 11.292c-.35.341-.55.833-.5 1.358.074.9.9 1.559 1.8 1.559h1.583v.991a3.14 3.14 0 0 1-3.134 3.134H5.217A3.14 3.14 0 0 1 2.084 15.2V9.592a3.14 3.14 0 0 1 3.133-3.134h9.567a3.14 3.14 0 0 1 3.133 3.134v1.2h-1.684c-.466 0-.891.183-1.2.5Z"/>
  <path stroke="currentColor" stroke-linecap="round" stroke-linejoin="round" stroke-width="1.5" d="M2.083 10.342V6.533c0-.991.609-1.875 1.534-2.225l6.616-2.5a1.584 1.584 0 0 1 2.142 1.484v3.166m6.425 5.184v1.716a.856.856 0 0 1-.834.85h-1.634c-.9 0-1.725-.658-1.8-1.558-.05-.525.15-1.017.5-1.358.309-.317.734-.5 1.2-.5h1.734a.856.856 0 0 1 .833.85ZM5.833 10h5.834"/>
</svg>
