<svg xmlns="http://www.w3.org/2000/svg" width="139" height="28" fill="none" viewBox="0 0 139 28">
  <path stroke="#fff" stroke-linecap="round" stroke-linejoin="round" stroke-width="1.716" d="M14.072 13.73a5.721 5.721 0 1 0 0-11.442 5.721 5.721 0 0 0 0 11.442Zm9.829 11.443c0-4.428-4.405-8.01-9.829-8.01s-9.829 3.581-9.829 8.01"/>
  <path fill="#fff" d="M118.111 3.492c-.876 1.526-3.06 5.312-4.695 8.152a109.182 109.182 0 0 0-1.075 1.893c-.015.068 6.624 11.463 6.682 11.463.026 0 .155-.195.35-.535l1.878-3.262c4.227-7.337 4.39-7.622 4.377-7.672a867.501 867.501 0 0 0-3.324-5.734c-2.257-3.87-3.326-5.682-3.355-5.682-.029 0-.3.449-.838 1.377Zm3.864-1.337c0 .023 1.301 2.288 2.889 5.035l2.889 4.997h1.812c1.627 0 1.812-.006 1.812-.043 0-.02-1.301-2.288-2.889-5.035l-2.887-4.994h-1.814c-1.607 0-1.812.005-1.812.04Z"/>
  <path fill="#fff" d="M128.506 2.155c0 .024.509.92 1.127 1.999.622 1.075 2.092 3.625 3.269 5.665l2.136 3.71-.733 1.273c-4.685 8.129-5.799 10.07-5.799 10.106 0 .037.185.04 1.81.034l1.806-.008 1.217-2.109c.669-1.16 2.138-3.712 3.268-5.668 1.214-2.11 2.052-3.586 2.052-3.625 0-.04-.901-1.63-2.257-3.981l-3.266-5.669-1.011-1.753-1.809-.008c-1.61-.005-1.81 0-1.81.034Z"/>
  <path fill="#fff" d="M127.6 15.092c-.018.035-.437.755-.924 1.603l-1.712 2.966-1.804 3.125-1.082 1.877a.855.855 0 0 0-.103.216c0 .04.174.042 1.809.037l1.809-.008.714-1.24 1.949-3.374c.677-1.176 1.628-2.82 2.109-3.657.485-.838.88-1.54.88-1.563 0-.034-.205-.04-1.804-.04h-1.804l-.037.058Z"/>
  <circle cx="104.841" cy="13.5" r="2.5" fill="#fff"/>
  <circle cx="64.841" cy="13.5" r="2.5" fill="#fff"/>
  <circle cx="94.841" cy="13.5" r="2.5" fill="#fff"/>
  <circle cx="54.841" cy="13.5" r="2.5" fill="#fff"/>
  <circle cx="84.841" cy="13.5" r="2.5" fill="#fff"/>
  <circle cx="44.841" cy="13.5" r="2.5" fill="#fff"/>
  <circle cx="74.841" cy="13.5" r="2.5" fill="#fff"/>
  <circle cx="34.841" cy="13.5" r="2.5" fill="#fff"/>
</svg>
