<svg xmlns="http://www.w3.org/2000/svg" width="18" height="19" fill="none" viewBox="0 0 18 19">
  <path fill="#FFF3D2" stroke="#E3A913" stroke-width=".418" d="M17.79 9.37c0 4.745-3.842 8.592-8.58 8.592-4.74 0-8.582-3.847-8.582-8.593S4.47.777 9.209.777c4.74 0 8.582 3.846 8.582 8.592Z"/>
  <path fill="#E3A913" d="M7.697 14.259a.439.439 0 0 1-.34-.142.356.356 0 0 1-.077-.309l.834-3.605-1.59-.712a.351.351 0 0 1-.235-.261.331.331 0 0 1 .104-.332l4.016-4.294c.157-.166.496-.166.652 0a.352.352 0 0 1 .078.308l-.834 3.606 1.59.712c.131.047.21.142.235.26a.332.332 0 0 1-.104.333L8.01 14.117a.472.472 0 0 1-.313.142Z"/>
</svg>
