<svg width="24" height="24" viewBox="0 0 24 24" fill="none" xmlns="http://www.w3.org/2000/svg">
<path d="M22.4202 20.3202L18.2017 10.1023C18.1238 9.91356 17.9917 9.75223 17.822 9.63871C17.6523 9.5252 17.4528 9.4646 17.2486 9.4646C17.0445 9.4646 16.8449 9.5252 16.6752 9.63871C16.5056 9.75223 16.3734 9.91356 16.2955 10.1023L12.0771 20.3202C12.0246 20.4455 11.9974 20.58 11.9971 20.7158C11.9967 20.8517 12.0232 20.9862 12.0751 21.1118C12.1269 21.2374 12.203 21.3515 12.2991 21.4475C12.3951 21.5436 12.5092 21.6197 12.6348 21.6716C12.7603 21.7234 12.8949 21.7499 13.0307 21.7496C13.1666 21.7493 13.301 21.7221 13.4263 21.6697C13.5516 21.6172 13.6653 21.5405 13.7609 21.444C13.8565 21.3475 13.9321 21.233 13.9833 21.1072L14.8425 19.0266H19.6548L20.5139 21.1072C20.5918 21.296 20.724 21.4574 20.8937 21.571C21.0634 21.6845 21.2631 21.7452 21.4673 21.7451C21.6367 21.745 21.8035 21.7032 21.9529 21.6233C22.1024 21.5434 22.2298 21.4279 22.3239 21.287C22.4181 21.1461 22.4761 20.9842 22.4928 20.8156C22.5095 20.647 22.4844 20.4768 22.4197 20.3202H22.4202ZM15.6941 16.9642L17.2488 13.1981L18.8036 16.9642H15.6941Z" fill="currentColor"/>
<path d="M12.5561 16.0702C12.7163 15.8489 12.7822 15.5731 12.7392 15.3033C12.6962 15.0335 12.5479 14.7918 12.3269 14.6312C12.3175 14.6242 11.6238 14.1095 10.6166 13.0034C12.475 10.4873 13.5278 7.62486 13.9571 6.27777H15.4696C15.7431 6.27777 16.0054 6.16913 16.1988 5.97575C16.3922 5.78237 16.5008 5.52008 16.5008 5.2466C16.5008 4.97312 16.3922 4.71083 16.1988 4.51745C16.0054 4.32407 15.7431 4.21543 15.4696 4.21543H10.0326V3.278C10.0326 3.00451 9.92392 2.74223 9.73054 2.54885C9.53715 2.35547 9.27487 2.24683 9.00139 2.24683C8.7279 2.24683 8.46562 2.35547 8.27224 2.54885C8.07886 2.74223 7.97021 3.00451 7.97021 3.278V4.21543H2.53313C2.25964 4.21543 1.99736 4.32407 1.80398 4.51745C1.61059 4.71083 1.50195 4.97312 1.50195 5.2466C1.50195 5.52008 1.61059 5.78237 1.80398 5.97575C1.99736 6.16913 2.25964 6.27777 2.53313 6.27777H11.7785C11.3323 7.54096 10.5106 9.53534 9.2573 11.3568C7.78507 9.40316 7.23808 8.13904 7.23386 8.12873C7.12608 7.87965 6.92445 7.6831 6.6727 7.58171C6.42095 7.48033 6.13938 7.48228 5.88906 7.58715C5.63873 7.69201 5.43985 7.89134 5.33553 8.14189C5.23122 8.39244 5.22988 8.67401 5.33182 8.92554C5.35901 8.99023 6.0138 10.53 7.80945 12.8595C7.85257 12.9152 7.89522 12.9696 7.93787 13.024C6.09864 15.1027 4.29409 16.3922 3.53899 16.8084C3.29888 16.9393 3.12063 17.1603 3.04346 17.4227C2.96628 17.6851 2.99649 17.9674 3.12746 18.2075C3.25842 18.4476 3.4794 18.6259 3.74178 18.703C4.00417 18.7802 4.28646 18.75 4.52657 18.619C4.62781 18.5637 6.80452 17.3587 9.29011 14.6073C10.3457 15.736 11.0712 16.2684 11.1148 16.2994C11.2245 16.379 11.3488 16.4363 11.4806 16.4679C11.6125 16.4994 11.7492 16.5047 11.8831 16.4834C12.017 16.462 12.1453 16.4145 12.2608 16.3435C12.3763 16.2726 12.4766 16.1795 12.5561 16.0697V16.0702Z" fill="currentColor"/>
</svg>
