<svg xmlns="http://www.w3.org/2000/svg" width="18" height="19" fill="none" viewBox="0 0 18 19">
  <path stroke="currentColor" stroke-linecap="round" stroke-linejoin="round" stroke-miterlimit="10" stroke-width="1.308" d="M16.5 13.533h-5.25m-7.5 0H1.5m15-8.25h-2.25m-7.5 0H1.5m3.75 6h4.5c.825 0 1.5.375 1.5 1.5v1.5c0 1.125-.675 1.5-1.5 1.5h-4.5c-.825 0-1.5-.375-1.5-1.5v-1.5c0-1.125.675-1.5 1.5-1.5Zm3-8.25h4.5c.825 0 1.5.375 1.5 1.5v1.5c0 1.125-.675 1.5-1.5 1.5h-4.5c-.825 0-1.5-.375-1.5-1.5v-1.5c0-1.125.675-1.5 1.5-1.5Z"/>
</svg>
