<svg xmlns="http://www.w3.org/2000/svg" width="18" height="19" fill="none" viewBox="0 0 18 19">
  <path stroke="currentColor" stroke-linecap="round" stroke-linejoin="round" stroke-miterlimit="10" stroke-width="1.27" d="M4.625 8.175h1.25c1.25 0 1.875-.625 1.875-1.875V5.05c0-1.25-.625-1.875-1.875-1.875h-1.25c-1.25 0-1.875.625-1.875 1.875V6.3c0 1.25.625 1.875 1.875 1.875Zm7.5 0h1.25c1.25 0 1.875-.625 1.875-1.875V5.05c0-1.25-.625-1.875-1.875-1.875h-1.25c-1.25 0-1.875.625-1.875 1.875V6.3c0 1.25.625 1.875 1.875 1.875Zm0 7.5h1.25c1.25 0 1.875-.625 1.875-1.875v-1.25c0-1.25-.625-1.875-1.875-1.875h-1.25c-1.25 0-1.875.625-1.875 1.875v1.25c0 1.25.625 1.875 1.875 1.875Zm-7.5 0h1.25c1.25 0 1.875-.625 1.875-1.875v-1.25c0-1.25-.625-1.875-1.875-1.875h-1.25c-1.25 0-1.875.625-1.875 1.875v1.25c0 1.25.625 1.875 1.875 1.875Z"/>
</svg>
