<svg xmlns="http://www.w3.org/2000/svg" width="18.048" height="16.486" viewBox="0 0 18.048 16.486"><defs><style>.a{fill:#fff;}</style></defs><g transform="translate(0 0)"><path class="a" d="M13.235,22.164a5.666,5.666,0,0,0-4.211,1.921,5.666,5.666,0,0,0-4.211-1.921C1.924,22.164,0,24.85,0,27.86,0,30.112,1.135,34.5,8.74,38.578a.6.6,0,0,0,.569,0c7.6-4.08,8.74-8.467,8.74-10.718C18.048,24.781,16.067,22.164,13.235,22.164Zm-4.211,15.2C5.372,35.355,1.2,32.009,1.2,27.86c0-2.308,1.386-4.493,3.61-4.493a4.554,4.554,0,0,1,3.7,2.008.6.6,0,0,0,1.023,0,4.61,4.61,0,0,1,3.7-2.007c2.24,0,3.61,2.206,3.61,4.493C16.845,32.009,12.677,35.355,9.024,37.363Z" transform="translate(0 -22.164)"/></g></svg>