<svg xmlns="http://www.w3.org/2000/svg" width="20.251" height="20.25" viewBox="0 0 20.251 20.25"><defs><style>.a{fill:#fff;}</style></defs><path class="a" d="M20.192,9.524l0-.013a10.126,10.126,0,0,0-20.128,0s0,.009,0,.013a10.126,10.126,0,1,0,20.131,0ZM18.6,9.534c-.349,1.173-1.865,2.027-3.017,2.478-.02-2.935-.613-6.8-2.131-9.259A8.552,8.552,0,0,1,18.6,9.534Zm-11,8.025a8.04,8.04,0,0,1-1.211-3.4,18.921,18.921,0,0,0,7.482,0,8.04,8.04,0,0,1-1.211,3.4C11.207,19.692,9.056,19.706,7.6,17.559ZM6.254,12.5A20.97,20.97,0,0,1,7.421,5.086c.43-1.122,1.353-3,2.706-3s2.275,1.882,2.705,3A20.971,20.971,0,0,1,14,12.5,17.219,17.219,0,0,1,6.254,12.5ZM6.8,2.752C5.284,5.209,4.69,9.068,4.669,12.011,3.518,11.561,2,10.707,1.652,9.534A8.552,8.552,0,0,1,6.8,2.752Zm-5.079,9.41a9.741,9.741,0,0,0,3.02,1.555,10.4,10.4,0,0,0,1.372,4.454A8.557,8.557,0,0,1,1.721,12.162Zm12.423,6.007a10.415,10.415,0,0,0,1.367-4.452,9.742,9.742,0,0,0,3.02-1.555A8.561,8.561,0,0,1,14.144,18.169Zm0,0" transform="translate(-0.001 -0.5)"/></svg>