<?xml version="1.0" encoding="iso-8859-1"?>
<!-- Generator: Adobe Illustrator 19.0.0, SVG Export Plug-In . SVG Version: 6.00 Build 0)  -->
<svg version="1.1" id="Layer_1" xmlns="http://www.w3.org/2000/svg" xmlns:xlink="http://www.w3.org/1999/xlink" x="0px" y="0px"
	 viewBox="0 0 470 470" style="enable-background:new 0 0 470 470;" xml:space="preserve">
<g>
	<g>
		<g>
			<path d="M340,0H130c-20.678,0-37.5,16.823-37.5,37.5v395c0,20.677,16.822,37.5,37.5,37.5h210c20.678,0,37.5-16.823,37.5-37.5
				v-395C377.5,16.823,360.678,0,340,0z M362.5,365H330c-4.142,0-7.5,3.358-7.5,7.5c0,4.142,3.358,7.5,7.5,7.5h32.5v52.5
				c0,12.406-10.093,22.5-22.5,22.5H130c-12.407,0-22.5-10.094-22.5-22.5V380H300c4.142,0,7.5-3.358,7.5-7.5
				c0-4.142-3.358-7.5-7.5-7.5H107.5V105h255V365z M362.5,90h-255V37.5c0-12.406,10.093-22.5,22.5-22.5h210
				c12.407,0,22.5,10.094,22.5,22.5V90z"/>
			<path d="M235,395c-12.407,0-22.5,10.094-22.5,22.5S222.593,440,235,440s22.5-10.094,22.5-22.5S247.407,395,235,395z M235,425
				c-4.136,0-7.5-3.365-7.5-7.5s3.364-7.5,7.5-7.5s7.5,3.365,7.5,7.5S239.136,425,235,425z"/>
			<path d="M265,45h-60c-4.142,0-7.5,3.358-7.5,7.5c0,4.142,3.358,7.5,7.5,7.5h60c4.142,0,7.5-3.358,7.5-7.5
				C272.5,48.358,269.142,45,265,45z"/>
		</g>
	</g>
</g>
<g>
</g>
<g>
</g>
<g>
</g>
<g>
</g>
<g>
</g>
<g>
</g>
<g>
</g>
<g>
</g>
<g>
</g>
<g>
</g>
<g>
</g>
<g>
</g>
<g>
</g>
<g>
</g>
<g>
</g>
</svg>
