<?xml version="1.0" encoding="iso-8859-1"?>
<!-- Generator: Adobe Illustrator 19.0.0, SVG Export Plug-In . SVG Version: 6.00 Build 0)  -->
<svg version="1.1" id="Layer_1" xmlns="http://www.w3.org/2000/svg" xmlns:xlink="http://www.w3.org/1999/xlink" x="0px" y="0px"
	 viewBox="0 0 470 470" style="enable-background:new 0 0 470 470;" xml:space="preserve">
<g>
	<g>
		<g>
			<path d="M235,337.5c-20.678,0-37.5,16.823-37.5,37.5s16.822,37.5,37.5,37.5s37.5-16.823,37.5-37.5S255.678,337.5,235,337.5z
				 M235,397.5c-12.406,0-22.5-10.094-22.5-22.5s10.094-22.5,22.5-22.5s22.5,10.094,22.5,22.5S247.406,397.5,235,397.5z"/>
			<circle cx="285" cy="107.5" r="7.5"/>
			<circle cx="285" cy="177.5" r="7.5"/>
			<path d="M345,0H125c-4.143,0-7.5,3.358-7.5,7.5v455c0,4.142,3.357,7.5,7.5,7.5h220c4.143,0,7.5-3.358,7.5-7.5V7.5
				C352.5,3.358,349.143,0,345,0z M337.5,455h-205V15h205V455z"/>
			<path d="M185,85h100c4.143,0,7.5-3.358,7.5-7.5c0-4.142-3.357-7.5-7.5-7.5H185c-4.143,0-7.5,3.358-7.5,7.5
				C177.5,81.642,180.857,85,185,85z"/>
			<path d="M185,155h100c4.143,0,7.5-3.358,7.5-7.5c0-4.142-3.357-7.5-7.5-7.5H185c-4.143,0-7.5,3.358-7.5,7.5
				C177.5,151.642,180.857,155,185,155z"/>
			<path d="M185,295h100c20.678,0,37.5-16.823,37.5-37.5v-220c0-4.142-3.357-7.5-7.5-7.5s-7.5,3.358-7.5,7.5v220
				c0,12.406-10.094,22.5-22.5,22.5H185c-12.406,0-22.5-10.094-22.5-22.5v-220c0-4.142-3.357-7.5-7.5-7.5s-7.5,3.358-7.5,7.5v220
				C147.5,278.177,164.322,295,185,295z"/>
		</g>
	</g>
</g>
<g>
</g>
<g>
</g>
<g>
</g>
<g>
</g>
<g>
</g>
<g>
</g>
<g>
</g>
<g>
</g>
<g>
</g>
<g>
</g>
<g>
</g>
<g>
</g>
<g>
</g>
<g>
</g>
<g>
</g>
</svg>
