<svg xmlns="http://www.w3.org/2000/svg" width="20.652" height="17.164" viewBox="0 0 20.652 17.164"><defs><style>.a{fill:#fff;stroke:#fff;stroke-width:0.5px;}</style></defs><g transform="translate(0.25 0.25)"><g transform="translate(0 0)"><path class="a" d="M17.245,44.308H2.906A2.91,2.91,0,0,0,0,47.214V58.065a2.91,2.91,0,0,0,2.906,2.906H17.245a2.91,2.91,0,0,0,2.906-2.906V47.214A2.91,2.91,0,0,0,17.245,44.308Zm1.744,10.076H14.726a1.744,1.744,0,0,1,0-3.488h4.263Zm0-4.65H14.726a2.906,2.906,0,1,0,0,5.813h4.263v2.519a1.746,1.746,0,0,1-1.744,1.744H2.906a1.746,1.746,0,0,1-1.744-1.744V47.214a1.746,1.746,0,0,1,1.744-1.744H17.245a1.746,1.746,0,0,1,1.744,1.744v2.519Z" transform="translate(0 -44.308)"/></g></g></svg>