<svg width="18" height="18" viewBox="0 0 18 18" fill="none" xmlns="http://www.w3.org/2000/svg">
<path d="M13.875 14.625H10.875" stroke="#E31337" stroke-width="1.27" stroke-linecap="round" stroke-linejoin="round"/>
<path d="M12.375 16.1248V13.1248" stroke="#E31337" stroke-width="1.27" stroke-linecap="round" stroke-linejoin="round"/>
<path d="M9.11997 8.15274C9.04497 8.14524 8.95497 8.14524 8.87247 8.15274C7.08747 8.09274 5.66997 6.63024 5.66997 4.83024C5.66247 2.99274 7.15497 1.50024 8.99247 1.50024C10.83 1.50024 12.3225 2.99274 12.3225 4.83024C12.3225 6.63024 10.8975 8.09274 9.11997 8.15274Z" stroke="#E31337" stroke-width="1.27" stroke-linecap="round" stroke-linejoin="round"/>
<path d="M8.9925 16.3575C7.6275 16.3575 6.27 16.0125 5.235 15.3225C3.42 14.1075 3.42 12.1275 5.235 10.92C7.2975 9.54001 10.68 9.54001 12.7425 10.92" stroke="#E31337" stroke-width="1.27" stroke-linecap="round" stroke-linejoin="round"/>
</svg>
