<svg width="20" height="20" viewBox="0 0 20 20" fill="none" xmlns="http://www.w3.org/2000/svg">
<path d="M16.4917 12.4416C14.775 14.1499 12.3167 14.6749 10.1583 13.9999L6.23333 17.9166C5.95 18.2083 5.39166 18.3833 4.99166 18.3249L3.17499 18.0749C2.57499 17.9916 2.01666 17.4249 1.92499 16.8249L1.67499 15.0083C1.61666 14.6083 1.80833 14.0499 2.08333 13.7666L5.99999 9.84994C5.33333 7.68327 5.85 5.22494 7.56666 3.5166C10.025 1.05827 14.0167 1.05827 16.4833 3.5166C18.95 5.97494 18.95 9.98327 16.4917 12.4416Z" stroke="#E31337" stroke-width="1.27" stroke-miterlimit="10" stroke-linecap="round" stroke-linejoin="round"/>
<path d="M5.74167 14.575L7.65834 16.4916" stroke="#E31337" stroke-width="1.27" stroke-miterlimit="10" stroke-linecap="round" stroke-linejoin="round"/>
<path d="M12.0833 9.16675C12.7737 9.16675 13.3333 8.6071 13.3333 7.91675C13.3333 7.22639 12.7737 6.66675 12.0833 6.66675C11.393 6.66675 10.8333 7.22639 10.8333 7.91675C10.8333 8.6071 11.393 9.16675 12.0833 9.16675Z" stroke="#E31337" stroke-width="1.27" stroke-linecap="round" stroke-linejoin="round"/>
</svg>
