<svg width="14" height="14" viewBox="0 0 14 14" fill="none" xmlns="http://www.w3.org/2000/svg">
<path d="M3.9082 5.40186L6.99986 7.19269L10.0682 5.41352" stroke="#E31337" stroke-width="0.5" stroke-linecap="round" stroke-linejoin="round"/>
<path d="M7 10.3662V7.18701" stroke="#E31337" stroke-width="0.5" stroke-linecap="round" stroke-linejoin="round"/>
<path d="M6.27633 3.66941L4.40965 4.70774C3.98965 4.94108 3.63965 5.53024 3.63965 6.01441V7.99191C3.63965 8.47607 3.98382 9.06525 4.40965 9.29858L6.27633 10.3369C6.67299 10.5586 7.32632 10.5586 7.72882 10.3369L9.59549 9.29858C10.0155 9.06525 10.3655 8.47607 10.3655 7.99191V6.00858C10.3655 5.52441 10.0213 4.93524 9.59549 4.70191L7.72882 3.66357C7.32632 3.44191 6.67299 3.44191 6.27633 3.66941Z" stroke="#E31337" stroke-width="0.5" stroke-linecap="round" stroke-linejoin="round"/>
<path d="M12.159 2.47559L11.1176 3.51701L10.0762 2.47559" stroke="#E31337" stroke-width="0.5" stroke-miterlimit="10" stroke-linecap="round" stroke-linejoin="round"/>
<path d="M11.1172 0.600586V3.48809" stroke="#E31337" stroke-width="0.5" stroke-miterlimit="10" stroke-linecap="round" stroke-linejoin="round"/>
</svg>
