<svg width="375" height="562" viewBox="0 0 375 562" fill="none" xmlns="http://www.w3.org/2000/svg">
<g opacity="0.15">
<mask id="mask0_2271_25185" style="mask-type:luminance" maskUnits="userSpaceOnUse" x="-23" y="0" width="421" height="562">
<path d="M-22.6472 0.931702L-22.6472 561.932L397.646 561.932L397.646 0.931685L-22.6472 0.931702Z" fill="white"/>
</mask>
<g mask="url(#mask0_2271_25185)">
<path d="M95.7351 351.467L95.7351 363.3L109.033 363.3L109.033 351.467L95.7351 351.467Z" fill="#71BDDC"/>
<path d="M182.532 11.0446L182.532 22.8779L195.83 22.8779L195.83 11.0446L182.532 11.0446Z" fill="#71BDDC"/>
<path d="M99.4919 485.927L99.4919 493.781L108.318 493.781L108.318 485.927L99.4919 485.927Z" fill="white"/>
<path d="M28.2112 284.984L28.2112 292.838L37.0373 292.838L37.0373 284.984L28.2112 284.984Z" fill="white"/>
<path d="M282.487 528.833L282.487 536.687L291.313 536.687L291.313 528.833L282.487 528.833Z" fill="white"/>
<path d="M251.176 405.876L251.176 413.73L260.002 413.73L260.002 405.876L251.176 405.876Z" fill="white"/>
<path d="M151.615 168.109L151.615 175.963L160.441 175.963L160.441 168.109L151.615 168.109Z" fill="white"/>
<path d="M5.09375 61.8936L5.09375 69.7476L13.9199 69.7476L13.9199 61.8936L5.09375 61.8936Z" fill="white"/>
<path d="M237.575 35.3696L237.575 43.2236L246.401 43.2236L246.401 35.3696L237.575 35.3696Z" fill="white"/>
<path d="M338.662 210.828L338.662 218.682L347.488 218.682L347.488 210.828L338.662 210.828Z" fill="white"/>
<path d="M242.046 151.773L242.046 163.666L228.68 163.666L228.68 151.773L242.046 151.773ZM240.365 162.17L240.365 153.269L230.362 153.269L230.362 162.17L240.365 162.17Z" fill="white"/>
<path d="M27.2169 447.899L27.2169 459.792L13.8516 459.792L13.8516 447.899L27.2169 447.899ZM25.5357 458.296L25.5357 449.395L15.5327 449.395L15.5327 458.296L25.5357 458.296Z" fill="#437991"/>
<path d="M89.0846 351.407L89.0846 363.3L75.7192 363.3L75.7192 351.407L89.0846 351.407ZM87.4034 361.804L87.4034 352.903L77.4004 352.903L77.4004 361.804L87.4034 361.804Z" fill="#437991"/>
<path d="M125.985 208.808L125.985 220.701L112.62 220.701L112.62 208.808L125.985 208.808ZM124.304 219.205L124.304 210.304L114.301 210.304L114.301 219.205L124.304 219.205Z" fill="#437991"/>
<path d="M230.808 311.464L230.808 323.357L217.443 323.357L217.443 311.464L230.808 311.464ZM229.127 321.861L229.127 312.96L219.124 312.96L219.124 321.861L229.127 321.861Z" fill="#437991"/>
<path d="M176.952 11.0145L176.952 22.9077L163.586 22.9077L163.586 11.0145L176.952 11.0145ZM175.271 21.4117L175.271 12.5105L165.268 12.5105L165.268 21.4117L175.271 21.4117Z" fill="#437991"/>
<path d="M49.0738 108.374L49.0738 120.268L35.7085 120.268L35.7085 108.374L49.0738 108.374ZM47.3926 118.772L47.3926 109.87L37.3897 109.87L37.3897 118.772L47.3926 118.772Z" fill="#437991"/>
<g filter="url(#filter0_d_2271_25185)">
<path d="M74.8627 16.7744L74.8627 29.2959L60.7913 29.2959L60.7913 16.7744L74.8627 16.7744ZM74.4424 28.9219L74.4424 17.1484L61.2115 17.1484L61.2116 28.9219L74.4424 28.9219Z" fill="#4570B4"/>
<path d="M147.827 106.28L147.827 118.801L133.756 118.801L133.756 106.28L147.827 106.28ZM147.407 118.427L147.407 106.654L134.176 106.654L134.176 118.427L147.407 118.427Z" fill="#4570B4"/>
<path d="M217.379 207.612L217.379 220.133L203.307 220.133L203.307 207.612L217.379 207.612ZM216.958 219.759L216.958 207.986L203.727 207.986L203.727 219.759L216.958 219.759Z" fill="#4570B4"/>
<path d="M105.697 287.73L105.697 300.251L91.6257 300.251L91.6257 287.73L105.697 287.73ZM105.277 299.877L105.277 288.104L92.046 288.104L92.046 299.877L105.277 299.877Z" fill="#4570B4"/>
<path d="M154.652 425.698L154.652 438.22L140.581 438.22L140.581 425.698L154.652 425.698ZM154.232 437.846L154.232 426.072L141.001 426.072L141.001 437.846L154.232 437.846Z" fill="#4570B4"/>
<path d="M5.82531 487.146L5.82532 499.668L-8.24609 499.668L-8.2461 487.146L5.82531 487.146ZM5.40503 499.294L5.40502 487.52L-7.8258 487.52L-7.8258 499.294L5.40503 499.294Z" fill="#4570B4"/>
<path d="M314.422 287.73L314.422 300.251L300.351 300.251L300.351 287.73L314.422 287.73ZM314.002 299.877L314.002 288.104L300.771 288.104L300.771 299.877L314.002 299.877Z" fill="#4570B4"/>
<path d="M280.698 -0.579618L280.698 11.9419L266.626 11.9419L266.626 -0.579617L280.698 -0.579618ZM280.277 11.5679L280.277 -0.205618L267.047 -0.205617L267.047 11.5679L280.277 11.5679Z" fill="#4570B4"/>
</g>
<path d="M36.886 173.248L36.886 177.923L31.6323 177.923L31.6323 173.248L36.886 173.248ZM36.0454 177.175L36.0454 173.996L32.4729 173.996L32.4729 177.175L36.0454 177.175Z" fill="#90FEFF"/>
<path d="M47.468 173.248L47.468 177.923L42.2144 177.923L42.2144 173.248L47.468 173.248ZM46.6274 177.175L46.6274 173.996L43.0549 173.996L43.0549 177.175L46.6274 177.175Z" fill="#90FEFF"/>
<path d="M58.0503 173.248L58.0503 177.923L52.7966 177.923L52.7966 173.248L58.0503 173.248ZM57.2097 177.175L57.2097 173.996L53.6372 173.996L53.6372 177.175L57.2097 177.175Z" fill="#90FEFF"/>
<path d="M301.906 114.313L301.906 118.988L296.652 118.988L296.652 114.313L301.906 114.313ZM301.065 118.24L301.065 115.061L297.493 115.061L297.493 118.24L301.065 118.24Z" fill="#90FEFF"/>
<path d="M314.893 114.313L314.893 118.988L309.639 118.988L309.639 114.313L314.893 114.313ZM314.052 118.24L314.052 115.061L310.48 115.061L310.48 118.24L314.052 118.24Z" fill="#90FEFF"/>
<path d="M327.88 114.313L327.88 118.988L322.626 118.988L322.626 114.313L327.88 114.313ZM327.04 118.24L327.04 115.061L323.467 115.061L323.467 118.24L327.04 118.24Z" fill="#90FEFF"/>
<path d="M1.41138 386.9L1.41138 391.575L-3.84229 391.575L-3.84229 386.9L1.41138 386.9ZM0.570792 390.827L0.570792 387.648L-3.0017 387.648L-3.0017 390.827L0.570792 390.827Z" fill="#90FEFF"/>
<path d="M196.781 441.13L196.781 445.805L191.527 445.805L191.527 441.13L196.781 441.13ZM195.94 445.057L195.94 441.878L192.367 441.878L192.367 445.057L195.94 445.057Z" fill="#90FEFF"/>
<path d="M208.171 441.13L208.171 445.805L202.917 445.805L202.917 441.13L208.171 441.13ZM207.33 445.057L207.33 441.878L203.758 441.878L203.758 445.057L207.33 445.057Z" fill="#90FEFF"/>
<path d="M219.562 441.13L219.562 445.805L214.308 445.805L214.308 441.13L219.562 441.13ZM218.721 445.057L218.721 441.878L215.149 441.878L215.149 445.057L218.721 445.057Z" fill="#90FEFF"/>
<path d="M208.171 101.066L208.171 105.741L202.917 105.741L202.917 101.066L208.171 101.066ZM207.33 104.993L207.33 101.814L203.758 101.814L203.758 104.993L207.33 104.993Z" fill="#396077"/>
<path d="M316.303 362.867L316.303 367.542L311.049 367.542L311.049 362.867L316.303 362.867ZM315.462 366.794L315.462 363.615L311.89 363.615L311.89 366.794L315.462 366.794Z" fill="#396077"/>
<path d="M155.239 261.886L155.239 266.561L149.986 266.561L149.986 261.886L155.239 261.886ZM154.399 265.813L154.399 262.634L150.826 262.634L150.826 265.813L154.399 265.813Z" fill="#396077"/>
<path d="M166.452 76.2854L166.452 80.9604L161.198 80.9604L161.198 76.2854L166.452 76.2854ZM165.611 80.2124L165.611 77.0334L162.039 77.0334L162.039 80.2124L165.611 80.2124Z" fill="#0A1521"/>
<path d="M274.583 338.085L274.583 342.76L269.33 342.76L269.33 338.085L274.583 338.085ZM273.743 342.012L273.743 338.833L270.17 338.833L270.17 342.012L273.743 342.012Z" fill="#0A1521"/>
<path d="M302.971 67.4061L302.971 72.0811L297.718 72.0811L297.718 67.4061L302.971 67.4061ZM302.131 71.3331L302.131 68.1541L298.558 68.1541L298.558 71.3331L302.131 71.3331Z" fill="#0A1521"/>
<path d="M113.528 237.105L113.528 241.78L108.274 241.78L108.274 237.105L113.528 237.105ZM112.687 241.032L112.687 237.853L109.115 237.853L109.115 241.032L112.687 241.032Z" fill="#0A1521"/>
<path d="M358.408 253.284L358.408 257.959L353.154 257.959L353.154 253.284L358.408 253.284ZM357.567 257.211L357.567 254.032L353.995 254.032L353.995 257.211L357.567 257.211Z" fill="#0A1521"/>
<path d="M343.496 423.365L343.496 428.04L338.243 428.04L338.243 423.365L343.496 423.365ZM342.656 427.292L342.656 424.113L339.083 424.113L339.083 427.292L342.656 427.292Z" fill="#0A1521"/>
<path d="M264.835 256.373L264.835 260.3L269.248 260.3L269.248 256.373L264.835 256.373Z" fill="#68A8DE"/>
<path d="M74.6536 405.876L74.6536 409.803L79.0666 409.803L79.0666 405.876L74.6536 405.876Z" fill="#68A8DE"/>
<path d="M129.543 35.3694L129.543 39.2964L133.956 39.2964L133.956 35.3694L129.543 35.3694Z" fill="#68A8DE"/>
<path d="M173.254 340.15L173.254 357.354L153.921 357.354L153.921 340.15L173.254 340.15ZM171.573 355.858L171.573 341.646L155.602 341.646L155.602 355.858L171.573 355.858Z" fill="url(#paint0_linear_2271_25185)"/>
<path d="M108.318 78.7232L108.318 95.9272L88.9844 95.9272L88.9844 78.7232L108.318 78.7232ZM106.637 94.4312L106.637 80.2192L90.6655 80.2192L90.6655 94.4312L106.637 94.4312Z" fill="url(#paint1_linear_2271_25185)"/>
<path d="M283.327 171.288L283.327 188.492L263.993 188.492L263.993 171.288L283.327 171.288ZM281.645 186.996L281.645 172.784L265.674 172.784L265.674 186.996L281.645 186.996Z" fill="url(#paint2_linear_2271_25185)"/>
</g>
</g>
<defs>
<filter id="filter0_d_2271_25185" x="-35.6799" y="-6.57959" width="356.102" height="512.248" filterUnits="userSpaceOnUse" color-interpolation-filters="sRGB">
<feFlood flood-opacity="0" result="BackgroundImageFix"/>
<feColorMatrix in="SourceAlpha" type="matrix" values="0 0 0 0 0 0 0 0 0 0 0 0 0 0 0 0 0 0 127 0" result="hardAlpha"/>
<feOffset/>
<feGaussianBlur stdDeviation="3"/>
<feColorMatrix type="matrix" values="0 0 0 0 0.843137 0 0 0 0 0.956863 0 0 0 0 0.976471 0 0 0 1 0"/>
<feBlend mode="normal" in2="BackgroundImageFix" result="effect1_dropShadow_2271_25185"/>
<feBlend mode="normal" in="SourceGraphic" in2="effect1_dropShadow_2271_25185" result="shape"/>
</filter>
<linearGradient id="paint0_linear_2271_25185" x1="173.254" y1="348.752" x2="153.921" y2="348.752" gradientUnits="userSpaceOnUse">
<stop offset="0.21" stop-color="#1B3E63"/>
<stop offset="1" stop-color="#0C1B2B"/>
</linearGradient>
<linearGradient id="paint1_linear_2271_25185" x1="108.318" y1="87.3252" x2="88.9928" y2="87.3252" gradientUnits="userSpaceOnUse">
<stop offset="0.21" stop-color="#1B3E63"/>
<stop offset="1" stop-color="#0C1B2B"/>
</linearGradient>
<linearGradient id="paint2_linear_2271_25185" x1="283.327" y1="179.89" x2="263.993" y2="179.89" gradientUnits="userSpaceOnUse">
<stop offset="0.21" stop-color="#1B3E63"/>
<stop offset="1" stop-color="#0C1B2B"/>
</linearGradient>
</defs>
</svg>
