<svg xmlns="http://www.w3.org/2000/svg" width="19" height="18" fill="currentColor" viewBox="0 0 19 18">
  <path fill="currentColor" d="m3.544 2.17-.17.17v2.82l.181.152.182.153h1.345c.816 0 1.398-.024 1.468-.059.312-.17.359-.68.077-.945-.135-.13-.218-.141-.805-.17l-.658-.03.323-.246a4.394 4.394 0 0 1 1.692-.758c.399-.076.94-.088 3.312-.07 3.177.023 3.048.012 3.952.475.646.335 1.321 1.01 1.656 1.656.47.916.458.798.458 4.198 0 3.399.012 3.281-.458 4.197-.335.646-1.01 1.321-1.656 1.656-.916.47-.799.458-4.199.458s-3.283.012-4.199-.458c-.646-.335-1.321-1.01-1.656-1.656-.428-.833-.446-.927-.47-2.7-.011-.951-.047-1.65-.088-1.75-.07-.176-.317-.334-.516-.334a.634.634 0 0 0-.529.346c-.053.13-.065.599-.047 1.808.024 1.568.035 1.656.182 2.149.276.898.628 1.503 1.269 2.178.669.693 1.374 1.127 2.337 1.427l.517.164h6.4l.517-.164c.963-.3 1.668-.734 2.338-1.427.634-.67.986-1.268 1.268-2.178l.164-.517v-6.4l-.164-.517c-.558-1.796-1.809-3.047-3.606-3.604l-.516-.165H7.044l-.517.165a5.46 5.46 0 0 0-1.61.78l-.37.253v-.323c0-.57-.234-.904-.633-.904-.141 0-.247.053-.37.17Z"/>
  <path fill="currentColor" d="M9.618 5.818c-.311.15-.318.217-.324 2.11 0 1.421.019 1.8.089 1.922.05.084.693.669 1.424 1.304 1.309 1.142 1.334 1.159 1.595 1.159.381 0 .642-.229.642-.563 0-.229-.02-.25-1.24-1.326l-1.239-1.097V7.756c0-1.097-.025-1.61-.076-1.71-.14-.267-.56-.379-.87-.228Z"/>
</svg>
