<svg width="18" height="19" viewBox="0 0 18 19" fill="none" xmlns="http://www.w3.org/2000/svg">
<path d="M9.2775 2.02937L16.0275 4.72936C16.29 4.83436 16.5 5.14935 16.5 5.42685V7.91686C16.5 8.32936 16.1625 8.66686 15.75 8.66686H2.25C1.8375 8.66686 1.5 8.32936 1.5 7.91686V5.42685C1.5 5.14935 1.71 4.83436 1.9725 4.72936L8.7225 2.02937C8.8725 1.96938 9.1275 1.96938 9.2775 2.02937Z" stroke="white" stroke-width="1.30841" stroke-miterlimit="10" stroke-linecap="round" stroke-linejoin="round"/>
<path d="M16.5 16.918H1.5V14.668C1.5 14.2555 1.8375 13.918 2.25 13.918H15.75C16.1625 13.918 16.5 14.2555 16.5 14.668V16.918Z" stroke="white" stroke-width="1.30841" stroke-miterlimit="10" stroke-linecap="round" stroke-linejoin="round"/>
<path d="M3 13.918V8.66797" stroke="white" stroke-width="1.30841" stroke-miterlimit="10" stroke-linecap="round" stroke-linejoin="round"/>
<path d="M6 13.918V8.66797" stroke="white" stroke-width="1.30841" stroke-miterlimit="10" stroke-linecap="round" stroke-linejoin="round"/>
<path d="M9 13.918V8.66797" stroke="white" stroke-width="1.30841" stroke-miterlimit="10" stroke-linecap="round" stroke-linejoin="round"/>
<path d="M12 13.918V8.66797" stroke="white" stroke-width="1.30841" stroke-miterlimit="10" stroke-linecap="round" stroke-linejoin="round"/>
<path d="M15 13.918V8.66797" stroke="white" stroke-width="1.30841" stroke-miterlimit="10" stroke-linecap="round" stroke-linejoin="round"/>
<path d="M0.75 16.918H17.25" stroke="white" stroke-width="1.30841" stroke-miterlimit="10" stroke-linecap="round" stroke-linejoin="round"/>
<path d="M9 6.79297C9.62132 6.79297 10.125 6.28929 10.125 5.66797C10.125 5.04665 9.62132 4.54297 9 4.54297C8.37868 4.54297 7.875 5.04665 7.875 5.66797C7.875 6.28929 8.37868 6.79297 9 6.79297Z" stroke="white" stroke-width="1.30841" stroke-miterlimit="10" stroke-linecap="round" stroke-linejoin="round"/>
</svg>
