<svg width="18" height="19" viewBox="0 0 18 19" fill="none" xmlns="http://www.w3.org/2000/svg">
<path d="M9.2775 2.03182L16.0275 4.7318C16.29 4.8368 16.5 5.15179 16.5 5.42929V7.9193C16.5 8.3318 16.1625 8.6693 15.75 8.6693H2.25C1.8375 8.6693 1.5 8.3318 1.5 7.9193V5.42929C1.5 5.15179 1.71 4.8368 1.9725 4.7318L8.7225 2.03182C8.8725 1.97182 9.1275 1.97182 9.2775 2.03182Z" stroke="#E31337" stroke-width="1.30841" stroke-miterlimit="10" stroke-linecap="round" stroke-linejoin="round"/>
<path d="M16.5 16.9194H1.5V14.6694C1.5 14.2569 1.8375 13.9194 2.25 13.9194H15.75C16.1625 13.9194 16.5 14.2569 16.5 14.6694V16.9194Z" stroke="#E31337" stroke-width="1.30841" stroke-miterlimit="10" stroke-linecap="round" stroke-linejoin="round"/>
<path d="M3 13.9194V8.66943" stroke="#E31337" stroke-width="1.30841" stroke-miterlimit="10" stroke-linecap="round" stroke-linejoin="round"/>
<path d="M6 13.9194V8.66943" stroke="#E31337" stroke-width="1.30841" stroke-miterlimit="10" stroke-linecap="round" stroke-linejoin="round"/>
<path d="M9 13.9194V8.66943" stroke="#E31337" stroke-width="1.30841" stroke-miterlimit="10" stroke-linecap="round" stroke-linejoin="round"/>
<path d="M12 13.9194V8.66943" stroke="#E31337" stroke-width="1.30841" stroke-miterlimit="10" stroke-linecap="round" stroke-linejoin="round"/>
<path d="M15 13.9194V8.66943" stroke="#E31337" stroke-width="1.30841" stroke-miterlimit="10" stroke-linecap="round" stroke-linejoin="round"/>
<path d="M0.75 16.9194H17.25" stroke="#E31337" stroke-width="1.30841" stroke-miterlimit="10" stroke-linecap="round" stroke-linejoin="round"/>
<path d="M9 6.79443C9.62132 6.79443 10.125 6.29075 10.125 5.66943C10.125 5.04811 9.62132 4.54443 9 4.54443C8.37868 4.54443 7.875 5.04811 7.875 5.66943C7.875 6.29075 8.37868 6.79443 9 6.79443Z" stroke="#E31337" stroke-width="1.30841" stroke-miterlimit="10" stroke-linecap="round" stroke-linejoin="round"/>
</svg>
