<svg width="18" height="19" viewBox="0 0 18 19" fill="none" xmlns="http://www.w3.org/2000/svg">
<path d="M16.5 13.5327H11.25" stroke="#E31337" stroke-width="1.30841" stroke-miterlimit="10" stroke-linecap="round" stroke-linejoin="round"/>
<path d="M3.75 13.5327H1.5" stroke="#E31337" stroke-width="1.30841" stroke-miterlimit="10" stroke-linecap="round" stroke-linejoin="round"/>
<path d="M16.5 5.28271H14.25" stroke="#E31337" stroke-width="1.30841" stroke-miterlimit="10" stroke-linecap="round" stroke-linejoin="round"/>
<path d="M6.75 5.28271H1.5" stroke="#E31337" stroke-width="1.30841" stroke-miterlimit="10" stroke-linecap="round" stroke-linejoin="round"/>
<path d="M5.25 11.2827H9.75C10.575 11.2827 11.25 11.6577 11.25 12.7827V14.2827C11.25 15.4077 10.575 15.7827 9.75 15.7827H5.25C4.425 15.7827 3.75 15.4077 3.75 14.2827V12.7827C3.75 11.6577 4.425 11.2827 5.25 11.2827Z" stroke="#E31337" stroke-width="1.30841" stroke-miterlimit="10" stroke-linecap="round" stroke-linejoin="round"/>
<path d="M8.25 3.03271H12.75C13.575 3.03271 14.25 3.40771 14.25 4.53271V6.03271C14.25 7.15771 13.575 7.53271 12.75 7.53271H8.25C7.425 7.53271 6.75 7.15771 6.75 6.03271V4.53271C6.75 3.40771 7.425 3.03271 8.25 3.03271Z" stroke="#E31337" stroke-width="1.30841" stroke-miterlimit="10" stroke-linecap="round" stroke-linejoin="round"/>
</svg>
