<svg width="18" height="19" viewBox="0 0 18 19" fill="none" xmlns="http://www.w3.org/2000/svg">
<path d="M4.625 8.17481H5.875C7.125 8.17481 7.75 7.54981 7.75 6.2998V5.0498C7.75 3.7998 7.125 3.1748 5.875 3.1748H4.625C3.375 3.1748 2.75 3.7998 2.75 5.0498V6.2998C2.75 7.54981 3.375 8.17481 4.625 8.17481Z" stroke="#E31337" stroke-width="1.27" stroke-miterlimit="10" stroke-linecap="round" stroke-linejoin="round"/>
<path d="M12.125 8.17481H13.375C14.625 8.17481 15.25 7.54981 15.25 6.2998V5.0498C15.25 3.7998 14.625 3.1748 13.375 3.1748H12.125C10.875 3.1748 10.25 3.7998 10.25 5.0498V6.2998C10.25 7.54981 10.875 8.17481 12.125 8.17481Z" stroke="#E31337" stroke-width="1.27" stroke-miterlimit="10" stroke-linecap="round" stroke-linejoin="round"/>
<path d="M12.125 15.6748H13.375C14.625 15.6748 15.25 15.0498 15.25 13.7998V12.5498C15.25 11.2998 14.625 10.6748 13.375 10.6748H12.125C10.875 10.6748 10.25 11.2998 10.25 12.5498V13.7998C10.25 15.0498 10.875 15.6748 12.125 15.6748Z" stroke="#E31337" stroke-width="1.27" stroke-miterlimit="10" stroke-linecap="round" stroke-linejoin="round"/>
<path d="M4.625 15.6748H5.875C7.125 15.6748 7.75 15.0498 7.75 13.7998V12.5498C7.75 11.2998 7.125 10.6748 5.875 10.6748H4.625C3.375 10.6748 2.75 11.2998 2.75 12.5498V13.7998C2.75 15.0498 3.375 15.6748 4.625 15.6748Z" stroke="#E31337" stroke-width="1.27" stroke-miterlimit="10" stroke-linecap="round" stroke-linejoin="round"/>
</svg>
