<svg width="18" height="19" viewBox="0 0 18 19" fill="none" xmlns="http://www.w3.org/2000/svg">
<path d="M4.625 8.17383H5.875C7.125 8.17383 7.75 7.54883 7.75 6.29883V5.04883C7.75 3.79883 7.125 3.17383 5.875 3.17383H4.625C3.375 3.17383 2.75 3.79883 2.75 5.04883V6.29883C2.75 7.54883 3.375 8.17383 4.625 8.17383Z" stroke="white" stroke-width="1.27" stroke-miterlimit="10" stroke-linecap="round" stroke-linejoin="round"/>
<path d="M12.125 8.17383H13.375C14.625 8.17383 15.25 7.54883 15.25 6.29883V5.04883C15.25 3.79883 14.625 3.17383 13.375 3.17383H12.125C10.875 3.17383 10.25 3.79883 10.25 5.04883V6.29883C10.25 7.54883 10.875 8.17383 12.125 8.17383Z" stroke="white" stroke-width="1.27" stroke-miterlimit="10" stroke-linecap="round" stroke-linejoin="round"/>
<path d="M12.125 15.6738H13.375C14.625 15.6738 15.25 15.0488 15.25 13.7988V12.5488C15.25 11.2988 14.625 10.6738 13.375 10.6738H12.125C10.875 10.6738 10.25 11.2988 10.25 12.5488V13.7988C10.25 15.0488 10.875 15.6738 12.125 15.6738Z" stroke="white" stroke-width="1.27" stroke-miterlimit="10" stroke-linecap="round" stroke-linejoin="round"/>
<path d="M4.625 15.6738H5.875C7.125 15.6738 7.75 15.0488 7.75 13.7988V12.5488C7.75 11.2988 7.125 10.6738 5.875 10.6738H4.625C3.375 10.6738 2.75 11.2988 2.75 12.5488V13.7988C2.75 15.0488 3.375 15.6738 4.625 15.6738Z" stroke="white" stroke-width="1.27" stroke-miterlimit="10" stroke-linecap="round" stroke-linejoin="round"/>
</svg>
