<svg width="18" height="18" viewBox="0 0 18 18" fill="none" xmlns="http://www.w3.org/2000/svg">
<path d="M6.87004 8.15274C6.79504 8.14524 6.70504 8.14524 6.62254 8.15274C4.83754 8.09274 3.42004 6.63024 3.42004 4.83024C3.42004 2.99274 4.90504 1.50024 6.75004 1.50024C8.58754 1.50024 10.08 2.99274 10.08 4.83024C10.0725 6.63024 8.65504 8.09274 6.87004 8.15274Z" stroke="#E31337" stroke-width="1.27" stroke-linecap="round" stroke-linejoin="round"/>
<path d="M11.5576 2.99976C13.0126 2.99976 14.1826 4.17726 14.1826 5.62476C14.1826 7.04226 13.0576 8.19726 11.6551 8.24976C11.5951 8.24226 11.5276 8.24226 11.4601 8.24976" stroke="#E31337" stroke-width="1.27" stroke-linecap="round" stroke-linejoin="round"/>
<path d="M3.12005 10.9198C1.30505 12.1348 1.30505 14.1148 3.12005 15.3223C5.18255 16.7023 8.56505 16.7023 10.6276 15.3223C12.4426 14.1073 12.4426 12.1273 10.6276 10.9198C8.57255 9.54726 5.19005 9.54726 3.12005 10.9198Z" stroke="#E31337" stroke-width="1.27" stroke-linecap="round" stroke-linejoin="round"/>
<path d="M14.475 10.3948C14.0625 10.0798 13.56 9.86976 13.0275 9.74976" stroke="#E31337" stroke-width="1.27" stroke-linecap="round" stroke-linejoin="round"/>
<path d="M15 14.9998V11.9998" stroke="#E31337" stroke-width="1.27" stroke-linecap="round" stroke-linejoin="round"/>
<path d="M16.5 13.5H13.5" stroke="#E31337" stroke-width="1.27" stroke-linecap="round" stroke-linejoin="round"/>
</svg>
