<svg xmlns="http://www.w3.org/2000/svg" width="19" height="19" fill="none" viewBox="0 0 19 19">
  <path fill="currentColor" fill-rule="evenodd" d="M7.766 6.104c.292-.675.556-.968.813-1.084.183-.083.432-.105.813-.01L8.356 7.415H7.339c-.04 0-.082 0-.123.003l.469-1.12.003-.007.016-.04.03-.066a.462.462 0 0 0 .014-.04l.004-.01.014-.03Zm5.255-.05a1.358 1.358 0 0 0-.06-.103 1.448 1.448 0 0 0-.156-.225c-.314-.385-.797-.666-1.386-.91l-1.022-.43-.008-.003-.022-.01a2.69 2.69 0 0 0-.207-.083l-.008-.002c-.714-.27-1.369-.37-1.952-.107-.577.26-.957.82-1.27 1.54l-.004.007a3.167 3.167 0 0 0-2.305 3.05v1.355c0 .025.002.05.006.074v.83c0 .13.01.256.025.373.055.804.303 1.482.795 1.974.491.491 1.17.74 1.974.795.116.015.243.025.373.025h3.61c.924 0 1.704-.22 2.269-.727.568-.511.845-1.25.894-2.138v-.007c.004-.09.01-.191.01-.296v-.902l-.002-.09V8.777a3.157 3.157 0 0 0-1.554-2.723Zm-.688 2.34a1.873 1.873 0 0 0-.47-.059H7.345c-.249 0-.484.05-.709.144a1.805 1.805 0 0 0-1.09 1.655v.902a2.097 2.097 0 0 0 .022.299c.044.661.238 1.107.53 1.398.29.292.736.485 1.398.53a2.106 2.106 0 0 0 .298.022h3.61c.79 0 1.316-.188 1.653-.492.333-.3.551-.775.591-1.503.005-.094.009-.175.009-.253v-.867a1.798 1.798 0 0 0-1.275-1.758.464.464 0 0 1-.05-.018Zm1.172-.425a2.247 2.247 0 0 0-.332-.583c-.02.106-.048.213-.08.322.145.075.283.162.412.261ZM9.6 9.117a.46.46 0 0 1 .46.46v.67h.698a.46.46 0 1 1 0 .92h-.698v.725a.46.46 0 0 1-.92 0v-.725h-.697a.46.46 0 1 1 0-.92h.697v-.67a.46.46 0 0 1 .46-.46Zm.659-3.792-.9 2.09h2.5c.115 0 .234.006.352.02.108-.362.11-.61.052-.79a.49.49 0 0 1-.009-.03.286.286 0 0 0-.015-.045.46.46 0 0 1-.024-.068.26.26 0 0 0-.036-.069.526.526 0 0 0-.082-.12l-.003-.005c-.168-.206-.48-.416-1.027-.643h-.003l-.805-.34Zm-4.57 2.649a2.73 2.73 0 0 1 .406-.259l.292-.696c-.31.248-.554.577-.698.955Z" clip-rule="evenodd"/>
</svg>
