<svg xmlns="http://www.w3.org/2000/svg" width="20" height="21" fill="none" viewBox="0 0 20 21">
  <path stroke="currentColor" stroke-linecap="round" stroke-linejoin="round" stroke-miterlimit="10" stroke-width="1.144" d="M16.641 9.322H3.308v6.667c0 2.5.833 3.333 3.333 3.333h6.667c2.5 0 3.333-.833 3.333-3.333V9.322Zm1.276-2.5v.834c0 .916-.442 1.666-1.667 1.666H3.75c-1.275 0-1.667-.75-1.667-1.666v-.834c0-.916.392-1.666 1.667-1.666h12.5c1.225 0 1.667.75 1.667 1.666Z"/>
  <path stroke="currentColor" stroke-linecap="round" stroke-linejoin="round" stroke-miterlimit="10" stroke-width="1.144" d="M9.7 5.156H5.1a.78.78 0 0 1 .025-1.084L6.308 2.89a.8.8 0 0 1 1.125 0L9.7 5.156Zm5.192 0h-4.6l2.267-2.267a.8.8 0 0 1 1.125 0l1.183 1.183c.3.3.308.775.025 1.084ZM7.45 9.322v4.284a.835.835 0 0 0 1.291.7l.784-.517a.833.833 0 0 1 .916 0l.742.5a.83.83 0 0 0 1.292-.692V9.322H7.45Z"/>
</svg>
