<svg xmlns="http://www.w3.org/2000/svg" width="18" height="19" fill="none" viewBox="0 0 18 19">
  <path stroke="currentColor" stroke-linecap="round" stroke-linejoin="round" stroke-miterlimit="10" stroke-width="1.308" d="m9.277 2.032 6.75 2.7c.263.105.473.42.473.697v2.49c0 .413-.337.75-.75.75H2.25a.752.752 0 0 1-.75-.75V5.43c0-.277.21-.592.472-.697l6.75-2.7c.15-.06.405-.06.556 0ZM16.5 16.92h-15v-2.25c0-.413.337-.75.75-.75h13.5c.413 0 .75.337.75.75v2.25Zm-13.5-3V8.67m3 5.25V8.67m3 5.25V8.67m3 5.25V8.67m3 5.25V8.67M.75 16.92h16.5"/>
  <path stroke="currentColor" stroke-linecap="round" stroke-linejoin="round" stroke-miterlimit="10" stroke-width="1.308" d="M9 6.794a1.125 1.125 0 1 0 0-2.25 1.125 1.125 0 0 0 0 2.25Z"/>
</svg>
