<svg width="273" height="159" viewBox="0 0 273 159" fill="none" xmlns="http://www.w3.org/2000/svg">
<g clip-path="url(#clip0_2271_28422)">
<path d="M199.409 121.299C239.776 121.299 272.5 102.382 272.5 79.0478C272.5 55.7131 239.776 36.7966 199.409 36.7966C159.041 36.7966 126.317 55.7131 126.317 79.0478C126.317 102.382 159.041 121.299 199.409 121.299Z" fill="#E3DFEA"/>
<path d="M96.2505 136.814C94.3213 137.928 91.1955 137.928 89.2663 136.814L1.94692 86.378C0.0176921 85.2636 0.0176921 83.4558 1.94692 82.3414C3.87615 81.227 7.00188 81.227 8.93111 82.3414L96.2505 132.777C98.1797 133.892 98.1797 135.699 96.2505 136.814Z" fill="#E31337"/>
<path d="M46.8169 116.727C53.6503 116.727 59.19 113.525 59.19 109.576C59.19 105.627 53.6503 102.425 46.8169 102.425C39.9835 102.425 34.4438 105.627 34.4438 109.576C34.4438 113.525 39.9835 116.727 46.8169 116.727Z" fill="url(#paint0_linear_2271_28422)"/>
<path d="M46.8169 116.727C53.6503 116.727 59.19 113.525 59.19 109.576C59.19 105.627 53.6503 102.425 46.8169 102.425C39.9835 102.425 34.4438 105.627 34.4438 109.576C34.4438 113.525 39.9835 116.727 46.8169 116.727Z" fill="url(#paint1_linear_2271_28422)"/>
<path d="M123.037 121.277C121.108 122.392 117.982 122.392 116.053 121.277L28.7335 70.8414C26.8043 69.727 26.8043 67.9192 28.7335 66.8048C30.6628 65.6904 33.7885 65.6904 35.7177 66.8048L123.037 117.241C124.966 118.355 124.966 120.163 123.037 121.277Z" fill="#E31337"/>
<path d="M102.258 116.173C109.091 116.173 114.631 112.971 114.631 109.022C114.631 105.073 109.091 101.871 102.258 101.871C95.4241 101.871 89.8845 105.073 89.8845 109.022C89.8845 112.971 95.4241 116.173 102.258 116.173Z" fill="url(#paint2_linear_2271_28422)"/>
<path d="M102.258 116.173C109.091 116.173 114.631 112.971 114.631 109.022C114.631 105.073 109.091 101.871 102.258 101.871C95.4241 101.871 89.8845 105.073 89.8845 109.022C89.8845 112.971 95.4241 116.173 102.258 116.173Z" fill="url(#paint3_linear_2271_28422)"/>
<path d="M149.824 105.741C147.894 106.855 144.769 106.855 142.84 105.741L55.5202 55.3048C53.5909 54.1904 53.5909 52.3826 55.5202 51.2682C57.4494 50.1538 60.5751 50.1538 62.5044 51.2682L149.824 101.704C151.753 102.818 151.753 104.626 149.824 105.741Z" fill="#E31337"/>
<path d="M71.5601 68.1081C78.3935 68.1081 83.9331 64.9066 83.9331 60.9574C83.9331 57.0081 78.3935 53.8066 71.5601 53.8066C64.7266 53.8066 59.187 57.0081 59.187 60.9574C59.187 64.9066 64.7266 68.1081 71.5601 68.1081Z" fill="url(#paint4_linear_2271_28422)"/>
<path d="M71.5601 68.1081C78.3935 68.1081 83.9331 64.9066 83.9331 60.9574C83.9331 57.0081 78.3935 53.8066 71.5601 53.8066C64.7266 53.8066 59.187 57.0081 59.187 60.9574C59.187 64.9066 64.7266 68.1081 71.5601 68.1081Z" fill="url(#paint5_linear_2271_28422)"/>
<path d="M247.117 24.4205C246.913 26.9496 245.958 28.7605 244.504 29.7758L243.509 30.3145L212.746 46.9593C212.419 47.1388 212.097 47.3276 211.779 47.5288L211.711 47.6248C210.094 49.8938 207.877 51.6428 205.335 52.7789C204.457 53.172 203.675 53.6364 203.19 54.2957C201.978 55.9333 201.069 57.8061 200.525 59.8151C199.758 62.6475 198.252 65.2261 196.169 67.2846L189.064 74.3053C182.945 80.354 175.256 84.5609 166.865 86.4523L165.737 86.7061C161.563 87.6472 159.12 85.4679 159.247 89.7459L159.318 92.2472C159.34 92.956 162.673 91.1235 163.381 91.1792L166.507 91.433C167.051 91.4764 167.477 91.9562 167.44 92.501C167.344 93.7671 166.46 94.835 165.236 95.1632L156.799 99.0667V99.0605C155.917 99.4691 154.897 99.6053 153.855 99.3484L152.056 98.9057L141.541 96.3209C139.989 95.9401 138.496 95.352 137.111 94.5719L136.437 94.1881L135.8 93.829C129.697 90.396 125.727 89.6128 126.432 82.6386L127.406 73.0516C127.424 72.8628 127.297 72.7204 127.143 72.6833H127.14C127.035 72.6585 126.923 72.6802 126.831 72.7607L125.847 73.6367L125.826 73.6553H125.823L99.0453 98.0606C98.5754 98.4754 97.8334 98.2959 97.6015 97.6922L97.583 97.6427C97.2367 96.7295 97.1099 95.773 97.1903 94.8288C97.2027 94.6803 97.2243 94.5286 97.2429 94.38C97.3542 93.6742 97.583 92.987 97.9199 92.3555C98.1364 91.9438 98.4053 91.5507 98.7145 91.1947L98.9278 90.9439L115.83 72.4573C118.638 69.1915 121.794 66.2507 125.241 63.6845L153.821 42.4057C154.328 42.0311 154.359 42.1426 154.09 41.7061H154.087C153.895 41.3842 153.537 41.1644 153.085 41.2015L151.496 41.3408C147.18 41.7247 143.214 43.7275 139.089 42.4026L131.283 39.8983C128.015 38.852 125.912 34.4161 126.231 30.9924C126.401 29.101 128.175 27.8504 129.956 28.1445C130.197 28.1847 130.439 28.2497 130.677 28.3488L132.671 29.166C133.66 29.5777 134.671 29.9399 135.698 30.2433C137.902 30.9026 140.168 31.336 142.465 31.5217L143.35 31.5929C143.43 31.5991 143.513 31.6053 143.597 31.6115C146.571 31.7941 148.151 32.4504 150.853 31.1936C153.265 30.0761 156.536 28.8131 158.715 28.9927L160.382 29.1289C163.579 29.3889 169.41 28.906 174.573 27.9711C177.943 27.3613 181.028 26.5596 182.911 25.6464L186.544 23.851L227.531 3.61225C227.531 3.61225 227.546 3.60297 227.553 3.59678L227.899 3.39247C230.156 2.14187 233.421 2.6031 236.927 5.02692C243.076 9.27711 247.639 17.9601 247.117 24.4205Z" fill="#FFD0A6"/>
<path d="M142.021 61.4516L125.689 73.4766L125.953 73.8357L142.285 61.8107L142.021 61.4516Z" fill="#C19D80"/>
<path d="M136.223 94.253L134.044 86.8887C133.045 83.5145 134.229 79.8587 136.993 77.7878C138.112 76.9489 139.355 76.1967 140.561 75.4692C141.133 75.1256 141.696 74.782 142.237 74.4415L150.986 68.8447L151.227 69.2193L142.478 74.816C141.934 75.1627 141.368 75.5033 140.793 75.85C139.599 76.5712 138.363 77.3172 137.262 78.1438C134.65 80.1032 133.527 83.5641 134.473 86.7618L136.653 94.1261L136.226 94.253H136.223Z" fill="#C19D80"/>
<path d="M151.846 98.9799L149.267 91.631C148.807 90.3154 148.596 89.0029 148.646 87.7275C148.751 85.0685 149.898 84.1646 151.979 82.527C152.653 81.9977 153.416 81.394 154.294 80.6232L159.312 76.209L159.606 76.5433L154.588 80.9576C153.701 81.7376 152.934 82.3413 152.254 82.8768C150.148 84.5329 149.187 85.2913 149.091 87.743C149.045 88.9596 149.242 90.2194 149.688 91.4793L152.266 98.8282L151.846 98.9768V98.9799Z" fill="#C19D80"/>
<path d="M100.666 92.6341C100.632 93.0644 100.458 93.4792 100.158 93.8166L98.5663 95.6151L97.2368 94.3769C97.3481 93.6742 97.5769 92.987 97.9139 92.3524C98.1303 91.9407 98.3993 91.5506 98.7085 91.1915L98.9249 90.9408L99.3299 90.916C99.8091 90.8882 100.261 91.1575 100.471 91.594C100.628 91.9252 100.693 92.2812 100.662 92.6341H100.666Z" fill="#E5B093"/>
<path d="M237.697 2.46369C234.042 -0.0622835 230.638 -0.54519 228.285 0.758037L199.412 17.248L215.687 45.3154L244.56 28.8254C244.928 28.6799 245.274 28.4911 245.596 28.2651C247.111 27.2064 248.106 25.3181 248.317 22.6807C248.861 15.9479 244.106 6.89342 237.694 2.46369H237.697Z" fill="url(#paint6_linear_2271_28422)"/>
<path d="M237.697 2.46369C234.042 -0.0622835 230.638 -0.54519 228.285 0.758037L199.412 17.248L215.687 45.3154L244.56 28.8254C244.928 28.6799 245.274 28.4911 245.596 28.2651C247.111 27.2064 248.106 25.3181 248.317 22.6807C248.861 15.9479 244.106 6.89342 237.694 2.46369H237.697Z" fill="url(#paint7_linear_2271_28422)"/>
<path d="M219.443 39.1708C219.23 41.8082 218.234 43.6965 216.722 44.7552C216.398 44.9811 216.051 45.17 215.687 45.3155C213.371 46.2596 210.217 45.6684 206.851 43.3405C200.438 38.9077 195.68 29.8532 196.224 23.1204C196.441 20.4365 197.467 18.5266 199.025 17.4803C199.032 17.4803 199.041 17.471 199.047 17.4648L199.409 17.2512C201.762 15.948 205.166 16.4309 208.82 18.9569C215.232 23.3866 219.987 32.4411 219.443 39.1739V39.1708Z" fill="#FFD0A6"/>
<path d="M153.945 42.5853L153.695 42.2169C153.883 42.09 158.311 39.0718 160.867 38.3877L160.982 38.818C158.499 39.4804 153.991 42.5543 153.945 42.5853Z" fill="#C19D80"/>
<path d="M176.861 141.411V145.633V146.218H176.839C176.74 147.434 176.332 148.648 175.618 149.809C175.535 149.945 175.445 150.081 175.352 150.214C174.486 151.48 173.247 152.678 171.633 153.756C171.546 153.814 171.46 153.87 171.37 153.929C171.113 154.093 170.847 154.257 170.569 154.415C169.654 154.944 168.674 155.415 167.648 155.83C167.561 155.864 167.471 155.901 167.385 155.932C166.201 156.396 164.955 156.783 163.665 157.093C163.579 157.114 163.489 157.136 163.403 157.158C162.194 157.439 160.945 157.653 159.683 157.801C159.597 157.814 159.507 157.823 159.42 157.832C158.193 157.969 156.947 158.043 155.701 158.052C155.615 158.052 155.525 158.052 155.438 158.052C154.192 158.052 152.95 157.993 151.719 157.87C151.632 157.863 151.543 157.854 151.456 157.842C150.195 157.709 148.949 157.507 147.737 157.241C147.65 157.223 147.561 157.204 147.474 157.182C146.188 156.888 144.942 156.52 143.755 156.077C143.668 156.046 143.579 156.012 143.492 155.978C142.323 155.529 141.216 155.009 140.187 154.412C140.048 154.331 139.909 154.248 139.773 154.164C139.683 154.112 139.596 154.056 139.51 154.003C137.939 153.01 136.699 151.904 135.79 150.737C135.698 150.62 135.611 150.505 135.528 150.385C134.569 149.05 134.034 147.636 133.92 146.212H133.895V141.404H135.172C135.283 141.225 135.401 141.048 135.528 140.875C135.611 140.757 135.701 140.64 135.79 140.522C136.124 140.092 136.505 139.671 136.928 139.259C137.448 138.758 138.032 138.272 138.687 137.807C139.154 137.476 139.655 137.154 140.19 136.845C148.581 131.994 162.188 131.994 170.578 136.845C171.113 137.154 171.614 137.476 172.081 137.807C172.733 138.272 173.321 138.758 173.84 139.259C174.437 139.835 174.944 140.435 175.364 141.048C175.445 141.166 175.522 141.284 175.596 141.404H176.873L176.861 141.411Z" fill="#FF9D4D"/>
<path d="M155.373 133.477C161.068 133.477 166.417 134.755 170.436 137.08C170.959 137.383 171.456 137.702 171.917 138.03C172.554 138.485 173.135 138.965 173.645 139.457C174.22 140.015 174.721 140.603 175.136 141.206C175.216 141.321 175.29 141.435 175.361 141.55L175.439 141.674H176.598V145.955L176.579 146.196C176.484 147.382 176.085 148.552 175.395 149.673C175.321 149.796 175.235 149.93 175.139 150.069C174.273 151.335 173.042 152.502 171.49 153.539C171.404 153.595 171.317 153.654 171.231 153.709C170.977 153.87 170.711 154.034 170.439 154.189C169.549 154.703 168.578 155.173 167.555 155.588C167.468 155.622 167.382 155.656 167.292 155.69C166.129 156.145 164.89 156.532 163.6 156.842C163.514 156.864 163.43 156.885 163.344 156.904C162.16 157.179 160.917 157.396 159.649 157.542C159.563 157.551 159.479 157.563 159.389 157.573C158.171 157.709 156.928 157.78 155.695 157.789C155.608 157.789 155.522 157.789 155.435 157.789H155.364C154.149 157.789 152.931 157.727 151.737 157.61C151.651 157.603 151.567 157.594 151.481 157.585C150.229 157.452 148.989 157.251 147.789 156.991C147.703 156.972 147.616 156.953 147.53 156.932C146.243 156.638 145.001 156.269 143.841 155.836L143.81 155.824C143.736 155.796 143.659 155.768 143.582 155.737C142.419 155.291 141.318 154.771 140.314 154.189C140.174 154.109 140.038 154.028 139.902 153.945C139.816 153.892 139.729 153.836 139.643 153.784C138.128 152.824 136.897 151.747 135.988 150.577C135.899 150.462 135.815 150.351 135.732 150.236C134.807 148.948 134.285 147.589 134.173 146.196L134.155 145.955H134.152V141.674H135.311L135.388 141.55C135.494 141.38 135.611 141.206 135.735 141.033C135.815 140.918 135.902 140.804 135.991 140.689C136.316 140.271 136.69 139.854 137.104 139.454C137.621 138.956 138.202 138.473 138.833 138.027C139.296 137.696 139.794 137.377 140.314 137.077C144.333 134.755 149.681 133.474 155.376 133.474L155.373 133.477ZM155.373 133.214C149.873 133.214 144.376 134.427 140.178 136.851C139.643 137.16 139.142 137.482 138.675 137.814C138.023 138.278 137.435 138.764 136.916 139.265C136.492 139.677 136.112 140.098 135.778 140.528C135.685 140.646 135.599 140.761 135.515 140.881C135.388 141.055 135.271 141.234 135.16 141.411H133.883V146.218H133.908C134.022 147.639 134.557 149.054 135.515 150.391C135.599 150.508 135.685 150.626 135.778 150.741C136.687 151.911 137.93 153.016 139.497 154.006C139.584 154.059 139.671 154.115 139.76 154.167C139.896 154.251 140.035 154.331 140.174 154.415C141.204 155.009 142.311 155.533 143.479 155.981C143.566 156.015 143.656 156.049 143.742 156.08C144.93 156.523 146.179 156.891 147.462 157.186C147.548 157.207 147.638 157.226 147.724 157.244C148.936 157.511 150.182 157.712 151.444 157.845C151.53 157.854 151.62 157.863 151.707 157.873C152.912 157.994 154.134 158.055 155.355 158.055C155.38 158.055 155.404 158.055 155.426 158.055C155.512 158.055 155.602 158.055 155.689 158.055C156.935 158.046 158.181 157.972 159.408 157.836C159.495 157.826 159.584 157.817 159.671 157.805C160.935 157.656 162.181 157.442 163.39 157.161C163.477 157.139 163.566 157.121 163.653 157.096C164.942 156.786 166.188 156.399 167.372 155.935C167.459 155.901 167.549 155.867 167.635 155.833C168.662 155.418 169.639 154.947 170.557 154.418C170.832 154.257 171.101 154.096 171.358 153.932C171.447 153.873 171.534 153.818 171.62 153.759C173.234 152.682 174.474 151.484 175.34 150.217C175.432 150.081 175.522 149.948 175.606 149.812C176.323 148.648 176.728 147.438 176.827 146.221H176.848V145.636V141.414H175.572C175.497 141.296 175.42 141.175 175.34 141.058C174.919 140.445 174.412 139.844 173.815 139.269C173.296 138.767 172.709 138.281 172.056 137.817C171.589 137.482 171.089 137.164 170.554 136.854C166.358 134.43 160.858 133.217 155.358 133.217L155.373 133.214Z" fill="#FFE840"/>
<path d="M155.373 153.703C167.241 153.703 176.861 148.141 176.861 141.281C176.861 134.42 167.241 128.858 155.373 128.858C143.506 128.858 133.886 134.42 133.886 141.281C133.886 148.141 143.506 153.703 155.373 153.703Z" fill="#FFE840"/>
<path d="M173.828 139.269C173.142 137.136 171.361 135.173 168.649 133.607C165.103 131.558 160.388 130.428 155.373 130.428C150.359 130.428 145.644 131.558 142.098 133.607C139.386 135.173 137.605 137.136 136.919 139.269C136.709 139.925 136.601 140.6 136.601 141.281C136.601 143.367 137.612 145.364 139.504 147.085C139.59 147.165 139.677 147.243 139.767 147.317C140.444 147.902 141.223 148.447 142.101 148.955C142.546 149.212 143.01 149.453 143.486 149.679C143.572 149.722 143.662 149.763 143.749 149.803C144.905 150.332 146.151 150.775 147.468 151.128C147.555 151.152 147.644 151.177 147.731 151.199C148.921 151.505 150.167 151.741 151.45 151.895C151.537 151.908 151.626 151.917 151.713 151.926C152.906 152.063 154.131 152.131 155.373 152.131H155.435C155.522 152.131 155.612 152.131 155.698 152.131C156.963 152.118 158.209 152.035 159.417 151.883C159.504 151.871 159.594 151.861 159.68 151.849C160.966 151.676 162.212 151.425 163.4 151.1C163.489 151.075 163.576 151.05 163.662 151.026C164.986 150.651 166.232 150.18 167.382 149.626C167.468 149.586 167.558 149.543 167.645 149.496C167.988 149.326 168.322 149.147 168.646 148.958C169.694 148.351 170.606 147.685 171.367 146.973C171.457 146.89 171.546 146.806 171.63 146.72C173.271 145.085 174.146 143.222 174.146 141.284C174.146 140.603 174.038 139.928 173.828 139.272V139.269ZM171.633 145.385C171.549 145.497 171.46 145.608 171.37 145.72C170.526 146.738 169.376 147.692 167.92 148.534C167.83 148.586 167.74 148.636 167.651 148.685C167.564 148.735 167.478 148.781 167.388 148.828C166.244 149.438 164.992 149.945 163.669 150.348C163.582 150.375 163.492 150.4 163.406 150.425C162.212 150.775 160.963 151.041 159.686 151.227C159.6 151.239 159.513 151.252 159.424 151.264C158.202 151.428 156.953 151.518 155.704 151.53C155.618 151.53 155.528 151.53 155.442 151.53C154.196 151.53 152.946 151.459 151.722 151.31C151.636 151.301 151.546 151.289 151.459 151.276C150.186 151.112 148.937 150.865 147.74 150.533C147.653 150.509 147.564 150.484 147.477 150.459C146.16 150.081 144.908 149.602 143.758 149.023C143.668 148.979 143.582 148.933 143.495 148.887C143.273 148.772 143.053 148.651 142.84 148.527C141.594 147.806 140.57 147.004 139.776 146.153C139.686 146.057 139.596 145.958 139.513 145.859C137.349 143.349 137.071 140.426 138.687 137.811C139.544 136.427 140.926 135.13 142.84 134.025C149.756 130.025 161.013 130.025 167.929 134.025C169.843 135.13 171.225 136.427 172.081 137.811C173.596 140.259 173.451 142.98 171.645 145.379L171.633 145.385Z" fill="#FF9D4D"/>
<path d="M156.06 139.528L158.082 140.699C158.035 140.72 157.992 140.745 157.946 140.77L156.836 141.411L154.944 140.318L155.568 139.956C155.791 139.826 155.955 139.683 156.057 139.525L156.06 139.528Z" fill="#D1975D"/>
<path d="M136.342 146.93V151.282C136.249 151.165 136.162 151.05 136.078 150.929V146.574C136.162 146.692 136.252 146.809 136.342 146.927V146.93Z" fill="#FFE840"/>
<path d="M139.764 149.818V154.174C139.674 154.121 139.587 154.065 139.5 154.013V149.657C139.587 149.713 139.674 149.766 139.764 149.821V149.818Z" fill="#FFE840"/>
<path d="M143.746 151.728V156.084C143.66 156.053 143.57 156.019 143.483 155.985V151.629C143.57 151.663 143.66 151.697 143.746 151.728Z" fill="#FFE840"/>
<path d="M147.732 152.892V157.248C147.645 157.229 147.555 157.21 147.468 157.189V152.833C147.555 152.855 147.645 152.873 147.732 152.892Z" fill="#FFE840"/>
<path d="M151.714 153.521V157.876C151.627 157.87 151.537 157.86 151.45 157.848V153.493C151.537 153.502 151.627 153.511 151.714 153.521Z" fill="#FFE840"/>
<path d="M155.699 153.7V158.055C155.612 158.055 155.522 158.055 155.435 158.055V153.7C155.522 153.7 155.612 153.7 155.699 153.7Z" fill="#FFE840"/>
<path d="M159.681 153.449V157.805C159.594 157.817 159.504 157.826 159.417 157.836V153.48C159.504 153.471 159.594 153.462 159.681 153.449Z" fill="#FFE840"/>
<path d="M163.666 152.743V157.099C163.579 157.121 163.489 157.142 163.403 157.164V152.808C163.489 152.787 163.579 152.768 163.666 152.747V152.743Z" fill="#FFE840"/>
<path d="M167.649 151.477V155.833C167.562 155.867 167.472 155.904 167.385 155.935V151.579C167.472 151.548 167.562 151.511 167.649 151.477Z" fill="#FFE840"/>
<path d="M171.631 149.403V153.759C171.544 153.818 171.457 153.873 171.367 153.932V149.577C171.457 149.521 171.544 149.462 171.631 149.403Z" fill="#FFE840"/>
<path d="M175.164 145.893V150.249C175.081 150.385 174.991 150.521 174.897 150.654V146.299C174.991 146.162 175.077 146.029 175.164 145.893Z" fill="#FFE840"/>
<path d="M187.669 129.719V133.941V134.526H187.648C187.549 135.743 187.141 136.956 186.427 138.117C186.343 138.253 186.253 138.389 186.161 138.522C185.295 139.788 184.055 140.986 182.441 142.064C182.355 142.123 182.268 142.178 182.179 142.237C181.922 142.401 181.656 142.565 181.378 142.723C180.463 143.252 179.483 143.723 178.456 144.138C178.37 144.172 178.28 144.209 178.193 144.24C177.009 144.704 175.763 145.091 174.474 145.401C174.387 145.422 174.298 145.444 174.211 145.466C173.002 145.747 171.753 145.961 170.492 146.11C170.405 146.119 170.316 146.131 170.229 146.141C169.002 146.277 167.756 146.351 166.51 146.36C166.423 146.36 166.333 146.36 166.247 146.36C165.001 146.36 163.758 146.302 162.528 146.178C162.441 146.171 162.351 146.162 162.265 146.15C161.003 146.017 159.757 145.816 158.545 145.549C158.459 145.531 158.369 145.512 158.283 145.49C156.997 145.196 155.751 144.828 154.563 144.385C154.477 144.354 154.387 144.32 154.301 144.286C153.132 143.837 152.025 143.317 150.995 142.72C150.856 142.639 150.717 142.556 150.581 142.472C150.492 142.42 150.405 142.364 150.318 142.311C148.748 141.318 147.508 140.213 146.599 139.046C146.506 138.928 146.42 138.813 146.336 138.693C145.378 137.358 144.843 135.944 144.729 134.52H144.704V129.712H145.981C146.092 129.533 146.21 129.356 146.336 129.183C146.42 129.065 146.509 128.948 146.599 128.83C146.933 128.4 147.313 127.979 147.737 127.567C148.256 127.066 148.841 126.58 149.496 126.115C149.963 125.784 150.464 125.462 150.999 125.153C159.39 120.302 172.996 120.302 181.387 125.153C181.922 125.462 182.423 125.784 182.89 126.115C183.542 126.58 184.129 127.066 184.649 127.567C185.246 128.143 185.753 128.744 186.173 129.356C186.253 129.474 186.331 129.592 186.405 129.712H187.682L187.669 129.719Z" fill="#FF9D4D"/>
<path d="M166.182 121.785C171.877 121.785 177.226 123.063 181.245 125.388C181.767 125.691 182.265 126.01 182.726 126.338C183.363 126.79 183.944 127.273 184.454 127.765C185.029 128.323 185.53 128.911 185.944 129.514C186.025 129.629 186.099 129.744 186.17 129.858L186.247 129.982H187.407V134.263L187.388 134.504C187.292 135.69 186.893 136.86 186.204 137.981C186.13 138.105 186.043 138.238 185.947 138.377C185.082 139.643 183.851 140.81 182.299 141.847C182.213 141.903 182.126 141.962 182.039 142.017C181.786 142.178 181.52 142.342 181.248 142.497C180.358 143.011 179.387 143.482 178.348 143.899C178.264 143.934 178.184 143.964 178.101 143.999C176.938 144.454 175.698 144.841 174.409 145.15C174.323 145.172 174.239 145.193 174.152 145.212C172.968 145.487 171.725 145.704 170.455 145.853C170.371 145.862 170.285 145.874 170.198 145.881C168.98 146.017 167.737 146.088 166.504 146.097C166.417 146.097 166.33 146.097 166.244 146.097H166.173C164.958 146.097 163.74 146.035 162.546 145.918C162.46 145.912 162.376 145.902 162.29 145.893C161.037 145.76 159.798 145.559 158.598 145.299C158.511 145.28 158.425 145.262 158.338 145.24C157.052 144.946 155.809 144.577 154.65 144.144L154.622 144.135C154.545 144.107 154.471 144.079 154.39 144.048C153.228 143.602 152.127 143.082 151.122 142.5C150.983 142.42 150.847 142.339 150.711 142.256C150.624 142.203 150.535 142.147 150.451 142.095C148.936 141.135 147.706 140.058 146.797 138.888C146.707 138.773 146.624 138.662 146.54 138.547C145.616 137.26 145.093 135.901 144.982 134.508L144.964 134.266H144.96V129.985H146.12L146.197 129.861C146.302 129.691 146.42 129.518 146.543 129.344C146.624 129.23 146.71 129.115 146.8 129.001C147.125 128.583 147.499 128.168 147.913 127.765C148.429 127.264 149.011 126.784 149.641 126.338C150.105 126.007 150.603 125.688 151.122 125.388C155.141 123.066 160.49 121.785 166.185 121.785H166.182ZM166.182 121.522C160.682 121.522 155.185 122.735 150.989 125.159C150.454 125.469 149.954 125.79 149.487 126.122C148.834 126.586 148.247 127.072 147.728 127.574C147.304 127.985 146.924 128.406 146.59 128.837C146.497 128.954 146.41 129.069 146.327 129.189C146.2 129.363 146.083 129.542 145.971 129.719H144.695V134.526H144.719C144.834 135.947 145.369 137.362 146.327 138.699C146.41 138.817 146.497 138.934 146.59 139.052C147.499 140.222 148.742 141.327 150.312 142.318C150.399 142.37 150.485 142.426 150.575 142.479C150.711 142.562 150.85 142.643 150.989 142.726C152.019 143.321 153.126 143.844 154.294 144.293C154.381 144.327 154.471 144.361 154.557 144.392C155.744 144.834 156.993 145.203 158.276 145.497C158.363 145.518 158.453 145.537 158.539 145.556C159.751 145.822 160.997 146.023 162.259 146.156C162.345 146.165 162.435 146.175 162.521 146.184C163.727 146.305 164.948 146.367 166.17 146.367C166.194 146.367 166.219 146.367 166.241 146.367C166.327 146.367 166.417 146.367 166.504 146.367C167.75 146.357 168.995 146.283 170.223 146.147C170.309 146.138 170.399 146.128 170.486 146.116C171.75 145.967 172.996 145.754 174.205 145.472C174.292 145.45 174.381 145.432 174.468 145.407C175.757 145.097 177.003 144.71 178.187 144.246C178.274 144.212 178.363 144.178 178.45 144.144C179.476 143.729 180.453 143.259 181.372 142.729C181.647 142.568 181.916 142.407 182.172 142.243C182.262 142.185 182.349 142.129 182.435 142.07C184.049 140.993 185.289 139.795 186.154 138.529C186.247 138.392 186.337 138.259 186.42 138.123C187.138 136.959 187.543 135.749 187.642 134.532H187.663V133.947V129.725H186.386C186.312 129.607 186.235 129.487 186.154 129.369C185.734 128.756 185.227 128.155 184.63 127.58C184.111 127.078 183.523 126.592 182.871 126.128C182.404 125.794 181.903 125.475 181.369 125.165C177.173 122.741 171.673 121.528 166.173 121.528L166.182 121.522Z" fill="#FFE840"/>
<path d="M166.182 142.011C178.049 142.011 187.669 136.449 187.669 129.589C187.669 122.728 178.049 117.166 166.182 117.166C154.315 117.166 144.695 122.728 144.695 129.589C144.695 136.449 154.315 142.011 166.182 142.011Z" fill="#FFE840"/>
<path d="M184.637 127.574C183.95 125.441 182.169 123.478 179.458 121.912C175.912 119.863 171.197 118.733 166.182 118.733C161.167 118.733 156.452 119.863 152.906 121.912C150.195 123.478 148.414 125.441 147.728 127.574C147.517 128.23 147.409 128.905 147.409 129.586C147.409 131.672 148.42 133.669 150.312 135.39C150.399 135.47 150.485 135.548 150.575 135.622C151.252 136.207 152.031 136.752 152.909 137.26C153.355 137.516 153.815 137.758 154.294 137.984C154.381 138.027 154.471 138.067 154.557 138.108C155.714 138.637 156.959 139.08 158.277 139.433C158.363 139.457 158.453 139.482 158.539 139.504C159.73 139.81 160.976 140.046 162.259 140.2C162.345 140.213 162.435 140.222 162.521 140.231C163.715 140.367 164.939 140.436 166.182 140.436H166.244C166.33 140.436 166.42 140.436 166.507 140.436C167.771 140.423 169.017 140.34 170.226 140.188C170.313 140.176 170.402 140.166 170.489 140.154C171.775 139.981 173.021 139.73 174.208 139.405C174.298 139.38 174.384 139.355 174.471 139.33C175.794 138.956 177.04 138.485 178.19 137.931C178.277 137.891 178.367 137.848 178.453 137.801C178.796 137.631 179.13 137.451 179.455 137.263C180.503 136.656 181.415 135.99 182.176 135.278C182.265 135.195 182.355 135.111 182.438 135.025C184.08 133.39 184.955 131.527 184.955 129.589C184.955 128.908 184.847 128.233 184.637 127.577V127.574ZM182.441 133.69C182.358 133.802 182.268 133.913 182.179 134.025C181.335 135.043 180.184 135.997 178.728 136.839C178.639 136.891 178.549 136.941 178.459 136.99C178.373 137.04 178.286 137.086 178.196 137.133C177.053 137.742 175.8 138.25 174.477 138.653C174.391 138.68 174.301 138.705 174.214 138.73C173.021 139.08 171.772 139.346 170.495 139.529C170.408 139.541 170.322 139.553 170.232 139.566C169.011 139.73 167.762 139.82 166.513 139.832C166.426 139.832 166.337 139.832 166.25 139.832C165.004 139.832 163.755 139.761 162.531 139.612C162.444 139.603 162.355 139.59 162.268 139.578C160.994 139.414 159.745 139.166 158.549 138.835C158.462 138.81 158.372 138.786 158.286 138.761C156.969 138.383 155.717 137.903 154.567 137.325C154.477 137.281 154.39 137.235 154.304 137.188C154.081 137.074 153.862 136.953 153.648 136.829C152.402 136.108 151.379 135.306 150.584 134.455C150.495 134.359 150.405 134.26 150.322 134.161C148.157 131.65 147.879 128.728 149.496 126.112C150.352 124.729 151.734 123.432 153.648 122.327C160.564 118.327 171.821 118.327 178.738 122.327C180.651 123.432 182.033 124.729 182.89 126.112C184.405 128.561 184.259 131.282 182.454 133.681L182.441 133.69Z" fill="#FF9D4D"/>
<path d="M166.871 127.837L168.893 129.007C168.847 129.028 168.804 129.053 168.757 129.078L167.648 129.719L165.755 128.626L166.38 128.264C166.603 128.134 166.766 127.991 166.868 127.833L166.871 127.837Z" fill="#D1975D"/>
<path d="M147.15 135.238V139.59C147.057 139.473 146.971 139.358 146.887 139.238V134.882C146.971 135 147.06 135.117 147.15 135.235V135.238Z" fill="#FFE840"/>
<path d="M150.576 138.123V142.479C150.486 142.426 150.399 142.37 150.312 142.318V137.962C150.399 138.018 150.486 138.071 150.576 138.126V138.123Z" fill="#FFE840"/>
<path d="M154.558 140.036V144.392C154.471 144.361 154.381 144.327 154.294 144.293V139.937C154.381 139.971 154.471 140.005 154.558 140.036Z" fill="#FFE840"/>
<path d="M158.543 141.2V145.556C158.456 145.537 158.366 145.518 158.28 145.497V141.141C158.366 141.163 158.456 141.182 158.543 141.2Z" fill="#FFE840"/>
<path d="M162.525 141.829V146.184C162.439 146.178 162.349 146.169 162.262 146.156V141.801C162.349 141.81 162.439 141.819 162.525 141.829Z" fill="#FFE840"/>
<path d="M166.508 142.005V146.36C166.421 146.36 166.331 146.36 166.244 146.36V142.005C166.331 142.005 166.421 142.005 166.508 142.005Z" fill="#FFE840"/>
<path d="M170.493 141.757V146.113C170.406 146.122 170.316 146.134 170.229 146.144V141.788C170.316 141.779 170.406 141.77 170.493 141.757Z" fill="#FFE840"/>
<path d="M174.475 141.048V145.404C174.388 145.425 174.298 145.447 174.211 145.469V141.113C174.298 141.092 174.388 141.073 174.475 141.051V141.048Z" fill="#FFE840"/>
<path d="M178.46 139.785V144.141C178.373 144.175 178.283 144.212 178.197 144.243V139.888C178.283 139.857 178.373 139.819 178.46 139.785Z" fill="#FFE840"/>
<path d="M182.442 137.711V142.067C182.355 142.126 182.268 142.181 182.178 142.24V137.885C182.268 137.829 182.355 137.77 182.442 137.711Z" fill="#FFE840"/>
<path d="M185.976 134.201V138.557C185.892 138.693 185.802 138.829 185.709 138.962V134.607C185.802 134.47 185.889 134.337 185.976 134.201Z" fill="#FFE840"/>
<path d="M174.22 120.122V124.345V124.93H174.199C174.1 126.146 173.692 127.36 172.978 128.521C172.894 128.657 172.804 128.793 172.712 128.926C171.846 130.192 170.606 131.39 168.992 132.467C168.906 132.526 168.819 132.582 168.73 132.641C168.473 132.805 168.207 132.969 167.929 133.127C167.014 133.656 166.034 134.127 165.007 134.542C164.921 134.576 164.831 134.613 164.744 134.644C163.56 135.108 162.314 135.495 161.025 135.805C160.938 135.826 160.849 135.848 160.762 135.87C159.553 136.151 158.304 136.365 157.043 136.513C156.956 136.523 156.867 136.535 156.78 136.544C155.553 136.681 154.307 136.755 153.061 136.764C152.974 136.764 152.884 136.764 152.798 136.764C151.552 136.764 150.309 136.705 149.079 136.581C148.992 136.575 148.902 136.566 148.816 136.554C147.554 136.421 146.308 136.219 145.096 135.953C145.01 135.935 144.92 135.916 144.834 135.894C143.547 135.6 142.302 135.232 141.114 134.789C141.028 134.758 140.938 134.724 140.851 134.69C139.683 134.241 138.576 133.721 137.546 133.124C137.407 133.043 137.268 132.96 137.132 132.876C137.042 132.82 136.956 132.768 136.869 132.715C135.299 131.721 134.059 130.616 133.147 129.449C133.054 129.332 132.968 129.217 132.884 129.096C131.926 127.762 131.391 126.348 131.276 124.924H131.252V120.116H132.529C132.64 119.937 132.757 119.76 132.884 119.587C132.968 119.469 133.057 119.352 133.147 119.234C133.481 118.804 133.861 118.383 134.285 117.971C134.804 117.47 135.388 116.984 136.044 116.519C136.511 116.188 137.012 115.866 137.546 115.557C145.937 110.706 159.544 110.706 167.935 115.557C168.47 115.866 168.971 116.188 169.438 116.519C170.09 116.984 170.677 117.47 171.197 117.971C171.793 118.547 172.3 119.147 172.721 119.76C172.801 119.878 172.879 119.996 172.953 120.116H174.23L174.22 120.122Z" fill="#FF9D4D"/>
<path d="M152.73 112.189C158.425 112.189 163.774 113.467 167.793 115.792C168.315 116.095 168.813 116.414 169.274 116.742C169.911 117.197 170.492 117.677 171.002 118.169C171.577 118.726 172.078 119.315 172.492 119.918C172.573 120.033 172.647 120.147 172.718 120.262L172.795 120.386H173.955V124.667L173.936 124.908C173.84 126.094 173.441 127.264 172.752 128.385C172.675 128.508 172.591 128.642 172.495 128.781C171.63 130.047 170.399 131.214 168.847 132.251C168.761 132.307 168.674 132.365 168.587 132.421C168.334 132.582 168.068 132.746 167.796 132.901C166.906 133.415 165.935 133.885 164.905 134.3C164.819 134.334 164.735 134.368 164.649 134.402C163.486 134.857 162.246 135.244 160.957 135.554C160.871 135.576 160.787 135.597 160.7 135.616C159.516 135.891 158.273 136.108 157.006 136.253C156.919 136.263 156.836 136.275 156.746 136.284C155.528 136.421 154.285 136.492 153.052 136.501C152.965 136.501 152.878 136.501 152.792 136.501H152.721C151.506 136.501 150.288 136.439 149.094 136.322C149.011 136.315 148.927 136.306 148.838 136.297C147.585 136.164 146.343 135.962 145.146 135.702C145.059 135.684 144.973 135.665 144.886 135.644C143.6 135.35 142.357 134.981 141.198 134.548L141.164 134.535C141.09 134.508 141.016 134.48 140.938 134.449C139.776 134.003 138.675 133.483 137.67 132.901C137.531 132.82 137.395 132.74 137.259 132.656C137.173 132.604 137.083 132.548 136.999 132.495C135.484 131.536 134.254 130.459 133.345 129.288C133.255 129.174 133.172 129.063 133.088 128.948C132.164 127.66 131.641 126.301 131.53 124.908L131.512 124.667H131.508V120.386H132.668L132.745 120.262C132.85 120.092 132.968 119.918 133.091 119.745C133.172 119.63 133.258 119.516 133.348 119.401C133.673 118.983 134.047 118.569 134.461 118.166C134.977 117.668 135.559 117.185 136.189 116.739C136.653 116.408 137.151 116.089 137.67 115.789C141.69 113.467 147.038 112.186 152.733 112.186L152.73 112.189ZM152.73 111.926C147.23 111.926 141.733 113.139 137.534 115.563C136.999 115.872 136.499 116.194 136.032 116.526C135.379 116.99 134.792 117.476 134.272 117.977C133.849 118.389 133.469 118.81 133.135 119.24C133.042 119.358 132.955 119.472 132.872 119.593C132.745 119.767 132.628 119.946 132.516 120.123H131.24V124.93H131.264C131.379 126.351 131.913 127.765 132.872 129.103C132.955 129.22 133.042 129.338 133.135 129.456C134.044 130.626 135.287 131.731 136.857 132.721C136.944 132.774 137.03 132.83 137.12 132.882C137.256 132.966 137.395 133.046 137.534 133.13C138.564 133.724 139.671 134.248 140.839 134.696C140.926 134.73 141.016 134.765 141.102 134.795C142.289 135.238 143.538 135.606 144.821 135.901C144.908 135.922 144.998 135.941 145.084 135.959C146.296 136.226 147.542 136.427 148.804 136.56C148.89 136.569 148.98 136.578 149.066 136.588C150.272 136.709 151.493 136.77 152.715 136.77C152.739 136.77 152.764 136.77 152.786 136.77C152.872 136.77 152.962 136.77 153.048 136.77C154.294 136.761 155.54 136.687 156.768 136.551C156.854 136.541 156.944 136.532 157.031 136.52C158.295 136.371 159.541 136.158 160.75 135.876C160.837 135.854 160.926 135.836 161.013 135.811C162.302 135.501 163.548 135.114 164.732 134.65C164.819 134.616 164.908 134.582 164.995 134.548C166.021 134.133 166.998 133.662 167.917 133.133C168.192 132.972 168.461 132.811 168.717 132.647C168.807 132.588 168.894 132.533 168.98 132.474C170.594 131.397 171.834 130.199 172.699 128.932C172.792 128.796 172.882 128.663 172.965 128.527C173.683 127.366 174.088 126.153 174.187 124.936H174.208V124.351V120.129H172.931C172.857 120.011 172.78 119.89 172.699 119.773C172.279 119.16 171.772 118.559 171.175 117.984C170.656 117.482 170.068 116.996 169.416 116.532C168.949 116.197 168.448 115.879 167.913 115.569C163.718 113.145 158.218 111.932 152.718 111.932L152.73 111.926Z" fill="#FFE840"/>
<path d="M152.73 132.415C164.597 132.415 174.217 126.853 174.217 119.993C174.217 113.132 164.597 107.57 152.73 107.57C140.863 107.57 131.242 113.132 131.242 119.993C131.242 126.853 140.863 132.415 152.73 132.415Z" fill="#FFE840"/>
<path d="M171.184 117.981C170.498 115.848 168.717 113.885 166.006 112.319C162.46 110.27 157.745 109.14 152.73 109.14C147.715 109.14 143 110.27 139.454 112.319C136.743 113.885 134.962 115.848 134.275 117.981C134.065 118.637 133.957 119.312 133.957 119.993C133.957 122.079 134.968 124.076 136.86 125.797C136.947 125.877 137.033 125.955 137.123 126.029C137.8 126.614 138.579 127.159 139.457 127.667C139.902 127.923 140.363 128.165 140.842 128.391C140.929 128.434 141.019 128.474 141.105 128.515C142.261 129.044 143.507 129.487 144.824 129.84C144.911 129.864 145.001 129.889 145.087 129.911C146.278 130.217 147.523 130.453 148.807 130.607C148.893 130.62 148.983 130.629 149.069 130.641C150.263 130.778 151.487 130.846 152.73 130.846H152.792C152.878 130.846 152.968 130.846 153.055 130.846C154.319 130.833 155.565 130.75 156.774 130.598C156.86 130.589 156.95 130.576 157.037 130.564C158.323 130.391 159.569 130.14 160.756 129.815C160.846 129.79 160.932 129.765 161.019 129.741C162.342 129.366 163.588 128.895 164.738 128.341C164.825 128.301 164.914 128.258 165.001 128.211C165.344 128.041 165.678 127.862 166.003 127.673C167.051 127.066 167.963 126.4 168.723 125.688C168.813 125.605 168.903 125.521 168.986 125.435C170.628 123.8 171.503 121.937 171.503 119.999C171.503 119.318 171.395 118.643 171.184 117.987V117.981ZM168.989 124.097C168.906 124.209 168.816 124.32 168.726 124.432C167.882 125.45 166.732 126.404 165.276 127.246C165.186 127.298 165.097 127.348 165.007 127.397C164.921 127.447 164.834 127.493 164.744 127.54C163.6 128.149 162.348 128.657 161.025 129.06C160.938 129.087 160.849 129.112 160.762 129.137C159.569 129.487 158.32 129.753 157.043 129.939C156.956 129.951 156.87 129.963 156.78 129.976C155.559 130.14 154.31 130.23 153.061 130.242C152.974 130.242 152.885 130.242 152.798 130.242C151.552 130.242 150.303 130.171 149.079 130.022C148.992 130.01 148.902 130.001 148.816 129.988C147.542 129.824 146.293 129.576 145.096 129.245C145.01 129.22 144.92 129.196 144.834 129.171C143.517 128.793 142.264 128.313 141.114 127.735C141.025 127.691 140.938 127.645 140.852 127.598C140.629 127.484 140.409 127.363 140.196 127.239C138.95 126.518 137.927 125.716 137.132 124.865C137.043 124.769 136.953 124.67 136.869 124.571C134.705 122.06 134.427 119.138 136.044 116.523C136.9 115.139 138.282 113.842 140.196 112.737C147.112 108.737 158.369 108.737 165.285 112.737C167.199 113.842 168.581 115.139 169.438 116.523C170.953 118.971 170.807 121.692 169.002 124.091L168.989 124.097Z" fill="#FF9D4D"/>
<path d="M133.701 125.642V129.994C133.608 129.877 133.522 129.762 133.438 129.641V125.286C133.522 125.404 133.612 125.521 133.701 125.639V125.642Z" fill="#FFE840"/>
<path d="M137.124 128.53V132.886C137.034 132.83 136.947 132.777 136.86 132.725V128.369C136.947 128.425 137.034 128.477 137.124 128.533V128.53Z" fill="#FFE840"/>
<path d="M141.106 130.44V134.796C141.019 134.765 140.929 134.731 140.842 134.697V130.341C140.929 130.375 141.019 130.409 141.106 130.44Z" fill="#FFE840"/>
<path d="M145.091 131.604V135.959C145.005 135.941 144.915 135.922 144.828 135.901V131.545C144.915 131.567 145.005 131.585 145.091 131.604Z" fill="#FFE840"/>
<path d="M149.073 132.232V136.588C148.986 136.582 148.896 136.572 148.81 136.56V132.205C148.896 132.214 148.986 132.223 149.073 132.232Z" fill="#FFE840"/>
<path d="M153.059 132.412V136.767C152.972 136.767 152.882 136.767 152.795 136.767V132.412C152.882 132.412 152.972 132.412 153.059 132.412Z" fill="#FFE840"/>
<path d="M157.041 132.161V136.517C156.954 136.526 156.864 136.538 156.777 136.548V132.192C156.864 132.183 156.954 132.174 157.041 132.161Z" fill="#FFE840"/>
<path d="M161.023 131.455V135.811C160.936 135.832 160.846 135.854 160.759 135.876V131.52C160.846 131.499 160.936 131.48 161.023 131.458V131.455Z" fill="#FFE840"/>
<path d="M165.008 130.189V134.545C164.921 134.579 164.831 134.616 164.744 134.647V130.291C164.831 130.26 164.921 130.223 165.008 130.189Z" fill="#FFE840"/>
<path d="M168.99 128.115V132.471C168.903 132.529 168.817 132.585 168.727 132.644V128.289C168.817 128.233 168.903 128.174 168.99 128.115Z" fill="#FFE840"/>
<path d="M172.524 124.605V128.96C172.44 129.097 172.35 129.233 172.257 129.366V125.01C172.35 124.874 172.437 124.741 172.524 124.605Z" fill="#FFE840"/>
</g>
<defs>
<linearGradient id="paint0_linear_2271_28422" x1="34.4438" y1="109.576" x2="59.19" y2="109.576" gradientUnits="userSpaceOnUse">
<stop stop-color="#6A5EBF"/>
<stop offset="1" stop-color="#6E3AA5"/>
</linearGradient>
<linearGradient id="paint1_linear_2271_28422" x1="34.4443" y1="109.576" x2="59.1908" y2="109.576" gradientUnits="userSpaceOnUse">
<stop stop-color="#292D32"/>
<stop offset="1" stop-color="#212838"/>
</linearGradient>
<linearGradient id="paint2_linear_2271_28422" x1="89.8876" y1="109.022" x2="114.631" y2="109.022" gradientUnits="userSpaceOnUse">
<stop stop-color="#6A5EBF"/>
<stop offset="1" stop-color="#6E3AA5"/>
</linearGradient>
<linearGradient id="paint3_linear_2271_28422" x1="89.885" y1="109.022" x2="114.631" y2="109.022" gradientUnits="userSpaceOnUse">
<stop stop-color="#292D32"/>
<stop offset="1" stop-color="#212838"/>
</linearGradient>
<linearGradient id="paint4_linear_2271_28422" x1="59.1901" y1="60.9574" x2="83.9331" y2="60.9574" gradientUnits="userSpaceOnUse">
<stop stop-color="#6A5EBF"/>
<stop offset="1" stop-color="#6E3AA5"/>
</linearGradient>
<linearGradient id="paint5_linear_2271_28422" x1="59.1875" y1="60.9576" x2="83.934" y2="60.9576" gradientUnits="userSpaceOnUse">
<stop stop-color="#292D32"/>
<stop offset="1" stop-color="#212838"/>
</linearGradient>
<linearGradient id="paint6_linear_2271_28422" x1="199.136" y1="20.7079" x2="248.166" y2="24.6736" gradientUnits="userSpaceOnUse">
<stop stop-color="#6A5EBF"/>
<stop offset="1" stop-color="#6E3AA5"/>
</linearGradient>
<linearGradient id="paint7_linear_2271_28422" x1="199.413" y1="22.6868" x2="248.361" y2="22.6868" gradientUnits="userSpaceOnUse">
<stop stop-color="#292D32"/>
<stop offset="1" stop-color="#212838"/>
</linearGradient>
<clipPath id="clip0_2271_28422">
<rect width="272" height="158" fill="white" transform="translate(0.5 0.0554199)"/>
</clipPath>
</defs>
</svg>
