<svg width="18" height="19" viewBox="0 0 18 19" fill="none" xmlns="http://www.w3.org/2000/svg">
<path d="M4.95078 15.0366C4.99773 15.1143 5.04274 15.1885 5.08561 15.259C5.12323 15.1967 5.1626 15.1313 5.20362 15.0629C5.5813 14.4327 6.09073 13.5614 6.64067 12.6023L6.64095 12.6018L8.36329 9.60411C8.43023 9.48761 8.42972 9.3442 8.36196 9.22817L6.62553 6.25503L6.62474 6.25367C6.06998 5.29827 5.55783 4.42826 5.17842 3.79593C5.12494 3.70679 5.07422 3.62259 5.0265 3.54371C4.2246 4.92636 3.42366 6.32986 2.793 7.45216C2.41991 8.11609 2.10757 8.67956 1.89022 9.08133C1.81069 9.22836 1.745 9.35166 1.69418 9.44924C1.70696 9.47286 1.72071 9.49812 1.73542 9.525C1.84581 9.72672 2.00237 10.005 2.19096 10.3355C2.56769 10.9958 3.06683 11.8554 3.56768 12.7086C4.06856 13.5618 4.56983 14.4063 4.95078 15.0366Z" stroke="#E73050" stroke-width="1.25" stroke-linejoin="round"/>
<path d="M9.16972 5.28994L9.16972 5.28994L9.17122 5.29254L10.6117 7.80285C10.6785 7.91936 10.8026 7.99121 10.9369 7.99121H11.5044C11.5408 7.99121 11.5757 7.99118 11.6093 7.99113C11.5761 7.93223 11.5413 7.87055 11.505 7.80629C11.1885 7.2465 10.7594 6.49489 10.2927 5.68541L10.2916 5.68363L8.88623 3.22753C8.81943 3.1108 8.69524 3.03877 8.56075 3.03877H8.02055C7.97481 3.03877 7.93041 3.03894 7.88739 3.03925C7.90625 3.07314 7.92564 3.10791 7.94553 3.14352C8.2579 3.70289 8.69057 4.46413 9.16972 5.28994Z" stroke="#E73050" stroke-width="1.25" stroke-linejoin="round"/>
<path d="M16.322 9.42291C16.321 9.42075 16.3199 9.41856 16.3189 9.41635C16.243 9.25634 16.1231 9.02328 15.9594 8.71902C15.6332 8.11279 15.1475 7.25096 14.5271 6.18126L14.5263 6.17988L12.8405 3.25604C12.7751 3.14254 12.6552 3.07142 12.5242 3.06845L11.9165 3.05468C11.893 3.05436 11.8698 3.05408 11.8469 3.05383C12.1295 3.54984 12.511 4.21904 12.9396 4.97069C13.0677 5.19539 13.2 5.42745 13.3352 5.66446L15.0094 8.59653C15.2949 9.09656 15.2945 9.71035 15.0083 10.21L13.3084 13.1777C13.3084 13.1778 13.3083 13.1779 13.3082 13.178C12.7615 14.1348 12.2635 15.007 11.9023 15.6421C11.8773 15.686 11.8529 15.7288 11.8293 15.7704C11.858 15.77 11.887 15.7696 11.9164 15.7692L12.5152 15.7555C12.6462 15.7526 12.7661 15.6814 12.8316 15.5679L14.491 12.6884C15.0232 11.7649 15.5087 10.9062 15.8629 10.2675C16.0401 9.94767 16.1832 9.6852 16.2824 9.49806C16.2967 9.47115 16.3098 9.4461 16.322 9.42291ZM16.4139 9.2402C16.4199 9.22664 16.418 9.22924 16.4127 9.24287C16.4132 9.24182 16.4136 9.24093 16.4139 9.2402Z" stroke="#E73050" stroke-width="1.25" stroke-linejoin="round"/>
<path d="M9.13632 13.5691L9.13529 13.5709C8.66907 14.3795 8.24513 15.1276 7.9383 15.6791C7.91764 15.7163 7.89752 15.7525 7.87798 15.7878C7.92269 15.788 7.96938 15.7881 8.01809 15.7881L8.56068 15.7838C8.69419 15.7827 8.81707 15.7108 8.88331 15.5948L9.42597 15.9049L8.88331 15.5948L10.2738 13.1613L10.2745 13.1601C10.7362 12.3561 11.1559 11.6121 11.4621 11.0619C11.4885 11.0146 11.5139 10.9687 11.5385 10.9244C11.4995 10.9243 11.4588 10.9243 11.4162 10.9243H10.8672C10.7327 10.9243 10.6085 10.9963 10.5417 11.113L9.13631 13.5691L9.13632 13.5691Z" stroke="#E73050" stroke-width="1.25" stroke-linejoin="round"/>
</svg>
