<svg width="18" height="19" viewBox="0 0 18 19" fill="none" xmlns="http://www.w3.org/2000/svg">
<path d="M4.95078 15.0356C4.99773 15.1133 5.04274 15.1876 5.08561 15.258C5.12323 15.1958 5.1626 15.1303 5.20362 15.0619C5.5813 14.4317 6.09073 13.5604 6.64067 12.6013L6.64095 12.6008L8.36329 9.60314C8.43023 9.48663 8.42972 9.34322 8.36196 9.2272L6.62553 6.25406L6.62474 6.25269C6.06998 5.2973 5.55783 4.42728 5.17842 3.79495C5.12494 3.70581 5.07422 3.62161 5.0265 3.54274C4.2246 4.92539 3.42366 6.32888 2.793 7.45119C2.41991 8.11511 2.10757 8.67859 1.89022 9.08036C1.81069 9.22738 1.745 9.35068 1.69418 9.44826C1.70696 9.47188 1.72071 9.49714 1.73542 9.52402C1.84581 9.72574 2.00237 10.004 2.19096 10.3345C2.56769 10.9949 3.06683 11.8544 3.56768 12.7076C4.06856 13.5608 4.56983 14.4054 4.95078 15.0356Z" stroke="white" stroke-width="1.25" stroke-linejoin="round"/>
<path d="M9.1707 5.28896L9.1707 5.28896L9.17219 5.29156L10.6127 7.80187C10.6795 7.91838 10.8036 7.99023 10.9379 7.99023H11.5054C11.5418 7.99023 11.5767 7.99021 11.6103 7.99015C11.5771 7.93125 11.5423 7.86957 11.506 7.80531C11.1894 7.24553 10.7604 6.49391 10.2936 5.68443L10.2926 5.68265L8.88721 3.22656C8.82041 3.10982 8.69622 3.0378 8.56172 3.0378H8.02153C7.97579 3.0378 7.93138 3.03796 7.88837 3.03828C7.90723 3.07216 7.92661 3.10693 7.9465 3.14255C8.25888 3.70191 8.69155 4.46315 9.1707 5.28896Z" stroke="white" stroke-width="1.25" stroke-linejoin="round"/>
<path d="M16.323 9.42194C16.3219 9.41977 16.3209 9.41759 16.3198 9.41538C16.2439 9.25536 16.1241 9.0223 15.9604 8.71804C15.6342 8.11181 15.1485 7.24999 14.5281 6.18028L14.5273 6.1789L12.8415 3.25507C12.7761 3.14156 12.6561 3.07044 12.5251 3.06747L11.9175 3.0537C11.894 3.05338 11.8708 3.0531 11.8479 3.05285C12.1305 3.54886 12.512 4.21806 12.9406 4.96971C13.0687 5.19441 13.201 5.42648 13.3361 5.66349L15.0104 8.59555C15.2959 9.09558 15.2955 9.70937 15.0093 10.209L13.3094 13.1767C13.3093 13.1768 13.3093 13.1769 13.3092 13.177C12.7624 14.1338 12.2645 15.006 11.9032 15.6411C11.8782 15.685 11.8539 15.7278 11.8303 15.7694C11.859 15.769 11.888 15.7686 11.9174 15.7682L12.5162 15.7546C12.6472 15.7516 12.7671 15.6804 12.8325 15.5669L14.4919 12.6875C15.0242 11.7639 15.5097 10.9053 15.8638 10.2665C16.0411 9.9467 16.1842 9.68422 16.2834 9.49709C16.2976 9.47017 16.3108 9.44512 16.323 9.42194ZM16.4149 9.23922C16.4208 9.22566 16.4189 9.22826 16.4137 9.24189C16.4142 9.24084 16.4146 9.23995 16.4149 9.23922Z" stroke="white" stroke-width="1.25" stroke-linejoin="round"/>
<path d="M9.13729 13.5681L9.13627 13.5699C8.67005 14.3785 8.24611 15.1266 7.93928 15.6782C7.91861 15.7153 7.8985 15.7515 7.87896 15.7868C7.92367 15.787 7.97035 15.7871 8.01907 15.7871L8.56166 15.7828C8.69517 15.7818 8.81805 15.7098 8.88429 15.5939L9.42695 15.9039L8.88429 15.5939L10.2748 13.1603L10.2754 13.1591C10.7372 12.3552 11.1569 11.6111 11.4631 11.0609C11.4894 11.0136 11.5149 10.9678 11.5395 10.9235C11.5005 10.9233 11.4598 10.9233 11.4172 10.9233H10.8682C10.7337 10.9233 10.6095 10.9953 10.5427 11.112L9.13729 13.5681L9.13729 13.5681Z" stroke="white" stroke-width="1.25" stroke-linejoin="round"/>
</svg>
