<svg width="298" height="296" viewBox="0 0 298 296" fill="none" xmlns="http://www.w3.org/2000/svg">
<path d="M46.1706 60.0386H45.1443V114.946H46.1706V60.0386Z" fill="#3F3D56"/>
<path d="M46.1706 131.29H45.1443V179.603H46.1706V131.29Z" fill="#3F3D56"/>
<path d="M123.143 187.3H43.6047V188.327H123.143V187.3Z" fill="#3F3D56"/>
<path d="M10.7631 201.155H9.73682V244.773H10.7631V201.155Z" fill="#3F3D56"/>
<path d="M139.564 252.47H18.9736V253.497H139.564V252.47Z" fill="#3F3D56"/>
<path d="M240.142 25.1445H239.115V76.9728H240.142V25.1445Z" fill="#3F3D56"/>
<path d="M231.418 85.1831H155.968V86.2094H231.418V85.1831Z" fill="#3F3D56"/>
<path d="M148.288 93.3936H147.261V162.669H148.288V93.3936Z" fill="#3F3D56"/>
<path d="M45.6574 131.88C43.9321 131.88 42.2454 131.368 40.8109 130.41C39.3763 129.451 38.2582 128.089 37.5979 126.495C36.9376 124.901 36.7649 123.147 37.1015 121.454C37.4381 119.762 38.2689 118.208 39.4889 116.988C40.7089 115.768 42.2633 114.937 43.9555 114.6C45.6477 114.264 47.4018 114.436 48.9958 115.097C50.5898 115.757 51.9523 116.875 52.9108 118.31C53.8694 119.744 54.381 121.431 54.381 123.156C54.3784 125.469 53.4585 127.686 51.8231 129.322C50.1876 130.957 47.9703 131.877 45.6574 131.88ZM45.6574 115.459C44.135 115.459 42.6469 115.91 41.381 116.756C40.1152 117.602 39.1287 118.804 38.5461 120.211C37.9635 121.617 37.811 123.165 38.108 124.658C38.405 126.151 39.1381 127.523 40.2146 128.599C41.2911 129.675 42.6626 130.409 44.1558 130.706C45.6489 131.003 47.1965 130.85 48.603 130.268C50.0095 129.685 51.2117 128.698 52.0575 127.433C52.9033 126.167 53.3547 124.679 53.3547 123.156C53.3524 121.115 52.5407 119.159 51.0977 117.716C49.6547 116.273 47.6982 115.461 45.6574 115.459Z" fill="#3F3D56"/>
<path d="M10.7631 261.707C9.03778 261.707 7.35116 261.195 5.91658 260.237C4.48199 259.278 3.36387 257.916 2.7036 256.322C2.04333 254.728 1.87057 252.974 2.20717 251.281C2.54378 249.589 3.37463 248.035 4.59464 246.815C5.81466 245.595 7.36903 244.764 9.06124 244.427C10.7534 244.091 12.5075 244.264 14.1015 244.924C15.6955 245.584 17.058 246.702 18.0165 248.137C18.9751 249.571 19.4867 251.258 19.4867 252.983C19.4841 255.296 18.5642 257.514 16.9288 259.149C15.2934 260.784 13.076 261.704 10.7631 261.707ZM10.7631 245.286C9.24076 245.286 7.75257 245.738 6.48676 246.583C5.22095 247.429 4.23436 248.631 3.65178 250.038C3.06919 251.444 2.91676 252.992 3.21376 254.485C3.51076 255.978 4.24385 257.35 5.32033 258.426C6.39681 259.503 7.76835 260.236 9.26147 260.533C10.7546 260.83 12.3023 260.677 13.7087 260.095C15.1152 259.512 16.3174 258.526 17.1632 257.26C18.009 255.994 18.4604 254.506 18.4604 252.983C18.4581 250.943 17.6465 248.986 16.2034 247.543C14.7604 246.1 12.8039 245.288 10.7631 245.286Z" fill="#3F3D56"/>
<path d="M46.1704 196.024C50.7049 196.024 54.3808 192.348 54.3808 187.813C54.3808 183.279 50.7049 179.603 46.1704 179.603C41.6359 179.603 37.96 183.279 37.96 187.813C37.96 192.348 41.6359 196.024 46.1704 196.024Z" fill="#E31337"/>
<path d="M250.405 131.29H249.379V179.603H250.405V131.29Z" fill="#3F3D56"/>
<path d="M241.168 187.3H172.919V188.327H241.168V187.3Z" fill="#3F3D56"/>
<path d="M285.812 201.155H284.786V244.773H285.812V201.155Z" fill="#3F3D56"/>
<path d="M276.575 252.47H155.985V253.497H276.575V252.47Z" fill="#3F3D56"/>
<path d="M148.288 212.958H147.261V244.773H148.288V212.958Z" fill="#3F3D56"/>
<path d="M249.892 131.367C254.426 131.367 258.102 127.691 258.102 123.156C258.102 118.622 254.426 114.946 249.892 114.946C245.357 114.946 241.681 118.622 241.681 123.156C241.681 127.691 245.357 131.367 249.892 131.367Z" fill="#E31337"/>
<path d="M239.629 93.9066C237.903 93.9066 236.217 93.395 234.782 92.4364C233.347 91.4779 232.229 90.1154 231.569 88.5214C230.909 86.9274 230.736 85.1734 231.073 83.4812C231.409 81.789 232.24 80.2346 233.46 79.0146C234.68 77.7945 236.235 76.9637 237.927 76.6271C239.619 76.2905 241.373 76.4633 242.967 77.1235C244.561 77.7838 245.923 78.9019 246.882 80.3365C247.841 81.7711 248.352 83.4577 248.352 85.1831C248.35 87.4959 247.43 89.7133 245.794 91.3487C244.159 92.9841 241.941 93.904 239.629 93.9066ZM239.629 77.4858C238.106 77.4858 236.618 77.9372 235.352 78.783C234.086 79.6288 233.1 80.8309 232.517 82.2374C231.935 83.6439 231.782 85.1916 232.079 86.6847C232.376 88.1778 233.109 89.5494 234.186 90.6258C235.262 91.7023 236.634 92.4354 238.127 92.7324C239.62 93.0294 241.168 92.877 242.574 92.2944C243.981 91.7118 245.183 90.7252 246.029 89.4594C246.874 88.1936 247.326 86.7054 247.326 85.1831C247.324 83.1423 246.512 81.1858 245.069 79.7428C243.626 78.2997 241.669 77.4881 239.629 77.4858Z" fill="#3F3D56"/>
<path d="M147.775 93.9066C146.049 93.9066 144.363 93.395 142.928 92.4364C141.493 91.4779 140.375 90.1154 139.715 88.5214C139.055 86.9274 138.882 85.1734 139.219 83.4812C139.555 81.789 140.386 80.2346 141.606 79.0146C142.826 77.7945 144.381 76.9637 146.073 76.6271C147.765 76.2905 149.519 76.4633 151.113 77.1235C152.707 77.7838 154.069 78.9019 155.028 80.3365C155.987 81.7711 156.498 83.4577 156.498 85.1831C156.496 87.4959 155.576 89.7133 153.94 91.3487C152.305 92.9841 150.087 93.904 147.775 93.9066ZM147.775 77.4858C146.252 77.4858 144.764 77.9372 143.498 78.783C142.232 79.6288 141.246 80.8309 140.663 82.2374C140.081 83.6439 139.928 85.1916 140.225 86.6847C140.522 88.1778 141.255 89.5494 142.332 90.6258C143.408 91.7023 144.78 92.4354 146.273 92.7324C147.766 93.0294 149.314 92.877 150.72 92.2944C152.127 91.7118 153.329 90.7252 154.175 89.4594C155.02 88.1936 155.472 86.7054 155.472 85.1831C155.47 83.1423 154.658 81.1858 153.215 79.7428C151.772 78.2997 149.815 77.4881 147.775 77.4858Z" fill="#3F3D56"/>
<path d="M284.786 201.668C283.061 201.668 281.374 201.157 279.94 200.198C278.505 199.24 277.387 197.877 276.727 196.283C276.066 194.689 275.894 192.935 276.23 191.243C276.567 189.551 277.398 187.996 278.618 186.776C279.838 185.556 281.392 184.725 283.084 184.389C284.776 184.052 286.53 184.225 288.124 184.885C289.718 185.546 291.081 186.664 292.039 188.098C292.998 189.533 293.51 191.219 293.51 192.945C293.507 195.258 292.587 197.475 290.952 199.11C289.316 200.746 287.099 201.666 284.786 201.668ZM284.786 185.247C283.264 185.247 281.776 185.699 280.51 186.545C279.244 187.391 278.257 188.593 277.675 189.999C277.092 191.406 276.94 192.953 277.237 194.446C277.534 195.94 278.267 197.311 279.343 198.388C280.42 199.464 281.791 200.197 283.284 200.494C284.778 200.791 286.325 200.639 287.732 200.056C289.138 199.474 290.34 198.487 291.186 197.221C292.032 195.955 292.483 194.467 292.483 192.945C292.481 190.904 291.669 188.948 290.226 187.504C288.783 186.061 286.827 185.25 284.786 185.247Z" fill="#3F3D56"/>
<path d="M284.786 261.194C289.32 261.194 292.996 257.518 292.996 252.983C292.996 248.449 289.32 244.773 284.786 244.773C280.251 244.773 276.575 248.449 276.575 252.983C276.575 257.518 280.251 261.194 284.786 261.194Z" fill="#E31337"/>
<path d="M147.775 261.707C146.049 261.707 144.363 261.195 142.928 260.237C141.493 259.278 140.375 257.916 139.715 256.322C139.055 254.728 138.882 252.974 139.219 251.281C139.555 249.589 140.386 248.035 141.606 246.815C142.826 245.595 144.381 244.764 146.073 244.427C147.765 244.091 149.519 244.264 151.113 244.924C152.707 245.584 154.069 246.702 155.028 248.137C155.987 249.571 156.498 251.258 156.498 252.983C156.496 255.296 155.576 257.514 153.94 259.149C152.305 260.784 150.087 261.704 147.775 261.707ZM147.775 245.286C146.252 245.286 144.764 245.738 143.498 246.583C142.232 247.429 141.246 248.631 140.663 250.038C140.081 251.444 139.928 252.992 140.225 254.485C140.522 255.978 141.255 257.35 142.332 258.426C143.408 259.503 144.78 260.236 146.273 260.533C147.766 260.83 149.314 260.677 150.72 260.095C152.127 259.512 153.329 258.526 154.175 257.26C155.02 255.994 155.472 254.506 155.472 252.983C155.47 250.943 154.658 248.986 153.215 247.543C151.772 246.1 149.815 245.288 147.775 245.286Z" fill="#3F3D56"/>
<path d="M249.378 196.537C247.653 196.537 245.966 196.025 244.532 195.067C243.097 194.108 241.979 192.746 241.319 191.152C240.659 189.558 240.486 187.804 240.822 186.112C241.159 184.419 241.99 182.865 243.21 181.645C244.43 180.425 245.984 179.594 247.676 179.257C249.369 178.921 251.123 179.094 252.717 179.754C254.311 180.414 255.673 181.532 256.632 182.967C257.59 184.401 258.102 186.088 258.102 187.813C258.099 190.126 257.179 192.344 255.544 193.979C253.909 195.615 251.691 196.534 249.378 196.537ZM249.378 180.116C247.856 180.116 246.368 180.568 245.102 181.413C243.836 182.259 242.85 183.461 242.267 184.868C241.684 186.274 241.532 187.822 241.829 189.315C242.126 190.808 242.859 192.18 243.936 193.256C245.012 194.333 246.384 195.066 247.877 195.363C249.37 195.66 250.918 195.507 252.324 194.925C253.73 194.342 254.933 193.356 255.778 192.09C256.624 190.824 257.076 189.336 257.076 187.813C257.073 185.773 256.262 183.816 254.819 182.373C253.376 180.93 251.419 180.118 249.378 180.116Z" fill="#3F3D56"/>
<path d="M10.763 175.498C8.7332 175.498 6.74895 176.099 5.0612 177.227C3.37346 178.355 2.05801 179.958 1.28122 181.833C0.504438 183.708 0.301208 185.772 0.697209 187.763C1.09321 189.754 2.07067 191.582 3.50598 193.018C4.94129 194.453 6.76999 195.43 8.76082 195.826C10.7517 196.222 12.8152 196.019 14.6905 195.242C16.5658 194.466 18.1687 193.15 19.2964 191.462C20.4241 189.775 21.0261 187.79 21.0261 185.761C21.0181 183.041 19.9343 180.435 18.0113 178.512C16.0883 176.589 13.4825 175.506 10.763 175.498ZM10.763 178.576C11.372 178.576 11.9673 178.757 12.4736 179.095C12.9799 179.434 13.3745 179.915 13.6076 180.477C13.8406 181.04 13.9016 181.659 13.7828 182.256C13.664 182.853 13.3707 183.402 12.9402 183.832C12.5096 184.263 11.9609 184.556 11.3637 184.675C10.7664 184.794 10.1474 184.733 9.58478 184.5C9.02218 184.267 8.54132 183.872 8.203 183.366C7.86469 182.86 7.68412 182.264 7.68412 181.655C7.68684 180.84 8.0121 180.058 8.58892 179.481C9.16574 178.904 9.94729 178.579 10.763 178.576ZM10.763 193.399C9.54674 193.393 8.35018 193.091 7.27711 192.518C6.20405 191.946 5.2869 191.12 4.60521 190.113C4.65456 188.06 8.71042 186.93 10.763 186.93C12.8156 186.93 16.8715 188.06 16.9208 190.113C16.2384 191.119 15.3211 191.944 14.2482 192.517C13.1753 193.089 11.9791 193.392 10.763 193.399Z" fill="#3F3D56"/>
<path d="M46.1703 35.4077C44.1404 35.4077 42.1562 36.0096 40.4684 37.1373C38.7807 38.2651 37.4652 39.8679 36.6884 41.7433C35.9117 43.6186 35.7084 45.6821 36.1044 47.673C36.5004 49.6638 37.4779 51.4925 38.9132 52.9278C40.3485 54.3631 42.1772 55.3406 44.168 55.7366C46.1589 56.1326 48.2224 55.9293 50.0977 55.1525C51.9731 54.3758 53.5759 53.0603 54.7037 51.3726C55.8314 49.6848 56.4333 47.7006 56.4333 45.6707C56.4253 42.9513 55.3415 40.3454 53.4185 38.4225C51.4956 36.4995 48.8897 35.4157 46.1703 35.4077ZM46.1703 38.4866C46.7792 38.4866 47.3745 38.6672 47.8808 39.0055C48.3871 39.3438 48.7818 39.8247 49.0148 40.3873C49.2478 40.9499 49.3088 41.569 49.19 42.1662C49.0712 42.7634 48.778 43.3121 48.3474 43.7427C47.9168 44.1732 47.3682 44.4665 46.7709 44.5853C46.1737 44.7041 45.5546 44.6431 44.992 44.4101C44.4294 44.177 43.9485 43.7824 43.6102 43.2761C43.2719 42.7698 43.0913 42.1745 43.0913 41.5655C43.0941 40.7498 43.4193 39.9682 43.9961 39.3914C44.573 38.8146 45.3545 38.4893 46.1703 38.4866ZM46.1703 53.3088C44.954 53.3033 43.7574 53.0011 42.6843 52.4284C41.6113 51.8558 40.6941 51.03 40.0124 50.0227C40.0618 47.9701 44.1177 46.8401 46.1703 46.8401C48.2229 46.8401 52.2787 47.9701 52.3281 50.0227C51.6456 51.0292 50.7283 51.8544 49.6554 52.427C48.5825 52.9995 47.3863 53.3022 46.1703 53.3088Z" fill="#3F3D56"/>
<path d="M239.629 0C237.599 0 235.614 0.601919 233.927 1.72963C232.239 2.85735 230.923 4.46022 230.147 6.33554C229.37 8.21086 229.167 10.2744 229.563 12.2652C229.959 14.2561 230.936 16.0848 232.371 17.5201C233.807 18.9554 235.635 19.9329 237.626 20.3289C239.617 20.7249 241.681 20.5216 243.556 19.7448C245.431 18.968 247.034 17.6526 248.162 15.9649C249.29 14.2771 249.892 12.2929 249.892 10.263C249.884 7.54355 248.8 4.93773 246.877 3.01476C244.954 1.0918 242.348 0.00796021 239.629 0ZM239.629 3.07891C240.237 3.07891 240.833 3.25948 241.339 3.5978C241.845 3.93611 242.24 4.41697 242.473 4.97957C242.706 5.54217 242.767 6.16124 242.648 6.75848C242.529 7.35573 242.236 7.90434 241.806 8.33494C241.375 8.76553 240.826 9.05876 240.229 9.17757C239.632 9.29637 239.013 9.23539 238.45 9.00236C237.888 8.76932 237.407 8.37469 237.068 7.86837C236.73 7.36205 236.55 6.76677 236.55 6.15782C236.552 5.34208 236.878 4.56053 237.454 3.98371C238.031 3.40689 238.813 3.08163 239.629 3.07891ZM239.629 17.9011C238.412 17.8955 237.216 17.5933 236.143 17.0207C235.07 16.4481 234.152 15.6223 233.471 14.6149C233.52 12.5623 237.576 11.4324 239.629 11.4324C241.681 11.4324 245.737 12.5623 245.786 14.6149C245.104 15.6215 244.187 16.4467 243.114 17.0193C242.041 17.5918 240.845 17.8945 239.629 17.9011Z" fill="#3F3D56"/>
<path d="M135.893 151.049V98.8879L87.8828 98.8879L87.8828 151.049H57.0193L57.0193 24.3464L87.8828 24.3464V73.9805H135.893V24.3464L166.756 24.3464V151.049H135.893ZM266.47 163.346V188.073H219.723V213.702H261.055V237.527H219.723V265.322H266.47V290.049H188.86V163.346H266.47Z" fill="#EC1540"/>
<path d="M189.036 151.049L189.036 24.3464L219.9 24.3464L219.9 151.049H189.036ZM111.707 259.005L143.293 163.346L175.961 163.346L131.019 290.049H92.395L47.4535 163.346H80.3023L111.707 259.005Z" fill="#212838"/>
</svg>
