<svg width="298" height="296" viewBox="0 0 298 296" fill="none" xmlns="http://www.w3.org/2000/svg">
<path d="M46.1706 60.0391H45.1443V114.946H46.1706V60.0391Z" fill="white"/>
<path d="M46.1706 131.29H45.1443V179.603H46.1706V131.29Z" fill="white"/>
<path d="M123.143 187.3H43.6047V188.326H123.143V187.3Z" fill="white"/>
<path d="M10.7631 201.155H9.73682V244.773H10.7631V201.155Z" fill="white"/>
<path d="M139.564 252.471H18.9736V253.497H139.564V252.471Z" fill="white"/>
<path d="M240.142 25.1445H239.115V76.9728H240.142V25.1445Z" fill="white"/>
<path d="M231.418 85.1836H155.968V86.2099H231.418V85.1836Z" fill="white"/>
<path d="M148.288 93.3936H147.261V162.669H148.288V93.3936Z" fill="white"/>
<path d="M45.6574 131.88C43.9321 131.88 42.2454 131.368 40.8109 130.41C39.3763 129.451 38.2582 128.089 37.5979 126.495C36.9376 124.901 36.7649 123.147 37.1015 121.454C37.4381 119.762 38.2689 118.208 39.4889 116.988C40.7089 115.768 42.2633 114.937 43.9555 114.6C45.6477 114.264 47.4018 114.436 48.9958 115.097C50.5898 115.757 51.9523 116.875 52.9108 118.31C53.8694 119.744 54.381 121.431 54.381 123.156C54.3784 125.469 53.4585 127.686 51.8231 129.322C50.1876 130.957 47.9703 131.877 45.6574 131.88ZM45.6574 115.459C44.135 115.459 42.6469 115.91 41.381 116.756C40.1152 117.602 39.1287 118.804 38.5461 120.211C37.9635 121.617 37.811 123.165 38.108 124.658C38.405 126.151 39.1381 127.523 40.2146 128.599C41.2911 129.675 42.6626 130.409 44.1558 130.706C45.6489 131.003 47.1965 130.85 48.603 130.268C50.0095 129.685 51.2117 128.698 52.0575 127.433C52.9033 126.167 53.3547 124.679 53.3547 123.156C53.3524 121.115 52.5407 119.159 51.0977 117.716C49.6547 116.273 47.6982 115.461 45.6574 115.459Z" fill="white"/>
<path d="M10.7631 261.707C9.03778 261.707 7.35116 261.195 5.91658 260.237C4.48199 259.278 3.36387 257.916 2.7036 256.322C2.04333 254.728 1.87057 252.974 2.20717 251.281C2.54378 249.589 3.37463 248.035 4.59464 246.815C5.81466 245.595 7.36903 244.764 9.06124 244.427C10.7534 244.091 12.5075 244.264 14.1015 244.924C15.6955 245.584 17.058 246.702 18.0165 248.137C18.9751 249.571 19.4867 251.258 19.4867 252.983C19.4841 255.296 18.5642 257.514 16.9288 259.149C15.2934 260.784 13.076 261.704 10.7631 261.707ZM10.7631 245.286C9.24076 245.286 7.75257 245.738 6.48676 246.583C5.22095 247.429 4.23436 248.631 3.65178 250.038C3.06919 251.444 2.91676 252.992 3.21376 254.485C3.51076 255.978 4.24385 257.35 5.32033 258.426C6.39681 259.503 7.76835 260.236 9.26147 260.533C10.7546 260.83 12.3023 260.677 13.7087 260.095C15.1152 259.512 16.3174 258.526 17.1632 257.26C18.009 255.994 18.4604 254.506 18.4604 252.983C18.4581 250.943 17.6465 248.986 16.2034 247.543C14.7604 246.1 12.8039 245.288 10.7631 245.286Z" fill="white"/>
<path d="M46.1704 196.023C50.7049 196.023 54.3808 192.347 54.3808 187.813C54.3808 183.278 50.7049 179.603 46.1704 179.603C41.6359 179.603 37.96 183.278 37.96 187.813C37.96 192.347 41.6359 196.023 46.1704 196.023Z" fill="#E31337"/>
<path d="M250.405 131.29H249.379V179.603H250.405V131.29Z" fill="white"/>
<path d="M241.168 187.3H172.919V188.326H241.168V187.3Z" fill="white"/>
<path d="M285.812 201.155H284.786V244.773H285.812V201.155Z" fill="white"/>
<path d="M276.575 252.471H155.985V253.497H276.575V252.471Z" fill="white"/>
<path d="M148.288 212.958H147.261V244.773H148.288V212.958Z" fill="white"/>
<path d="M249.892 131.367C254.426 131.367 258.102 127.691 258.102 123.157C258.102 118.622 254.426 114.946 249.892 114.946C245.357 114.946 241.681 118.622 241.681 123.157C241.681 127.691 245.357 131.367 249.892 131.367Z" fill="#E31337"/>
<path d="M239.629 93.9061C237.903 93.9061 236.217 93.3945 234.782 92.436C233.347 91.4774 232.229 90.115 231.569 88.5209C230.909 86.9269 230.736 85.1729 231.073 83.4807C231.409 81.7885 232.24 80.2341 233.46 79.0141C234.68 77.7941 236.235 76.9632 237.927 76.6266C239.619 76.29 241.373 76.4628 242.967 77.123C244.561 77.7833 245.923 78.9014 246.882 80.336C247.841 81.7706 248.352 83.4572 248.352 85.1826C248.35 87.4954 247.43 89.7128 245.794 91.3482C244.159 92.9836 241.941 93.9036 239.629 93.9061ZM239.629 77.4853C238.106 77.4853 236.618 77.9367 235.352 78.7825C234.086 79.6283 233.1 80.8305 232.517 82.2369C231.935 83.6434 231.782 85.1911 232.079 86.6842C232.376 88.1774 233.109 89.5489 234.186 90.6254C235.262 91.7018 236.634 92.4349 238.127 92.7319C239.62 93.0289 241.168 92.8765 242.574 92.2939C243.981 91.7113 245.183 90.7248 246.029 89.4589C246.874 88.1931 247.326 86.7049 247.326 85.1826C247.324 83.1418 246.512 81.1853 245.069 79.7423C243.626 78.2993 241.669 77.4876 239.629 77.4853Z" fill="white"/>
<path d="M147.775 93.9061C146.049 93.9061 144.363 93.3945 142.928 92.436C141.493 91.4774 140.375 90.115 139.715 88.5209C139.055 86.9269 138.882 85.1729 139.219 83.4807C139.555 81.7885 140.386 80.2341 141.606 79.0141C142.826 77.7941 144.381 76.9632 146.073 76.6266C147.765 76.29 149.519 76.4628 151.113 77.123C152.707 77.7833 154.069 78.9014 155.028 80.336C155.987 81.7706 156.498 83.4572 156.498 85.1826C156.496 87.4954 155.576 89.7128 153.94 91.3482C152.305 92.9836 150.087 93.9036 147.775 93.9061ZM147.775 77.4853C146.252 77.4853 144.764 77.9367 143.498 78.7825C142.232 79.6283 141.246 80.8305 140.663 82.2369C140.081 83.6434 139.928 85.1911 140.225 86.6842C140.522 88.1774 141.255 89.5489 142.332 90.6254C143.408 91.7018 144.78 92.4349 146.273 92.7319C147.766 93.0289 149.314 92.8765 150.72 92.2939C152.127 91.7113 153.329 90.7248 154.175 89.4589C155.02 88.1931 155.472 86.7049 155.472 85.1826C155.47 83.1418 154.658 81.1853 153.215 79.7423C151.772 78.2993 149.815 77.4876 147.775 77.4853Z" fill="white"/>
<path d="M284.786 201.668C283.061 201.668 281.374 201.156 279.94 200.198C278.505 199.239 277.387 197.877 276.727 196.283C276.066 194.689 275.894 192.935 276.23 191.242C276.567 189.55 277.398 187.996 278.618 186.776C279.838 185.556 281.392 184.725 283.084 184.388C284.776 184.052 286.53 184.224 288.124 184.885C289.718 185.545 291.081 186.663 292.039 188.098C292.998 189.532 293.51 191.219 293.51 192.944C293.507 195.257 292.587 197.475 290.952 199.11C289.316 200.745 287.099 201.665 284.786 201.668ZM284.786 185.247C283.264 185.247 281.776 185.698 280.51 186.544C279.244 187.39 278.257 188.592 277.675 189.999C277.092 191.405 276.94 192.953 277.237 194.446C277.534 195.939 278.267 197.311 279.343 198.387C280.42 199.464 281.791 200.197 283.284 200.494C284.778 200.791 286.325 200.638 287.732 200.056C289.138 199.473 290.34 198.486 291.186 197.221C292.032 195.955 292.483 194.467 292.483 192.944C292.481 190.904 291.669 188.947 290.226 187.504C288.783 186.061 286.827 185.249 284.786 185.247Z" fill="white"/>
<path d="M284.786 261.194C289.32 261.194 292.996 257.518 292.996 252.984C292.996 248.449 289.32 244.773 284.786 244.773C280.251 244.773 276.575 248.449 276.575 252.984C276.575 257.518 280.251 261.194 284.786 261.194Z" fill="#E31337"/>
<path d="M147.775 261.707C146.049 261.707 144.363 261.195 142.928 260.237C141.493 259.278 140.375 257.916 139.715 256.322C139.055 254.728 138.882 252.974 139.219 251.281C139.555 249.589 140.386 248.035 141.606 246.815C142.826 245.595 144.381 244.764 146.073 244.427C147.765 244.091 149.519 244.264 151.113 244.924C152.707 245.584 154.069 246.702 155.028 248.137C155.987 249.571 156.498 251.258 156.498 252.983C156.496 255.296 155.576 257.514 153.94 259.149C152.305 260.784 150.087 261.704 147.775 261.707ZM147.775 245.286C146.252 245.286 144.764 245.738 143.498 246.583C142.232 247.429 141.246 248.631 140.663 250.038C140.081 251.444 139.928 252.992 140.225 254.485C140.522 255.978 141.255 257.35 142.332 258.426C143.408 259.503 144.78 260.236 146.273 260.533C147.766 260.83 149.314 260.677 150.72 260.095C152.127 259.512 153.329 258.526 154.175 257.26C155.02 255.994 155.472 254.506 155.472 252.983C155.47 250.943 154.658 248.986 153.215 247.543C151.772 246.1 149.815 245.288 147.775 245.286Z" fill="white"/>
<path d="M249.378 196.537C247.653 196.537 245.966 196.025 244.532 195.067C243.097 194.108 241.979 192.746 241.319 191.152C240.659 189.558 240.486 187.804 240.822 186.112C241.159 184.419 241.99 182.865 243.21 181.645C244.43 180.425 245.984 179.594 247.676 179.257C249.369 178.921 251.123 179.094 252.717 179.754C254.311 180.414 255.673 181.532 256.632 182.967C257.59 184.401 258.102 186.088 258.102 187.813C258.099 190.126 257.179 192.344 255.544 193.979C253.909 195.615 251.691 196.534 249.378 196.537ZM249.378 180.116C247.856 180.116 246.368 180.568 245.102 181.413C243.836 182.259 242.85 183.461 242.267 184.868C241.684 186.274 241.532 187.822 241.829 189.315C242.126 190.808 242.859 192.18 243.936 193.256C245.012 194.333 246.384 195.066 247.877 195.363C249.37 195.66 250.918 195.507 252.324 194.925C253.73 194.342 254.933 193.356 255.778 192.09C256.624 190.824 257.076 189.336 257.076 187.813C257.073 185.773 256.262 183.816 254.819 182.373C253.376 180.93 251.419 180.118 249.378 180.116Z" fill="white"/>
<path d="M10.763 175.498C8.7332 175.498 6.74895 176.1 5.0612 177.228C3.37346 178.355 2.05801 179.958 1.28122 181.834C0.504438 183.709 0.301208 185.772 0.697209 187.763C1.09321 189.754 2.07067 191.583 3.50598 193.018C4.94129 194.453 6.76999 195.431 8.76082 195.827C10.7517 196.223 12.8152 196.02 14.6905 195.243C16.5658 194.466 18.1687 193.151 19.2964 191.463C20.4241 189.775 21.0261 187.791 21.0261 185.761C21.0181 183.042 19.9343 180.436 18.0113 178.513C16.0883 176.59 13.4825 175.506 10.763 175.498ZM10.763 178.577C11.372 178.577 11.9673 178.758 12.4736 179.096C12.9799 179.434 13.3745 179.915 13.6076 180.478C13.8406 181.04 13.9016 181.659 13.7828 182.257C13.664 182.854 13.3707 183.402 12.9402 183.833C12.5096 184.264 11.9609 184.557 11.3637 184.676C10.7664 184.794 10.1474 184.733 9.58478 184.5C9.02218 184.267 8.54132 183.873 8.203 183.366C7.86469 182.86 7.68412 182.265 7.68412 181.656C7.68684 180.84 8.0121 180.059 8.58892 179.482C9.16574 178.905 9.94729 178.58 10.763 178.577ZM10.763 193.399C9.54674 193.394 8.35018 193.091 7.27711 192.519C6.20405 191.946 5.2869 191.12 4.60521 190.113C4.65456 188.06 8.71042 186.93 10.763 186.93C12.8156 186.93 16.8715 188.06 16.9208 190.113C16.2384 191.12 15.3211 191.945 14.2482 192.517C13.1753 193.09 11.9791 193.393 10.763 193.399Z" fill="white"/>
<path d="M46.1703 35.4072C44.1404 35.4072 42.1562 36.0091 40.4684 37.1369C38.7807 38.2646 37.4652 39.8674 36.6884 41.7428C35.9117 43.6181 35.7084 45.6816 36.1044 47.6725C36.5004 49.6633 37.4779 51.492 38.9132 52.9273C40.3485 54.3626 42.1772 55.3401 44.168 55.7361C46.1589 56.1321 48.2224 55.9288 50.0977 55.1521C51.9731 54.3753 53.5759 53.0598 54.7037 51.3721C55.8314 49.6843 56.4333 47.7001 56.4333 45.6703C56.4253 42.9508 55.3415 40.345 53.4185 38.422C51.4956 36.499 48.8897 35.4152 46.1703 35.4072ZM46.1703 38.4861C46.7792 38.4861 47.3745 38.6667 47.8808 39.005C48.3871 39.3433 48.7818 39.8242 49.0148 40.3868C49.2478 40.9494 49.3088 41.5685 49.19 42.1657C49.0712 42.763 48.778 43.3116 48.3474 43.7422C47.9168 44.1728 47.3682 44.466 46.7709 44.5848C46.1737 44.7036 45.5546 44.6426 44.992 44.4096C44.4294 44.1765 43.9485 43.7819 43.6102 43.2756C43.2719 42.7693 43.0913 42.174 43.0913 41.565C43.0941 40.7493 43.4193 39.9678 43.9961 39.3909C44.573 38.8141 45.3545 38.4889 46.1703 38.4861ZM46.1703 53.3083C44.954 53.3028 43.7574 53.0006 42.6843 52.4279C41.6113 51.8553 40.6941 51.0295 40.0124 50.0222C40.0618 47.9696 44.1177 46.8397 46.1703 46.8397C48.2229 46.8397 52.2787 47.9696 52.3281 50.0222C51.6456 51.0287 50.7283 51.8539 49.6554 52.4265C48.5825 52.999 47.3863 53.3017 46.1703 53.3083Z" fill="white"/>
<path d="M239.629 0C237.599 0 235.614 0.601919 233.927 1.72963C232.239 2.85735 230.923 4.46022 230.147 6.33554C229.37 8.21086 229.167 10.2744 229.563 12.2652C229.959 14.2561 230.936 16.0848 232.371 17.5201C233.807 18.9554 235.635 19.9329 237.626 20.3289C239.617 20.7249 241.681 20.5216 243.556 19.7448C245.431 18.968 247.034 17.6526 248.162 15.9649C249.29 14.2771 249.892 12.2929 249.892 10.263C249.884 7.54355 248.8 4.93773 246.877 3.01476C244.954 1.0918 242.348 0.00796021 239.629 0ZM239.629 3.07891C240.237 3.07891 240.833 3.25948 241.339 3.5978C241.845 3.93611 242.24 4.41697 242.473 4.97957C242.706 5.54217 242.767 6.16124 242.648 6.75848C242.529 7.35573 242.236 7.90434 241.806 8.33494C241.375 8.76553 240.826 9.05876 240.229 9.17757C239.632 9.29637 239.013 9.23539 238.45 9.00236C237.888 8.76932 237.407 8.37469 237.068 7.86837C236.73 7.36205 236.55 6.76677 236.55 6.15782C236.552 5.34208 236.878 4.56053 237.454 3.98371C238.031 3.40689 238.813 3.08163 239.629 3.07891ZM239.629 17.9011C238.412 17.8955 237.216 17.5933 236.143 17.0207C235.07 16.4481 234.152 15.6223 233.471 14.6149C233.52 12.5623 237.576 11.4324 239.629 11.4324C241.681 11.4324 245.737 12.5623 245.786 14.6149C245.104 15.6215 244.187 16.4467 243.114 17.0193C242.041 17.5918 240.845 17.8945 239.629 17.9011Z" fill="white"/>
<path d="M135.893 151.049V98.8879L87.8828 98.8879L87.8828 151.049H57.0193L57.0193 24.3464L87.8828 24.3464V73.9805H135.893V24.3464L166.756 24.3464V151.049H135.893ZM266.47 163.346V188.073H219.723V213.702H261.055V237.527H219.723V265.322H266.47V290.049H188.86V163.346H266.47Z" fill="#EC1540"/>
<path d="M189.036 151.049L189.036 24.3464L219.9 24.3464L219.9 151.049H189.036ZM111.707 259.005L143.293 163.346L175.961 163.346L131.019 290.049H92.395L47.4535 163.346H80.3023L111.707 259.005Z" fill="white"/>
</svg>
