<svg xmlns="http://www.w3.org/2000/svg" width="18" height="19" fill="none" viewBox="0 0 18 19">
  <path stroke="currentColor" stroke-linejoin="round" stroke-width="1.25" d="m4.95 15.037.136.222.118-.196c.377-.63.887-1.502 1.437-2.46v-.001l1.722-2.998a.375.375 0 0 0-.001-.376L6.626 6.255l-.001-.001a210.985 210.985 0 0 0-1.598-2.71 345.437 345.437 0 0 0-2.234 3.908 132.25 132.25 0 0 0-.903 1.63c-.08.146-.145.27-.196.367l.041.076c.11.202.267.48.456.81a251.972 251.972 0 0 0 2.76 4.702ZM9.17 5.29l.001.003 1.44 2.51a.378.378 0 0 0 .326.188h.672a228.228 228.228 0 0 0-1.316-2.306l-.001-.001-1.406-2.456a.375.375 0 0 0-.325-.19h-.54l-.134.001.059.105c.312.559.745 1.32 1.224 2.146Zm7.152 4.133-.003-.007a16.74 16.74 0 0 0-.36-.697 97.664 97.664 0 0 0-1.432-2.538V6.18L12.84 3.256a.375.375 0 0 0-.317-.188l-.607-.013-.07-.001a6768.164 6768.164 0 0 0 1.488 2.61l1.674 2.933c.286.5.285 1.113 0 1.613l-1.7 2.968-1.407 2.464-.073.128h.087l.6-.014a.375.375 0 0 0 .316-.188l1.659-2.88a179.1 179.1 0 0 0 1.372-2.42c.177-.32.32-.583.42-.77l.039-.075Zm.092-.183Zm-7.278 4.33c-.467.81-.89 1.558-1.198 2.11l-.06.108h.14l.543-.004a.375.375 0 0 0 .322-.19l.543.31-.543-.31 1.39-2.433h.002c.461-.805.88-1.549 1.187-2.1l.077-.137h-.672a.375.375 0 0 0-.325.189l-1.406 2.456Z"/>
</svg>
