<svg width="11" height="11" viewBox="0 0 11 11" fill="none" xmlns="http://www.w3.org/2000/svg">
<path d="M5.99479 4.44649V6.63574H5.56348V5.74636H4.58486V6.63574H4.15355V4.44649H4.58486V5.32993H5.56348V4.44649H5.99479ZM7.10307 4.44649C7.28353 4.44649 7.43622 4.47723 7.56115 4.5387C7.68608 4.59819 7.78127 4.68346 7.84671 4.79451C7.91215 4.90358 7.94487 5.03346 7.94487 5.18417C7.94487 5.27341 7.93098 5.36364 7.90322 5.45486C7.87744 5.54409 7.83481 5.62539 7.77532 5.69877C7.71781 5.77214 7.63948 5.83163 7.54033 5.87724C7.44316 5.92086 7.32319 5.94268 7.18041 5.94268H6.87106V6.63574H6.43976V4.44649H7.10307ZM7.17744 5.52327C7.24288 5.52327 7.29741 5.51236 7.34104 5.49055C7.38466 5.46675 7.41837 5.438 7.44217 5.40429C7.46795 5.36859 7.4858 5.33191 7.49571 5.29423C7.50761 5.25655 7.51356 5.22383 7.51356 5.19607C7.51356 5.17426 7.50959 5.1455 7.50166 5.10981C7.49571 5.07213 7.48183 5.03446 7.46002 4.99678C7.4382 4.9591 7.40449 4.92737 7.35888 4.90159C7.31526 4.87581 7.25577 4.86292 7.18041 4.86292H6.87106V5.52327H7.17744Z" fill="#E31337" stroke-width="1"/>
<path d="M10.0013 5.50068C10.0013 7.98505 7.98505 10.0014 5.50067 10.0014C3.0163 10.0014 1.49957 7.49898 1.49957 7.49898M1.49957 7.49898H3.53388M1.49957 7.49898V9.74931M1 5.50068C1 3.0163 2.9983 1 5.50067 1C8.50262 1 10.0013 3.50238 10.0013 3.50238M10.0013 3.50238V1.25204M10.0013 3.50238H8.00305" stroke="#E31337" stroke-width="1" stroke-linecap="round" stroke-linejoin="round"/>
</svg>
