<svg xmlns="http://www.w3.org/2000/svg" width="11" height="11" fill="none" viewBox="0 0 11 11">
  <path fill="#fff" d="M5.995 4.446v2.19h-.432v-.89h-.978v.89h-.431v-2.19h.43v.884h.98v-.884h.43Zm1.108 0c.18 0 .333.031.458.093.125.06.22.144.286.256a.745.745 0 0 1 .098.39.92.92 0 0 1-.042.27.686.686 0 0 1-.128.244.622.622 0 0 1-.235.178.878.878 0 0 1-.36.066h-.309v.693H6.44v-2.19h.663Zm.074 1.077c.066 0 .12-.01.164-.032a.292.292 0 0 0 .101-.087.332.332 0 0 0 .054-.11.333.333 0 0 0 .018-.098.418.418 0 0 0-.012-.086.327.327 0 0 0-.042-.113.262.262 0 0 0-.101-.095.35.35 0 0 0-.179-.04h-.309v.661h.306Z"/>
  <path stroke="#fff" stroke-linecap="round" stroke-linejoin="round" stroke-width=".93" d="M10.001 5.5a4.502 4.502 0 0 1-4.5 4.501C3.016 10.001 1.5 7.5 1.5 7.5m0 0h2.034M1.5 7.5v2.25M1 5.501A4.49 4.49 0 0 1 5.5 1c3.003 0 4.501 2.502 4.501 2.502m0 0v-2.25m0 2.25H8.003"/>
</svg>
