<svg width="109" height="109" viewBox="0 0 109 109" fill="none" xmlns="http://www.w3.org/2000/svg">
<circle cx="54.5628" cy="54.391" r="54.391" fill="url(#paint0_linear_2223_35098)"/>
<path d="M50.5229 69.0853C49.3693 69.0853 48.2159 68.591 47.5568 67.6023L38.329 55.738C37.0108 54.0902 37.3404 51.7832 38.9882 50.465C40.636 49.1467 42.9429 49.4763 44.2612 51.1241L50.5229 59.1984L64.3646 41.2372C65.6829 39.5894 67.9898 39.2598 69.6376 40.5781C71.2854 41.8964 71.615 44.2033 70.2968 45.8511L53.4889 67.6023C52.6651 68.4262 51.6764 69.0853 50.5229 69.0853Z" fill="white"/>
<circle cx="77.7033" cy="62.922" r="2.02951" fill="white"/>
<circle cx="24.5148" cy="40.5917" r="3.24722" fill="white"/>
<circle cx="72.0195" cy="23.1454" r="1.21771" fill="white"/>
<circle cx="38.3336" cy="80.3785" r="1.62361" fill="white"/>
<circle cx="56.1966" cy="41.4151" r="0.811805" fill="white"/>
<defs>
<linearGradient id="paint0_linear_2223_35098" x1="0.171875" y1="-6.67959" x2="125.75" y2="12.7769" gradientUnits="userSpaceOnUse">
<stop stop-color="#E31337"/>
<stop offset="1" stop-color="#FF002C"/>
</linearGradient>
</defs>
</svg>
