<svg width="197" height="45" viewBox="0 0 197 45" fill="none" xmlns="http://www.w3.org/2000/svg">
<path d="M24.8985 0.921076C21.2918 2.68759 18.5781 6.1167 17.9942 9.71899C17.8568 10.4117 17.5133 11.1045 17.2041 11.2084C16.895 11.347 13.5974 12.4207 9.85324 13.6677C1.98711 16.2308 1.23141 16.5772 0.510065 17.9627C-0.108233 19.1404 -0.176933 21.4957 0.372665 22.5695C1.30011 24.3706 3.87636 25.6869 5.3534 25.098C5.6969 24.9595 6.14345 25.2019 6.59 25.7561C7.10525 26.4142 7.58614 26.6221 8.51359 26.6221C10.6089 26.5874 11.8799 25.0634 11.502 23.0544C11.3303 22.1885 11.4333 21.7728 11.9829 21.2879C12.6356 20.6991 14.0783 20.7683 14.0783 21.4265C14.0783 21.5996 14.4905 22.1885 14.9714 22.7773C15.624 23.574 16.1393 23.8511 16.998 23.8511C18.4407 23.8511 19.8491 22.6734 20.0208 21.3572C20.1926 19.9024 20.4674 19.8678 21.807 21.0454C23.0436 22.1192 25.7572 23.6779 25.7572 23.3315C25.7572 23.193 25.3794 22.6041 24.8985 21.946C23.3528 19.937 22.5627 17.0968 22.7688 14.2911C22.9749 11.4162 23.868 9.30334 25.7916 7.08654C28.78 3.69207 32.902 2.47976 37.7797 3.65743L38.6385 3.86526L37.8484 2.99932C37.4019 2.5144 36.2683 1.6831 35.3065 1.16354C33.7951 0.332239 33.0394 0.159052 30.2571 0.0551395C27.1656 -0.0834103 26.8221 -0.0141354 24.8985 0.921076Z" fill="#EC1540"/>
<path d="M56.9129 5.562C56.4663 5.90838 56.0198 8.50619 54.7832 17.3734C53.9244 23.6081 53.3061 28.873 53.4092 29.0462C53.5122 29.254 54.5427 29.3926 55.6419 29.3926C58.1151 29.3926 58.1495 29.3579 58.7334 24.7165C58.9739 22.8115 59.283 21.0449 59.4204 20.8025C59.5578 20.4908 60.554 21.8762 62.1684 24.6126C63.5424 26.968 64.8477 28.9769 65.0538 29.1155C65.2599 29.254 66.5652 29.3926 67.9392 29.3926C69.9315 29.3926 70.4124 29.2887 70.4124 28.873C70.4124 28.5613 68.8666 25.9981 66.9774 23.1578C65.0881 20.3176 63.5424 17.8929 63.5424 17.789C63.5424 17.6851 65.8095 15.018 68.5575 11.866C71.3055 8.71401 73.4695 5.94302 73.4008 5.73519C73.2291 5.21563 70.1032 5.0078 68.9353 5.45809C68.4201 5.66592 66.4278 7.84808 64.1607 10.6883C62.031 13.3901 60.2448 15.399 60.1761 15.2259C60.1074 15.018 60.3135 13.2169 60.5883 11.2079C61.2753 6.60113 61.2753 5.63128 60.5883 5.35418C59.6609 5.0078 57.5312 5.11172 56.9129 5.562Z" fill="white"/>
<path d="M76.1147 5.59665C75.6338 5.94302 75.2216 8.09054 73.985 16.7499C73.1606 22.6036 72.4736 27.8685 72.4736 28.4227V29.3926H79.5154H86.5571L86.9006 28.492C87.4158 27.1411 87.3128 25.6864 86.6945 25.4439C86.3853 25.34 84.29 25.2361 82.0229 25.2361H77.9009L78.1414 23.0539C78.5192 19.4516 78.2101 19.6941 82.4351 19.6941H86.1792L86.5227 18.3779C86.7288 17.6851 86.9006 16.9231 86.9006 16.6806C86.9006 15.884 85.5609 15.5376 82.4008 15.5376H79.2406L79.481 13.3554C79.9276 9.37213 79.481 9.7185 84.4961 9.57995C86.9349 9.51068 88.9959 9.37213 89.1333 9.23358C89.2707 9.12967 89.5112 8.33301 89.6829 7.53634C90.1982 5.25027 89.9234 5.14636 82.7786 5.14636C78.3818 5.14636 76.5613 5.28491 76.1147 5.59665Z" fill="white"/>
<path d="M91.4346 5.59751C91.1254 5.94389 91.6407 7.9875 93.4612 13.6334L95.8657 21.2536L95.3161 24.9599C95.007 27.0381 94.8696 28.8392 94.9726 29.0471C95.2818 29.5666 99.129 29.4974 99.5412 28.9432C99.7129 28.7353 100.091 26.8649 100.4 24.8213L100.915 21.1151L105.278 13.8066C107.648 9.82328 109.571 6.25562 109.503 5.90925C109.331 5.00867 106.171 4.90476 105.175 5.73606C104.797 6.08244 103.251 8.64561 101.774 11.4166L99.0946 16.5083L97.755 11.3127C97.0336 8.47242 96.2092 5.90925 95.9344 5.63215C95.2818 5.00867 91.9498 4.97404 91.4346 5.59751Z" fill="white"/>
<path d="M116.579 5.49303C112.8 6.2897 109.194 9.40707 107.854 13.044C106.823 15.7111 106.995 20.0754 108.232 22.6386C110.018 26.4141 113.865 29.0119 118.193 29.3236C120.666 29.4968 123.346 28.9426 123.998 28.1806C124.548 27.5225 124.857 22.9503 124.411 22.6732C124.204 22.5693 123.311 22.8464 122.384 23.366C121.01 24.0933 120.392 24.2319 118.64 24.128C112.594 23.747 109.984 16.958 114.174 12.5937C117.025 9.58025 120.976 9.61489 124.101 12.6976C125.338 13.8753 125.441 13.9446 125.888 13.3557C126.506 12.4898 126.918 8.36794 126.437 7.77911C125.716 6.91317 122.109 5.52767 120.048 5.35448C118.915 5.25057 117.334 5.31985 116.579 5.49303Z" fill="white"/>
<path d="M131.108 5.562C130.627 5.90838 130.215 8.333 128.944 17.2348C128.085 23.4003 127.467 28.6652 127.57 28.9423C127.707 29.254 128.394 29.3926 129.803 29.3926C132.31 29.3926 132.344 29.3579 132.894 24.8897C133.547 19.5209 133.1 20.0405 137.05 20.0405C140.451 20.0405 140.485 20.0405 140.314 20.8025C140.004 22.2226 139.455 27.0026 139.455 28.2149V29.3926H141.653C142.89 29.3926 143.955 29.254 144.058 29.1155C144.126 28.9769 144.917 23.712 145.81 17.4427C147.287 6.6704 147.355 6.01229 146.806 5.59664C145.913 4.93853 143.783 5.04244 142.959 5.73519C142.409 6.22012 142.169 7.2246 141.722 10.6883C141.413 13.0783 141.172 15.1219 141.172 15.2605C141.172 15.4337 139.592 15.5376 137.703 15.5376H134.199L134.405 14.0482C135.402 6.87823 135.47 5.80447 134.989 5.49273C134.234 5.0078 131.795 5.07708 131.108 5.562Z" fill="white"/>
<path d="M157.352 5.59664C156.699 5.90838 155.256 8.67938 151.237 17.0963C148.352 23.1925 146.016 28.4574 145.982 28.7691C145.982 29.2887 146.325 29.3926 148.18 29.3926C150.757 29.3926 150.86 29.2887 152.199 25.9288L153.024 23.8159L156.63 23.9199L160.237 24.0238L160.581 26.2752C160.787 27.5222 161.062 28.7345 161.199 28.9423C161.371 29.2194 162.298 29.3926 163.706 29.3926C165.871 29.3926 165.905 29.3926 165.905 28.4227C165.905 27.9032 164.977 22.6036 163.81 16.646C161.817 6.35867 161.645 5.76983 160.855 5.45809C159.722 5.04244 158.348 5.07708 157.352 5.59664ZM158.829 15.2951C159.619 20.0405 159.756 19.6941 157.111 19.6941C155.875 19.6941 154.913 19.5555 154.982 19.417C155.669 17.6158 158.176 11.7967 158.245 11.8314C158.279 11.9007 158.554 13.4247 158.829 15.2951Z" fill="white"/>
<path d="M171.367 5.70055C170.92 6.22012 168.001 25.5478 167.966 28.0764V29.3926H170.199C172.226 29.3926 172.466 29.3233 172.707 28.5959C172.878 28.1803 173.668 22.8807 174.493 16.8192C176.21 4.45361 176.279 5.14635 173.428 5.14635C172.397 5.14635 171.676 5.35418 171.367 5.70055Z" fill="white"/>
<path d="M179.851 5.5983C179.336 5.97931 178.958 8.05756 177.687 17.2018C176.829 23.3327 176.245 28.5976 176.348 28.9093C176.485 29.325 177 29.3942 178.684 29.325L180.813 29.221L181.054 28.0087C181.191 27.3506 181.638 24.0947 182.05 20.7695L182.84 14.7426L184.523 19.384C185.45 21.9472 186.618 25.2031 187.134 26.6232L188.095 29.221L190.569 29.325C192.87 29.4289 193.076 29.3596 193.385 28.6322C193.729 27.8009 196.477 8.05756 196.477 6.46424C196.477 5.73685 196.271 5.45975 195.584 5.28656C194.622 5.0441 192.389 5.3212 191.977 5.73685C191.84 5.8754 191.393 8.75031 190.981 12.0755C190.569 15.4007 190.122 18.4834 190.019 18.9337C189.813 19.5572 189.195 18.1371 187.237 12.7683C184.454 5.14801 184.454 5.14801 181.741 5.14801C181.054 5.14801 180.195 5.35584 179.851 5.5983Z" fill="white"/>
<path d="M33.6581 6.01298C32.7994 6.29008 31.2536 7.22529 30.1544 8.05659C26.479 11.0008 24.7959 16.612 26.2386 21.0803L26.7881 22.8121L21.8074 28.5273C19.0594 31.6793 16.5175 34.7621 16.1397 35.3855C14.8687 37.4638 15.5557 40.3041 17.7198 41.7242C18.819 42.4862 21.67 42.5555 22.4944 41.8628C22.8036 41.5857 23.9028 41.3778 24.9676 41.3432C26.5134 41.3432 26.9942 41.17 27.5095 40.5119C28.3682 39.4381 28.3339 37.5677 27.4064 36.3208C26.7881 35.4548 26.7194 35.1777 27.0629 34.4157C27.5095 33.4112 28.643 33.2727 29.6735 34.0693C30.7727 34.9006 32.2154 34.6928 33.3833 33.5498C34.2764 32.6492 34.3795 32.3028 34.1734 31.3676C33.7612 29.3933 33.7955 29.2201 34.5169 29.3586C34.8947 29.4279 36.4405 29.4972 37.9519 29.5318C40.2877 29.5665 41.009 29.4279 42.7952 28.5966C45.3027 27.4189 47.3637 25.41 48.669 22.8121C49.4934 21.1149 49.6308 20.5261 49.6308 17.6165C49.6308 14.707 49.5278 14.0835 48.669 12.3516C47.5011 9.96165 45.6462 8.05659 43.2074 6.70573C41.6273 5.83979 40.9403 5.66661 38.2954 5.59733C36.2687 5.52806 34.6543 5.66661 33.6581 6.01298ZM41.7991 11.7282C44.2036 13.1829 44.6157 16.4389 42.6578 18.3786C39.1198 21.9462 33.3833 17.2702 36.1657 13.079C37.5397 11.0008 39.7724 10.4466 41.7991 11.7282Z" fill="white"/>
<path d="M116.888 13.4594C115.342 14.3946 114.621 15.6762 114.621 17.4427C114.621 19.2092 115.342 20.4908 116.888 21.426C119.842 23.2618 123.655 21.0104 123.655 17.4427C123.655 13.8751 119.842 11.6236 116.888 13.4594Z" fill="white"/>
<path d="M53.4092 38.0537H79.6919" stroke="#EC1540" stroke-width="1.37478" stroke-linecap="round"/>
<path d="M84.923 33.1489C85.5886 33.1489 86.158 33.2612 86.6311 33.4857C87.1043 33.7103 87.4652 34.031 87.7138 34.4481C87.9704 34.8651 88.0987 35.3703 88.0987 35.9638C88.0987 36.3086 88.0426 36.6534 87.9303 36.9983C87.8261 37.3431 87.6576 37.6559 87.4251 37.9366C87.2005 38.2173 86.8958 38.4458 86.5109 38.6222C86.1339 38.7907 85.6688 38.8749 85.1154 38.8749H83.8524V41.9062H82.4449V33.1489H84.923ZM85.1154 37.5155C85.4202 37.5155 85.6768 37.4634 85.8853 37.3592C86.0938 37.2549 86.2542 37.1226 86.3665 36.9622C86.4868 36.8018 86.571 36.6374 86.6191 36.469C86.6753 36.2926 86.7033 36.1362 86.7033 35.9998C86.7033 35.8555 86.6793 35.6991 86.6311 35.5307C86.583 35.3543 86.5028 35.1899 86.3906 35.0375C86.2783 34.8771 86.1219 34.7488 85.9214 34.6526C85.7209 34.5483 85.4643 34.4962 85.1515 34.4962H83.8524V37.5155H85.1154ZM89.2575 37.5396C89.2575 36.9301 89.3738 36.3567 89.6063 35.8194C89.8389 35.2821 90.1597 34.8049 90.5687 34.3879C90.9777 33.9709 91.4508 33.6461 91.9881 33.4135C92.5335 33.173 93.1149 33.0527 93.7324 33.0527C94.3419 33.0527 94.9153 33.173 95.4526 33.4135C95.9979 33.6461 96.4751 33.9709 96.8841 34.3879C97.3011 34.8049 97.6259 35.2821 97.8585 35.8194C98.099 36.3567 98.2193 36.9301 98.2193 37.5396C98.2193 38.1571 98.099 38.7345 97.8585 39.2718C97.6259 39.8091 97.3011 40.2863 96.8841 40.7033C96.4751 41.1123 95.9979 41.4331 95.4526 41.6657C94.9153 41.8902 94.3419 42.0025 93.7324 42.0025C93.1069 42.0025 92.5255 41.8902 91.9881 41.6657C91.4508 41.4331 90.9777 41.1163 90.5687 40.7153C90.1597 40.3063 89.8389 39.8332 89.6063 39.2959C89.3738 38.7506 89.2575 38.1651 89.2575 37.5396ZM90.701 37.5396C90.701 37.9727 90.7772 38.3776 90.9296 38.7546C91.09 39.1315 91.3105 39.4643 91.5912 39.753C91.8719 40.0337 92.1967 40.2542 92.5656 40.4146C92.9345 40.575 93.3354 40.6552 93.7685 40.6552C94.1855 40.6552 94.5745 40.575 94.9353 40.4146C95.3042 40.2542 95.625 40.0337 95.8977 39.753C96.1703 39.4643 96.3829 39.1315 96.5352 38.7546C96.6956 38.3776 96.7758 37.9727 96.7758 37.5396C96.7758 37.0985 96.6956 36.6895 96.5352 36.3126C96.3748 35.9357 96.1583 35.6029 95.8856 35.3142C95.613 35.0255 95.2922 34.8009 94.9233 34.6405C94.5544 34.4801 94.1574 34.3999 93.7324 34.3999C93.3074 34.3999 92.9104 34.4801 92.5415 34.6405C92.1726 34.8009 91.8478 35.0255 91.5671 35.3142C91.2945 35.6029 91.0819 35.9397 90.9296 36.3246C90.7772 36.7016 90.701 37.1065 90.701 37.5396ZM98.6621 33.197H100.298L102.463 39.4041L102.235 39.3079L103.919 34.9894L104.568 36.89L102.163 42.3152L98.6621 33.197ZM102.957 33.197H104.34L106.746 39.2718L106.469 39.2237L108.466 33.197H109.97L106.553 42.2912L102.957 33.197ZM111.614 33.1489H117.424V34.4962H113.021V36.8299H116.943V38.1892H113.021V40.559H117.592V41.9062H111.614V33.1489ZM121.997 33.1489C122.479 33.1489 122.92 33.2131 123.321 33.3414C123.722 33.4617 124.063 33.6421 124.343 33.8827C124.624 34.1233 124.84 34.42 124.993 34.7729C125.153 35.1177 125.233 35.5147 125.233 35.9638C125.233 36.3086 125.181 36.6534 125.077 36.9983C124.973 37.3431 124.8 37.6559 124.56 37.9366C124.327 38.2173 124.018 38.4418 123.633 38.6102C123.249 38.7786 122.771 38.8628 122.202 38.8628H120.939V41.9062H119.531V33.1489H121.997ZM122.19 37.5155C122.503 37.5155 122.763 37.4674 122.972 37.3712C123.18 37.2669 123.341 37.1386 123.453 36.9863C123.573 36.8339 123.658 36.6735 123.706 36.5051C123.762 36.3286 123.79 36.1642 123.79 36.0119C123.79 35.8675 123.766 35.7111 123.718 35.5427C123.67 35.3663 123.589 35.2019 123.477 35.0495C123.365 34.8891 123.204 34.7568 122.996 34.6526C122.795 34.5483 122.543 34.4962 122.238 34.4962H120.939V37.5155H122.19ZM123.706 38.3456L125.943 41.9062H124.319L122.034 38.3817L123.706 38.3456ZM127.59 33.1489H133.4V34.4962H128.998V36.8299H132.919V38.1892H128.998V40.559H133.569V41.9062H127.59V33.1489ZM135.508 41.9062V33.1489H137.998C138.872 33.1489 139.614 33.2812 140.223 33.5459C140.833 33.8025 141.326 34.1513 141.703 34.5924C142.08 35.0255 142.353 35.5107 142.521 36.048C142.697 36.5773 142.786 37.1106 142.786 37.6479C142.786 38.3055 142.669 38.8949 142.437 39.4162C142.204 39.9374 141.887 40.3865 141.486 40.7635C141.086 41.1324 140.62 41.4171 140.091 41.6175C139.57 41.81 139.012 41.9062 138.419 41.9062H135.508ZM136.915 40.559H138.166C138.632 40.559 139.057 40.4948 139.442 40.3665C139.826 40.2302 140.159 40.0377 140.44 39.7891C140.729 39.5325 140.949 39.2157 141.102 38.8388C141.262 38.4619 141.342 38.0328 141.342 37.5516C141.342 37.0063 141.25 36.5412 141.065 36.1562C140.889 35.7633 140.652 35.4465 140.356 35.2059C140.067 34.9573 139.75 34.7769 139.405 34.6646C139.061 34.5523 138.72 34.4962 138.383 34.4962H136.915V40.559ZM150.906 33.1489C151.796 33.1489 152.498 33.3293 153.011 33.6902C153.533 34.0511 153.793 34.6044 153.793 35.3503C153.793 35.8475 153.677 36.2725 153.444 36.6254C153.22 36.9702 152.903 37.2389 152.494 37.4313C152.085 37.6158 151.608 37.716 151.063 37.7321L150.846 36.9863C151.496 36.9943 152.073 37.0985 152.578 37.299C153.083 37.4915 153.484 37.7682 153.781 38.129C154.078 38.4819 154.226 38.9029 154.226 39.3921C154.226 39.8492 154.142 40.2382 153.974 40.559C153.805 40.8717 153.581 41.1284 153.3 41.3288C153.019 41.5293 152.702 41.6777 152.35 41.7739C151.997 41.8621 151.628 41.9062 151.243 41.9062H148.512V33.1489H150.906ZM151.135 36.878C151.552 36.878 151.856 36.7577 152.049 36.5171C152.249 36.2685 152.35 35.9798 152.35 35.651C152.35 35.25 152.225 34.9573 151.977 34.7729C151.728 34.5884 151.391 34.4962 150.966 34.4962H149.92V36.878H151.135ZM151.183 40.6071C151.48 40.6071 151.748 40.567 151.989 40.4868C152.229 40.3986 152.418 40.2663 152.554 40.0898C152.698 39.9054 152.771 39.6768 152.771 39.4041C152.771 39.0994 152.686 38.8628 152.518 38.6944C152.358 38.526 152.149 38.4057 151.893 38.3335C151.636 38.2614 151.367 38.2253 151.087 38.2253H149.92V40.6071H151.183ZM158.023 39.0673L154.787 33.1489H156.507L158.973 37.8644L158.552 37.8885L160.982 33.1489H162.702L159.418 39.0673V41.9062H158.023V39.0673ZM175.158 33.1489V41.9062H173.75V38.1892H169.444V41.9062H168.036V33.1489H169.444V36.8419H173.75V33.1489H175.158ZM177.564 33.1489H178.971V41.9062H177.564V33.1489ZM182.296 33.1489L185.05 40.0056L184.244 39.8492L186.807 33.1489H188.467L184.545 42.3152L180.624 33.1489H182.296ZM190.11 33.1489H195.92V34.4962H191.517V36.8299H195.439V38.1892H191.517V40.559H196.088V41.9062H190.11V33.1489Z" fill="white"/>
</svg>
