<svg xmlns="http://www.w3.org/2000/svg" width="20" height="21" fill="none" viewBox="0 0 20 21">
  <path stroke="currentColor" stroke-linecap="round" stroke-linejoin="round" stroke-width="1.27" d="M12.983 10.645A2.98 2.98 0 0 1 10 13.63a2.98 2.98 0 0 1-2.983-2.984A2.98 2.98 0 0 1 10 7.662a2.98 2.98 0 0 1 2.983 2.983Z"/>
  <path stroke="currentColor" stroke-linecap="round" stroke-linejoin="round" stroke-width="1.27" d="M10 17.537c2.942 0 5.683-1.733 7.592-4.733.75-1.175.75-3.15 0-4.325-1.909-3-4.65-4.733-7.592-4.733-2.942 0-5.683 1.733-7.592 4.733-.75 1.175-.75 3.15 0 4.325 1.909 3 4.65 4.733 7.592 4.733Z"/>
</svg>
