<svg xmlns="http://www.w3.org/2000/svg" width="20" height="20" fill="none" viewBox="0 0 20 20">
  <path stroke="currentColor" stroke-linecap="round" stroke-linejoin="round" stroke-width="1.5" d="M2.917 5.834v8.333c0 2.5 1.225 4.167 4.167 4.167h5.833c2.892 0 4.167-1.667 4.167-4.167v-.975c0-.442-.175-.867-.492-1.175l-.692-.692a1.653 1.653 0 0 1-.491-1.175V8.334c0-.459.375-.834.833-.834a.836.836 0 0 0 .833-.833v-.833c0-2.5-1.275-4.167-4.166-4.167H7.075c-2.933 0-4.158 1.667-4.158 4.167Z"/>
  <path stroke="currentColor" stroke-linecap="round" stroke-linejoin="round" stroke-width="1.5" d="m6.659 18.309-.009-2.475a1.66 1.66 0 0 1 1.667-1.667h3.342a1.67 1.67 0 0 1 1.666 1.658l.025 2.492M11.642 6.483h-5"/>
</svg>
