<svg xmlns="http://www.w3.org/2000/svg" width="21" height="21" fill="none" viewBox="0 0 21 21">
  <path stroke="currentColor" stroke-linecap="round" stroke-linejoin="round" stroke-width="1.27" d="m12.946 8.537-4.242 4.217a2.958 2.958 0 0 1-.88-2.109 2.99 2.99 0 0 1 3.001-2.983c.83 0 1.576.333 2.12.875Z"/>
  <path stroke="currentColor" stroke-linecap="round" stroke-linejoin="round" stroke-width="1.27" d="M15.703 5.454c-1.466-1.1-3.143-1.7-4.878-1.7-2.959 0-5.716 1.733-7.636 4.733-.754 1.175-.754 3.15 0 4.325a11.957 11.957 0 0 0 2.272 2.642m2.363 1.466c.956.4 1.97.617 3.001.617 2.959 0 5.717-1.733 7.636-4.733.754-1.175.754-3.15 0-4.325a13.505 13.505 0 0 0-.888-1.225"/>
  <path stroke="currentColor" stroke-linecap="round" stroke-linejoin="round" stroke-width="1.27" d="M13.767 11.229a2.98 2.98 0 0 1-2.364 2.35m-2.699-.825-6.26 6.225M19.207 2.312l-6.261 6.225"/>
</svg>
