<svg xmlns="http://www.w3.org/2000/svg" width="12" height="12" fill="none" viewBox="0 0 12 12">
  <path stroke="currentColor" stroke-linecap="round" stroke-linejoin="round" stroke-miterlimit="10" d="M9.984 4.997h-8v4c0 1.5.5 2 2 2h4c1.5 0 2-.5 2-2v-4Z"/>
  <path stroke="currentColor" stroke-linecap="round" stroke-linejoin="round" stroke-miterlimit="10" d="M10.75 3.499v.5c0 .55-.265 1-1 1h-7.5c-.765 0-1-.45-1-1v-.5c0-.55.235-1 1-1h7.5c.735 0 1 .45 1 1Zm-6.5-1.25.035-1.11c.185-.185 3.03-.185 3.215 0v1.11"/>
</svg>
