<svg xmlns="http://www.w3.org/2000/svg" width="15" height="15" fill="none" viewBox="0 0 15 15">
  <path stroke="currentColor" stroke-linecap="round" stroke-linejoin="round" d="M5.42 8.964c0 .807.619 1.457 1.387 1.457h1.57c.668 0 1.212-.569 1.212-1.269 0-.763-.332-1.031-.825-1.206l-2.52-.875c-.493-.175-.824-.444-.824-1.207 0-.7.544-1.268 1.212-1.268h1.57c.768 0 1.387.65 1.387 1.456M7.5 3.758v7.5"/>
  <path stroke="currentColor" stroke-linecap="round" stroke-linejoin="round" d="M7.5 13.758a6.25 6.25 0 1 0 0-12.5 6.25 6.25 0 0 0 0 12.5Z"/>
</svg>
