<svg width="11" height="11" viewBox="0 0 11 11" fill="none" xmlns="http://www.w3.org/2000/svg">
<path d="M10.0026 5.50131C10.0026 7.98603 7.98603 10.0026 5.50131 10.0026C3.01658 10.0026 1.49964 7.49988 1.49964 7.49988M1.49964 7.49988H3.53423M1.49964 7.49988V9.75054M1 5.50131C1 3.01658 2.99858 1 5.50131 1C8.50368 1 10.0026 3.50273 10.0026 3.50273M10.0026 3.50273V1.25207M10.0026 3.50273H8.00403" stroke="white" stroke-width="0.930389" stroke-linecap="round" stroke-linejoin="round"/>
<path d="M4.94513 4.44545C5.08196 4.44545 5.20392 4.4633 5.31101 4.499C5.41809 4.53271 5.50733 4.58229 5.57872 4.64773C5.6521 4.71119 5.70762 4.78852 5.7453 4.87975C5.78298 4.96898 5.80182 5.07012 5.80182 5.18316C5.80182 5.27239 5.78794 5.36163 5.76017 5.45087C5.7344 5.54011 5.69077 5.62142 5.62929 5.69479C5.5698 5.76816 5.49048 5.82766 5.39132 5.87327C5.29217 5.91689 5.16922 5.93871 5.02247 5.93871H4.71311V6.63477H4.28179V4.44545H4.94513ZM5.0195 5.52226C5.08494 5.52226 5.13947 5.51135 5.1831 5.48954C5.22673 5.46773 5.26044 5.43996 5.28424 5.40625C5.31002 5.37254 5.32787 5.33784 5.33778 5.30214C5.34968 5.26446 5.35563 5.22976 5.35563 5.19803C5.35563 5.17423 5.35166 5.14449 5.34373 5.10879C5.33778 5.07111 5.3239 5.03343 5.30209 4.99576C5.28027 4.95808 5.24656 4.92635 5.20095 4.90057C5.15732 4.87479 5.09783 4.8619 5.02247 4.8619H4.71311V5.52226H5.0195ZM5.42404 5.78998L5.96542 6.63477H5.46271L4.90944 5.80188L5.42404 5.78998ZM7.7685 6.45331C7.7447 6.47315 7.70008 6.49992 7.63464 6.53363C7.57119 6.56734 7.49285 6.59709 7.39965 6.62287C7.30644 6.64865 7.20333 6.66055 7.09029 6.65856C6.91776 6.6546 6.76308 6.62386 6.62625 6.56635C6.4914 6.50686 6.37638 6.42654 6.2812 6.32541C6.18799 6.22427 6.1166 6.10826 6.06702 5.97738C6.01745 5.84649 5.99266 5.70669 5.99266 5.55796C5.99266 5.39138 6.01745 5.23868 6.06702 5.09987C6.11858 4.96105 6.19097 4.84108 6.28417 4.73994C6.37936 4.6388 6.49239 4.56047 6.62328 4.50495C6.75416 4.44942 6.89892 4.42166 7.05757 4.42166C7.20432 4.42166 7.33421 4.44149 7.44724 4.48115C7.56028 4.52081 7.65249 4.56345 7.72388 4.60906L7.55433 5.01658C7.50475 4.9789 7.43832 4.94023 7.35503 4.90057C7.27372 4.85892 7.17953 4.8381 7.07244 4.8381C6.98915 4.8381 6.90884 4.85595 6.8315 4.89164C6.75614 4.92536 6.68872 4.97394 6.62923 5.0374C6.57172 5.10086 6.52611 5.17522 6.49239 5.2605C6.45868 5.34379 6.44183 5.43501 6.44183 5.53416C6.44183 5.63926 6.4567 5.73544 6.48644 5.8227C6.51817 5.90995 6.56279 5.98531 6.6203 6.04877C6.67781 6.11024 6.74623 6.15784 6.82555 6.19155C6.90686 6.22526 6.99808 6.24212 7.09921 6.24212C7.21622 6.24212 7.31636 6.22328 7.39965 6.1856C7.48294 6.14792 7.5464 6.10826 7.59002 6.06662L7.7685 6.45331Z" fill="white"/>
</svg>
