<svg width="11" height="11" viewBox="0 0 11 11" fill="none" xmlns="http://www.w3.org/2000/svg">
<path d="M10.0026 5.50131C10.0026 7.98603 7.98603 10.0026 5.50131 10.0026C3.01658 10.0026 1.49964 7.49988 1.49964 7.49988M1.49964 7.49988H3.53423M1.49964 7.49988V9.75054M1 5.50131C1 3.01658 2.99858 1 5.50131 1C8.50368 1 10.0026 3.50273 10.0026 3.50273M10.0026 3.50273V1.25207M10.0026 3.50273H8.00403" stroke="#A5112C" stroke-width="0.930389" stroke-linecap="round" stroke-linejoin="round"/>
<path d="M4.94513 4.44594C5.08196 4.44594 5.20392 4.46379 5.31101 4.49948C5.41809 4.5332 5.50733 4.58277 5.57872 4.64822C5.6521 4.71167 5.70762 4.78901 5.7453 4.88023C5.78298 4.96947 5.80182 5.07061 5.80182 5.18364C5.80182 5.27288 5.78794 5.36212 5.76017 5.45136C5.7344 5.5406 5.69077 5.6219 5.62929 5.69528C5.5698 5.76865 5.49048 5.82814 5.39132 5.87375C5.29217 5.91738 5.16922 5.9392 5.02247 5.9392H4.71311V6.63525H4.28179V4.44594H4.94513ZM5.0195 5.52275C5.08494 5.52275 5.13947 5.51184 5.1831 5.49003C5.22673 5.46822 5.26044 5.44045 5.28424 5.40674C5.31002 5.37303 5.32787 5.33832 5.33778 5.30263C5.34968 5.26495 5.35563 5.23025 5.35563 5.19852C5.35563 5.17472 5.35166 5.14497 5.34373 5.10928C5.33778 5.0716 5.3239 5.03392 5.30209 4.99624C5.28027 4.95857 5.24656 4.92684 5.20095 4.90106C5.15732 4.87528 5.09783 4.86239 5.02247 4.86239H4.71311V5.52275H5.0195ZM5.42404 5.79046L5.96542 6.63525H5.46271L4.90944 5.80236L5.42404 5.79046ZM7.7685 6.4538C7.7447 6.47363 7.70008 6.5004 7.63464 6.53412C7.57119 6.56783 7.49285 6.59758 7.39965 6.62336C7.30644 6.64914 7.20333 6.66103 7.09029 6.65905C6.91776 6.65508 6.76308 6.62435 6.62625 6.56684C6.4914 6.50735 6.37638 6.42703 6.2812 6.32589C6.18799 6.22476 6.1166 6.10875 6.06702 5.97787C6.01745 5.84698 5.99266 5.70718 5.99266 5.55845C5.99266 5.39187 6.01745 5.23917 6.06702 5.10036C6.11858 4.96154 6.19097 4.84156 6.28417 4.74043C6.37936 4.63929 6.49239 4.56096 6.62328 4.50543C6.75416 4.44991 6.89892 4.42214 7.05757 4.42214C7.20432 4.42214 7.33421 4.44198 7.44724 4.48164C7.56028 4.5213 7.65249 4.56393 7.72388 4.60955L7.55433 5.01707C7.50475 4.97939 7.43832 4.94072 7.35503 4.90106C7.27372 4.85941 7.17953 4.83859 7.07244 4.83859C6.98915 4.83859 6.90884 4.85644 6.8315 4.89213C6.75614 4.92585 6.68872 4.97443 6.62923 5.03789C6.57172 5.10135 6.52611 5.17571 6.49239 5.26098C6.45868 5.34427 6.44183 5.43549 6.44183 5.53465C6.44183 5.63975 6.4567 5.73593 6.48644 5.82319C6.51817 5.91044 6.56279 5.9858 6.6203 6.04926C6.67781 6.11073 6.74623 6.15832 6.82555 6.19204C6.90686 6.22575 6.99808 6.24261 7.09921 6.24261C7.21622 6.24261 7.31636 6.22377 7.39965 6.18609C7.48294 6.14841 7.5464 6.10875 7.59002 6.0671L7.7685 6.4538Z" fill="#A5112C"/>
</svg>
