<svg width="13" height="12" viewBox="0 0 13 12" fill="none" xmlns="http://www.w3.org/2000/svg">
<path d="M4.83398 11H7.83398C10.334 11 11.334 10 11.334 7.5V4.5C11.334 2 10.334 1 7.83398 1H4.83398C2.33398 1 1.33398 2 1.33398 4.5V7.5C1.33398 10 2.33398 11 4.83398 11Z" stroke="#E31337" stroke-width="0.5" stroke-linecap="round" stroke-linejoin="round"/>
<path d="M3.33398 5.625L4.58398 4.5L5.83398 5.625" stroke="#E31337" stroke-width="0.5" stroke-linecap="round" stroke-linejoin="round"/>
<path d="M4.58398 4.5V7.5" stroke="#E31337" stroke-width="0.5" stroke-linecap="round" stroke-linejoin="round"/>
<path d="M3.33398 8.5C5.27898 9.15 7.38898 9.15 9.33398 8.5" stroke="#E31337" stroke-width="0.5" stroke-linecap="round" stroke-linejoin="round"/>
<path d="M6.83398 6.375L8.08398 7.5L9.33398 6.375" stroke="#E31337" stroke-width="0.5" stroke-linecap="round" stroke-linejoin="round"/>
<path d="M8.08398 7.5V4.5" stroke="#E31337" stroke-width="0.5" stroke-linecap="round" stroke-linejoin="round"/>
<path d="M9.33398 3.4873C7.38898 2.8373 5.27898 2.8373 3.33398 3.4873" stroke="#E31337" stroke-width="0.5" stroke-linecap="round" stroke-linejoin="round"/>
</svg>
