<svg xmlns="http://www.w3.org/2000/svg" width="21" height="21" fill="none" viewBox="0 0 21 21">
  <path fill="#E31337" stroke="currentColor" stroke-width="1.144" d="m9.48 1.17-.006.002c-.958.309-1.675 1.289-1.675 2.262 0 .174.048.434.142.713.094.278.217.525.333.683.758 1.027 2.324 1.252 3.326.488.62-.48.933-1.112.933-1.884 0-1.077-.64-1.955-1.64-2.269h-.003a2.115 2.115 0 0 0-1.41.005Zm1.622.095c.878.4 1.387 1.207 1.387 2.169 0 .643-.225 1.224-.646 1.645-.421.422-1.002.647-1.646.647-2.518 0-3.253-3.283-1.022-4.399.617-.308 1.302-.356 1.927-.062ZM17.04 11.93c-.553-1.652-1.657-2.82-3.252-3.46l3.253 3.46Zm0 0c.132.39.183.96.183 1.471 0 .513-.05 1.083-.183 1.473v.002c-.558 1.639-1.592 2.779-3.138 3.416l-.004.002c-.17.069-.28.121-.354.165a.553.553 0 0 0-.061.042c0 .027.003.08.02.173l.01.053a3.1 3.1 0 0 1 .05.312c.009.092.03.373-.186.6-.192.2-.448.222-.534.229h-.002c-.102.008-.23.008-.355.008h-1.017c.049.005.109.01.183.014.212.011.493.014.881.014.678-.004 1.002-.013 1.172-.039v-.01a.955.955 0 0 0-.012-.163 4.375 4.375 0 0 1-.074-.446 1.094 1.094 0 0 1 .054-.494.914.914 0 0 1 .329-.418c.11-.08.241-.146.352-.2.946-.466 1.88-1.405 2.374-2.406.215-.438.34-.762.413-1.093.074-.333.102-.7.099-1.23v-.004c0-.512-.029-.873-.1-1.202-.07-.326-.188-.645-.39-1.065m.29.796-3.252-3.46-.45-.182c.673.2 1.489.62 2.026 1.055l.002.001.477.384.382.307.362-.331.368-.337h.001c.457-.422.842-.593 1.31-.626a1.72 1.72 0 0 0-.237.05c-.372.105-.732.336-1.06.641-.106.099-.209.2-.288.288-.039.043-.08.091-.115.14a.856.856 0 0 0-.064.1.618.618 0 0 0-.049.473l.027.082c.018.05.041.11.067.172.053.126.124.285.203.447m0 0 .514-.25m-.514.25v-.001l.514-.249m0 0c-.148-.305-.265-.594-.265-.633 0-.04.164-.219.36-.399m-.095 1.032.094-1.032m0 0c.57-.531 1.134-.688 1.501-.43m-1.5.43 1.05-1.116c.135 0 .258.01.367.03m.083.656.318-.476a.306.306 0 0 1 .005.004m-.323.472.329-.468-.006-.004m-.323.472c.235.157.22.235-.101.586m.424-1.058a1.221 1.221 0 0 0-.406-.184m.406.184c.066.044.175.121.26.234a.707.707 0 0 1 .138.557.94.94 0 0 1-.175.385 3.22 3.22 0 0 1-.21.252m-.419-1.612c-.12-.03-.242-.04-.364-.037l-.006-.565m.37.602c.222.04.393.114.516.203a.782.782 0 0 1 .321.554m0 0 .567-.077m-.567.077c.035.259-.107.586-.34.793a.79.79 0 0 1-.078.062m.418-.855.567-.077m0 0c-.11-.798-.774-1.282-1.774-1.282m1.774 1.282-.997.945m-.777-2.227v.566-.566Zm.79 2.214a.575.575 0 0 1-.014.008l-.424-.377m.437.369a1.488 1.488 0 0 0-.012.013m-.425-.383.418.382a.427.427 0 0 1-.095.047.494.494 0 0 1-.02-.029c-.007-.01-.007-.012-.005-.006.003.006.008.02.01.04a.108.108 0 0 1-.012.002h-.002s.006 0 .015.003a.247.247 0 0 1 0 .065c-.003.028-.01.043-.01.043l.007-.013a1.19 1.19 0 0 1 .119-.15m-.425-.383.425.382M3.201 7.052l.004.006.005.006A4.393 4.393 0 0 1 4 8.672a.797.797 0 0 1-.015.387.805.805 0 0 1-.198.327 2.247 2.247 0 0 1-.177.159l-.002.001a4.098 4.098 0 0 0-.487.556 7.69 7.69 0 0 0-.523.778l-.224.41-.163.298h-.863a2.007 2.007 0 0 0-.541.056 2.99 2.99 0 0 0-.005.05h.984c.372 0 .431-.033.442-.04.006-.004.06-.038.21-.362.337-.731.934-1.556 1.469-1.947a1.78 1.78 0 0 0 .2-.17.295.295 0 0 0 .031-.036.908.908 0 0 0-.026-.228 6.884 6.884 0 0 0-.26-.804l-.001-.004-.196-.485-.299-.742a3.086 3.086 0 0 1-.17.042.205.205 0 0 0-.051.036c.019.035.043.07.066.097Zm-2.457 4.62h.002a.012.012 0 0 0-.002 0Zm.047.596v-.41.016a38.92 38.92 0 0 0-.028 1.552v1.733l.02.018.008.009.009.009.007.007c.02.002.05.005.094.007.08.004.187.005.337.005.266 0 .5 0 .67.036a.743.743 0 0 1 .58.494l.004.007.002.006s.005.014.021.046c.017.034.042.079.073.133.063.107.147.238.242.376.193.281.413.565.576.739l.002.002a5.95 5.95 0 0 0 1.512 1.118h.001c.086.043.171.086.244.13.07.042.166.106.249.202a.726.726 0 0 1 .173.4.918.918 0 0 1-.02.289c-.08.409-.1.588-.096.681l.01.01h.003c.15.02.443.021 1.156.021.689 0 .99-.003 1.149-.021l.01-.002a.675.675 0 0 0 .073-.251l.054-.403.03-.225a2.757 2.757 0 0 1-.046.218.867.867 0 0 1-.281.465.886.886 0 0 1-.5.183c-.1.008-.223.008-.341.008H5.48l.111-.667.078-.467a3.29 3.29 0 0 0 .031-.254 1.005 1.005 0 0 0-.008-.013l-.002-.003a.135.135 0 0 0-.018-.021 4.075 4.075 0 0 1-.275-.111 12.04 12.04 0 0 1-.435-.202c-1.117-.532-1.973-1.442-2.523-2.628-.15-.325-.205-.359-.211-.362-.01-.007-.07-.041-.442-.041H.79v-2.839ZM4.33 6.85l.203.04h.002c.177.034.455.126.653.228.149.07.285.176.388.268.112.101.224.222.31.343l.01.013.008.013c.097.153.241.351.308.432l3.284.014 3.557.016h.014c-.381-.085-.867-.101-3.388-.115l-3.143-.015-.25-.001-.17-.186-.325-.356-.002-.001a2.569 2.569 0 0 0-.668-.48l-.01-.006a1.774 1.774 0 0 0-.413-.167 2.102 2.102 0 0 0-.368-.04Zm9.154 11.628v.005-.005Zm-2.22.879c.02.07.038.156.053.238l-.03-.215-.054-.403a.69.69 0 0 0-.071-.25 1.306 1.306 0 0 0-.043-.004c-.215-.02-.626-.02-1.531-.02-.85 0-1.27.003-1.501.02a1.813 1.813 0 0 0-.066.007l-.001.001h1.774c.188 0 .349-.001.475.003.155.005.37.017.559.105a.81.81 0 0 1 .435.518Zm2.437.563ZM4.14 9.136Zm-.003.007a.01.01 0 0 0 0 .002v-.002Zm3.776 1.326-.077.005c.01.005.026.011.047.015l.017.001a30.364 30.364 0 0 0 .77.018c.47.005 1.083.005 1.724-.002a55.964 55.964 0 0 0 1.926-.037c-.343-.018-.94-.024-2.04-.03a66.45 66.45 0 0 0-1.83.01c-.23.005-.41.012-.537.02Zm5.013-.439c-.156-.14-.328-.148-2.642-.164l2.642 1.04c.227-.204.227-.673 0-.876Zm-5.16.452Z"/>
  <mask id="a" fill="#fff">
    <path d="M5.277 11.112c-.524.195-.524.867 0 1.063.36.14.766-.149.766-.532s-.407-.672-.766-.531Z"/>
  </mask>
  <path fill="#E31337" d="M5.277 11.112c-.524.195-.524.867 0 1.063.36.14.766-.149.766-.532s-.407-.672-.766-.531Z"/>
  <path fill="#E31337" d="m5.277 11.112.417 1.065-.009.004-.008.003-.4-1.072Zm0 1.063.4-1.073.008.004.009.003-.417 1.066Zm.4.009a.58.58 0 0 0 .352-.54.58.58 0 0 0-.352-.542l-.8 2.145a1.711 1.711 0 0 1-1.137-1.604c0-.701.434-1.34 1.137-1.603l.8 2.144Zm.017-1.075a.595.595 0 0 0-.556.059.577.577 0 0 0-.24.475h2.289c0 1.157-1.188 2.043-2.327 1.597l.834-2.131Zm-.796.534c0 .227.12.391.24.476a.594.594 0 0 0 .556.058l-.834-2.13c1.14-.447 2.327.44 2.327 1.596H4.898Z" mask="url(#a)"/>
</svg>
