<svg xmlns="http://www.w3.org/2000/svg" width="16" height="16" fill="currentColor" viewBox="0 0 16 16">
  <path fill="currentColor" d="M6.03.037a7.85 7.85 0 0 0-2.91 1.134c-.525.344-1.589 1.409-1.933 1.935-1.4 2.16-1.576 4.79-.456 7.045.982 1.986 2.746 3.338 4.954 3.802.863.181 2.34.131 3.19-.1.9-.257 1.67-.646 2.602-1.322.069-.05.494.345 1.827 1.678 1.62 1.622 1.757 1.748 2.001 1.779.238.031.282.012.488-.194.206-.207.225-.25.194-.489-.031-.244-.156-.382-1.776-2.004-1.333-1.334-1.727-1.76-1.677-1.828.676-.934 1.064-1.704 1.32-2.606.231-.851.281-2.33.1-3.194-.594-2.83-2.677-4.94-5.48-5.548C7.939.005 6.55-.038 6.03.037Zm2.464 1.44c1.814.52 3.197 1.742 3.891 3.445.42 1.033.507 2.411.225 3.507a5.764 5.764 0 0 1-4.172 4.177c-1.095.282-2.47.194-3.503-.225-1.382-.564-2.608-1.754-3.152-3.056-.363-.865-.444-1.297-.438-2.305.006-1.109.112-1.603.557-2.518C2.67 2.918 4.11 1.797 5.874 1.41c.713-.157 1.945-.126 2.62.069Z"/>
</svg>
