<svg xmlns="http://www.w3.org/2000/svg" width="18" height="18" fill="none" viewBox="0 0 18 18">
  <path stroke="currentColor" stroke-linecap="round" stroke-linejoin="round" stroke-width="1.27" d="M15 7.2c0-3-1.2-4.2-4.2-4.2H7.2C4.2 3 3 4.2 3 7.2v3.6c0 3 1.2 4.2 4.2 4.2"/>
  <path stroke="currentColor" stroke-linecap="round" stroke-linejoin="round" stroke-width="1.27" d="M12.262 6c-.412-.525-1.102-.75-2.137-.75h-2.25C6 5.25 5.25 6 5.25 7.875v2.25c0 1.035.225 1.725.742 2.137M6.008 3V1.5M9 3V1.5M12 3V1.5M15 6h1.5M6.008 15v1.5M1.5 6H3M1.5 9H3m-1.5 3H3"/>
  <path stroke="currentColor" stroke-linecap="round" stroke-linejoin="round" stroke-miterlimit="10" stroke-width="1.27" d="M12.533 13.943a1.192 1.192 0 1 0 0-2.385 1.192 1.192 0 0 0 0 2.385Z"/>
  <path stroke="currentColor" stroke-linecap="round" stroke-linejoin="round" stroke-miterlimit="10" stroke-width="1.27" d="M8.558 13.095v-.697c0-.413.337-.75.75-.75.72 0 1.012-.51.652-1.133a.75.75 0 0 1 .278-1.027l.682-.398a.664.664 0 0 1 .908.24l.045.075c.36.623.945.623 1.305 0l.045-.075a.67.67 0 0 1 .907-.24l.683.398a.75.75 0 0 1 .277 1.027c-.36.623-.067 1.133.653 1.133.412 0 .75.337.75.75v.697c0 .413-.338.75-.75.75-.72 0-1.013.51-.653 1.133a.75.75 0 0 1-.277 1.027l-.683.398a.664.664 0 0 1-.907-.24l-.045-.075c-.36-.623-.945-.623-1.305 0l-.045.075a.67.67 0 0 1-.908.24l-.682-.398a.751.751 0 0 1-.278-1.027c.36-.623.068-1.133-.652-1.133a.743.743 0 0 1-.75-.75Z"/>
</svg>
