<svg xmlns="http://www.w3.org/2000/svg" width="19" height="15" fill="none" viewBox="0 0 19 15">
  <path fill="#fff" d="M9.142.214c-3.647.24-6.926 2.889-7.96 6.423-.737 2.542-.361 5.269 1.02 7.414.467.737.644.9.956.9.318 0 .517-.114.651-.369.163-.318.135-.418-.297-1.104-.666-1.056-1.013-1.927-1.19-3.038-.588-3.598 1.487-7.125 4.922-8.385.956-.347 1.253-.397 2.62-.397 1.445.007 1.926.092 2.974.531 3.237 1.381 5.135 4.802 4.568 8.25-.177 1.112-.524 1.983-1.19 3.039-.432.687-.46.786-.297 1.104.205.397.758.503 1.07.206.282-.262.884-1.254 1.175-1.927 1.898-4.39.092-9.489-4.129-11.663C12.485.405 10.97.093 9.142.214Z"/>
  <path fill="#fff" d="M13.511 4.873c-.113.07-.715.645-1.338 1.268l-1.12 1.126-.346-.128c-.482-.184-1.218-.177-1.728.014-.517.192-1.105.737-1.36 1.254-.163.347-.191.496-.198 1.04 0 .553.028.688.191 1.028.262.53.708.97 1.246 1.225.383.177.539.212 1.006.212.467 0 .623-.035 1.006-.212 1.168-.552 1.72-1.792 1.338-2.996l-.142-.46L13.3 6.998c1.161-1.162 1.239-1.26 1.239-1.502 0-.34-.163-.58-.439-.68-.29-.106-.34-.099-.588.057ZM10.36 8.527c.843.44.687 1.679-.248 1.94-.892.242-1.643-.814-1.133-1.6.269-.403.928-.573 1.38-.34Z"/>
</svg>
