<svg width="25" height="25" viewBox="0 0 25 25" fill="none" xmlns="http://www.w3.org/2000/svg">
<path d="M11.562 3.92188C11.562 3.36963 12.0098 2.92188 12.562 2.92188C13.1143 2.92188 13.562 3.36963 13.562 3.92188V4.92188C13.562 5.47412 13.1143 5.92188 12.562 5.92188C12.0098 5.92188 11.562 5.47412 11.562 4.92188V3.92188Z" fill="#FFBE18"/>
<path d="M17.562 12.9219C17.562 15.6833 15.3235 17.9219 12.562 17.9219C9.80054 17.9219 7.56201 15.6833 7.56201 12.9219C7.56201 10.1604 9.80054 7.92188 12.562 7.92188C15.3235 7.92188 17.562 10.1604 17.562 12.9219Z" fill="#FFBE18"/>
<path d="M12.562 19.9219C12.0098 19.9219 11.562 20.3696 11.562 20.9219V21.9219C11.562 22.4741 12.0098 22.9219 12.562 22.9219C13.1143 22.9219 13.562 22.4741 13.562 21.9219V20.9219C13.562 20.3696 13.1143 19.9219 12.562 19.9219Z" fill="#FFBE18"/>
<path d="M5.49097 7.26501C5.10034 6.87439 5.10034 6.24133 5.49097 5.85071C5.88147 5.46021 6.51465 5.46021 6.90515 5.85071L7.61218 6.55786C8.00281 6.94836 8.00281 7.58154 7.61218 7.97205C7.22168 8.36255 6.5885 8.36255 6.198 7.97205L5.49097 7.26501Z" fill="#FFBE18"/>
<path d="M17.5117 17.8716C17.1212 18.2621 17.1212 18.8953 17.5117 19.2858L18.2189 19.9929C18.6094 20.3834 19.2426 20.3834 19.6331 19.9929C20.0236 19.6024 20.0236 18.9692 19.6331 18.5787L18.9259 17.8716C18.5354 17.4811 17.9022 17.4811 17.5117 17.8716Z" fill="#FFBE18"/>
<path d="M3.56201 13.9219C3.00977 13.9219 2.56201 13.4741 2.56201 12.9219C2.56201 12.3696 3.00977 11.9219 3.56201 11.9219H4.56201C5.11426 11.9219 5.56201 12.3696 5.56201 12.9219C5.56201 13.4741 5.11426 13.9219 4.56201 13.9219H3.56201Z" fill="#FFBE18"/>
<path d="M19.562 12.9219C19.562 13.4741 20.0098 13.9219 20.562 13.9219H21.562C22.1143 13.9219 22.562 13.4741 22.562 12.9219C22.562 12.3696 22.1143 11.9219 21.562 11.9219H20.562C20.0098 11.9219 19.562 12.3696 19.562 12.9219Z" fill="#FFBE18"/>
<path d="M6.3103 19.4729C5.88733 19.8279 5.25647 19.7727 4.90149 19.3497C4.54651 18.9266 4.60168 18.2959 5.02478 17.9408L5.79077 17.2981C6.21387 16.9431 6.8446 16.9983 7.19971 17.4213C7.55469 17.8444 7.49951 18.4751 7.07642 18.8302L6.3103 19.4729Z" fill="#FFBE18"/>
<path d="M17.9243 8.42224C18.2793 8.84534 18.91 8.90051 19.3331 8.54553L20.0991 7.90271C20.5222 7.54773 20.5774 6.91699 20.2224 6.4939C19.8674 6.0708 19.2367 6.01562 18.8136 6.37073L18.0475 7.01343C17.6245 7.36841 17.5693 7.99927 17.9243 8.42224Z" fill="#FFBE18"/>
</svg>
