<svg width="179" height="273" viewBox="0 0 179 273" fill="none" xmlns="http://www.w3.org/2000/svg">
<g clip-path="url(#clip0_2273_60204)">
<path d="M89.5 272.996C138.653 272.996 178.5 250.028 178.5 221.695C178.5 193.363 138.653 170.395 89.5 170.395C40.3467 170.395 0.5 193.363 0.5 221.695C0.5 250.028 40.3467 272.996 89.5 272.996Z" fill="#E3DFEA"/>
<path d="M147.125 205.458V214.659V215.934H147.076C146.862 218.587 145.97 221.229 144.404 223.763C144.223 224.06 144.027 224.356 143.828 224.65C141.934 227.405 139.227 230.017 135.7 232.366C135.511 232.494 135.32 232.618 135.124 232.742C134.563 233.103 133.979 233.456 133.373 233.806C131.37 234.959 129.232 235.985 126.992 236.891C126.8 236.966 126.608 237.042 126.416 237.117C123.826 238.128 121.104 238.97 118.288 239.646C118.096 239.695 117.904 239.74 117.712 239.785C115.066 240.398 112.344 240.864 109.581 241.187C109.389 241.21 109.197 241.236 109.005 241.251C106.32 241.548 103.599 241.706 100.877 241.729C100.685 241.729 100.493 241.732 100.301 241.732C97.5789 241.736 94.8571 241.608 92.1691 241.338C91.9771 241.323 91.7851 241.3 91.5931 241.281C88.8337 240.992 86.1118 240.552 83.4653 239.973C83.2733 239.932 83.0813 239.891 82.8893 239.846C80.0771 239.207 77.3515 238.402 74.7576 237.436C74.5656 237.365 74.3699 237.293 74.1816 237.218C71.6292 236.241 69.2086 235.106 66.9573 233.806C66.6486 233.629 66.3474 233.448 66.05 233.268C65.8542 233.152 65.6623 233.031 65.474 232.915C62.0444 230.75 59.3301 228.344 57.3424 225.796C57.1391 225.54 56.9509 225.289 56.7664 225.029C54.6733 222.12 53.5024 219.038 53.2502 215.937H53.1975V205.462H55.9871C56.2281 205.075 56.4878 204.688 56.7664 204.308C56.9509 204.049 57.1429 203.793 57.3424 203.541C58.0727 202.602 58.901 201.685 59.8308 200.79C60.964 199.696 62.244 198.637 63.6745 197.626C64.6947 196.9 65.7903 196.197 66.9573 195.524C85.2949 184.955 115.032 184.955 133.377 195.524C134.544 196.197 135.64 196.9 136.656 197.626C138.083 198.637 139.363 199.696 140.5 200.79C141.802 202.046 142.913 203.354 143.831 204.692C144.008 204.947 144.178 205.207 144.34 205.466H147.129L147.125 205.458Z" fill="#FF9D4D"/>
<path d="M100.162 188.166C112.607 188.166 124.3 190.954 133.083 196.017C134.228 196.675 135.316 197.374 136.317 198.088C137.71 199.077 138.979 200.122 140.093 201.2C141.351 202.414 142.446 203.696 143.35 205.015C143.511 205.248 143.673 205.496 143.843 205.767L144.012 206.038H146.546V215.366H146.542L146.501 215.896C146.29 218.482 145.42 221.031 143.911 223.47C143.745 223.74 143.557 224.03 143.35 224.331C141.456 227.089 138.772 229.634 135.376 231.893C135.188 232.017 135 232.141 134.811 232.265C134.258 232.618 133.678 232.972 133.083 233.314C131.137 234.434 129.018 235.46 126.774 236.362C126.586 236.437 126.397 236.512 126.205 236.583C123.664 237.576 120.954 238.418 118.142 239.09C117.953 239.139 117.769 239.181 117.581 239.226C114.991 239.827 112.276 240.297 109.509 240.616C109.321 240.639 109.136 240.662 108.941 240.68C106.279 240.973 103.565 241.135 100.866 241.154C100.677 241.154 100.489 241.158 100.297 241.158H100.143C97.4887 241.158 94.8233 241.026 92.2144 240.763C92.0262 240.748 91.8417 240.725 91.6535 240.707C88.9166 240.417 86.2023 239.981 83.5858 239.41C83.3976 239.369 83.2056 239.327 83.0174 239.282C80.2052 238.643 77.4946 237.839 74.9573 236.895L74.8895 236.869C74.7239 236.809 74.562 236.749 74.3888 236.677C71.8477 235.708 69.4458 234.573 67.2473 233.306C66.9423 233.129 66.6449 232.953 66.3513 232.776C66.1593 232.66 65.9711 232.543 65.7828 232.427C62.4699 230.337 59.7857 227.988 57.7942 225.436C57.6173 225.214 57.4328 224.97 57.2371 224.691C55.2192 221.887 54.0748 218.926 53.8301 215.889L53.7887 215.359H53.7811V206.03H56.3147L56.4842 205.759C56.7176 205.387 56.9698 205.012 57.2446 204.636C57.4102 204.399 57.5947 204.155 57.8055 203.888C58.5171 202.974 59.334 202.069 60.2375 201.197C61.3669 200.107 62.6393 199.062 64.0134 198.084C65.0299 197.363 66.1179 196.667 67.251 196.013C76.034 190.951 87.7269 188.162 100.173 188.162L100.162 188.166ZM100.162 187.591C88.1411 187.591 76.1243 190.233 66.9536 195.517C65.7866 196.19 64.6911 196.893 63.6709 197.618C62.2403 198.629 60.9641 199.689 59.8272 200.783C58.901 201.678 58.0691 202.595 57.3387 203.534C57.1392 203.79 56.9472 204.042 56.7627 204.301C56.4879 204.681 56.2282 205.068 55.9835 205.455H53.1938V215.93H53.2466C53.495 219.031 54.6658 222.113 56.7627 225.022C56.9472 225.278 57.1354 225.533 57.3387 225.789C59.3265 228.337 62.0408 230.746 65.4704 232.908C65.6586 233.024 65.8506 233.144 66.0463 233.261C66.3438 233.441 66.6449 233.622 66.9536 233.798C69.2049 235.095 71.6256 236.234 74.178 237.211C74.3662 237.286 74.562 237.358 74.754 237.429C77.3478 238.395 80.0772 239.196 82.8856 239.838C83.0776 239.884 83.2696 239.925 83.4616 239.966C86.1081 240.545 88.8338 240.985 91.5895 241.274C91.7815 241.297 91.9735 241.316 92.1655 241.331C94.8045 241.594 97.4699 241.725 100.139 241.725C100.192 241.725 100.244 241.725 100.297 241.725C100.489 241.725 100.681 241.725 100.873 241.721C103.599 241.699 106.317 241.541 109.001 241.244C109.193 241.225 109.385 241.203 109.577 241.18C112.34 240.857 115.066 240.391 117.709 239.778C117.901 239.733 118.093 239.688 118.285 239.639C121.101 238.966 123.822 238.121 126.412 237.11C126.604 237.035 126.796 236.959 126.988 236.884C129.232 235.982 131.37 234.952 133.37 233.798C133.972 233.449 134.555 233.096 135.12 232.735C135.316 232.607 135.508 232.483 135.696 232.359C139.224 230.014 141.93 227.401 143.824 224.643C144.027 224.349 144.219 224.052 144.4 223.755C145.966 221.222 146.854 218.58 147.073 215.926H147.122V214.656V205.451H144.332C144.17 205.192 144.001 204.936 143.824 204.677C142.909 203.339 141.795 202.035 140.492 200.776C139.359 199.678 138.075 198.622 136.649 197.611C135.628 196.885 134.537 196.183 133.37 195.51C124.199 190.225 112.178 187.583 100.158 187.583L100.162 187.591Z" fill="#FFE840"/>
<path d="M100.161 232.238C126.099 232.238 147.125 220.119 147.125 205.169C147.125 190.219 126.099 178.1 100.161 178.1C74.224 178.1 53.1975 190.219 53.1975 205.169C53.1975 220.119 74.224 232.238 100.161 232.238Z" fill="#FFE840"/>
<path d="M140.496 200.783C138.994 196.137 135.105 191.86 129.179 188.444C121.428 183.975 111.124 181.517 100.165 181.517C89.2064 181.517 78.8988 183.975 71.1511 188.444C65.2256 191.856 61.3329 196.134 59.8308 200.783C59.3678 202.215 59.1306 203.681 59.1306 205.169C59.1306 209.717 61.3405 214.07 65.474 217.817C65.6623 217.99 65.8505 218.159 66.05 218.324C67.5295 219.595 69.2349 220.79 71.1511 221.895C72.1224 222.455 73.1351 222.985 74.1779 223.477C74.3699 223.567 74.5619 223.658 74.7539 223.744C77.28 224.898 80.0056 225.864 82.8855 226.634C83.0775 226.687 83.2695 226.74 83.4615 226.789C86.0629 227.454 88.7847 227.965 91.5894 228.303C91.7814 228.33 91.9734 228.352 92.1654 228.375C94.7705 228.672 97.4472 228.822 100.165 228.822H100.301C100.493 228.822 100.685 228.822 100.877 228.818C103.644 228.792 106.362 228.611 109.005 228.277C109.197 228.254 109.389 228.228 109.581 228.202C112.393 227.826 115.115 227.277 117.712 226.567C117.908 226.514 118.1 226.462 118.288 226.405C121.18 225.586 123.905 224.564 126.416 223.353C126.608 223.263 126.804 223.169 126.992 223.071C127.741 222.699 128.472 222.308 129.179 221.899C131.472 220.576 133.46 219.125 135.124 217.573C135.32 217.388 135.512 217.204 135.7 217.02C139.284 213.457 141.196 209.398 141.196 205.173C141.196 203.685 140.959 202.219 140.496 200.787V200.783ZM135.696 214.115C135.512 214.359 135.32 214.603 135.12 214.844C133.275 217.061 130.761 219.14 127.579 220.974C127.384 221.087 127.188 221.196 126.988 221.309C126.8 221.414 126.608 221.519 126.412 221.617C123.909 222.947 121.176 224.052 118.284 224.932C118.096 224.988 117.901 225.048 117.709 225.101C115.096 225.864 112.37 226.447 109.577 226.845C109.389 226.875 109.197 226.901 109.001 226.924C106.328 227.285 103.602 227.476 100.873 227.503C100.681 227.503 100.489 227.506 100.297 227.506C97.5714 227.51 94.842 227.356 92.1654 227.029C91.9734 227.007 91.7776 226.98 91.5894 226.954C88.8036 226.593 86.0742 226.056 83.4615 225.338C83.2695 225.285 83.0738 225.233 82.8855 225.176C80.0056 224.353 77.2724 223.308 74.7539 222.049C74.5581 221.951 74.3661 221.854 74.1779 221.756C73.6923 221.504 73.2142 221.241 72.7473 220.97C70.0217 219.399 67.7893 217.652 66.05 215.795C65.8543 215.581 65.6623 215.37 65.474 215.156C60.7419 209.683 60.1395 203.316 63.6708 197.618C65.5418 194.604 68.5648 191.774 72.7473 189.364C87.8624 180.648 112.464 180.648 127.583 189.364C131.766 191.774 134.789 194.6 136.656 197.618C139.965 202.959 139.649 208.883 135.7 214.115H135.696Z" fill="#FF9D4D"/>
<path d="M101.664 201.354L106.087 203.903C105.985 203.952 105.888 204.004 105.793 204.057L103.365 205.455L99.2317 203.072L100.598 202.286C101.088 202.005 101.442 201.693 101.664 201.351V201.354Z" fill="#D1975D"/>
<path d="M114.889 212.1L119.421 214.712L122.132 213.153L117.588 210.533C117.626 210.506 117.671 210.484 117.708 210.454C117.908 210.33 118.1 210.202 118.284 210.074C118.928 209.619 119.482 209.15 119.952 208.657C120.698 207.879 121.179 207.09 121.39 206.297C121.605 205.504 121.511 204.73 121.108 203.97C120.705 203.211 119.933 202.504 118.796 201.85C118.627 201.753 118.454 201.659 118.284 201.569C118.096 201.467 117.904 201.377 117.708 201.287C116.244 200.61 114.689 200.208 113.033 200.076C111.869 199.986 110.717 200.02 109.577 200.178C109.385 200.204 109.193 200.234 109.001 200.268C108.304 200.392 107.615 200.558 106.926 200.776C107.634 199.727 107.74 198.682 107.25 197.641C106.757 196.6 105.854 195.701 104.54 194.942C103.704 194.461 102.733 194.07 101.618 193.762C100.508 193.458 99.3633 193.273 98.1887 193.206C97.0141 193.142 95.8471 193.206 94.6838 193.413C93.5205 193.615 92.474 193.988 91.5366 194.529L90.682 195.021L86.315 192.503L83.6044 194.063L87.9677 196.577L84.6736 198.479L80.3066 195.961L77.5961 197.521L81.9593 200.035L77.1255 202.824L82.8779 206.143L83.4539 206.474L91.5817 211.16L92.1577 211.495L100.289 216.182L100.865 216.516L104.043 218.347L108.88 215.558L113.413 218.17L116.123 216.61L111.591 213.998L114.885 212.1H114.889ZM105.79 204.057C105.887 204 105.985 203.948 106.083 203.903C106.46 203.722 106.877 203.587 107.322 203.501C107.864 203.395 108.421 203.358 108.997 203.376C109.027 203.376 109.057 203.376 109.087 203.376C109.249 203.384 109.411 203.399 109.573 203.414C110.017 203.463 110.465 203.542 110.906 203.662C111.508 203.824 112.058 204.042 112.536 204.316C113.018 204.594 113.383 204.906 113.635 205.256C113.887 205.605 114.019 205.962 114.03 206.319C114.042 206.677 113.929 207.026 113.692 207.368C113.545 207.575 113.353 207.77 113.116 207.954C112.999 208.045 112.867 208.135 112.728 208.221C112.69 208.244 112.652 208.27 112.611 208.293L110.522 209.495L110.446 209.537L109.569 210.044L108.993 210.375L107.152 211.439L104.837 212.773L97.7482 208.687L98.5049 208.251L100.063 207.353L100.293 207.222L100.869 206.891L103.361 205.455L105.79 204.053V204.057ZM91.5855 199.656L92.1615 199.321L92.4401 199.159L94.0325 198.242C94.1229 198.19 94.2245 198.148 94.3224 198.103C94.6462 197.945 94.9887 197.81 95.3614 197.724C95.8772 197.6 96.4381 197.547 97.0442 197.554C98.1925 197.577 99.2729 197.87 100.289 198.441C100.312 198.453 100.338 198.472 100.365 198.483C100.549 198.588 100.715 198.697 100.865 198.806C101.592 199.325 101.946 199.877 101.938 200.46C101.935 200.776 101.84 201.072 101.66 201.351C101.483 201.625 101.215 201.881 100.865 202.114C100.779 202.17 100.688 202.23 100.591 202.283L100.289 202.456L99.224 203.068L95.9299 204.97L95.0302 205.489L93.6146 206.304L92.8278 205.853L91.9507 205.346L91.5817 205.132L89.9215 204.177L86.827 202.395L87.6853 201.899L89.1385 201.061L91.578 199.656H91.5855Z" fill="#FF9D4D"/>
<path d="M58.566 217.486V226.973C58.3627 226.717 58.1745 226.466 57.99 226.206V216.716C58.1745 216.971 58.3665 217.231 58.566 217.483V217.486Z" fill="#FFE840"/>
<path d="M66.0462 223.774V233.264C65.8504 233.148 65.6584 233.028 65.4702 232.911V223.417C65.6584 223.537 65.8504 223.654 66.0462 223.774Z" fill="#FFE840"/>
<path d="M74.7501 227.939V237.433C74.5581 237.362 74.3623 237.29 74.1741 237.215V227.725C74.3623 227.8 74.5581 227.871 74.7501 227.939Z" fill="#FFE840"/>
<path d="M83.4578 230.479V239.97C83.2658 239.928 83.0738 239.887 82.8818 239.842V230.348C83.0738 230.393 83.2658 230.438 83.4578 230.479Z" fill="#FFE840"/>
<path d="M92.1653 231.843V241.334C91.9733 241.319 91.7814 241.296 91.5894 241.277V231.787C91.7814 231.81 91.9733 231.828 92.1653 231.843Z" fill="#FFE840"/>
<path d="M100.873 232.234V241.725C100.681 241.725 100.489 241.729 100.297 241.729V232.238C100.489 232.238 100.681 232.238 100.873 232.234Z" fill="#FFE840"/>
<path d="M109.577 231.693V241.184C109.385 241.206 109.193 241.233 109.001 241.248V231.757C109.193 231.738 109.385 231.716 109.577 231.693Z" fill="#FFE840"/>
<path d="M118.284 230.152V239.643C118.092 239.692 117.9 239.737 117.708 239.782V230.288C117.9 230.243 118.092 230.197 118.284 230.152Z" fill="#FFE840"/>
<path d="M126.988 227.397V236.888C126.796 236.963 126.604 237.038 126.412 237.113V227.619C126.604 227.548 126.796 227.473 126.988 227.397Z" fill="#FFE840"/>
<path d="M135.696 222.872V232.362C135.508 232.49 135.316 232.614 135.12 232.738V223.244C135.316 223.12 135.508 222.996 135.696 222.868V222.872Z" fill="#FFE840"/>
<path d="M143.417 215.224V224.714C143.236 225.011 143.041 225.308 142.837 225.601V216.111C143.041 215.817 143.233 215.521 143.417 215.224Z" fill="#FFE840"/>
<path d="M177.397 198.141V207.342V208.616H177.348C177.133 211.27 176.241 213.912 174.675 216.445C174.494 216.742 174.299 217.039 174.099 217.332C172.205 220.087 169.499 222.699 165.971 225.049C165.783 225.176 165.591 225.3 165.395 225.424C164.834 225.785 164.251 226.138 163.645 226.488C161.642 227.642 159.504 228.668 157.264 229.574C157.072 229.649 156.88 229.724 156.688 229.799C154.098 230.81 151.376 231.652 148.56 232.329C148.368 232.378 148.176 232.423 147.984 232.468C145.337 233.081 142.615 233.547 139.852 233.87C139.66 233.892 139.468 233.919 139.276 233.934C136.592 234.231 133.87 234.389 131.148 234.411C130.956 234.411 130.764 234.415 130.572 234.415C127.85 234.419 125.129 234.291 122.441 234.02C122.249 234.005 122.057 233.983 121.865 233.964C119.105 233.674 116.383 233.235 113.737 232.656C113.545 232.615 113.353 232.573 113.161 232.528C110.349 231.889 107.623 231.085 105.029 230.119C104.837 230.047 104.641 229.976 104.453 229.901C101.901 228.924 99.48 227.789 97.2288 226.488C96.9201 226.311 96.6189 226.131 96.3215 225.951C96.1257 225.834 95.9337 225.714 95.7455 225.597C92.3159 223.432 89.6016 221.027 87.6139 218.479C87.4106 218.223 87.2223 217.971 87.0379 217.712C84.9447 214.803 83.7739 211.721 83.5217 208.62H83.469V198.145H86.2586C86.4995 197.758 86.7593 197.37 87.0379 196.991C87.2223 196.731 87.4143 196.476 87.6139 196.224C88.3442 195.284 89.1724 194.367 90.1023 193.473C91.2355 192.379 92.5154 191.319 93.946 190.308C94.9662 189.583 96.0617 188.88 97.2288 188.207C115.566 177.634 145.303 177.634 163.648 188.207C164.815 188.88 165.911 189.583 166.927 190.308C168.354 191.319 169.634 192.375 170.771 193.473C172.074 194.728 173.184 196.036 174.103 197.374C174.28 197.63 174.449 197.889 174.611 198.148H177.401L177.397 198.141Z" fill="#FF9D4D"/>
<path d="M130.433 180.847C142.879 180.847 154.572 183.636 163.355 188.699C164.499 189.357 165.587 190.056 166.589 190.77C167.982 191.758 169.25 192.803 170.365 193.882C171.622 195.096 172.718 196.378 173.621 197.697C173.783 197.93 173.945 198.178 174.114 198.449L174.284 198.719H176.817V208.048H176.813L176.772 208.578C176.561 211.164 175.692 213.712 174.182 216.151C174.016 216.422 173.828 216.712 173.621 217.012C171.727 219.771 169.043 222.316 165.648 224.574C165.459 224.698 165.271 224.823 165.083 224.947C164.529 225.3 163.95 225.653 163.355 225.995C161.409 227.115 159.289 228.141 157.045 229.043C156.857 229.119 156.669 229.194 156.477 229.265C153.936 230.257 151.225 231.099 148.413 231.772C148.225 231.821 148.04 231.862 147.852 231.907C145.262 232.509 142.548 232.979 139.781 233.298C139.592 233.321 139.408 233.343 139.212 233.362C136.551 233.655 133.836 233.817 131.137 233.836C130.949 233.836 130.761 233.839 130.569 233.839H130.414C127.76 233.839 125.095 233.708 122.486 233.445C122.298 233.43 122.113 233.407 121.925 233.388C119.188 233.099 116.474 232.663 113.857 232.092C113.669 232.05 113.477 232.009 113.289 231.964C110.477 231.325 107.766 230.52 105.229 229.577L105.161 229.551C104.995 229.491 104.833 229.431 104.66 229.359C102.119 228.389 99.7173 227.254 97.5188 225.988C97.2138 225.811 96.9164 225.634 96.6228 225.458C96.4308 225.341 96.2425 225.225 96.0543 225.108C92.7414 223.018 90.0572 220.669 88.0657 218.117C87.8888 217.895 87.7043 217.651 87.5086 217.373C85.4907 214.569 84.3463 211.607 84.1016 208.57L84.0601 208.04H84.0526V198.712H86.5862L86.7556 198.441C86.989 198.069 87.2413 197.693 87.5161 197.317C87.6817 197.08 87.8662 196.836 88.077 196.569C88.7885 195.656 89.6055 194.75 90.509 193.878C91.6384 192.788 92.9108 191.743 94.2849 190.766C95.3014 190.044 96.3894 189.349 97.5225 188.695C106.305 183.632 117.998 180.843 130.444 180.843L130.433 180.847ZM130.433 180.272C118.413 180.272 106.396 182.914 97.2251 188.199C96.0581 188.872 94.9626 189.575 93.9423 190.3C92.5118 191.311 91.2356 192.371 90.0986 193.465C89.1725 194.359 88.3405 195.276 87.6102 196.216C87.4107 196.472 87.2187 196.723 87.0342 196.983C86.7594 197.362 86.4996 197.75 86.2549 198.137H83.4653V208.612H83.518C83.7665 211.713 84.9373 214.795 87.0342 217.704C87.2187 217.959 87.4069 218.215 87.6102 218.471C89.5979 221.019 92.3123 223.428 95.7418 225.589C95.9301 225.706 96.1221 225.826 96.3178 225.943C96.6152 226.123 96.9164 226.303 97.2251 226.48C99.4764 227.777 101.897 228.916 104.449 229.893C104.638 229.968 104.833 230.039 105.025 230.111C107.619 231.077 110.349 231.877 113.157 232.52C113.349 232.565 113.541 232.606 113.733 232.648C116.38 233.227 119.105 233.666 121.861 233.956C122.053 233.978 122.245 233.997 122.437 234.012C125.076 234.275 127.741 234.407 130.41 234.407C130.463 234.407 130.516 234.407 130.569 234.407C130.761 234.407 130.953 234.407 131.145 234.403C133.87 234.381 136.588 234.223 139.272 233.926C139.464 233.907 139.656 233.884 139.848 233.862C142.612 233.539 145.337 233.073 147.98 232.46C148.172 232.415 148.364 232.37 148.556 232.321C151.372 231.648 154.094 230.802 156.684 229.791C156.876 229.716 157.068 229.641 157.26 229.566C159.504 228.664 161.642 227.634 163.641 226.48C164.243 226.13 164.827 225.777 165.392 225.416C165.587 225.292 165.779 225.165 165.968 225.04C169.495 222.695 172.202 220.083 174.095 217.324C174.299 217.031 174.491 216.734 174.671 216.437C176.238 213.904 177.126 211.262 177.344 208.608H177.393V207.338V198.133H174.604C174.442 197.874 174.272 197.618 174.095 197.359C173.181 196.021 172.066 194.716 170.764 193.457C169.631 192.36 168.347 191.304 166.92 190.293C165.9 189.567 164.808 188.864 163.641 188.191C154.47 182.907 142.45 180.265 130.429 180.265L130.433 180.272Z" fill="#FFE840"/>
<path d="M130.433 224.921C156.37 224.921 177.397 212.801 177.397 197.851C177.397 182.902 156.37 170.782 130.433 170.782C104.495 170.782 83.469 182.902 83.469 197.851C83.469 212.801 104.495 224.921 130.433 224.921Z" fill="#FFE840"/>
<path d="M170.767 193.469C169.265 188.823 165.376 184.546 159.451 181.129C151.699 176.66 141.396 174.202 130.437 174.202C119.478 174.202 109.17 176.66 101.423 181.129C95.4971 184.542 91.6044 188.819 90.1023 193.469C89.6393 194.901 89.4021 196.366 89.4021 197.855C89.4021 202.403 91.6119 206.755 95.7455 210.502C95.9338 210.675 96.122 210.844 96.3215 211.01C97.801 212.28 99.5064 213.475 101.423 214.58C102.394 215.14 103.407 215.67 104.449 216.163C104.641 216.253 104.833 216.343 105.025 216.43C107.551 217.584 110.277 218.55 113.157 219.32C113.349 219.373 113.541 219.425 113.733 219.474C116.334 220.139 119.056 220.651 121.861 220.989C122.053 221.015 122.245 221.038 122.437 221.06C125.042 221.357 127.719 221.508 130.437 221.508H130.572C130.764 221.508 130.956 221.508 131.148 221.504C133.915 221.477 136.633 221.297 139.276 220.963C139.468 220.94 139.66 220.914 139.852 220.887C142.664 220.511 145.386 219.963 147.984 219.252C148.18 219.2 148.372 219.147 148.56 219.091C151.447 218.271 154.177 217.249 156.688 216.039C156.88 215.949 157.075 215.855 157.264 215.757C158.013 215.385 158.743 214.994 159.451 214.584C161.744 213.261 163.731 211.81 165.395 210.258C165.591 210.074 165.783 209.89 165.971 209.706C169.555 206.142 171.468 202.083 171.468 197.859C171.468 196.37 171.23 194.904 170.767 193.472V193.469ZM165.967 206.8C165.783 207.045 165.591 207.289 165.391 207.529C163.547 209.747 161.032 211.825 157.851 213.66C157.655 213.772 157.459 213.881 157.26 213.994C157.072 214.099 156.88 214.205 156.684 214.302C154.18 215.633 151.447 216.738 148.556 217.617C148.368 217.674 148.172 217.734 147.98 217.787C145.367 218.55 142.642 219.132 139.848 219.531C139.66 219.561 139.468 219.587 139.272 219.609C136.599 219.97 133.874 220.162 131.144 220.188C130.952 220.188 130.761 220.192 130.569 220.192C127.843 220.196 125.114 220.042 122.437 219.715C122.245 219.692 122.049 219.666 121.861 219.639C119.075 219.279 116.346 218.741 113.733 218.023C113.541 217.971 113.345 217.918 113.157 217.862C110.277 217.039 107.544 215.994 105.025 214.735C104.83 214.637 104.638 214.539 104.449 214.441C103.964 214.19 103.486 213.926 103.019 213.656C100.293 212.085 98.0608 210.337 96.3215 208.48C96.1258 208.266 95.9338 208.056 95.7455 207.841C91.0134 202.369 90.411 196.002 93.9423 190.304C95.8133 187.289 98.8363 184.459 103.019 182.05C118.134 173.334 142.736 173.334 157.855 182.05C162.037 184.459 165.06 187.286 166.927 190.304C170.237 195.645 169.92 201.568 165.971 206.8H165.967Z" fill="#FF9D4D"/>
<path d="M131.939 194.036L136.362 196.584C136.261 196.633 136.163 196.686 136.069 196.738L133.64 198.137L129.507 195.754L130.873 194.968C131.363 194.686 131.717 194.374 131.939 194.032V194.036Z" fill="#D1975D"/>
<path d="M88.8375 210.168V219.655C88.6342 219.399 88.4459 219.147 88.2615 218.888V209.397C88.4459 209.653 88.6379 209.912 88.8375 210.164V210.168Z" fill="#FFE840"/>
<path d="M96.3216 216.456V225.946C96.1258 225.83 95.9338 225.709 95.7456 225.593V216.099C95.9338 216.219 96.1258 216.335 96.3216 216.456Z" fill="#FFE840"/>
<path d="M105.025 220.62V230.115C104.833 230.043 104.638 229.972 104.449 229.897V220.406C104.638 220.481 104.833 220.553 105.025 220.62Z" fill="#FFE840"/>
<path d="M113.733 223.162V232.652C113.541 232.611 113.349 232.57 113.157 232.524V223.03C113.349 223.075 113.541 223.12 113.733 223.162Z" fill="#FFE840"/>
<path d="M122.437 224.526V234.017C122.245 234.001 122.053 233.979 121.861 233.96V224.47C122.053 224.492 122.245 224.511 122.437 224.526Z" fill="#FFE840"/>
<path d="M131.145 224.917V234.407C130.953 234.407 130.761 234.411 130.569 234.411V224.921C130.761 224.921 130.953 224.921 131.145 224.917Z" fill="#FFE840"/>
<path d="M139.848 224.375V233.865C139.656 233.888 139.464 233.914 139.272 233.929V224.439C139.464 224.42 139.656 224.398 139.848 224.375Z" fill="#FFE840"/>
<path d="M148.556 222.834V232.324C148.364 232.373 148.172 232.418 147.98 232.463V222.969C148.172 222.924 148.364 222.879 148.556 222.834Z" fill="#FFE840"/>
<path d="M157.26 220.079V229.569C157.068 229.645 156.876 229.72 156.684 229.795V220.301C156.876 220.229 157.068 220.154 157.26 220.079Z" fill="#FFE840"/>
<path d="M165.968 215.554V225.044C165.779 225.172 165.587 225.296 165.392 225.42V215.926C165.587 215.802 165.779 215.678 165.968 215.55V215.554Z" fill="#FFE840"/>
<path d="M173.693 207.905V217.396C173.512 217.693 173.316 217.99 173.113 218.283V208.792C173.316 208.499 173.508 208.202 173.693 207.905Z" fill="#FFE840"/>
<path d="M143.956 179.235V188.436V189.71H143.907C143.692 192.363 142.8 195.006 141.234 197.539C141.053 197.836 140.857 198.133 140.658 198.426C138.764 201.181 136.057 203.793 132.53 206.142C132.342 206.27 132.15 206.394 131.954 206.518C131.393 206.879 130.809 207.232 130.203 207.582C128.2 208.736 126.062 209.762 123.822 210.668C123.63 210.743 123.438 210.818 123.246 210.893C120.656 211.904 117.934 212.746 115.118 213.423C114.926 213.471 114.734 213.517 114.542 213.562C111.896 214.174 109.174 214.64 106.411 214.964C106.219 214.986 106.027 215.012 105.835 215.028C103.151 215.324 100.429 215.482 97.7068 215.505C97.5148 215.505 97.3228 215.509 97.1308 215.509C94.409 215.512 91.6872 215.385 88.9992 215.114C88.8072 215.099 88.6152 215.076 88.4232 215.058C85.6637 214.768 82.9419 214.328 80.2953 213.75C80.1033 213.708 79.9113 213.667 79.7193 213.622C76.9072 212.983 74.1816 212.179 71.5877 211.213C71.3957 211.141 71.2 211.07 71.0117 210.995C68.4593 210.017 66.0386 208.882 63.7874 207.582C63.4787 207.405 63.1775 207.225 62.8801 207.044C62.6843 206.928 62.4923 206.808 62.3041 206.691C58.8745 204.526 56.1602 202.121 54.1725 199.572C53.9692 199.317 53.7809 199.065 53.5965 198.806C51.5033 195.896 50.3325 192.814 50.0803 189.714H50.0276V179.238H52.8172C53.0581 178.851 53.3179 178.464 53.5965 178.085C53.7809 177.825 53.9729 177.57 54.1725 177.318C54.9028 176.378 55.731 175.461 56.6609 174.566C57.7941 173.473 59.074 172.413 60.5046 171.402C61.5248 170.676 62.6203 169.974 63.7874 169.301C82.125 158.728 111.862 158.728 130.207 169.301C131.374 169.974 132.47 170.676 133.486 171.402C134.913 172.413 136.193 173.473 137.33 174.566C138.632 175.822 139.743 177.13 140.661 178.468C140.838 178.723 141.008 178.983 141.17 179.242H143.959L143.956 179.235Z" fill="#FF9D4D"/>
<path d="M96.9916 161.942C109.438 161.942 121.131 164.731 129.913 169.794C131.058 170.451 132.146 171.15 133.147 171.865C134.54 172.853 135.809 173.898 136.923 174.977C138.181 176.191 139.276 177.472 140.18 178.792C140.342 179.025 140.503 179.273 140.673 179.543L140.842 179.814H143.376V189.143H143.372L143.331 189.673C143.12 192.259 142.25 194.807 140.741 197.246C140.575 197.517 140.387 197.806 140.18 198.107C138.286 200.866 135.602 203.41 132.206 205.669C132.018 205.793 131.83 205.917 131.641 206.041C131.088 206.395 130.508 206.748 129.913 207.09C127.967 208.21 125.848 209.236 123.604 210.138C123.416 210.213 123.227 210.288 123.035 210.36C120.494 211.352 117.784 212.194 114.972 212.867C114.783 212.916 114.599 212.957 114.411 213.002C111.821 213.604 109.106 214.073 106.339 214.393C106.151 214.415 105.967 214.438 105.771 214.457C103.109 214.75 100.395 214.911 97.6956 214.93C97.5074 214.93 97.3192 214.934 97.1272 214.934H96.9728C94.3188 214.934 91.6534 214.802 89.0445 214.539C88.8562 214.524 88.6718 214.502 88.4836 214.483C85.7467 214.194 83.0323 213.758 80.4159 213.186C80.2277 213.145 80.0357 213.104 79.8475 213.059C77.0353 212.42 74.3247 211.615 71.7873 210.672L71.7196 210.646C71.5539 210.585 71.3921 210.525 71.2189 210.454C68.6777 209.484 66.2759 208.349 64.0774 207.082C63.7724 206.906 63.475 206.729 63.1814 206.552C62.9894 206.436 62.8011 206.319 62.6129 206.203C59.3 204.113 56.6158 201.764 54.6243 199.212C54.4474 198.99 54.2629 198.746 54.0672 198.468C52.0493 195.664 50.9049 192.702 50.6602 189.665L50.6187 189.135H50.6112V179.806H53.1448L53.3142 179.536C53.5476 179.164 53.7999 178.788 54.0747 178.412C54.2403 178.175 54.4248 177.931 54.6356 177.664C55.3471 176.751 56.1641 175.845 57.0676 174.973C58.197 173.883 59.4694 172.838 60.8435 171.861C61.86 171.139 62.948 170.444 64.0811 169.79C72.864 164.727 84.557 161.938 97.0029 161.938L96.9916 161.942ZM96.9916 161.367C84.9711 161.367 72.9544 164.009 63.7837 169.294C62.6167 169.967 61.5212 170.669 60.5009 171.395C59.0704 172.406 57.7942 173.466 56.6572 174.559C55.7311 175.454 54.8991 176.371 54.1688 177.311C53.9693 177.566 53.7773 177.818 53.5928 178.077C53.318 178.457 53.0582 178.844 52.8135 179.231H50.0239V189.707H50.0766C50.3251 192.807 51.4959 195.889 53.5928 198.798C53.7773 199.054 53.9655 199.31 54.1688 199.565C56.1565 202.114 58.8708 204.523 62.3004 206.684C62.4887 206.8 62.6807 206.921 62.8764 207.037C63.1738 207.218 63.475 207.398 63.7837 207.575C66.035 208.871 68.4556 210.01 71.0081 210.988C71.1963 211.063 71.3921 211.134 71.5841 211.206C74.1779 212.171 76.9073 212.972 79.7157 213.615C79.9077 213.66 80.0997 213.701 80.2917 213.743C82.9382 214.321 85.6638 214.761 88.4195 215.051C88.6115 215.073 88.8035 215.092 88.9955 215.107C91.6346 215.37 94.2999 215.502 96.9691 215.502C97.0218 215.502 97.0745 215.502 97.1272 215.502C97.3192 215.502 97.5112 215.502 97.7032 215.498C100.429 215.475 103.147 215.317 105.831 215.02C106.023 215.002 106.215 214.979 106.407 214.957C109.17 214.633 111.896 214.167 114.539 213.555C114.731 213.51 114.923 213.464 115.115 213.416C117.931 212.743 120.652 211.897 123.243 210.886C123.435 210.811 123.627 210.736 123.819 210.661C126.062 209.758 128.201 208.729 130.2 207.575C130.802 207.225 131.385 206.872 131.95 206.511C132.146 206.387 132.338 206.259 132.526 206.135C136.054 203.79 138.76 201.178 140.654 198.419C140.857 198.126 141.049 197.829 141.23 197.532C142.796 194.999 143.685 192.356 143.903 189.703H143.952V188.432V179.228H141.162C141 178.968 140.831 178.713 140.654 178.453C139.739 177.115 138.625 175.811 137.322 174.552C136.189 173.454 134.905 172.398 133.479 171.387C132.458 170.662 131.367 169.959 130.2 169.286C121.029 164.002 109.008 161.359 96.9879 161.359L96.9916 161.367Z" fill="#FFE840"/>
<path d="M96.9915 206.014C122.929 206.014 143.956 193.895 143.956 178.945C143.956 163.995 122.929 151.876 96.9915 151.876C71.0541 151.876 50.0276 163.995 50.0276 178.945C50.0276 193.895 71.0541 206.014 96.9915 206.014Z" fill="#FFE840"/>
<path d="M137.326 174.559C135.824 169.914 131.935 165.637 126.009 162.22C118.258 157.751 107.954 155.293 96.9953 155.293C86.0365 155.293 75.7288 157.751 67.9812 162.22C62.0557 165.633 58.163 169.91 56.6609 174.559C56.1979 175.991 55.9607 177.457 55.9607 178.946C55.9607 183.494 58.1705 187.846 62.3041 191.593C62.4924 191.766 62.6806 191.935 62.8801 192.101C64.3596 193.371 66.065 194.566 67.9812 195.671C68.9525 196.231 69.9652 196.761 71.008 197.254C71.2 197.344 71.392 197.434 71.584 197.521C74.1101 198.674 76.8357 199.64 79.7156 200.411C79.9076 200.463 80.0996 200.516 80.2916 200.565C82.893 201.23 85.6148 201.741 88.4195 202.08C88.6115 202.106 88.8035 202.129 88.9955 202.151C91.6006 202.448 94.2773 202.598 96.9953 202.598H97.1309C97.3229 202.598 97.5149 202.598 97.7069 202.595C100.474 202.568 103.192 202.388 105.835 202.053C106.027 202.031 106.219 202.004 106.411 201.978C109.223 201.602 111.945 201.054 114.542 200.343C114.738 200.291 114.93 200.238 115.118 200.182C118.006 199.362 120.735 198.34 123.246 197.13C123.438 197.039 123.634 196.945 123.822 196.848C124.571 196.476 125.302 196.085 126.009 195.675C128.302 194.352 130.29 192.901 131.954 191.349C132.15 191.165 132.342 190.981 132.53 190.796C136.114 187.233 138.026 183.174 138.026 178.949C138.026 177.461 137.789 175.995 137.326 174.563V174.559ZM132.526 187.891C132.342 188.135 132.15 188.38 131.95 188.62C130.105 190.838 127.591 192.916 124.409 194.75C124.214 194.863 124.018 194.972 123.818 195.085C123.63 195.19 123.438 195.295 123.242 195.393C120.739 196.724 118.006 197.829 115.115 198.708C114.926 198.765 114.731 198.825 114.539 198.877C111.926 199.64 109.2 200.223 106.407 200.621C106.219 200.651 106.027 200.678 105.831 200.7C103.158 201.061 100.432 201.253 97.7031 201.279C97.5111 201.279 97.3191 201.283 97.1271 201.283C94.4015 201.287 91.6721 201.132 88.9955 200.805C88.8035 200.783 88.6077 200.757 88.4195 200.73C85.6336 200.369 82.9043 199.832 80.2916 199.114C80.0996 199.062 79.9038 199.009 79.7156 198.953C76.8357 198.129 74.1025 197.085 71.584 195.825C71.3882 195.728 71.1962 195.63 71.008 195.532C70.5223 195.28 70.0442 195.017 69.5774 194.747C66.8518 193.176 64.6194 191.428 62.8801 189.571C62.6843 189.357 62.4924 189.146 62.3041 188.932C57.572 183.46 56.9696 177.093 60.5009 171.395C62.3719 168.38 65.3949 165.55 69.5774 163.141C84.6925 154.425 109.294 154.425 124.413 163.141C128.596 165.55 131.619 168.377 133.486 171.395C136.795 176.736 136.479 182.659 132.53 187.891H132.526Z" fill="#FF9D4D"/>
<path d="M98.4937 175.131L102.917 177.679C102.816 177.728 102.718 177.781 102.624 177.833L100.195 179.231L96.0618 176.848L97.4283 176.063C97.9177 175.781 98.2716 175.469 98.4937 175.127V175.131Z" fill="#D1975D"/>
<path d="M111.719 185.876L116.252 188.489L118.962 186.929L114.418 184.309C114.456 184.283 114.501 184.26 114.539 184.23C114.738 184.106 114.93 183.978 115.115 183.851C115.758 183.396 116.312 182.926 116.782 182.434C117.528 181.656 118.01 180.866 118.221 180.073C118.435 179.28 118.341 178.506 117.938 177.747C117.535 176.987 116.764 176.281 115.627 175.627C115.457 175.529 115.284 175.435 115.115 175.345C114.926 175.247 114.734 175.153 114.539 175.063C113.074 174.387 111.519 173.984 109.863 173.853C108.7 173.763 107.548 173.796 106.407 173.954C106.215 173.981 106.023 174.011 105.831 174.045C105.135 174.169 104.446 174.334 103.757 174.552C104.465 173.503 104.57 172.458 104.081 171.417C103.587 170.376 102.684 169.478 101.37 168.719C100.534 168.238 99.5629 167.847 98.4486 167.538C97.338 167.234 96.1936 167.05 95.019 166.982C93.8444 166.918 92.6774 166.982 91.5141 167.189C90.3508 167.392 89.3043 167.764 88.3669 168.305L87.5123 168.798L83.1453 166.279L80.4348 167.839L84.798 170.354L81.5039 172.255L77.1369 169.737L74.4264 171.297L78.7896 173.811L73.9558 176.6L79.7082 179.919L80.2842 180.25L88.4121 184.937L88.988 185.271L97.1197 189.958L97.6957 190.293L100.873 192.123L105.711 189.334L110.243 191.947L112.954 190.387L108.421 187.775L111.715 185.876H111.719ZM102.62 177.833C102.718 177.777 102.816 177.724 102.913 177.679C103.29 177.499 103.708 177.363 104.152 177.277C104.694 177.172 105.251 177.134 105.827 177.153C105.857 177.153 105.888 177.153 105.918 177.153C106.08 177.16 106.241 177.175 106.403 177.19C106.848 177.239 107.296 177.318 107.736 177.438C108.338 177.6 108.888 177.818 109.366 178.092C109.848 178.371 110.213 178.683 110.465 179.032C110.718 179.382 110.849 179.739 110.861 180.096C110.872 180.453 110.759 180.802 110.522 181.144C110.375 181.351 110.183 181.547 109.946 181.731C109.829 181.821 109.697 181.911 109.558 181.998C109.52 182.02 109.483 182.047 109.441 182.069L107.352 183.272L107.277 183.313L106.4 183.821L105.824 184.151L103.983 185.215L101.667 186.549L94.5785 182.464L95.3352 182.028L96.8938 181.129L97.1234 180.998L97.6994 180.667L100.192 179.231L102.62 177.829V177.833ZM88.4158 173.432L88.9918 173.097L89.2704 172.936L90.8628 172.019C90.9532 171.966 91.0548 171.925 91.1527 171.88C91.4765 171.722 91.8191 171.586 92.1918 171.5C92.7075 171.376 93.2684 171.323 93.8746 171.331C95.0228 171.353 96.1032 171.647 97.1197 172.218C97.1423 172.229 97.1686 172.248 97.195 172.259C97.3794 172.364 97.5451 172.473 97.6957 172.582C98.4222 173.101 98.7761 173.654 98.7686 174.236C98.7648 174.552 98.6707 174.849 98.49 175.127C98.3131 175.401 98.0458 175.657 97.6957 175.89C97.6091 175.946 97.5187 176.006 97.4209 176.059L97.1197 176.232L96.0543 176.845L92.7602 178.746L91.8605 179.265L90.445 180.081L89.6582 179.63L88.781 179.122L88.4121 178.908L86.7518 177.953L83.6573 176.172L84.5156 175.676L85.9688 174.838L88.4083 173.432H88.4158Z" fill="#FF9D4D"/>
<path d="M55.3961 191.263V200.749C55.1928 200.494 55.0045 200.242 54.8201 199.983V190.492C55.0045 190.748 55.1965 191.007 55.3961 191.259V191.263Z" fill="#FFE840"/>
<path d="M62.8765 197.55V207.041C62.6808 206.924 62.4888 206.804 62.3005 206.687V197.193C62.4888 197.314 62.6808 197.43 62.8765 197.55Z" fill="#FFE840"/>
<path d="M71.5841 201.715V211.209C71.3921 211.138 71.1963 211.067 71.0081 210.991V201.501C71.1963 201.576 71.3921 201.648 71.5841 201.715Z" fill="#FFE840"/>
<path d="M80.2879 204.256V213.746C80.0959 213.705 79.9039 213.663 79.7119 213.618V204.124C79.9039 204.169 80.0959 204.214 80.2879 204.256Z" fill="#FFE840"/>
<path d="M88.9954 205.62V215.11C88.8034 215.095 88.6114 215.073 88.4194 215.054V205.563C88.6114 205.586 88.8034 205.605 88.9954 205.62Z" fill="#FFE840"/>
<path d="M97.7032 206.011V215.501C97.5112 215.501 97.3192 215.505 97.1272 215.505V206.015C97.3192 206.015 97.5112 206.015 97.7032 206.011Z" fill="#FFE840"/>
<path d="M106.407 205.47V214.96C106.215 214.983 106.023 215.009 105.831 215.024V205.534C106.023 205.515 106.215 205.492 106.407 205.47Z" fill="#FFE840"/>
<path d="M115.115 203.929V213.419C114.923 213.468 114.731 213.513 114.539 213.558V204.064C114.731 204.019 114.923 203.974 115.115 203.929Z" fill="#FFE840"/>
<path d="M123.818 201.174V210.664C123.626 210.739 123.434 210.815 123.242 210.89V201.396C123.434 201.324 123.626 201.249 123.818 201.174Z" fill="#FFE840"/>
<path d="M132.526 196.648V206.139C132.338 206.266 132.146 206.391 131.95 206.515V197.02C132.146 196.896 132.338 196.772 132.526 196.645V196.648Z" fill="#FFE840"/>
<path d="M140.247 189V198.49C140.067 198.787 139.871 199.084 139.668 199.377V189.887C139.871 189.594 140.063 189.297 140.247 189Z" fill="#FFE840"/>
<path d="M157.832 163.363V172.564V173.838H157.783C157.568 176.491 156.676 179.134 155.11 181.667C154.929 181.964 154.734 182.261 154.534 182.554C152.641 185.309 149.934 187.921 146.406 190.27C146.218 190.398 146.026 190.522 145.83 190.646C145.269 191.007 144.686 191.36 144.08 191.71C142.077 192.864 139.939 193.893 137.699 194.792C137.507 194.867 137.315 194.942 137.123 195.017C134.533 196.028 131.811 196.87 128.995 197.547C128.803 197.596 128.611 197.641 128.419 197.686C125.772 198.298 123.05 198.765 120.287 199.088C120.095 199.11 119.903 199.137 119.711 199.152C117.027 199.449 114.305 199.606 111.583 199.629C111.391 199.629 111.199 199.633 111.007 199.633C108.285 199.637 105.564 199.509 102.876 199.238C102.684 199.223 102.492 199.201 102.3 199.182C99.5402 198.892 96.8184 198.453 94.1718 197.874C93.9798 197.832 93.7878 197.791 93.5958 197.746C90.7836 197.107 88.058 196.303 85.4642 195.34C85.2722 195.269 85.0764 195.198 84.8882 195.122C82.3358 194.145 79.9151 193.01 77.6638 191.71C77.3551 191.533 77.054 191.353 76.7566 191.172C76.5608 191.056 76.3688 190.935 76.1806 190.819C72.751 188.654 70.0367 186.249 68.0489 183.7C67.8456 183.445 67.6574 183.193 67.4729 182.933C65.3798 180.024 64.209 176.942 63.9568 173.841H63.9041V163.366H66.6937C66.9346 162.979 67.1944 162.592 67.4729 162.212C67.6574 161.953 67.8494 161.698 68.0489 161.446C68.7793 160.506 69.6075 159.589 70.5374 158.694C71.6705 157.601 72.9505 156.541 74.3811 155.53C75.4013 154.804 76.4968 154.101 77.6638 153.429C96.0014 142.856 125.738 142.856 144.083 153.429C145.251 154.101 146.346 154.804 147.362 155.53C148.789 156.541 150.069 157.601 151.206 158.694C152.509 159.95 153.619 161.258 154.538 162.596C154.715 162.851 154.884 163.111 155.046 163.37H157.836L157.832 163.363Z" fill="#FF9D4D"/>
<path d="M110.868 146.069C123.314 146.069 135.007 148.858 143.79 153.921C144.934 154.578 146.022 155.277 147.024 155.992C148.417 156.98 149.685 158.025 150.8 159.104C152.057 160.318 153.153 161.599 154.056 162.919C154.218 163.152 154.38 163.4 154.549 163.67L154.719 163.941H157.252V173.27H157.249L157.207 173.8C156.996 176.386 156.127 178.934 154.617 181.373C154.451 181.644 154.263 181.933 154.056 182.234C152.163 184.993 149.478 187.537 146.083 189.796C145.894 189.92 145.706 190.044 145.518 190.168C144.965 190.522 144.385 190.875 143.79 191.217C141.844 192.337 139.724 193.363 137.48 194.265C137.292 194.34 137.104 194.415 136.912 194.487C134.371 195.479 131.66 196.321 128.848 196.994C128.66 197.043 128.475 197.084 128.287 197.129C125.697 197.73 122.983 198.2 120.216 198.52C120.027 198.542 119.843 198.565 119.647 198.584C116.986 198.877 114.271 199.038 111.572 199.057C111.384 199.057 111.196 199.061 111.004 199.061H110.849C108.195 199.061 105.53 198.929 102.921 198.666C102.736 198.651 102.548 198.633 102.36 198.61C99.6231 198.321 96.9088 197.885 94.2924 197.313C94.1041 197.272 93.9121 197.231 93.7239 197.185C90.9117 196.547 88.2012 195.742 85.6638 194.799L85.596 194.772C85.4304 194.712 85.2685 194.652 85.0953 194.581C82.5542 193.611 80.1524 192.476 77.9538 191.209C77.6489 191.033 77.3515 190.856 77.0578 190.676C76.8658 190.559 76.6776 190.443 76.4894 190.326C73.1765 188.236 70.4923 185.887 68.5008 183.335C68.3239 183.113 68.1394 182.869 67.9436 182.591C65.9258 179.787 64.7813 176.825 64.5366 173.788L64.4952 173.258H64.4877V163.93H67.0213L67.1907 163.659C67.4241 163.287 67.6763 162.911 67.9474 162.535C68.113 162.298 68.2975 162.054 68.5083 161.787C69.2198 160.874 70.0368 159.968 70.9403 159.096C72.0697 158.006 73.3421 156.961 74.7162 155.984C75.7327 155.262 76.8207 154.567 77.9538 153.913C86.7367 148.85 98.4297 146.061 110.876 146.061L110.868 146.069ZM110.868 145.494C98.8476 145.494 86.8309 148.136 77.6602 153.421C76.4931 154.093 75.3976 154.796 74.3774 155.522C72.9468 156.533 71.6706 157.593 70.5337 158.686C69.6076 159.581 68.7756 160.498 68.0453 161.438C67.8457 161.693 67.6537 161.945 67.4693 162.204C67.1945 162.584 66.9347 162.971 66.69 163.358H63.9004V173.833H63.9531C64.2016 176.934 65.3724 180.016 67.4693 182.925C67.6537 183.181 67.842 183.437 68.0453 183.692C70.033 186.241 72.7473 188.65 76.1769 190.811C76.3651 190.927 76.5571 191.048 76.7529 191.164C77.0503 191.345 77.3515 191.525 77.6602 191.702C79.9114 192.998 82.3321 194.137 84.8845 195.114C85.0728 195.19 85.2685 195.261 85.4605 195.332C88.0544 196.298 90.7837 197.099 93.5922 197.738C93.7841 197.783 93.9761 197.824 94.1681 197.866C96.8147 198.445 99.5403 198.884 102.296 199.174C102.488 199.196 102.68 199.215 102.872 199.23C105.511 199.493 108.176 199.625 110.846 199.625C110.898 199.625 110.951 199.625 111.004 199.625C111.196 199.625 111.388 199.625 111.58 199.621C114.305 199.598 117.023 199.441 119.708 199.144C119.899 199.125 120.091 199.102 120.283 199.08C123.047 198.757 125.772 198.29 128.415 197.678C128.607 197.633 128.799 197.588 128.991 197.539C131.807 196.866 134.529 196.02 137.119 195.009C137.311 194.934 137.503 194.859 137.695 194.784C139.939 193.882 142.077 192.852 144.076 191.702C144.678 191.352 145.262 190.999 145.827 190.638C146.022 190.514 146.214 190.386 146.403 190.262C149.93 187.917 152.637 185.305 154.53 182.546C154.734 182.253 154.926 181.956 155.106 181.659C156.673 179.126 157.561 176.483 157.779 173.83H157.828V172.559V163.355H155.039C154.877 163.095 154.707 162.84 154.53 162.58C153.612 161.242 152.501 159.938 151.199 158.679C150.066 157.581 148.782 156.525 147.355 155.514C146.335 154.789 145.243 154.086 144.076 153.413C134.905 148.129 122.885 145.486 110.864 145.486L110.868 145.494Z" fill="#FFE840"/>
<path d="M110.868 190.142C136.805 190.142 157.832 178.023 157.832 163.073C157.832 148.123 136.805 136.004 110.868 136.004C84.9305 136.004 63.9041 148.123 63.9041 163.073C63.9041 178.023 84.9305 190.142 110.868 190.142Z" fill="#FFE840"/>
<path d="M151.202 158.686C149.7 154.041 145.811 149.764 139.886 146.347C132.135 141.878 121.831 139.42 110.872 139.42C99.9129 139.42 89.6053 141.878 81.8577 146.347C75.9321 149.76 72.0395 154.037 70.5374 158.686C70.0743 160.118 69.8372 161.584 69.8372 163.073C69.8372 167.62 72.047 171.973 76.1806 175.72C76.3688 175.893 76.5571 176.062 76.7566 176.228C78.2361 177.498 79.9415 178.693 81.8577 179.798C82.829 180.358 83.8416 180.888 84.8844 181.381C85.0764 181.471 85.2684 181.561 85.4604 181.647C87.9865 182.801 90.7121 183.767 93.5921 184.538C93.7841 184.59 93.9761 184.643 94.1681 184.692C96.7694 185.357 99.4913 185.868 102.296 186.207C102.488 186.233 102.68 186.255 102.872 186.278C105.477 186.575 108.154 186.725 110.872 186.725H111.007C111.199 186.725 111.391 186.725 111.583 186.722C114.35 186.695 117.068 186.515 119.711 186.18C119.903 186.158 120.095 186.131 120.287 186.105C123.099 185.729 125.821 185.181 128.419 184.47C128.615 184.418 128.807 184.365 128.995 184.309C131.882 183.489 134.612 182.467 137.123 181.257C137.315 181.166 137.51 181.072 137.699 180.975C138.448 180.603 139.178 180.212 139.886 179.802C142.179 178.479 144.166 177.028 145.83 175.476C146.026 175.292 146.218 175.108 146.406 174.923C149.99 171.36 151.903 167.301 151.903 163.076C151.903 161.588 151.666 160.122 151.202 158.69V158.686ZM146.403 172.018C146.218 172.262 146.026 172.507 145.827 172.747C143.982 174.965 141.467 177.043 138.286 178.877C138.09 178.99 137.894 179.099 137.695 179.212C137.507 179.317 137.315 179.422 137.119 179.52C134.615 180.851 131.882 181.956 128.991 182.835C128.803 182.892 128.607 182.952 128.415 183.004C125.802 183.767 123.077 184.35 120.283 184.748C120.095 184.778 119.903 184.805 119.707 184.827C117.035 185.188 114.309 185.38 111.58 185.406C111.388 185.406 111.196 185.41 111.004 185.41C108.278 185.414 105.549 185.259 102.872 184.932C102.68 184.91 102.484 184.884 102.296 184.857C99.5101 184.496 96.7807 183.959 94.1681 183.241C93.9761 183.188 93.7803 183.136 93.5921 183.079C90.7121 182.256 87.979 181.211 85.4604 179.952C85.2647 179.855 85.0727 179.757 84.8844 179.659C84.3988 179.407 83.9207 179.144 83.4539 178.874C80.7283 177.303 78.4958 175.555 76.7566 173.698C76.5608 173.484 76.3688 173.273 76.1806 173.059C71.4484 167.587 70.8461 161.22 74.3773 155.522C76.2484 152.507 79.2714 149.677 83.4539 147.268C98.5689 138.552 123.171 138.552 138.29 147.268C142.472 149.677 145.495 152.504 147.363 155.522C150.672 160.863 150.355 166.786 146.406 172.018H146.403Z" fill="#FF9D4D"/>
<path d="M112.37 159.258L116.794 161.806C116.692 161.855 116.594 161.907 116.5 161.96L114.072 163.358L109.938 160.975L111.305 160.19C111.794 159.908 112.148 159.596 112.37 159.254V159.258Z" fill="#D1975D"/>
<path d="M69.2725 175.386V184.872C69.0692 184.617 68.881 184.365 68.6965 184.106V174.615C68.881 174.871 69.073 175.13 69.2725 175.382V175.386Z" fill="#FFE840"/>
<path d="M76.753 181.678V191.169C76.5572 191.052 76.3652 190.932 76.177 190.815V181.321C76.3652 181.442 76.5572 181.558 76.753 181.678Z" fill="#FFE840"/>
<path d="M85.4568 185.842V195.336C85.2649 195.265 85.0691 195.193 84.8809 195.118V185.628C85.0691 185.703 85.2649 185.775 85.4568 185.842Z" fill="#FFE840"/>
<path d="M94.1644 188.384V197.874C93.9724 197.833 93.7804 197.791 93.5884 197.746V188.252C93.7804 188.297 93.9724 188.342 94.1644 188.384Z" fill="#FFE840"/>
<path d="M102.872 189.748V199.238C102.68 199.223 102.488 199.201 102.296 199.182V189.691C102.488 189.714 102.68 189.733 102.872 189.748Z" fill="#FFE840"/>
<path d="M111.576 190.139V199.629C111.384 199.629 111.192 199.633 111 199.633V190.142C111.192 190.142 111.384 190.142 111.576 190.139Z" fill="#FFE840"/>
<path d="M120.284 189.598V199.088C120.092 199.111 119.9 199.137 119.708 199.152V189.662C119.9 189.643 120.092 189.62 120.284 189.598Z" fill="#FFE840"/>
<path d="M128.991 188.053V197.543C128.799 197.592 128.607 197.637 128.415 197.682V188.188C128.607 188.143 128.799 188.098 128.991 188.053Z" fill="#FFE840"/>
<path d="M137.695 185.301V194.791C137.503 194.866 137.311 194.942 137.119 195.017V185.523C137.311 185.451 137.503 185.376 137.695 185.301Z" fill="#FFE840"/>
<path d="M146.403 180.776V190.267C146.214 190.394 146.022 190.518 145.827 190.642V181.148C146.022 181.024 146.214 180.9 146.403 180.772V180.776Z" fill="#FFE840"/>
<path d="M154.124 173.127V182.617C153.943 182.914 153.747 183.211 153.548 183.504V174.014C153.751 173.721 153.943 173.424 154.124 173.127Z" fill="#FFE840"/>
<path d="M135.956 141.036V150.237V151.512H135.907C135.692 154.165 134.8 156.807 133.234 159.341C133.053 159.638 132.857 159.934 132.658 160.228C130.764 162.983 128.058 165.595 124.53 167.944C124.342 168.068 124.15 168.196 123.954 168.32C123.393 168.681 122.81 169.034 122.203 169.384C120.201 170.537 118.062 171.567 115.822 172.469C115.63 172.544 115.438 172.62 115.246 172.695C112.656 173.706 109.935 174.548 107.119 175.224C106.927 175.273 106.735 175.318 106.543 175.363C103.896 175.976 101.174 176.442 98.4109 176.765C98.2189 176.788 98.0269 176.814 97.8349 176.829C95.1507 177.126 92.4289 177.284 89.7071 177.307C89.5151 177.307 89.3231 177.31 89.1311 177.31C86.4092 177.314 83.6874 177.186 80.9995 176.916C80.8075 176.901 80.6155 176.878 80.4235 176.859C77.664 176.57 74.9421 176.13 72.2956 175.551C72.1036 175.51 71.9116 175.469 71.7196 175.424C68.9074 174.785 66.1818 173.98 63.588 173.014C63.396 172.943 63.2002 172.871 63.012 172.796C60.4595 171.819 58.0389 170.684 55.7876 169.384C55.4789 169.207 55.1777 169.026 54.8803 168.846C54.6846 168.73 54.4926 168.609 54.3043 168.493C50.8748 166.328 48.1604 163.922 46.1727 161.374C45.9694 161.118 45.7812 160.867 45.5967 160.607C43.5036 157.698 42.3328 154.616 42.0805 151.515H42.0278V141.04H44.8174C45.0584 140.653 45.3181 140.266 45.5967 139.886C45.7812 139.627 45.9732 139.371 46.1727 139.12C46.903 138.18 47.7313 137.263 48.6611 136.368C49.7943 135.275 51.0743 134.215 52.5048 133.204C53.5251 132.478 54.6206 131.775 55.7876 131.102C74.1252 120.53 103.862 120.53 122.207 131.102C123.374 131.775 124.47 132.478 125.486 133.204C126.913 134.215 128.193 135.275 129.33 136.368C130.633 137.624 131.743 138.932 132.662 140.27C132.839 140.525 133.008 140.785 133.17 141.044H135.96L135.956 141.036Z" fill="#FF9D4D"/>
<path d="M88.9956 123.744C101.441 123.744 113.134 126.533 121.917 131.595C123.062 132.253 124.15 132.952 125.151 133.666C126.544 134.655 127.813 135.7 128.927 136.778C130.185 137.992 131.28 139.274 132.184 140.593C132.345 140.826 132.507 141.071 132.677 141.345L132.846 141.616H135.38V150.944H135.376L135.335 151.474C135.124 154.06 134.254 156.609 132.745 159.048C132.579 159.319 132.391 159.608 132.184 159.909C130.29 162.667 127.606 165.212 124.21 167.471C124.022 167.595 123.834 167.719 123.645 167.843C123.092 168.196 122.512 168.55 121.917 168.892C119.971 170.012 117.852 171.038 115.608 171.94C115.42 172.015 115.231 172.09 115.039 172.162C112.498 173.154 109.788 173.996 106.976 174.669C106.787 174.717 106.603 174.759 106.415 174.804C103.824 175.405 101.11 175.875 98.3432 176.195C98.1549 176.217 97.9705 176.24 97.7747 176.258C95.1131 176.552 92.3988 176.713 89.6995 176.732C89.5113 176.732 89.3231 176.736 89.1311 176.736H88.9767C86.3227 176.736 83.6573 176.604 81.0484 176.341C80.8602 176.326 80.6757 176.304 80.4875 176.285C77.7506 175.995 75.0362 175.559 72.4198 174.988C72.2316 174.947 72.0396 174.905 71.8476 174.86C69.0354 174.221 66.3249 173.417 63.7875 172.474L63.7197 172.447C63.5541 172.387 63.3922 172.327 63.219 172.256C60.6779 171.286 58.276 170.151 56.0775 168.884C55.7726 168.707 55.4751 168.531 55.1815 168.354C54.9895 168.238 54.8013 168.121 54.613 168.005C51.3002 165.915 48.616 163.566 46.6245 161.014C46.4475 160.792 46.2631 160.548 46.0673 160.27C44.0494 157.466 42.905 154.504 42.6603 151.467L42.6189 150.937H42.6114V141.608H45.145L45.3144 141.338C45.5478 140.965 45.8 140.59 46.0711 140.214C46.2367 139.977 46.4212 139.733 46.632 139.466C47.3435 138.552 48.1604 137.647 49.064 136.775C50.1933 135.685 51.4658 134.64 52.8399 133.663C53.8563 132.941 54.9443 132.246 56.0775 131.592C64.8604 126.529 76.5534 123.74 88.9993 123.74L88.9956 123.744ZM88.9956 123.169C76.975 123.169 64.9583 125.811 55.7876 131.095C54.6206 131.768 53.5251 132.471 52.5048 133.197C51.0743 134.208 49.7981 135.267 48.6611 136.361C47.735 137.256 46.903 138.173 46.1727 139.113C45.9732 139.368 45.7812 139.62 45.5967 139.879C45.3219 140.259 45.0621 140.646 44.8174 141.033H42.0278V151.508H42.0805C42.329 154.609 43.4998 157.691 45.5967 160.6C45.7812 160.856 45.9694 161.111 46.1727 161.367C48.1604 163.915 50.8748 166.325 54.3043 168.486C54.4926 168.602 54.6846 168.723 54.8803 168.839C55.1777 169.019 55.4789 169.2 55.7876 169.377C58.0389 170.673 60.4595 171.812 63.012 172.789C63.2002 172.864 63.396 172.936 63.588 173.007C66.1818 173.973 68.9112 174.774 71.7196 175.417C71.9116 175.462 72.1036 175.503 72.2956 175.544C74.9421 176.123 77.6677 176.563 80.4235 176.852C80.6155 176.875 80.8075 176.894 80.9995 176.909C83.6385 177.172 86.3038 177.303 88.973 177.303C89.0257 177.303 89.0784 177.303 89.1311 177.303C89.3231 177.303 89.5151 177.303 89.7071 177.3C92.4327 177.277 95.1507 177.119 97.8349 176.822C98.0269 176.803 98.2189 176.781 98.4109 176.758C101.174 176.435 103.9 175.969 106.543 175.356C106.735 175.311 106.927 175.266 107.119 175.217C109.935 174.545 112.656 173.699 115.246 172.688C115.438 172.613 115.63 172.537 115.822 172.462C118.066 171.56 120.204 170.53 122.203 169.377C122.806 169.027 123.389 168.674 123.954 168.313C124.15 168.185 124.342 168.061 124.53 167.937C128.058 165.592 130.764 162.979 132.658 160.221C132.861 159.927 133.053 159.631 133.234 159.334C134.8 156.8 135.688 154.158 135.907 151.505H135.956V150.234V141.029H133.166C133.004 140.77 132.835 140.514 132.658 140.255C131.743 138.917 130.629 137.613 129.326 136.354C128.193 135.256 126.909 134.2 125.483 133.189C124.462 132.464 123.371 131.761 122.203 131.088C113.033 125.803 101.012 123.161 88.9918 123.161L88.9956 123.169Z" fill="#FFE840"/>
<path d="M88.9955 167.816C114.933 167.816 135.959 155.697 135.959 140.747C135.959 125.797 114.933 113.678 88.9955 113.678C63.058 113.678 42.0315 125.797 42.0315 140.747C42.0315 155.697 63.058 167.816 88.9955 167.816Z" fill="#FFE840"/>
<path d="M129.326 136.365C127.824 131.719 123.935 127.442 118.01 124.026C110.258 119.557 99.9545 117.099 88.9956 117.099C78.0367 117.099 67.7291 119.557 59.9815 124.026C54.0559 127.438 50.1633 131.716 48.6612 136.365C48.1981 137.797 47.9609 139.263 47.9609 140.751C47.9609 145.299 50.1708 149.652 54.3044 153.399C54.4926 153.572 54.6808 153.741 54.8804 153.906C56.3599 155.177 58.0652 156.372 59.9815 157.477C60.9527 158.037 61.9654 158.567 63.0082 159.059C63.2002 159.15 63.3922 159.24 63.5842 159.326C66.1103 160.48 68.8359 161.446 71.7159 162.217C71.9079 162.269 72.0998 162.322 72.2918 162.371C74.8932 163.036 77.6151 163.547 80.4197 163.885C80.6117 163.912 80.8037 163.934 80.9957 163.957C83.6008 164.254 86.2775 164.404 88.9956 164.404H89.1311C89.3231 164.404 89.5151 164.404 89.7071 164.4C92.4741 164.374 95.1922 164.194 97.835 163.859C98.027 163.836 98.219 163.81 98.411 163.784C101.223 163.408 103.945 162.859 106.543 162.149C106.738 162.096 106.93 162.044 107.119 161.987C110.006 161.168 112.735 160.146 115.246 158.935C115.438 158.845 115.634 158.751 115.822 158.653C116.572 158.281 117.302 157.89 118.01 157.481C120.302 156.158 122.29 154.707 123.954 153.155C124.15 152.97 124.342 152.786 124.53 152.602C128.114 149.043 130.026 144.98 130.026 140.755C130.026 139.267 129.789 137.801 129.326 136.369V136.365ZM124.526 149.697C124.342 149.941 124.15 150.185 123.95 150.426C122.106 152.643 119.591 154.722 116.41 156.556C116.214 156.669 116.018 156.778 115.819 156.891C115.63 156.996 115.438 157.101 115.243 157.199C112.739 158.529 110.006 159.634 107.115 160.514C106.927 160.57 106.731 160.63 106.539 160.683C103.926 161.446 101.201 162.029 98.4072 162.427C98.219 162.457 98.027 162.483 97.8312 162.506C95.1583 162.867 92.4327 163.058 89.7033 163.085C89.5113 163.085 89.3193 163.089 89.1273 163.089C86.4017 163.092 83.6724 162.938 80.9957 162.611C80.8037 162.589 80.6079 162.562 80.4197 162.536C77.6339 162.175 74.9045 161.638 72.2918 160.92C72.0998 160.867 71.9041 160.815 71.7159 160.758C68.8359 159.935 66.1028 158.89 63.5842 157.631C63.3885 157.533 63.1965 157.436 63.0082 157.338C62.5226 157.086 62.0445 156.823 61.5777 156.552C58.8521 154.981 56.6196 153.234 54.8804 151.377C54.6846 151.163 54.4926 150.952 54.3044 150.738C49.5722 145.265 48.9699 138.898 52.5011 133.2C54.3721 130.186 57.3951 127.356 61.5777 124.947C76.6927 116.23 101.295 116.23 116.413 124.947C120.596 127.356 123.619 130.182 125.486 133.2C128.795 138.541 128.479 144.465 124.53 149.697H124.526Z" fill="#FF9D4D"/>
<path d="M90.4976 136.932L94.9211 139.481C94.8194 139.53 94.7216 139.582 94.6274 139.635L92.1993 141.033L88.0657 138.65L89.4322 137.865C89.9216 137.583 90.2755 137.271 90.4976 136.929V136.932Z" fill="#D1975D"/>
<path d="M47.4 153.064V162.551C47.1967 162.296 47.0084 162.044 46.824 161.784V152.294C47.0084 152.55 47.2004 152.809 47.4 153.061V153.064Z" fill="#FFE840"/>
<path d="M54.8802 159.352V168.843C54.6844 168.726 54.4924 168.606 54.3042 168.489V158.995C54.4924 159.115 54.6844 159.232 54.8802 159.352Z" fill="#FFE840"/>
<path d="M63.5843 163.517V173.011C63.3923 172.94 63.1965 172.868 63.0083 172.793V163.303C63.1965 163.378 63.3923 163.449 63.5843 163.517Z" fill="#FFE840"/>
<path d="M72.2918 166.057V175.548C72.0998 175.506 71.9078 175.465 71.7158 175.42V165.926C71.9078 165.971 72.0998 166.016 72.2918 166.057Z" fill="#FFE840"/>
<path d="M80.9957 167.422V176.912C80.8037 176.897 80.6117 176.874 80.4197 176.856V167.365C80.6117 167.388 80.8037 167.407 80.9957 167.422Z" fill="#FFE840"/>
<path d="M89.7032 167.812V177.303C89.5112 177.303 89.3192 177.307 89.1272 177.307V167.816C89.3192 167.816 89.5112 167.816 89.7032 167.812Z" fill="#FFE840"/>
<path d="M98.411 167.271V176.762C98.219 176.784 98.027 176.811 97.835 176.826V167.335C98.027 167.317 98.219 167.294 98.411 167.271Z" fill="#FFE840"/>
<path d="M107.115 165.73V175.221C106.923 175.27 106.731 175.315 106.539 175.36V165.866C106.731 165.821 106.923 165.776 107.115 165.73Z" fill="#FFE840"/>
<path d="M115.822 162.976V172.466C115.63 172.541 115.438 172.616 115.246 172.691V163.197C115.438 163.126 115.63 163.051 115.822 162.976Z" fill="#FFE840"/>
<path d="M124.53 158.45V167.94C124.342 168.064 124.15 168.192 123.954 168.316V158.822C124.15 158.698 124.342 158.574 124.53 158.446V158.45Z" fill="#FFE840"/>
<path d="M132.251 150.802V160.292C132.071 160.589 131.875 160.886 131.675 161.179V151.689C131.879 151.396 132.071 151.099 132.251 150.802Z" fill="#FFE840"/>
<path d="M85.1294 137.097L45.5516 165.14L38.4854 225.488L26.4573 225.119L25.1887 155.732C25.1171 152.613 26.5101 149.801 28.7463 147.956L29.6837 147.189L68.9376 115.113C74.7879 110.332 83.4089 111.193 88.1975 117.034C92.9862 122.875 92.1241 131.482 86.2738 136.263C85.9086 136.56 85.5171 136.845 85.1331 137.101L85.1294 137.097Z" fill="url(#paint0_linear_2273_60204)"/>
<path d="M112.039 140.913C111.64 141.214 111.211 141.488 110.789 141.74L71.5427 169.58L62.2064 236.997L49.9939 236.193L50.0353 234.073L51.1835 159.473C51.2475 156.316 52.7873 153.531 55.1364 151.768L56.0738 151.076L96.0882 121.44C98.9983 119.282 102.477 118.452 105.82 118.839H105.824C109.445 119.26 112.89 121.113 115.235 124.274C119.742 130.336 118.108 136.425 112.035 140.917L112.039 140.913Z" fill="url(#paint1_linear_2273_60204)"/>
<path d="M112.039 140.913C111.64 141.214 111.211 141.488 110.789 141.74L71.5427 169.58L62.2064 236.997L49.9939 236.193L50.0353 234.073L51.1835 159.473C51.2475 156.316 52.7873 153.531 55.1364 151.768L56.0738 151.076L96.0882 121.44C98.9983 119.282 102.477 118.452 105.82 118.839H105.824C109.445 119.26 112.89 121.113 115.235 124.274C119.742 130.336 118.108 136.425 112.035 140.917L112.039 140.913Z" fill="url(#paint2_linear_2273_60204)"/>
<path d="M94.8985 42.5359C94.8985 42.5359 87.9376 41.6113 84.8996 41.2054C84.0337 41.0889 83.1678 41.4234 82.5843 42.1187L82.509 42.2089C76.3086 49.6133 74.9232 59.1789 75.2846 68.8234L74.0536 84.989L71.2527 120.094C71.057 122.533 72.3256 124.856 74.479 126.021L85.1593 131.783C89.0294 133.869 93.2119 135.324 97.545 136.087L107.898 137.91C114.027 138.988 119.711 134.444 119.99 128.235C120.347 120.316 120.641 110.303 120.186 104.688C119.534 96.6856 123.555 72.3978 125.362 62.0655C125.866 59.1826 124.496 56.2998 121.944 54.8603C116.15 51.5978 106.945 46.5764 106.945 46.5764L94.8947 42.5359H94.8985Z" fill="url(#paint3_linear_2273_60204)"/>
<path d="M105.519 138.361C105.119 138.658 104.69 138.936 104.269 139.188L65.0222 167.02L55.6859 234.437L50.0352 234.069L51.1834 159.469C51.2474 156.312 52.7871 153.527 55.1363 151.764L56.0736 151.072L96.0881 121.436C98.9981 119.279 102.477 118.448 105.82 118.835H105.823C106.9 119.628 107.879 120.59 108.715 121.718C113.221 127.78 111.587 133.862 105.515 138.361H105.519Z" fill="url(#paint4_linear_2273_60204)"/>
<path d="M50.2234 236.193L49.7642 236.185L50.9576 159.465C51.0178 156.334 52.4935 153.463 55.0008 151.58L95.9526 121.248L96.2274 121.616L55.2794 151.944C52.885 153.741 51.4771 156.481 51.4206 159.469L50.2272 236.189L50.2234 236.193Z" fill="#292D32"/>
<path d="M94.4843 49.6962L88.747 91.7584L88.6755 92.277C88.3856 94.4044 86.7819 96.0394 84.8017 96.4829L45.2541 105.278C43.3303 105.706 41.4254 104.496 40.9962 102.576C40.5934 100.764 41.6626 98.9635 43.3981 98.4073L82.0121 86.1543L78.0667 90.8788L79.3128 48.4483C79.437 44.2463 82.9495 40.9425 87.1546 41.0628C91.3634 41.1868 94.6726 44.6898 94.5521 48.8919C94.5446 49.1625 94.522 49.4331 94.4843 49.6962Z" fill="url(#paint5_linear_2273_60204)"/>
<path d="M94.8985 42.5359C94.8985 42.5359 87.9376 41.6113 84.8996 41.2054C84.0337 41.0889 83.1678 41.4234 82.5843 42.1187L82.509 42.2089C76.3086 49.6133 74.9232 59.1789 75.2846 68.8234L74.0536 84.989L71.2527 120.094C71.057 122.533 72.3256 124.856 74.479 126.021L85.1593 131.783C89.0294 133.869 93.2119 135.324 97.545 136.087L107.898 137.91C114.027 138.988 119.711 134.444 119.99 128.235C120.347 120.316 120.641 110.303 120.186 104.688C119.534 96.6856 123.555 72.3978 125.362 62.0655C125.866 59.1826 124.496 56.2998 121.944 54.8603C116.15 51.5978 106.945 46.5764 106.945 46.5764L94.8947 42.5359H94.8985Z" fill="url(#paint6_linear_2273_60204)"/>
<path d="M109.694 138.297C109.084 138.297 108.47 138.244 107.86 138.135L97.5075 136.312C93.1443 135.542 88.9504 134.087 85.054 131.982L74.3737 126.221C72.1375 125.014 70.8237 122.601 71.027 120.075L73.8279 84.9703L75.0589 68.6769C74.6373 57.4651 76.7342 49.2676 81.6583 42.9006C82.2757 42.1038 83.0437 41.5062 83.8757 41.1717C84.2936 41.0025 84.6475 40.9387 84.9298 40.9762C87.9679 41.3822 94.9287 42.3068 94.9287 42.3068L94.9701 42.318L107.021 46.3585C107.149 46.4262 116.334 51.4363 122.061 54.665C124.688 56.1458 126.107 59.1376 125.588 62.1069C123.815 72.2438 119.764 96.682 120.415 104.673C120.878 110.378 120.566 120.643 120.22 128.254C120.084 131.276 118.65 134.095 116.282 135.985C114.399 137.493 112.065 138.297 109.69 138.297H109.694ZM84.7679 41.4273C84.5797 41.4273 84.3312 41.4874 84.0451 41.6002C83.2884 41.9046 82.5844 42.4534 82.0197 43.1825C77.1633 49.4556 75.0965 57.5591 75.5144 68.6844L74.2796 85.0079L71.4787 120.113C71.2905 122.458 72.5102 124.698 74.5883 125.818L85.2686 131.58C89.1236 133.659 93.2685 135.098 97.5865 135.861L107.939 137.684C110.797 138.188 113.733 137.436 115.999 135.628C118.262 133.82 119.632 131.122 119.764 128.231C120.107 120.635 120.419 110.39 119.96 104.707C119.305 96.6594 123.363 72.1761 125.14 62.0242C125.626 59.2466 124.3 56.4465 121.838 55.0634C116.112 51.8385 106.93 46.8283 106.84 46.7757L94.8459 42.7578C94.4167 42.7014 87.806 41.8219 84.8696 41.4273C84.8394 41.4235 84.8056 41.4197 84.7679 41.4197V41.4273Z" fill="#292D32"/>
<path d="M83.4426 9.91129C83.4426 9.91129 83.1302 16.673 84.1315 18.9056C85.3701 21.6756 88.9541 24.0022 88.9541 24.0022L90.6896 9.34375L83.4426 9.91129Z" fill="#704E34"/>
<path d="M107.31 38.1757C107.31 38.1757 100.843 34.3081 97.5073 35.789C94.1718 37.2699 91.7135 45.2268 91.7135 45.2268L90.3507 53.0559C90.0496 54.7961 91.8001 56.1792 93.4264 55.4839L106.004 50.1016C107.073 49.6431 107.649 48.4854 107.378 47.3616C106.531 43.8662 107.314 38.1757 107.314 38.1757H107.31Z" fill="#EFC392"/>
<path d="M84.4666 24.7123C84.6096 28.0838 86.044 31.3086 86.1607 34.68C86.2736 37.9049 85.3814 41.7424 87.7795 43.9036C89.4434 45.4032 91.962 45.3093 94.1944 45.1214C99.0847 44.7154 104.547 44.0201 107.604 40.1864C108.636 38.8896 109.287 37.3411 109.927 35.8151C110.834 33.6502 111.741 31.4853 112.649 29.3166C113.996 26.0992 115.367 22.7579 115.235 19.2737C115.092 15.4362 113.149 11.9219 111.252 8.58053C108.368 3.49895 97.2438 2.32251 92.1389 5.27675C86.6011 8.48281 84.2332 18.9241 84.4666 24.7086V24.7123Z" fill="#FFD89F"/>
<path d="M88.0431 13.929C89.0332 13.6283 90.1099 13.8876 90.8553 14.6018L92.4402 16.1202C92.8317 16.4961 93.3211 16.7517 93.852 16.8607L99.9093 18.0897C100.828 18.2776 101.6 18.9016 101.969 19.7623L102.488 20.9688C102.989 22.1377 104.201 22.833 105.466 22.6789L107.552 22.4234C108.831 22.2655 108.907 23.6975 109.392 24.889L109.652 28.2717C110.454 30.2261 114.294 27.4749 115.698 25.8963L116.045 25.5054C116.301 25.216 116.496 24.8815 116.621 24.5131C117.023 23.3141 117.678 20.3223 117.012 14.613C116.101 6.80649 113.624 2.51421 109.193 1.99552C104.762 1.47684 97.466 -1.25564 94.2096 0.695057C90.9532 2.64576 83.0023 3.68688 82.8743 6.93804C82.799 8.80229 83.8305 11.0349 84.7189 12.5984C85.3815 13.7636 86.7594 14.3161 88.0431 13.929Z" fill="#89603E"/>
<path d="M111.358 25.8177C111.358 25.8177 112.103 30.7528 110.548 34.3422C108.993 37.9316 112.193 33.8648 112.193 33.8648L116.624 24.5098L111.361 25.814L111.358 25.8177Z" fill="#89603E"/>
<path d="M50.2121 235.531C50.2121 235.531 44.8814 242.105 42.8485 243.026C40.8155 243.947 29.1 251.9 34.8222 254.11C40.5445 256.32 48.9397 255.76 51.8045 253.005C56.0473 248.923 61.122 249.475 61.8599 247.45C62.5978 245.424 62.8764 235.666 62.8764 235.666L50.2121 235.527V235.531Z" fill="#1A142D"/>
<path d="M26.8524 223.797C26.8524 223.797 22.3235 230.239 20.2944 231.16C18.2653 232.081 6.54592 240.034 12.2682 242.244C17.9904 244.454 26.3856 243.894 29.2505 241.139C33.4933 237.057 38.568 237.61 39.3059 235.584C40.0437 233.558 39.3849 223.797 39.3849 223.797H26.8524Z" fill="#1A142D"/>
<path d="M71.0684 139.913L67.9324 142.063L67.876 143.972C68.1696 143.994 68.467 143.916 68.7193 143.743L93.0464 126.994C94.2172 126.186 94.733 124.905 94.6388 123.672L94.4657 121.537L93.8822 121.691C93.5396 121.24 93.0878 120.86 92.5193 120.59L68.6026 109.307L71.0646 139.916L71.0684 139.913Z" fill="#4F5D7C"/>
<path d="M9.48999 114.493L9.55775 115.358C9.62175 116.121 10.0886 116.797 10.785 117.124L67.4241 143.844C67.5709 143.911 67.7253 143.953 67.8759 143.968L67.9324 142.059L9.48999 114.493Z" fill="#292D32"/>
<path d="M9.48999 114.493L67.9324 142.062L71.0683 139.913L68.6062 109.303L65.1653 107.683L46.9934 99.1058C42.6114 97.0386 37.4538 97.4558 33.4633 100.207L12.1779 114.862L9.48999 114.493Z" fill="#7B5BAA"/>
<path d="M67.9286 142.059L9.48999 114.486L33.2976 98.0948C37.2881 95.3473 42.4457 94.9263 46.8278 96.9973L92.3536 118.478C94.9437 119.699 95.2336 123.262 92.8769 124.886L67.9324 142.063L67.9286 142.059Z" fill="white"/>
<path d="M71.4787 131.618L26.1147 110.107L41.0604 99.8164L86.4244 121.327L71.4787 131.618Z" fill="#FF758D"/>
<path d="M129.612 66.1212L124.594 110.604L124.511 111.341C124.191 114.182 122.064 116.388 119.41 116.952L77.5397 125.815C75.1906 126.311 72.8791 124.815 72.3821 122.466C71.9229 120.308 73.1577 118.185 75.1868 117.471L115.54 103.233L110.356 109.585L111.734 64.8433C111.885 59.9008 116.022 56.0144 120.976 56.1685C125.927 56.3188 129.819 60.4495 129.665 65.3958C129.657 65.6363 129.639 65.8882 129.612 66.1249V66.1212Z" fill="url(#paint7_linear_2273_60204)"/>
<path d="M77.8145 116.47C78.8573 117.436 79.5161 118.661 79.6441 119.868L79.3542 124.123C79.486 125.386 78.6465 126.355 77.3213 126.464L70.5713 127.671L69.7845 118.353L74.8103 118.158L72.7322 117.658C71.0306 117.252 69.3628 116.493 67.8645 115.452C66.8405 114.738 66.2005 113.651 66.1968 112.618C66.1968 112.103 66.8217 111.915 67.3337 112.272L68.241 112.903C69.6828 113.907 71.3393 114.512 72.9506 114.621L73.8089 114.677C75.2282 114.771 76.6851 115.425 77.8145 116.47Z" fill="#FFD89F"/>
<path d="M69.7884 118.354L64.8906 119.053L60.1886 118.876C60.0681 118.872 60.0003 118.966 60.038 119.075C60.0531 119.116 60.0719 119.165 60.0982 119.218C60.4182 119.864 61.1109 120.349 61.83 120.458L65.5268 121.003L71.1738 121.229L69.7884 118.354Z" fill="#FFD89F"/>
<path d="M70.6052 123.529L68.9788 123.789C68.4028 123.883 67.7741 123.841 67.1454 123.668L64.1488 122.845C63.8777 122.77 63.618 122.623 63.4072 122.428L62.2439 121.338C62.0255 121.135 61.9502 120.842 62.0895 120.654C62.2363 120.455 62.5563 120.436 62.8236 120.605L63.4147 120.977C63.7046 121.158 64.017 121.285 64.337 121.346L67.1981 121.898C67.5558 121.966 67.9059 121.962 68.2184 121.879L70.5901 121.27L70.6014 123.529H70.6052Z" fill="#FFD89F"/>
<path d="M70.5602 123.582L68.0792 124.176C67.94 124.209 67.7856 124.217 67.6275 124.198L65.7414 123.976C65.5682 123.958 65.3951 123.901 65.2294 123.819L63.2567 122.823C62.9819 122.683 62.692 122.781 62.6506 123.026C62.6092 123.274 62.7523 123.559 63.012 123.74L64.6497 124.878C65.0035 125.123 65.3951 125.296 65.7941 125.382L68.0303 125.852C68.211 125.89 68.3917 125.905 68.5611 125.893L70.6279 125.769L70.5639 123.578L70.5602 123.582Z" fill="#FFD89F"/>
<path d="M70.8423 125.803L68.4141 126.04C68.015 126.077 67.5783 125.976 67.1868 125.754L66.3097 125.254C66.0235 125.093 65.6998 125.126 65.5567 125.333C65.4664 125.461 65.5304 125.664 65.696 125.78L66.3285 126.22C66.9534 126.656 67.6536 126.972 68.3652 127.141L70.575 127.667L70.8423 125.799V125.803Z" fill="#FFD89F"/>
<path d="M63.1474 92.8933C63.7761 94.0284 64.1676 95.2988 64.273 96.6368L65.1615 107.68L67.9248 142.059L71.0607 139.909L68.5986 109.299L67.4052 94.4832C67.2923 93.1376 66.9045 91.8635 66.2683 90.7246L63.1399 92.8895L63.1474 92.8933Z" fill="#212838"/>
<path d="M66.2759 90.7283L63.1512 92.8895C62.2214 91.2019 60.772 89.815 58.9687 88.9618L10.3295 66.0232C9.2302 65.5046 8.05563 65.6812 7.17847 66.2863L10.3144 64.1327C11.1916 63.5276 12.3624 63.3547 13.4617 63.8696L62.0971 86.8081C63.8966 87.6576 65.3423 89.037 66.2721 90.7208L66.2759 90.7283Z" fill="#414D68"/>
<path d="M64.277 96.6326L67.6275 138.289L12.6222 112.343L9.01572 67.515L8.99689 67.5639L7.1748 66.2897H7.18233C8.0595 65.6808 9.23407 65.5079 10.3333 66.0266L58.9726 88.9652C60.7758 89.8146 62.2252 91.2053 63.1551 92.8929C63.78 94.0279 64.1716 95.2983 64.2807 96.6364L64.277 96.6326Z" fill="#00CBFC"/>
<path d="M5.83833 69.1273L9.49003 114.493L67.9324 142.062L65.1692 107.683L64.2807 96.64C64.1715 95.302 63.7838 94.0316 63.1551 92.8965C62.229 91.2127 60.7796 89.8182 58.9725 88.9725L10.3296 66.0265C9.23027 65.5078 8.05947 65.6844 7.17854 66.2896C7.17854 66.2896 7.17854 66.2933 7.17478 66.2933C6.30891 66.8985 5.74045 67.9283 5.83833 69.1311V69.1273Z" fill="url(#paint8_linear_2273_60204)"/>
<path d="M5.83833 69.1273L9.49003 114.493L67.9324 142.062L65.1692 107.683L64.2807 96.64C64.1715 95.302 63.7838 94.0316 63.1551 92.8965C62.229 91.2127 60.7796 89.8182 58.9725 88.9725L10.3296 66.0265C9.23027 65.5078 8.05947 65.6844 7.17854 66.2896C7.17854 66.2896 7.17854 66.2933 7.17478 66.2933C6.30891 66.8985 5.74045 67.9283 5.83833 69.1311V69.1273Z" fill="url(#paint9_linear_2273_60204)"/>
</g>
<defs>
<linearGradient id="paint0_linear_2273_60204" x1="25.1836" y1="168.755" x2="91.2927" y2="168.755" gradientUnits="userSpaceOnUse">
<stop stop-color="#212838"/>
<stop offset="1" stop-color="#5D6F98"/>
</linearGradient>
<linearGradient id="paint1_linear_2273_60204" x1="49.9939" y1="177.867" x2="117.81" y2="177.867" gradientUnits="userSpaceOnUse">
<stop stop-color="#2E256B"/>
<stop offset="1" stop-color="#5A3087"/>
</linearGradient>
<linearGradient id="paint2_linear_2273_60204" x1="49.9951" y1="177.874" x2="117.809" y2="177.874" gradientUnits="userSpaceOnUse">
<stop stop-color="#292D32"/>
<stop offset="1" stop-color="#212838"/>
</linearGradient>
<linearGradient id="paint3_linear_2273_60204" x1="71.2339" y1="89.627" x2="125.467" y2="89.627" gradientUnits="userSpaceOnUse">
<stop stop-color="#292D32"/>
<stop offset="1" stop-color="#212838"/>
</linearGradient>
<linearGradient id="paint4_linear_2273_60204" x1="50.0329" y1="176.59" x2="111.286" y2="176.59" gradientUnits="userSpaceOnUse">
<stop stop-color="#212838"/>
<stop offset="1" stop-color="#5D6F98"/>
</linearGradient>
<linearGradient id="paint5_linear_2273_60204" x1="40.9094" y1="73.2117" x2="94.5547" y2="73.2117" gradientUnits="userSpaceOnUse">
<stop stop-color="#212838"/>
<stop offset="1" stop-color="#5D6F98"/>
</linearGradient>
<linearGradient id="paint6_linear_2273_60204" x1="71.2339" y1="89.627" x2="125.467" y2="89.627" gradientUnits="userSpaceOnUse">
<stop stop-color="#292D32"/>
<stop offset="1" stop-color="#212838"/>
</linearGradient>
<linearGradient id="paint7_linear_2273_60204" x1="72.2843" y1="91.0367" x2="129.669" y2="91.0367" gradientUnits="userSpaceOnUse">
<stop stop-color="#212838"/>
<stop offset="1" stop-color="#5D6F98"/>
</linearGradient>
<linearGradient id="paint8_linear_2273_60204" x1="5.82851" y1="103.893" x2="67.9345" y2="103.893" gradientUnits="userSpaceOnUse">
<stop stop-color="#B51D38"/>
<stop offset="1" stop-color="#E31337"/>
</linearGradient>
<linearGradient id="paint9_linear_2273_60204" x1="5.82851" y1="103.893" x2="67.9345" y2="103.893" gradientUnits="userSpaceOnUse">
<stop stop-color="#292D32"/>
<stop offset="1" stop-color="#212838"/>
</linearGradient>
<clipPath id="clip0_2273_60204">
<rect width="178" height="273" fill="white" transform="translate(0.5)"/>
</clipPath>
</defs>
</svg>
