<svg xmlns="http://www.w3.org/2000/svg" width="25" height="25" fill="none" viewBox="0 0 25 25">
  <path stroke="currentColor" stroke-linecap="round" stroke-linejoin="round" stroke-width="1.5" d="M12.5 22.917c5.753 0 10.417-4.664 10.417-10.417S18.253 2.083 12.5 2.083 2.084 6.747 2.084 12.5 6.747 22.917 12.5 22.917Z"/>
  <path stroke="currentColor" stroke-linecap="round" stroke-linejoin="round" stroke-width="1.5" d="M8.333 3.125h1.042a29.608 29.608 0 0 0 0 18.75H8.333m7.292-18.75a29.609 29.609 0 0 1 0 18.75"/>
  <path stroke="currentColor" stroke-linecap="round" stroke-linejoin="round" stroke-width="1.5" d="M3.125 16.667v-1.042a29.609 29.609 0 0 0 18.75 0v1.042M3.125 9.375a29.608 29.608 0 0 1 18.75 0"/>
</svg>
