<svg xmlns="http://www.w3.org/2000/svg" viewBox="0 0 17.411 19.667"><defs><style>.a{fill:#fff;}</style></defs><g transform="translate(-29.015)"><path class="a" d="M42.764,5.986a7.809,7.809,0,0,0,1-.838A4.289,4.289,0,0,0,44.986,2.9,2.5,2.5,0,0,0,44.371.662,2.339,2.339,0,0,0,42.674,0a4.054,4.054,0,0,0-2.788,1.27,10.975,10.975,0,0,0-2.45,4.347,8.875,8.875,0,0,0-2.06-4.167A3.114,3.114,0,0,0,33.2.506a2.282,2.282,0,0,0-1.637.651,2.719,2.719,0,0,0,.293,3.811,6.263,6.263,0,0,0,1.374,1.018H29.015v4.975h1.244v8.706H45.183V10.961h1.244V5.986H42.764ZM40.875,2.259a2.7,2.7,0,0,1,1.8-.86.992.992,0,0,1,.708.253c.506.506.222,1.677-.608,2.507a8.762,8.762,0,0,1-3,1.828h-.985A9.532,9.532,0,0,1,40.875,2.259Zm-8.558.635a.954.954,0,0,1,.237-.748.9.9,0,0,1,.648-.241h0a1.717,1.717,0,0,1,1.184.534,6.912,6.912,0,0,1,1.568,3.029l.029.107-.107-.029a6.912,6.912,0,0,1-3.029-1.568A1.77,1.77,0,0,1,32.317,2.894Zm4.16,15.529H31.5V10.339h4.975Zm0-8.706H30.259V7.23h6.218Zm7.462,8.706H38.964V10.339h4.975Zm1.244-8.706H38.964V7.23h6.218Z" transform="translate(0 0)"/></g></svg>