<svg xmlns="http://www.w3.org/2000/svg" width="19.384" height="19.999" viewBox="0 0 19.384 19.999"><defs><style>.a{fill:#fff;}</style></defs><g transform="translate(-2 -1.001)"><path class="a" d="M21.8,7.357,17.643,3.2a.692.692,0,0,0-1.182.489V5.769H6.077a2.077,2.077,0,0,0,0,4.154H16.461V12a.692.692,0,0,0,1.182.489L21.8,8.336a.692.692,0,0,0,0-.979Z" transform="translate(-0.615 -2)"/><path class="a" d="M17.923,17.769H7.539V15.692A.692.692,0,0,0,6.357,15.2L2.2,19.357a.693.693,0,0,0,0,.979l4.154,4.154A.692.692,0,0,0,7.539,24V21.923H17.923a2.077,2.077,0,0,0,0-4.154Z" transform="translate(0 -3.692)"/></g></svg>