<svg xmlns="http://www.w3.org/2000/svg" width="38.656" height="25.771" viewBox="0 0 38.656 25.771"><defs><style>.a{fill:#fff;}</style></defs><g transform="translate(0 -10.666)"><path class="a" d="M38.012,36.437H10.953a.644.644,0,0,1-.493-.23L.152,23.967a.645.645,0,0,1,0-.83L10.46,10.9a.644.644,0,0,1,.493-.23H38.012a.645.645,0,0,1,.644.644V35.792A.646.646,0,0,1,38.012,36.437Zm-26.76-1.288H37.367V11.955H11.252l-9.765,11.6Z" transform="translate(0)"/><path class="a" d="M39.752,34a.643.643,0,0,1-.455-.189L28.989,23.5a.644.644,0,1,1,.911-.911L40.208,32.9a.644.644,0,0,1-.456,1.1Z" transform="translate(-11.405 -4.647)"/><path class="a" d="M29.445,34a.644.644,0,0,1-.455-1.1L39.3,22.588a.644.644,0,0,1,.911.911L29.9,33.807A.643.643,0,0,1,29.445,34Z" transform="translate(-11.405 -4.646)"/></g></svg>