<svg xmlns="http://www.w3.org/2000/svg" width="286" height="61.122" viewBox="0 0 286 61.122"><defs><style>.a{fill:#fff;}.b{fill:#e31337;}</style></defs><path class="a" d="M118.711,30.786a16.214,16.214,0,0,0-1.282-1.024,17.087,17.087,0,0,0-4.563-2.376l-.055-.018A17.369,17.369,0,0,0,91.639,51.476l-1,1.136L76.618,68.536a6.627,6.627,0,0,0-1.148,6.93,6.56,6.56,0,0,0,1.742,2.424,6.63,6.63,0,0,0,9.36-.606c.033-.036.07-.076.1-.115h0A4.027,4.027,0,0,0,92.1,71.233l-.118-.088c-.033-.024-.064-.052-.091-.076s-.13-.124-.191-.188a2.488,2.488,0,0,1,3.482-3.548l.085.079.018-.018a4.027,4.027,0,0,0,5.321-6.039l.994-1.13a17.36,17.36,0,0,0,17.109-29.457Zm-3.785,14.151a6.412,6.412,0,0,1-1.818,1.448,6.518,6.518,0,1,1,1.818-1.448Z" transform="translate(-52.246 -18.435)"/><path class="b" d="M26.288,34.17a4.021,4.021,0,0,0,2.591-4.976l1.424-.476a17.4,17.4,0,0,0,7.1,4.924A17.366,17.366,0,0,1,56.135,5.51a17.366,17.366,0,0,0-30,10.606l-1.439.476L4.546,23.286A6.631,6.631,0,0,0,8.722,35.873l.145-.048h0a4.027,4.027,0,0,0,7.679-2.391c-.021-.042-.039-.091-.058-.136a.606.606,0,0,1-.039-.109c-.03-.088-.052-.176-.073-.261a2.491,2.491,0,0,1,4.8-1.309.525.525,0,0,0,.033.112h.024a4.027,4.027,0,0,0,5.057,2.439Z" transform="translate(-0.001 -0.011)"/><path class="a" d="M270.748,43.956l14.545-16.533a.7.7,0,0,0-.445-1.233h-4.624a3.606,3.606,0,0,0-2.615,1.282L266.9,40.847h-.985l1.876-13.078a1.379,1.379,0,0,0-1.382-1.579h-3.654a1.818,1.818,0,0,0-1.776,1.579l-4.442,31.393a1.321,1.321,0,0,0,1.333,1.579h3.7a1.848,1.848,0,0,0,1.767-1.579L264.96,47.61h.888l7.109,11.9a2.727,2.727,0,0,0,2.318,1.233h5.133a.815.815,0,0,0,.742-1.185Z" transform="translate(-178.79 -18.257)"/><path class="a" d="M372.085,26.189H354.612a1.818,1.818,0,0,0-1.776,1.579L348.394,59.16a1.322,1.322,0,0,0,1.333,1.579h17.878a1.794,1.794,0,0,0,1.727-1.579l.345-2.47a1.279,1.279,0,0,0-1.333-1.515h-12.5l1.185-8.442h9.821a1.848,1.848,0,0,0,1.776-1.579l.345-2.424a1.32,1.32,0,0,0-1.333-1.579h-9.815l1.285-9.33H371.3a1.888,1.888,0,0,0,1.776-1.515l.345-2.539a1.321,1.321,0,0,0-1.333-1.579Z" transform="translate(-242.816 -18.256)"/><path class="a" d="M464.4,26.188h-4a2.788,2.788,0,0,0-2.318,1.43l-8.182,15.2-4.009-15.2a1.927,1.927,0,0,0-1.924-1.43h-4.2a1.1,1.1,0,0,0-1.085,1.382L445.5,48.89l-1.482,10.269a1.354,1.354,0,0,0,1.391,1.576h3.751a1.8,1.8,0,0,0,1.727-1.579l1.482-10.366,12.681-21.211A.836.836,0,0,0,464.4,26.188Z" transform="translate(-305.717 -18.255)"/><path class="a" d="M636.88,59.161l4.442-31.393a1.345,1.345,0,0,0-1.333-1.579h-3.8a1.794,1.794,0,0,0-1.727,1.579l-1.876,13.424H622.123L624,27.768a1.291,1.291,0,0,0-1.285-1.579h-3.751a1.818,1.818,0,0,0-1.776,1.579l-4.442,31.393a1.322,1.322,0,0,0,1.333,1.579h3.8a1.833,1.833,0,0,0,1.727-1.579l1.727-12.339h10.415L630.02,59.161a1.345,1.345,0,0,0,1.333,1.579H635.1A1.818,1.818,0,0,0,636.88,59.161Z" transform="translate(-427.063 -18.257)"/><path class="a" d="M730.543,59.255l-6.218-31.587A1.97,1.97,0,0,0,722.4,26.19h-3.306a2.773,2.773,0,0,0-2.318,1.479L701.711,59.255a.967.967,0,0,0,.839,1.482H706.6a2.458,2.458,0,0,0,2.173-1.515l2.961-6.812h10.588l1.085,6.86a1.767,1.767,0,0,0,1.779,1.482h4.145a1.236,1.236,0,0,0,1.218-1.5ZM714.01,47.065l5.479-12.833,1.973,12.833Z" transform="translate(-488.99 -18.257)"/><path class="a" d="M817.035,26.189h-3.754a1.818,1.818,0,0,0-1.779,1.579l-4.439,31.393a1.319,1.319,0,0,0,1.33,1.579h3.794a1.839,1.839,0,0,0,1.73-1.579l4.4-31.393a1.288,1.288,0,0,0-1.279-1.579Z" transform="translate(-562.498 -18.257)"/><path class="a" d="M874.884,26.19h-3.7a1.754,1.754,0,0,0-1.727,1.579L866.729,48.3l-7.639-20.73a2.258,2.258,0,0,0-2.073-1.382h-4a1.818,1.818,0,0,0-1.779,1.579L846.8,59.162a1.319,1.319,0,0,0,1.33,1.579h3.7a1.751,1.751,0,0,0,1.685-1.579l2.764-20.433,7.5,20.63a2.255,2.255,0,0,0,2.073,1.382h4.145a1.885,1.885,0,0,0,1.776-1.579l4.388-31.393a1.312,1.312,0,0,0-1.285-1.579Z" transform="translate(-590.196 -18.257)"/><path class="a" d="M542.736,29.6a17.272,17.272,0,1,0-4.085,29.554,1.109,1.109,0,0,0,.506-.421,3.464,3.464,0,0,0,.576-1.915l.606-4.773a1.045,1.045,0,0,0-1.712-.933,10.3,10.3,0,1,1,1.8-13.921,1.052,1.052,0,0,0,1.906-.461l.8-6.142a1.085,1.085,0,0,0-.4-.988Z" transform="translate(-358.803 -18.063)"/><circle class="a" cx="6.515" cy="6.515" r="6.515" transform="translate(166.907 18.754)"/><path class="a" d="M640.81,159.12v12.727h1.454V166.52H647.9v-1.382h-5.636V160.5h8.272V159.12H640.81Z" transform="translate(-446.632 -110.907)"/><path class="a" d="M683.7,158.52a6.547,6.547,0,1,0,6.691,6.545A6.482,6.482,0,0,0,683.7,158.52Zm0,11.691a5.152,5.152,0,1,1,5.236-5.151A5.015,5.015,0,0,1,683.7,170.211Z" transform="translate(-471.848 -110.488)"/><path class="a" d="M742.2,162.938a3.857,3.857,0,0,0-4.145-3.818H731.42v12.727h1.455V166.72h5.018l3.473,5.127h1.564v-.109l-3.53-5.2A3.679,3.679,0,0,0,742.2,162.938Zm-9.327,2.424v-4.848H738a2.443,2.443,0,1,1,0,4.848Z" transform="translate(-509.785 -110.907)"/><path class="a" d="M805.846,164.611h-8.182V159.12H796.21v12.727h1.454v-5.854h8.182v5.854H807.3V159.12h-1.455Z" transform="translate(-554.942 -110.907)"/><rect class="a" width="1.455" height="12.727" transform="translate(256.231 48.213)"/><path class="a" d="M864.686,170.065l-4.927-10.945H858.25v.127l5.745,12.6h1.364l5.763-12.6v-.127h-1.509Z" transform="translate(-598.183 -110.907)"/><path class="a" d="M909.984,166.156h5.364v-1.382h-5.364V160.5h8.327V159.12H908.53v12.727H918.4v-1.4h-8.418Z" transform="translate(-633.227 -110.907)"/><rect class="b" width="103.633" height="1.515" transform="translate(77.818 54.207)"/></svg>