<svg xmlns="http://www.w3.org/2000/svg" width="97.797" height="82.582" viewBox="0 0 97.797 82.582"><defs><style>.a{fill:#fff;}.b{fill:#e31337;}</style></defs><g transform="translate(-156 -247)"><path class="a" d="M134.087,32.311a21.912,21.912,0,0,0-1.732-1.384,23.093,23.093,0,0,0-6.167-3.211l-.074-.025A23.474,23.474,0,0,0,97.5,60.273l-1.356,1.536L77.2,83.329a8.956,8.956,0,0,0-1.552,9.366A8.866,8.866,0,0,0,78,95.971a8.96,8.96,0,0,0,12.65-.819c.045-.049.094-.1.135-.156h0a5.442,5.442,0,0,0,7.334-8.022l-.16-.119c-.045-.033-.086-.07-.123-.1s-.176-.168-.258-.254a3.362,3.362,0,0,1,4.705-4.8l.115.106.025-.025a5.442,5.442,0,0,0,7.191-8.162l1.343-1.528a23.461,23.461,0,0,0,23.121-39.809Zm-5.115,19.124a8.665,8.665,0,0,1-2.457,1.957,8.809,8.809,0,1,1,2.457-1.958Z" transform="translate(111.736 231.38)"/><path class="b" d="M35.526,46.175a5.434,5.434,0,0,0,3.5-6.724l1.925-.643a23.514,23.514,0,0,0,9.595,6.655A23.469,23.469,0,0,1,75.864,7.443,23.469,23.469,0,0,0,35.322,21.776l-1.945.643L6.143,31.466a8.961,8.961,0,0,0,5.643,17.011l.2-.066h0A5.442,5.442,0,0,0,22.36,45.18c-.029-.057-.053-.123-.078-.184a.819.819,0,0,1-.053-.147c-.041-.119-.07-.238-.1-.352a3.366,3.366,0,0,1,6.483-1.769.709.709,0,0,0,.045.152h.033a5.442,5.442,0,0,0,6.835,3.3Z" transform="translate(155.999 246.989)"/></g></svg>