<svg id="Layer_1" data-name="Layer 1" xmlns="http://www.w3.org/2000/svg" viewBox="0 0 378.7 135.58"><defs><style>.cls-1{fill:#111;}.cls-2{fill:#1d94ff;}.cls-3{fill:#ccf5ff;}</style></defs><path class="cls-1" d="M35,17.76a7.4,7.4,0,0,1-14.8,0,7.56,7.56,0,0,1,7.4-7.6A7.56,7.56,0,0,1,35,17.76Zm-2.1,81.8H22.1V43.36H32.9Z"/><path class="cls-1" d="M117.2,51h.2c3.4-6,10.1-9.2,16.9-9.2,15.8,0,19.9,10.7,19.9,24.4v33.4H143.4V67.36c0-9.6-1.3-16.1-12.4-16.1-13.9,0-13.9,12.2-13.9,22.4v25.9H106.3V43.36h10.8V51Z"/><path class="cls-1" d="M219.8,71.56a30,30,0,1,1-30-29.9C206.6,41.76,219.8,54.66,219.8,71.56Zm-49.2,0c0,10.6,8.5,19.6,19.2,19.6s19.2-9,19.2-19.6A19.42,19.42,0,0,0,189.8,52C179.1,52,170.6,61,170.6,71.56Z"/><path class="cls-1" d="M235.7,50.46h.2c3.1-4.9,8.8-8.8,14.9-8.8,7.3,0,12.6,3.7,16.2,10a20.34,20.34,0,0,1,17.3-10c14.8,0,18.6,11.5,18.6,24.2v33.7H292.1V67.76c0-7.2-1-16.4-10.4-16.4-11.5,0-12.4,12-12.4,20.6v27.6H258.5V69.76c0-7.3-.4-18.5-10.3-18.5-11.5,0-12.5,11.9-12.5,20.6v27.7H224.9V43.36h10.8Z"/><path class="cls-1" d="M304,43.36h12.6l19,35.6,17.6-35.6h12.1l-45.5,88.3H307.6l22.1-41.8Z"/><circle class="cls-2" cx="70.29" cy="71.91" r="7.82"/><path class="cls-2" d="M97.39,71.91A27,27,0,0,0,89.67,53a7.65,7.65,0,0,0,.24-1.92,7.82,7.82,0,0,0-13.35-5.53,26.44,26.44,0,0,0-6.27-.74A27.09,27.09,0,0,0,44.22,64.56a7.83,7.83,0,0,0,0,14.7A27.09,27.09,0,0,0,70.29,99a26.44,26.44,0,0,0,6.27-.74,7.82,7.82,0,0,0,13.35-5.53,7.65,7.65,0,0,0-.24-1.92A27,27,0,0,0,97.39,71.91ZM86,86a7.81,7.81,0,0,0-11.74,6.65A21.09,21.09,0,0,1,50.39,78.91a7.82,7.82,0,0,0,0-14A21.09,21.09,0,0,1,74.27,51.19,7.81,7.81,0,0,0,86,57.84,21.09,21.09,0,0,1,86,86Z"/><circle class="cls-2" cx="70.29" cy="71.91" r="7.82"/><path class="cls-2" d="M97.39,71.91A27,27,0,0,0,89.67,53a7.65,7.65,0,0,0,.24-1.92,7.82,7.82,0,0,0-13.35-5.53,26.44,26.44,0,0,0-6.27-.74A27.09,27.09,0,0,0,44.22,64.56a7.83,7.83,0,0,0,0,14.7A27.09,27.09,0,0,0,70.29,99a26.44,26.44,0,0,0,6.27-.74,7.82,7.82,0,0,0,13.35-5.53,7.65,7.65,0,0,0-.24-1.92A27,27,0,0,0,97.39,71.91ZM86,86a7.81,7.81,0,0,0-11.74,6.65A21.09,21.09,0,0,1,50.39,78.91a7.82,7.82,0,0,0,0-14A21.09,21.09,0,0,1,74.27,51.19,7.81,7.81,0,0,0,86,57.84,21.09,21.09,0,0,1,86,86Z"/><circle class="cls-2" cx="70.68" cy="71.44" r="25.59"/><circle class="cls-3" cx="70.3" cy="71.91" r="7.82"/><circle class="cls-1" cx="46.91" cy="71.91" r="7.82"/><circle class="cls-1" cx="82.09" cy="92.74" r="7.82"/><circle class="cls-1" cx="82.09" cy="51.08" r="7.82"/><path class="cls-1" d="M97.39,71.91A27.1,27.1,0,1,1,70.3,44.81,27.14,27.14,0,0,1,97.39,71.91Zm-48.19,0a21.1,21.1,0,1,0,21.1-21.1A21.09,21.09,0,0,0,49.2,71.91Z"/></svg>