<svg xmlns="http://www.w3.org/2000/svg" width="14.596" height="14.596" viewBox="0 0 14.596 14.596"><defs><style>.a{fill:#fff;}</style></defs><path class="a" d="M12.885,14.6H5.131a1.712,1.712,0,0,1-1.71-1.71V5.131a1.712,1.712,0,0,1,1.71-1.71h7.754a1.712,1.712,0,0,1,1.71,1.71v7.754A1.712,1.712,0,0,1,12.885,14.6ZM5.131,4.561a.571.571,0,0,0-.57.57v7.754a.571.571,0,0,0,.57.57h7.754a.571.571,0,0,0,.57-.57V5.131a.571.571,0,0,0-.57-.57ZM2.281,10.035H1.71a.571.571,0,0,1-.57-.57V1.71a.571.571,0,0,1,.57-.57H9.464a.571.571,0,0,1,.57.57v.542h1.14V1.71A1.712,1.712,0,0,0,9.464,0H1.71A1.712,1.712,0,0,0,0,1.71V9.464a1.712,1.712,0,0,0,1.71,1.71h.57Zm0,0"/></svg>