<svg xmlns="http://www.w3.org/2000/svg" width="16.527" height="17.708" viewBox="0 0 16.527 17.708"><defs><style>.a{fill:#fff;}</style></defs><g transform="translate(-2 -1)"><path class="a" d="M2.59,4.542H3.771V16.63a2.084,2.084,0,0,0,2.078,2.078H14.7a2.084,2.084,0,0,0,2.054-2.078V4.542h1.181a.59.59,0,0,0,0-1.181H13.805V2.181A1.181,1.181,0,0,0,12.654,1H7.9A1.181,1.181,0,0,0,6.722,2.181V3.361H2.59a.59.59,0,1,0,0,1.181ZM7.9,2.181h4.722V3.361H7.9ZM6.722,4.542h8.854V16.63a.9.9,0,0,1-.9.9H5.825a.9.9,0,0,1-.874-.9V4.542Z"/><path class="a" d="M12.27,19.264a.59.59,0,0,0,.59-.59V11.59a.59.59,0,0,0-1.181,0v7.083A.59.59,0,0,0,12.27,19.264Z" transform="translate(-3.966 -4.097)"/><path class="a" d="M18.91,19.264a.59.59,0,0,0,.59-.59V11.59a.59.59,0,1,0-1.181,0v7.083A.59.59,0,0,0,18.91,19.264Z" transform="translate(-6.687 -4.097)"/></g></svg>