<svg xmlns="http://www.w3.org/2000/svg" width="20.043" height="12.956" viewBox="0 0 20.043 12.956"><defs><style>.a{fill:#fff;}</style></defs><g transform="translate(-0.001 -91.866)"><path class="a" d="M10.022,104.823c-3.751,0-7.343-2.76-9.714-5.625a1.342,1.342,0,0,1,0-1.709,20.083,20.083,0,0,1,3.514-3.325c4.2-3.059,8.189-3.065,12.4,0a20.467,20.467,0,0,1,3.514,3.325,1.342,1.342,0,0,1,0,1.709C17.366,102.062,13.774,104.823,10.022,104.823Zm0-11.725c-4.156,0-7.758,3.963-8.763,5.178a.106.106,0,0,0,0,.136c1.005,1.215,4.607,5.178,8.763,5.178s7.758-3.963,8.763-5.178a.108.108,0,0,0,0-.136C17.78,97.06,14.178,93.1,10.022,93.1Z" transform="translate(0)"/><path class="a" d="M152.142,156.416a4.32,4.32,0,1,1,4.32-4.32A4.325,4.325,0,0,1,152.142,156.416Zm0-7.406a3.086,3.086,0,1,0,3.086,3.086A3.089,3.089,0,0,0,152.142,149.01Z" transform="translate(-142.12 -53.753)"/></g></svg>